/* XPM */
static char *dir_pd_xpm[] = {
/* width height num_colors chars_per_pixel */
"    16    16        7           1",
/* colors */
". c none",
"# c #ffe79c",
"a c #c6864a",
"b c #ffc78c",
"c c #000000",
"d c #ff0000",
"e c #ffffff",
/* pixels */
"................",
"...###a ........",
"..b#bbba. ......",
".bbbbbbbbbbbbbb.",
"bb#############c",
"b#bbbbdddbbbbbac",
"b#bbbdddddbbbbac",
"b#bbdddddddbbbac",
"b#bbdddddddbbbac",
"b#bddeeeeeddbbac",
"b#bbdddddddbbbac",
"b#bbdddddddbbbac",
"b#bbbdddddbbbbac",
"b#aaaadddaaaaaac",
".ccccccccccccccc",
"................"
};
