/* XPM */
static char * exe_lnk_xpm[] = {
"16 16 5 1",
" 	c None",
".	c black",
"X	c blue",
"o	c gray",
"O	c white",
"                ",
" .............  ",
" .XXXXXXXXXXX.o ",
" .XXXXXXXXXXX.o ",
" .............o ",
" .OOOOOOXXOOO.o ",
" .OOOOOOXXXOO.o ",
" .OXXXXXXXXXO.o ",
" .OXXXXXXXXXO.o ",
" .OOOOOOXXXOO.o ",
" .OOOOOOXXOOO.o ",
" .OOOOOOOOOOO.o ",
" .............o ",
"  ooooooooooooo ",
"                ",
"                "};
