/* XPM */
static char *question_xpm[] = {
/* width height num_colors chars_per_pixel */
"    32    32        5            1",
/* colors */
". c none",
"# c #183c59",
"a c #bebebe",
"b c #ffffff",
"c c #0000ff",
/* pixels */
"................................",
"................................",
"................................",
"................................",
"................................",
".........##########.............",
"........##aaaaaaaaab............",
".......##aaaaccccaaab...........",
"......##aaaccccccccaab..........",
"......#aaaccccccccccaab.........",
"......#aaaccccccccccaab.........",
"......#aaacccaaaacccaab.........",
"......#aaacccaaaacccaaab........",
"......#aaacccaaaccccaaaab.......",
"......#aaaaaaaacccccaaabb.......",
"......#aaaaaaacccccaaab.........",
"......##aaaaacccccaaabb.........",
".......##aaaaccccaaaab..........",
"........##aaacccaaaaab..........",
".........##aacccaaaaab..........",
"..........#aaaaaaaaaab..........",
"..........#aaaaaaabbb...........",
"..........#aacccaab.............",
"..........#aacccaab.............",
"..........#aacccaab.............",
".........##aaaaaaab.............",
".........#bbbbbbbbbb............",
"................................",
"................................",
"................................",
"................................",
"................................"
};
