/* XPM */
static char *warning_xpm[] = {
/* width height num_colors chars_per_pixel */
"    32    32        5            1",
/* colors */
". c none",
"# c #183c59",
"a c #bebebe",
"b c #ffffff",
"c c #ff0000",
/* pixels */
"................................",
"................................",
"................................",
"................................",
"................................",
".........##########.............",
"........##aaaaaaaaab............",
".......##aaaaacaaaaab...........",
"......##aaaaacccaaaaab..........",
"......#aaaaacccccaaaaab.........",
"......#aaaaacccccaaaaab.........",
"......#aaaaacccccaaa#ab.........",
"......#aaaaacccccaa##aab........",
"......#aaaaacccccaaa#aaab.......",
"......#aaaaaacccaaaaaaabb.......",
"......#aaaaaacccaaaaaab.........",
"......##aaaaacccaaaaabb.........",
".......##aaaacccaaaaab..........",
"........##aaacccaaaaab..........",
".........##aacccaaaaab..........",
"..........#aaaaaaaaaab..........",
"..........#aaaaaaabbb...........",
"..........#aacccaab.............",
"..........#aacccaab.............",
"..........#aacccaab.............",
".........##aaaaaaab.............",
".........#bbbbbbbbbb............",
"................................",
"................................",
"................................",
"................................",
"................................"
};
