/* XPM */
static char *magick[] = {
/* columns rows colors chars-per-pixel */
"48 48 255 2",
"   c Gray0",
".  c #050307",
"X  c #050c0c",
"o  c #071410",
"O  c #190407",
"+  c #17140b",
"@  c #050c2c",
"#  c #08042c",
"$  c #08152d",
"%  c #16092a",
"&  c #191733",
"*  c #0c2608",
"=  c #122d06",
"-  c #0d2235",
";  c #142e34",
":  c #28050c",
">  c #370710",
",  c #371616",
"<  c #241420",
"1  c #242211",
"2  c #39220e",
"3  c #2d252d",
"4  c #28302c",
"5  c #203f3a",
"6  c #373324",
"7  c #383f2c",
"8  c #060a4f",
"9  c #06164f",
"0  c #080d74",
"q  c #041871",
"w  c #062051",
"e  c #1c2b51",
"r  c #062174",
"t  c #142e64",
"y  c #211752",
"u  c #373f49",
"i  c #343250",
"p  c #24522c",
"a  c #1f4959",
"s  c #3c5c58",
"d  c #47070a",
"f  c #461f08",
"g  c #461518",
"h  c #570307",
"j  c #59180d",
"k  c #582114",
"l  c #4c2335",
"z  c #483228",
"x  c #583038",
"c  c #670608",
"v  c #77050b",
"b  c #741506",
"n  c #642314",
"m  c #772110",
"M  c #713609",
"N  c #6e3e24",
"B  c #71322f",
"V  c #4c1848",
"C  c #5c3e44",
"Z  c #4c4c14",
"A  c #54581c",
"S  c #49422d",
"D  c #4f4e3c",
"F  c #644e38",
"G  c #4a4956",
"H  c #4b5955",
"J  c #5a4754",
"K  c #525056",
"L  c #54686c",
"P  c #6f4341",
"I  c #685060",
"U  c #746a44",
"Y  c #70606c",
"T  c #746e74",
"R  c #080e8e",
"E  c #041b8b",
"W  c #061b9e",
"Q  c #091cb9",
"!  c #141ea4",
"~  c #042595",
"^  c #0527af",
"/  c #042fb0",
"(  c #1c16c4",
")  c #0629c8",
"_  c #0532cf",
"`  c #043ecc",
"'  c #0c25f9",
"]  c #0435ec",
"[  c #043be4",
"{  c #1842ec",
"}  c #7c4a84",
"|  c #7c96a4",
" . c #64a89c",
".. c #7eb5ba",
"X. c #7cdabc",
"o. c #5ccbc1",
"O. c #78c5c4",
"+. c #880606",
"@. c #87170c",
"#. c #980508",
"$. c #95190c",
"%. c #94082c",
"&. c #9c1634",
"*. c #87260f",
"=. c #883a10",
"-. c #9c2b04",
";. c #a60507",
":. c #a91a0f",
">. c #b90607",
",. c #aa270c",
"<. c #b82807",
"1. c #b03808",
"2. c #b93a39",
"3. c #942e44",
"4. c #ac2a44",
"5. c #844a14",
"6. c #a85218",
"7. c #ba491a",
"8. c #b8520a",
"9. c #a84822",
"0. c #b44e3c",
"q. c #b15b3f",
"w. c #b86604",
"e. c #94424c",
"r. c #c70807",
"t. c #c81604",
"y. c #da190e",
"u. c #cb2707",
"i. c #c8380b",
"p. c #d8290d",
"a. c #d93705",
"s. c #c8382c",
"d. c #dc382c",
"f. c #ec1b19",
"g. c #f10711",
"h. c #e6290a",
"j. c #e83809",
"k. c #f82a04",
"l. c #fb3a14",
"z. c #e83c30",
"x. c #fc2229",
"c. c #e9364c",
"v. c #fc2644",
"b. c #fc3d59",
"n. c #c9480a",
"m. c #ca580d",
"M. c #d84608",
"N. c #d8570b",
"B. c #c84c2c",
"V. c #c76614",
"C. c #da670d",
"Z. c #d87804",
"A. c #e94906",
"S. c #e95a10",
"D. c #f9490c",
"F. c #f85407",
"G. c #fb5d0e",
"H. c #e9670c",
"J. c #e87808",
"K. c #fb6407",
"L. c #f96c07",
"P. c #fb740c",
"I. c #fa7d09",
"U. c #e47a34",
"Y. c #fa6922",
"T. c #fc7729",
"R. c #cc584c",
"E. c #dc4e4c",
"W. c #e84e48",
"Q. c #e95949",
"!. c #fb4846",
"~. c #f8564a",
"^. c #e96a47",
"/. c #e87748",
"(. c #fa6b4a",
"). c #f97545",
"_. c #fc7e67",
"`. c #cca224",
"'. c #d8b428",
"]. c #e8990e",
"[. c #f98611",
"{. c #fa9a10",
"}. c #e48a24",
"|. c #fb992d",
" X c #f6a51d",
".X c #f9aa36",
"XX c #f7b831",
"oX c #dc9a54",
"OX c #dc866c",
"+X c #d49674",
"@X c #dca964",
"#X c #f88945",
"$X c #fb9951",
"%X c #ec8674",
"&X c #f08766",
"*X c #e0a648",
"=X c #e0b75c",
"-X c #f9a94a",
";X c #f5b74c",
":X c #f6a860",
">X c #f9ac7d",
",X c #f4b866",
"<X c #ccc62c",
"1X c #e4c434",
"2X c #f7c84a",
"3X c #eac570",
"4X c #e4da74",
"5X c #e9d17c",
"6X c #fbc673",
"7X c #f9d276",
"8X c #fce15c",
"9X c #81899c",
"0X c #9c8aa4",
"qX c #9498a4",
"wX c #a7b9bf",
"eX c #8eb5ca",
"rX c #99d5d4",
"tX c #accacc",
"yX c #a4c2d4",
"uX c #b4d4e0",
"iX c #b4eecc",
"pX c #d4a69c",
"aX c #fc9d84",
"sX c #f69ca6",
"dX c #fc92b4",
"fX c #f2ab9e",
"gX c #f9bc83",
"hX c #faaebc",
"jX c #f9bbb8",
"kX c #c4bed4",
"lX c #facaa0",
"zX c #f8ccba",
"xX c #fad8a9",
"cX c #fce080",
"vX c #f8ea84",
"bX c #e9e6b4",
"nX c #e6f7b0",
"mX c #fbe8b4",
"MX c #fcf5b9",
"NX c #c0c9cc",
"BX c #ccd8e4",
"VX c #ccfaf0",
"CX c #d1e6e4",
"ZX c #e4cac0",
"AX c #fcc8d4",
"SX c #fcd5d8",
"DX c #e7d7e1",
"FX c #faeadd",
"GX c #fcf9dd",
"HX c #e5eaf3",
"JX c #e6fbfa",
"KX c #fae9f7",
"LX c #fbf5f8",
"PX c #fafcfa",
"IX c None",
/* pixels */
"T G U H s H H C J s I K J K J K K J J J J J J J J J G K G K K K G K J J J J J J J J I S D D Y Z ",
"G . . . . O X # O . . . . . X . . X . . . . . . . . . . . . . . . . . . . X . . . . . X X . # GX",
"K . >XjX~.:.@ ` _ ` ) _ _ _ ) _ _ ] ` ` [ [ [ [ [ [ ] [ _ _ _ _ _ _ ` ` ` _ [ [ [ [ ' ' { ' ) JX",
"J . &XAXdXc.2 / Q ( / _ _ _ _ _ _ ` ] _ ] ] ] ] ] ] ] ] [ _ _ _ _ ) _ ] _ ] ] ] ] ] ] [ [ [ [ JX",
"K . D.pXAX!.9.9 ) / ^ ^ ~ ^ ) ) ) ) _ _ _ _ _ ] _ ] [ [ ] / ^ ) / ) _ / _ _ _ _ _ _ ` ` [ ] ' JX",
"K . !.).xXdX!., E ^ ^ ^ ^ ^ / / ^ ) ^ ) ^ _ ) ) _ _ _ ` _ ^ ^ ^ ^ ^ ^ ^ ^ ^ / ) / ) [ ) ` _ _ PX",
"K . f.Q.#XhXQ.IX% ^ ~ ~ ~ ^ ^ / ) ^ ^ ^ ^ ) ) ) ) ) ) _ / ^ ^ ^ ^ Q ^ ^ ^ ) ^ ) ) ) _ Q ` ^ _ PX",
"K . x.!.).AXdXb.c W ~ ^ W W E ^ ~ ~ ~ ^ ~ ^ ~ ^ ~ ^ ) ) ^ ^ ~ W ^ ^ ^ ^ ^ ^ ^ ^ ^ ^ / Q / ^ ) PX",
"K . t.h.Q.:XAX&X1.$ E ~ E E E ! r W ~ ~ / ~ ^ ~ ^ ~ ^ ^ ^ ~ ^ ^ ~ ^ ~ ^ W ^ ^ ^ ^ ^ ^ Q / ^ ) LX",
"K . #.r.c.^.jXsXW.d 8 r E E 0 q E E E ~ E ~ ~ ~ ^ ~ ^ ~ ~ ~ r ~ r ~ ~ E ~ ~ ~ ^ ~ ^ ^ Q ^ ^ ) LX",
"K . #.<.x.l.$XjX%X>.% q q q q q q E E q E E E E E ~ ~ r E E E E E q E E ~ E ~ ~ ~ ~ / Q / ~ ) PX",
"K . c v y.v.~.hXjXb.g % 9 9 r 9 q E q q 0 q q q E q ~ E E E E E R W ~ ~ W ^ ~ ^ ^ ^ / W / ^ ) LX",
"K . > c =.h.b.=XZX(.m > 8 w w 9 8 0 q 9 q q q q q q E E E W ^ ~ W ^ ^ ^ ^ ^ ) ^ ) ^ ) ^ / ^ ) PX",
"G . : g +.g.b.E.fXAX!.> w $ 9 - 8 y w r 9 r 9 0 t 9 0 r r W ! r r ^ ~ ~ / W / Q ) ) ~ ~ / W ^ PX",
"K . : O j :.>.z.sXfXW.> % @ @ ; t 8 < 3 # & e - 8 0 0 w q R E ~ r W ~ ~ ~ ~ ~ ~ ~ ~ r E ~ r E PX",
"G . > : O k IXl.~.gXaXP . & # . @ % . y 0 o $ 1 8 y & w w 0 R r E R R W R W E ~ E W W E ~ E W PX",
"K . : g : : v x.d.OXN Y u # X @ # $ 9 % y 8 , J.P.n.> o w r 0 q 0 R q E q E q E E r 0 0 r 0 0 JX",
"G . . O : > h %.3.P kXKXBX. # . $ # : X 9 % q.JXJXI.*.: 8 9 q 9 q r r 9 r q r q r E q q q q R PX",
"G . X X O O O 3 9XwXuXH i - X # . $ # # . : |.KXmXI.S.g # $ 9 w 9 9 9 9 9 0 q 0 E 0 . X X X # MX",
"G . X . . < o | ..L a kXPXCX. . . . X # $ + ].jXDXI.P.j @ @ @ $ @ X X X o X $ @ @ $ @ X X $ # GX",
"K . O . . < 3 5 @ 0XyXDXDXHXL . O . X . @ O N. XmXK.N.d @ # . X # . # # . @ . X # X # @ # 8 # PX",
"K . . . . & o . a o.o.NXKXJXkX. . . O o O @ > K.LXI.j : X . $ . X . * # o o 1 B.c @ $ # 9 X @ LX",
"K . o . . . 1 l x J O...HXHXJXD . . X . @ . . ,.LXM.k O . X . # $ # # # O & HXPXn.< @ . # # $ KX",
"H . . O . . o , l i 9XO.rXJXCXNX. . X * # . . f 6Xm.. . X o . . . . % . $ n.PXFXI.. X # # X @ LX",
"J . . . . . X + 3 5 I ..rXBXJXCXJ . O . . $ X X 2XV.. + . . . O . X . X . 8.zX{.A.. . X # # . PX",
"H . X . O O O > , 5 l | O.rXLXPXwXO v h v c d c xX|.v d h c h h g > . < O q.gXn.c X O O . . # PX",
"J . > c +.@.+.@.k 1 3 J .. .HXJXVXz t.m.y.n.p.p.>X-XN.-.-.i.M.t.p.t.y.t.g.jX~.$.>.:.v m +.c c LX",
"H . a.p.h.a.A.S.7.f 4 C G eXO.JXHX0X,.H.I.FX}.ZX6X^.|.V.m -.C.P.F.L.K.K.}.fXV.q.N.S.A.M.A.i.i.LX",
"K . L.G.K.P.K.G.G.n.7 u , qXO.uXLXHXf D.j.G.F.>X-X{.(.#X$XlX=XmXFXMXS.$XnX_.:.S.L.D.G.S.G.G.K.PX",
"K . H.F.J.F.H.F.D.L.2 6 4 } eXwXJXVX| @.m.l.L.[.[.).#X{.-X:X1XXXGXPX7XKX6X XKX=.p.L.K.L.I.K.F.LX",
"K . G.L.H.G.d.N.XX/.E.X p V  .eXDXKXiX2 9.C.K.K.K.[._. X|..XXX:X$X@X:X7X3X2XvXSX,X;.l.A.S.L.D.PX",
"K . K.7.lXK.e.#XGXM.+.b + 5 t X.o.tXJ O : K C.K.#X_.#X.X].;X-X;X-X6X,X6XmX2XgXFXPXU.IXB.:XR.N.HX",
"K . F.C.-XmXfXFXu.;.IXc h n 5 i C . d , A = Z P.J.J.Y.$X.X-XaX;X:X-X7XlX,XvX3XKXFXmXpXmXGX=X7.PX",
"K . L.M.6.nXzXSXl.#.c ;.n * o . X 2 , G V B ; 0.[.$XaX X<X*XLXKX6X5X7X6XlX=XMXFXGXxXGXxX@X*.M.PX",
"K . S.K.$XXXHXY.n d >.;.+.c h z x . D o 5., J , H.[.(..X.XxXFX4.+ 6XgX7X7XzX>XnXPX>X$.,.$.M.D.PX",
"K . I.D.$X2XlX2.d M j v @.O ^.: Z , < 3 : P N 7 9.(.#X=X|.KXxX7.+ gX7X6X4XAXmXvXSX1.>.u.M.G.I.KX",
"K . S.L.`.#XGX6.b v #.>.+.* O F : S X m # #.N.S 3 |.#X{.6X0.IXf z.;X6XvXfXlXFXSX-X+.>.A.1.m.L.GX",
"K . S.!.P.~..XgXI.G.g ;.#.: o G . S 5 + + j w.g 6 6.oX.XXX X, A gXcX8X3XbXzXxXJ.m.$.t.u.i.a.M.HX",
"K . P.{.D.m.OX,XGXmX:XM v +.c H.P.P.C : M - O N m l {.T.,X;X6XaXlXgXsXvX7XGX}.V.r.r.t.a.S.F.K.PX",
"K . S.F.(.T.,X.X*X-X6Xk b I.P.+XLXLXM B O k # n F e 0.1X:XGXC.<.8XhXPXmX}.D.p.h.,.2.h.A.G.G.P.PX",
"K . Y.F.Y.H.G.C.k.G.;XzXbXlX6XgX2XG.G.Z e = Z o } N S $XKXG.r.IXr.i.&.+.t.$.;.*.a.u.D.H.K.K.K.PX",
"K . S.I.G.G.Y.F.U.S.L.{. X>XFX'.G.K.J.sXGX:XKX:X;XKXGX'.N.t.$.%.:.#.$.j.a.g.i.a.m.P.G.K.P.P.I.PX",
"K . A.G.F.K.G.I.I.Z.C.N.D.M.&X/.S.H.h.T.).xX/.H.l.i.y.L.y.>.#.+.r.s.M.u.j.N.A.H.G.D.K.P.I.I.I.PX",
"K . l.k.C.G.K.Y.l.F.G.D.K.8.M.G.H.D.F.j.a.y.a.r.:.a.y.#.IX<.w.l.Z.A.K.K.P.S.P.K.K.T.T.J.[.[.[.PX",
"H . M.S.j.F.j.F.Y.L.L.H.N.S.A.D.G.I.H.j.A.<.D.2.1.a.m.D.M.S.x.L.A.K.G.G.K.P.F.L.H.].T.[.|.{.{.PX",
"K . a.a.D.h.G.l.F.K.F.L.K.K.D.L.K.K.G.G.G.A.G.F.K.G.F.A.A.G.P.K.L.L.L.Y.T.^./.#X$X.X|.|..X-X>XGX",
"K . S.A.F.A.p.K.p.F.A.K.F.K.A.K.G.G.K.K.G.K.G.K.G.K.K.G.K.L.P.L.P.I.G.).).T.#X#X{.{.,XXX.X=X;XMX",
"HXLXPXLXKXLXLXLXPXLXLXPXPXPXLXPXPXPXLXLXGXPXLXLXGXPXPXLXPXLXPXLXPXPXKXLXPXPXPXPXPXPXKXKXPXLXPXKX"
};
