/* XPM */
static char *magick[] = {
/* columns rows colors chars-per-pixel */
"56 46 22 1",
"  c Gray100",
". c #bebabe",
"X c #000010",
"o c #beb6be",
"O c #aeaaae",
"+ c #aea6ae",
"@ c #c7bac7",
"# c #79869e",
"$ c Cyan",
"% c #8e8a8e",
"& c Gray0",
"* c #aeaeae",
"= c #9696ae",
"- c #717986",
"; c #bec3cf",
": c #7992b6",
"> c Magenta",
", c #9e9a9e",
"< c #b6aeb6",
"1 c #aeaeb6",
"2 c Yellow",
"3 c #a69ea6",
/* pixels */
"                                                       .",
" ......................................................X",
" ......................................................X",
" ...o..o..o..o..o..o..o..o..o..o..o..o..o..o..o..o..o..X",
" O...O...+...O...O...+...O...O...+...O...O...+...O...O.X",
" ..o..@o...@o..@o.@o...@o..@o.@o...@o..@o.@o.....@o.@o.X",
" O.O.+.O.O.O.O.O.O.O.O.O.O.O.O.O.O.O.O.O.O.O.+.+.O.O.O.X",
" .....O...o...+.......+...o...O...o...+.......O.......OX",
" O.+.O.+.O.O.+.Oo#############oO.+.O.+.OoO.+.+.+.+.+.O.X",
" ...Oo..Oo..O...$$$$$$$$$$$%##@.O...O...O...O...O...+..X",
" O.+.O.O.O.+.O.+$$$&&&&&&$$###.O.+.+.O.+.OoO.O.+.O.O.O.X",
" .O...O.O.O.o.O.$$&&&&&&&&$###+.O.O...O.O.*@o.O.O.Oo..OX",
" O.O.+.+.O.O.O.O$$&&$$$$&&$#=-;+.+.OoO.+.O.*.O.+.O.O.+.X",
" .+.O.O.O.+.O.+.$$&&$$$$&&$:-#+.O.O.O.O.O.+.+.O.O.+.O.OX",
" O.O.+.O.O.O.O.O$$&&&&&&&&$-=-;+.O.+.O.+.O.O.O.+.O.O.O.X",
" OO.OOO.OO+.OO+.$$&&&&&&&&$:-:+.OOO.OOO.OOO.OOO.OO+.OOOX",
" O.O.O.+.O.O.O.O$$&&$$$$&&$-=-@O.+.O.O.+.O.+.O.+.O.O.+.X",
" OOOOOOOOOOOOOOO$$&&$$$$&&$:-:####-####-OOOOOOOOOOOOOOOX",
" O.O.+.O.O.+.O.O.O.O.O.O.O>>>>>>>>>>>#%:o+.O.O.O.O.O.O.X",
" OOOOOOOOOOOOOOOOOOOOOOOOO>&&&&&&&>>>-:-+OOOOOOOOOOOOOOX",
" OOO.OOO.OOO.OOO.OOO.OOO.O>&&&&&&&>>>##=oOOO.+OO.+OO.OOX",
" OOOOOOOOOOOOOOO+OOOOOOOOO>&&>>>&&&>>-:-+OOOOOOOOOOOOOOX",
" OOOOOOOOOOOOOOOOOOOOOOOOO>&&&&&&&>>>#%:+OOOOOOOOOOOOOOX",
" OOOOOOOOOOOOOOOOOOOOOOOOO>&&&&&&&&>>-:-OOOOOOOOOOOOOOOX",
" ,OOO,OOO,OOO,OOO,OOO,OOO,>&&>>>>&&>>###<,OOO,OOO,OOO,OX",
" OOOOOOOOOOOOOOOOOOOOOOOOO>&&>>>>&&>>=##+OOOOOOOOOOOOOOX",
" OO,O,O,OOO,O,O,OOO,O,O,OO>&&&&&&&&>>-:-<OO,O,O,OOO,O,OX",
" OOOOOOOOOOOOOOOOO########>&&&&&&&>>>1+11OOOOOOOOOOOOOOX",
" ,O,O,O,O,O,O,O,O22222222222###,O,O,O,+,+,O,O,O,O,O,O,OX",
" OOOOOOOOOOOOOOOO2&&&&&&&&22###OOOOOOOOOOOOOOOOOOOOOOOOX",
" ,O,O,O,O,O,O,O,O2&&&&&&&&22#%#3+,O,O,O,O,O,O,O,O,O,O,OX",
" O,OOO,OOO,OOO,OO2&&2222&&22-:#++O,OOO,OOO,OOO,OOO,OOO,X",
" ,O,O,O,O,O,O,O,O2&&22222222:-#3+,*,O,O,O,O,O,O,O,O,O,OX",
" O,O,O,O,O,O,O,O,2&&22222222-=#*,+,O,O,O,O,O,O,O,O,O,O,X",
" ,O,O,O,O,O,O,O,O2&&22222222:-:,+,*,O,O,O,O,O,O,O,O,O,OX",
" ,,O,,,O,,,O,,,O,2&&2222&&22=-#+,,,O,,,O,,,O,,,O,,,O,,,X",
" ,O,O,O,O,O,O,O,O2&&&&&&&&22-:-3+,O,O,O,O,O,O,O,O,O,O,OX",
" ,,,,,,,,,,,,,,,,2&&&&&&&&22=-:,,,,,,,,,,,,,,,,,,,,,,,,X",
" ,O,O,O,O,O,O,O,O,O,O,O,O,2=+=+,O,O,O,O,O,O,O,O,O,O,O,OX",
" ,,,,,,,,,,,,,,,,,,,,,,,,,,,,,,,,,,,,,,,,,,,,,,,,,,,,,,X",
" ,,,O,,,O,,,O,,,O,,,O,,,O,,,O,,,O,,,O,,,O,,,O,,,O,,,O,,X",
" ,,,,,,,,,,,,,,,,,,,,,,,,,,,,,,,,,,,,,,,,,,,,,,,,,,,,,,X",
" ,O,,,,,,,O,,,,,,,O,,,,,,,O,,,,,,,O,,,,,,,O,,,,,,,O,,,,X",
" ,,,,,,,,,,,,,,,,,,,,,,,,,,,,,,,,,,,,,,,,,,,,,,,,,,,,,,X",
" ,,,,,,,,,,,,,,,,,,,,,,,,,,,,,,,,,,,,,,,,,,,,,,,,,,,,,,X",
".XXXXXXXXXXXXXXXXXXXXXXXXXXXXXXXXXXXXXXXXXXXXXXXXXXXXXXX"
};
