/* XPM */
static char *magick[] = {
/* columns rows colors chars-per-pixel */
"56 46 18 1",
"  c Gray100",
". c #bebabe",
"X c #000010",
"o c #beb6be",
"O c #aeaaae",
"+ c #aea6ae",
"@ c #c7bac7",
"# c #ff1441",
"$ c Gray0",
"% c #9e9a9e",
"& c #5155ff",
"* c #fffbff",
"= c Gray59",
"- c #fff3ff",
"; c #a69ea6",
": c #9696ae",
"> c #a6798e",
", c #000018",
/* pixels */
"                                                       .",
" ......................................................X",
" ......................................................X",
" ...o..o..o..o..o..o..o..o..o..o..o..o..o..o..o..o..o..X",
" O...O...+...O...O...+...O...O...+...O...O...+...O...O.X",
" ..o..@o...@o..@o.@o...@o..@o.@o...@o..@o.@o..@o.@o.@o.X",
" O.O.+.O.O.O.O.O.O.O.O.O.O.O.O.O.O.O.O.O.O.O.O.O.O.O.O.X",
" .....O...o...+.......+...o...O...o...+.......O.......OX",
" O.+.+.O.+.O.+.OoO.+.+.O.+.O.+.+.O.O.+.OoO.+.+.OoO.+.O.X",
" ...O...O...O...O..###..O...+...O.o.O...O...O...O...+..X",
" O.+.+.+.+.+.O.+.O#####+.O.+.O.$.O.O.+.O.+.+.OoO.O.+.O.X",
" .O...O.O.O.o.O.Oo##.##.+.O...O$O.+...+.O.O...O.+.O...OX",
" O.+.O.+.O.O.O.O.O##o##O.O.+.+.$.O.O.+.O.+.O.+.O.O.+.+.X",
" .O.+.O.O.O.O.+.O##.O.##+.O.O.$$$.O$$.O.O.+.O.O.+.O.O.OX",
" O.O.O.+.+.O.O.O.##O.O##.O.+.O.$.O$O.$.O.O.O.+.O.O.+.O.X",
" OO.OOO.OOO.O+O.+#######OOO.OOO$OO$.O$+.OO+.OOO.OOO.OOOX",
" O.O.+.O.O.+.O.O#########O.O.O.$.O$O.$.O.O.O.O.+.O.O.O.X",
" OOOOOOOOOOOOOOO##O+OO+##OO+OOOO$$O$$OOOOOOOOOOOOO+OOOOX",
" O.O.O.O.+.O.O.O##.O.O.##O.O.O.O.O.O.O.O.+.O.+.O.O.O.O.X",
" OOOOOOOOOOOOO+####OOO####OOOOOOOOOOOOOOOOOOOOOOOOOOOOOX",
" OOO.+OO.OOO.OOO.+OO.+OO.+OO.+OO.OOO.OOO.OOO.OOO.OOO.OOX",
" OOOOOOOOOOOOOOOOOOOOOOOOOOOOOOOOOOOOOOOOOOOOOOOOOOOOOOX",
" OOOOOOOOOOOOOOOOOOOOOOOOOOOOOOOOOOOOOOOOOOOOOOOOOOOOOOX",
" OOOOOOOOOOOOOOOOOOOOOOOOOOOOOOOOOOOOOOOOOOOOOOOOOOOOOOX",
" %OOO%OOO%+OO%+OO%OOO%+OO%OOO%+OO%+OO%+OO%+OO%+OO%+OO%+X",
" OOOO+OOOOOOOOOOO+OOOOO&&&&&&&&&&OOOOOOOOOOOOOOOOOOOOOOX",
" OO%O%+%+OO%+%O%OOO%+%O&&OO%O%&&&OO%+%+%+OO%+%+%+OO%+%OX",
" OOO+OOOOOOOOOO+OOOOOOO&OOOOO&&&OOOOOOOOOOOOOOOOOOOOOOOX",
" %O%O%+%O%+%+%+%O%+%+%O%O%O%&&&%O%+%+%+%O%+%+%+%O%+%+%OX",
" OOO+OOO+OOOOOOO+OOOO+OOO+O&&&OOOOOOOOOOO+OOOOOO+OOOOOOX",
" %+%O%+%O%+%+%O%O%+%O%O%+%&&&%O%+%+%+%+%+%O%+%+%O%+%+%+X",
" +%OO+%OO+%OO+%+O+%+O+%OO&&&O+%OO+%OO+%OO+%OO+%OO+%OO+%X",
" %+%+%+%+%+%+%+%O%+%O%+%&&&%O%+%&%+%+%+%+%+%+%+%+%+%+%OX",
" +%+%+%+%+%+%+%+%+%+%+%&&&%+%+%&&+%+%+%+%+%+%+%+%+%+%+%X",
" %O%+%+%+%+%+%+%+%+%+%+&&&&&&&&&&%+%+%+%+%+%+%+%+%+%+%+X",
" %%+%%%+%%%+%%%+%%%+%%%O%%%O%%%+%%%+%%%+%%%+%%%+%%%+%%%X",
" %+%+%+%+%+%+%+%+%+%+%+%+%+%+%+%+%+%+%+%+%+%+%+%+%+%+%+X",
"*%%%%%%%%%%%%%%%%%%%%%%%%%%%%%%%%%%%%%%%%%%%%%%%%%%%%%%X",
" %+%+%+%+%+%+%+=+%+=+%+=+%+%+%+%+%+%+%+%+%+%+%+%+%+%+%+X",
"-%%=%=%=%=%=%=%%%%%%%=%%%%%=%%%=%%%=%=%%=%=%=%=%=%=%%%%X",
" %%%+%%%+%%%+%%%;%%%+%%%;%%%+=%%+%%%+%%%+%%%+%%%+%%%;%%X",
"-%%%%:>%%:>%%:>%%%%%:>%%;:>%%%%%%:>%%%%%:>%%%:>%%%%%%%%X",
" %+%%%;%%%+;%%;%%>+%%;%%=%+;=>:%%%+;>:%%%;+%%%;%>:+%%%%X",
"-%%:>%%%%%%:>%%%%:%%%=:>%%%%%:;>%%=:;=;>%%%:>%=:;%%:>%%X",
" %%%%%>:%%%%%%%>:%%%>:%%;=%%%%%%%%%%=%%:%%%%;%%%%%%%%:%X",
".XXXX,,XXXXX,X,,XXX,,XXXX,X,XXX,X,XX,XXXXXXXXXXXXXXXXXXX"
};
