/* XPM */
static char *magick[] = {
/* columns rows colors chars-per-pixel */
"56 46 20 1",
"  c Gray100",
". c #bebabe",
"X c #000010",
"o c #beb6be",
"O c #aeaaae",
"+ c #aea6ae",
"@ c #c7bac7",
"# c #ff1441",
"$ c #9e9a9e",
"% c Gray59",
"& c #ef1028",
"* c #aeaeae",
"= c #a6a2a6",
"- c Gray0",
"; c #fffbff",
": c #fff3ff",
"> c #a69ea6",
", c #9696ae",
"< c #a6798e",
"1 c #000018",
/* pixels */
"                                                       .",
" ......................................................X",
" ......................................................X",
" ...o..o..o..o..o..o..o..o..o..o..o..o..o..o..o..o..o..X",
" O...O...+...O...O...+...O...O...+...O...O...+...O...O.X",
" ..o..@o...@o..@o.@o...@o..@o.@o...@o..@o.@o..@o.@o.@o.X",
" O.O.+.O.O.O.O.O.O.O.O.O.O.O.O.O.O.O.O.O.O.O.O.O.O.O.O.X",
" .....O...o...+.......+..#####O...o...+.......O.......OX",
" O.+.+.O.+.O.+.OoO.+.+.#########oO.O.+.OoO.+.+.OoO.+.O.X",
" ...O...O...O...O...O#############..O...O...O...O...+..X",
" O.+.+.+.+.+.O.+.+.+#####+.+.######+.+.O.+.+.OoO.O.+.O.X",
" .O...O.O.O.o.O.O.O.###.O.O########...+.O.O...O.+.O...OX",
" O.+.O.+.O.O.O.+.O.###oO.###########.O.O.+.O.+.O.O.+.+.X",
" .O.+.O.O.+.O.O.O.###.O.#############.+.O.+.O.O.+.O.O.OX",
" O.O.O.+.O.O.+.O.+###+.##############+.O.O.O.+.O.O.+.O.X",
" OO.OOO.OOO.OO+.OO##OO###############OO.OO+.OOO.OOO.OOOX",
" O.O.+.O.O.+.O.O.###.O################.+.O.O.O.+.O.O.O.X",
" OOOOOOOOOOOOOOO+###+#################OOOOOOOOOOOO+OOOOX",
" O.O.O.O.+.O.O.O.###.#################.O.O.+.O.O.O.O.O.X",
" OOOOOOOOOOOOOOOO#####################+OOOOOOOOOOOOOOOOX",
" OOO.+OO.OOO.OOO.#####################OO.OOO.OOO.OOO.+OX",
" OOOOOOOOOOOOOOO+#####################OOOOOOOOOOOOOOOOOX",
" OOOOOOOOOOOOOOOO#####################+OOOOOOOOOOOOOOOOX",
" OOOOOOOOOOOOOOOO+###################OOOOOOOOOOOOOOOOOOX",
" $OOO$+OO$+OO$+OO$###################%OOO$+OO$+OO$+OO$OX",
" OOOOOOOOOOOOOOOO+###################OOOOOOOOOOOOOOOOOOX",
" OO$+$O$+OO$+$O$OO+#########&#######+$+$+OO$+$+$+OO$+$+X",
" OOOOO+OOOOOOOO+OO*=###############+++OOOOOOOOOOOOOOOOOX",
" $O$+$O$+$+$+$+$O$O$###############%O$O$+$+$+$+$O$+$+$OX",
" O+OOO+OOOOOOOOOO+OO=###&#########+OOO+OOOOOOOOO+OOOOOOX",
" $O$+$O$+$+$+$+$O$+$O$+#########=$+$O$O$+$+$+$+$O$+$+$OX",
" +$OO+$OO+$OO+$+O+$OO+%+#######+++$+O+$OO+$OO+$OO+$OO+$X",
" $+$+$+$+$+$O$+$O$+$+$+$+%###%+%O$+$+$+$+$+$O$+$+$+$+$+X",
" +$+$+$+$+$+$+$+$+$+$+$+$+$--+$O$+$+$+$+$+$+$+$+$+$+$+$X",
" $O$+$+$+$+$+$+$+$+$+$+$+$###$+$+$+$O$+$+$+$+$+$+$+$+$+X",
" $$+$$$+$$$+$$$+$$$+$$$+$$###-$+$$$+$$$+$$$+$$$+$$$+$$$X",
" $+$+$+$+$+$+$+$+$+$+$+$+$+$+-O$+$+$+$+$+$+$+$+$+$+$+$+X",
";$$$$$$$$$$$$$$$$$$$$$$$$$$$$$-$$$$$$$$$$$$$$$$$$$$$$$$X",
" $+$+$+$+$+$+$+$+$+$+$+$+$+$+$-$+$+$+$+$+$+$+$+$+$+$+$+X",
":$$$%$%$%$%$$%$$%$$$$$$$$%$$$$$$$$$$$$$$$%$$%$%$%$%$$$$X",
" $$$+$$$+$$$+$$$+$%$>$%$+$$%+$$$>$%$>$%$+$$$+$$$+$$$>$$X",
";%$$,<$$$,<$$,<$$,<$$$$$$,<$$$$$$$$$$$$$$,<$$$,<$$$$$$$X",
" $+$$,$$$$+$$$$$$$+>$<$$$$+$$<$$<$+$<$$<,$+$$$$$><+>%$$X",
":$$$$$$><$$$$$,<$$$%,$>$<$$$$$,$$$$>$$>$$$$,><$,$$,$$$$X",
" $$$<,$$$>$<$$$,$$$$$$<,>$$$$$$$$$<,$$<,$$$$%$>%$$$<$$,X",
".XXX1XX1XX111XXXXXXXX11XXXX1X1XX111XX11XXXXXX1XXXX111XXX"
};
