/* XPM */
static char *magick[] = {
/* columns rows colors chars-per-pixel */
"48 48 62 1",
"  c Gray0",
". c #080000",
"X c #100808",
"o c #280c00",
"O c #201818",
"+ c #381000",
"@ c #282820",
"# c #382420",
"$ c Gray19",
"% c #411808",
"& c #511c08",
"* c #513420",
"= c #612008",
"- c #692808",
"; c #713818",
": c #794528",
"> c #414149",
", c #494d51",
"< c #595551",
"1 c Gray35",
"2 c Gray41",
"3 c #697171",
"4 c #863410",
"5 c #8e3410",
"6 c #8e3810",
"7 c #a63818",
"8 c #964d28",
"9 c #ae4518",
"0 c #b64d20",
"q c #8e7161",
"w c #c75920",
"e c #c76128",
"r c #c76930",
"t c #cf6930",
"y c #cf7538",
"u c #d77938",
"i c #c77941",
"p c #a68a79",
"a c #cf8249",
"s c #d78241",
"d c #df8a49",
"f c #df9a59",
"g c #efaa69",
"h c #efb671",
"j c #868286",
"k c #8e8a8e",
"l c #969296",
"z c #9e9296",
"x c #9e9a9e",
"c c #9e9ea6",
"v c #9e9aae",
"b c #a6a2a6",
"n c #bebabe",
"m c #dfb68e",
"M c #ffdb96",
"N c #c7c7cf",
"B c #dfd3cf",
"V c #dfdfe7",
"C c #efe3df",
"Z c #f7f3ef",
"A c #fffbff",
"S c None",
/* pixels */
"SSSSSSSSSSSSSSSSSSSSSScbSSSSSSSSSSSSSSSSSSSSSSSS",
"SSSSSSSSSSSSSSSSSSSSScnSSbqqbSSSSSSSSSSSxbSSSSSS",
"SSSSSSSSSSSSSSSSSSSSxnZZS8w85qpSSSSSSSSbnnxSSSSS",
"SSSSSSSSSSSSSSSSSSbbBAAAAfdCCa8:qjSSSSSbCpVSllxx",
"SSSSSSSSSSSSSSSSbxNZAAAAABBBAggfi8:qkSxnSpmAAZNx",
"SSSSSSSSSSSSSSSSkVAB8BqnAZpSBaggggfq5:<,qpBZZ11N",
"SSSSSSSSSSSSSSSS3$Zmm8CAZBn1n8fgggfhhi8;*$1x*kSS",
"SSSSSSSSSSSSSSSp::$ZBnAZBnV>n+O:fggghhhfi:;+pSSS",
"SSSSSSSSSSSSSz88idi,ACNpBNx,3Ok$qghhghhhhmm*pSSS",
"SSSSSSSSSSSSq8rfmCN$lBpBnq>OO1BAANABgghhMMd+jSSS",
"SSSSSSSSSSp:rifSxZZx#kSx3$X#3ScN3cAMgghMmdt+jSSS",
"SSSSSSSSz88ysssa:+1N<O11*X*jN3V@SChgghMhuuu+jSSS",
"SSSSSSSq8ryyusy:&%#1N$X$O*1NAAjNq%*fmMfuuuu+jSSS",
"SSSSSp:8uuyyyuyrr8X@3l..X..X>ZAC:qfMMduuut:Olxxx",
"SSSSq%;uuuyyyysssdpO.OX..X%%&>ZgfgMmutuuw&$,NVVx",
"SSSS<+%&8uyyyyyssuM;..OX;dd:%;gfhMgtttt8%@2BmnVx",
"SSSS<o6=%&8yyyyussdmq.*idddd:dfmMdettt4%oO,**O1S",
"SSSS<X664=%-8yyyusssduuddddddfMmueeew=4e5;5oSSSS",
"SSSS<o46664&%-ryyussssuuddddfMhteee0&;eet98+SSSS",
"SSSS<XX&6666;&%:rysssssudddhMfwwee5+=5wttt8+SSSS",
"SSSSSooXX-6666-&%:ysssssudmMuwwww;o.#CCutt8+SSSS",
"SSSSSooo..+46666-&&8ysssdMmwwww0=X.$qZBett8+SSSS",
"SSSkjX.11@..&66666*%&8ufMg000w8%.X$zVCeeet8+SSSS",
"SSbkqkZV,>*XXX-66666*%&hu00004+.X1m:Afeeee4oSSSS",
"SSbxnZAZnl><>..%466664%80009*+X+*,3q@8eew-o3SSSS",
"SSSSb<nZ3SN<oo+oX&6666%7907=-54-5555wwew&o3xbSSS",
"SSSSS<oSAkNXo+-4&Xo=66%79748000955wwww0&O2lxSSSS",
"SSSSS<oopVno=44;;-%.+;%5;;90000090www0%O3kxSSSSS",
"SSSSS<o=+;q*;;;;;;;*oXo&49990000008qp%@3kxSSSSSS",
"SSSSS<o;-&&=;;;;-----&o*9999900008$SZkjkxbSSSSSS",
"SSSSb1o;;;-*--------*&+4999999005$SVAZBxlxxbbSSS",
"SSSbx1.+----*---*****=+49999995#*bVAVAAAZVNnblbS",
"SSbxk3X.X&-%,;***=====+499994*,lNN,j>NnAAAAAAbbS",
"SSblq1*X..o$lj*=======+-9999:$nBZ1j>n>VZ$AAABkxS",
"SSSxk3,>@..lNl3*======+-7995ooO#Bnln>ZZ>NAAZllbS",
"SSSbxkq1>$@ABNx2*=&&&&+*7797&oX@XqA,ZA1vAAAnkxSS",
"SSbbbxk2*@NVnVBx3;&&&&+=7775+o>>$O$NAllnAAZklbSS",
"bxk@@O@,kAAZ>NVBBz%&&&o=775+@231,*$XqAjvAZbkxSSS",
"xjjVAAAAAAxjV>bVZ@o%&&o=74+$3klk31>$O$NAZbjxbSSS",
"k2,kZAlNAnNn1n3ASX.X+%o=;o>qlxbxlk2,*$Oxk3kxSSSS",
"k1>>xZZ3vV>1vvAB1$O..Xo+o>jlbSSSbxk31>>13kxSSSSS",
"l3,*,SZAv3VvVAZk1<>*O...,jlbSSSSSbxlj33qkxbSSSSS",
"xk2>$,lZANlAAVxjkj2,>>*2jxbSSSSSSSSbxllxxSSSSSSS",
"bxk2,*$1BABZn3qlxxlj33qkxbSSSSSSSSSSSbbSSSSSSSSS",
"Sbxk3<>$,SBl2qlxSbbxxxxbSSSSSSSSSSSSSSSSSSSSSSSS",
"SSbxlq1>>,32jlbSSSSSSSSSSSSSSSSSSSSSSSSSSSSSSSSS",
"SSSSbxk2113kxbSSSSSSSSSSSSSSSSSSSSSSSSSSSSSSSSSS",
"SSSSSbxkkklxSSSSSSSSSSSSSSSSSSSSSSSSSSSSSSSSSSSS"
};
