/* XPM */
static char * image_name[] = {
"56 46 18 1",
" 	c #FFFFFFFFFFFF",
".	c #BEFBBAEABEFB",
"X	c #BEFBC30BBEFB",
"o	c #000000001040",
"O	c #AEBAAAAAAEBA",
"+	c #9E799A699E79",
"@	c #000000000000",
"#	c #79E786179E79",
"$	c #082004100820",
"%	c #79E79248B6DA",
"&	c #71C679E78617",
"*	c #96589658AEBA",
"=	c #BEFBC30BCF3C",
"-	c #BEFBB6DABEFB",
";	c #AEBAB2CACF3C",
":	c #861779E78617",
">	c #C71BBAEAC71B",
",	c #AEBAA699AEBA",
"                                                       .",
" .X.X.X.X.X.X.X.X.X.X.X.X.X.X.X.X.X.X.X.X.X.X.X.X.X.X.Xo",
" X.....................................................o",
" ..X.X.X.XX.X.XX.X.XX.X.XX.X.XX.X.XX.X.XX.X.XX.X.XX.X.Xo",
" OX..OX..O.X.O..XO...O.X.O.X.O.X.O..XO...O.X.O.X.O.X.O.o",
" ...X..X.X....X...X.X.X..X...X....X...X.X.X..X...X...X.o",
" OXO.+.O.+.OX+.OX+.O.+.O.+.OX+.OX+.OX+.O.+.O.+.OX+.OXO.o",
" X...XO.X.X..XO....X.XO.X.X...OX..X...OX.X.X.XO...X...Oo",
" O.OXO.O.O.OXO.OXO.O.O.O.O.OXO.O.O.OXO.O.O.O.O.OXO.OXO.o",
" .X.O..XO.X.O.X.O.X.OX.XO.X.O.X.O.X.O.X.O.X.O.X.O...OX.o",
" O.O.OXO.O.O.O.O.O.O.O.O.O.O.O.OXO.O.O.O.O.OXO.O.OXO.O.o",
" XO.X.O.OXO.X.O.OXO.X.OXO.OX.XO.O.OX.XO.OXO...OXO.OX..Oo",
" O.O.O.O.O.O.OXO.O.O.O.O.O.O.O.O.O.O.O.OXO.OXO.O.O.O.OXo",
" .O.+XO.O.OXO.O.O@@@@@@@@@O.O@@@@@@@@@O.O.O.O.O.OXO.O.Oo",
" OXO.O.OXO.O.O.OX@.X#####@XO.@X.#####@.O.OXO.OXO.+.OXO.o",
" OO.OOO.OO+.OOO.O@@@@@@$@@O.O@@@@@@$@@OXOO+.OOO.OOO.OOOo",
" O.OXO.O.OXO.OXO.@..#####@.OX@..#####$.O.O.OXO.O.OXO.O.o",
" OOOOOOOOOOOOOOOOo..%&*##@OOOo.=&*###@OOOOOOOOOOOOOOOOOo",
" O.O.O.O.O.O.O.O.@X.+#&%&o.O.@X.+#&*&o.O.O.O.O.O.O.O.O.o",
" OOOOOOOOOOOOOOOOo.-*&%&*@OOOo..#%&%#@OOOOOOOOOOOOOOOOOo",
" OOO.OOO.OOO.OOO.@X &%&*&oOO.@. &&*&%@OO.OOO.OOO.OOO.OOo",
" OOOOOOOOOOOOOOOO@.-%&%&#@@@@@X;*&%&#@OOOOOOOOOOOOOOOOOo",
" OOOOOOOOOOOOOOOO@..#:%&*$###@..#%&*&oOOOOOOOOOOOOOOOOOo",
" OOOOOOOOOOOOOOOOo.=&*&%$$@$@@o.%:%&%@OOOOOOOOOOOOOOOOOo",
" +OOO+OOO+OOO+OOO@..%&%&o..###@.&%&*&oOOO+OOO+OOO+OOO+Oo",
" OOOOOOOOOOOOOOOO@ >&%&*@@@@$@o>%:%&#@OOOOOOOOOOOOOOOOOo",
" OO+O+O+OOO+O+O+O@.X#*&%&$@@@@..+#%:%$O+OOO+O+O+OOO+O+Oo",
" OOOOOOOOOOOOOOOO@@@$$$$$@@.@@@o@@@o@@OOOOOOOOOOOOOOOOOo",
" +O+O+O+O+O+O+O+O+O@...###$+@..X.##@O+O+O+,+O+O+O+O+O+Oo",
" OOOOOOOO,OO,OOOOO.@o@o$$@@.@@o@o$@@OOOOOOOOOOOO,OO,OOOo",
" +O+O+,+O+O+O+O+O+O+.@###$O+O@+##@.+O+O+,+O+O+O+O+O+O+Oo",
" O+OOO+OOO+OOO+OOO+OO@@$@@+OO@@@@@+OOO+OOO+OO,+OOO+OOO+o",
" +O+O+O+O+O+O+O+O+O+@#####@+@#####$+O+O+O+O+O+O+O+O+O+Oo",
" O+O+O+O+O+O+O+O+O+O@@$$$@@O@@@$$@@O+O+O+O+O+O+O+O+O+O+o",
" +O+O+O+O+O+O+,+O+O+O+.+O+O+O+O+O+O+O+O+O+O+O+O+O+O+O+Oo",
" ++O+++O+++O+++O+++O+++O+++O+++O+++O+++O+++O+++O+++O+++o",
" +O+O+O+,+O+O+O+O+O+O+O+O+O+O+O+O+O+O+,+O+O+O+O+,+O+O+Oo",
" ++++++++++++++++++++++++++++++++++++++++++++++++++++++o",
" +O+O+O+O+O+O+O+O+O+O+O+O+O+O+O+O+O+O+O+O+O+,+O+O+O+O+Oo",
" ++++++++++++++++++++++++++++++++++++++++++++++++++++++o",
" +++O+++O+++O+++O+++O+++O+++O+++O+++O+++O+++O+++O+++O++o",
" ++++++++++++++++++++++++++++++++++++++++++++++++++++++o",
" +O+++++++O+++++++O+++++++O+++++++O+++++++O+++++++O++++o",
" ++++++++++++++++++++++++++++++++++++++++++++++++++++++o",
" ++++++++++++++++++++++++++++++++++++++++++++++++++++++o",
".ooooooooooooooooooooooooooooooooooooooooooooooooooooooo"};
