/* XPM */
static char *magick[] = {
/* columns rows colors chars-per-pixel */
"56 46 10 1",
"  c Gray100",
". c #bebabe",
"X c #000010",
"o c #beb6be",
"O c #aeaaae",
"+ c #aea6ae",
"@ c #c7bac7",
"# c #ff1441",
"$ c Gray0",
"% c #9e9a9e",
/* pixels */
"                                                       .",
" ......................................................X",
" ......................................................X",
" ...o..o..o..o..o..o..o..o..o..o..o..o..o..o..o..o..o..X",
" O...O...+...O...O...+...O...O...+...O...O...+...O...O.X",
" ..o..@o...@o..@o.@o...@o..@o.@o...@o..@o.@o..@o.@o.@o.X",
" O.O.+.O.O.O.O.O.O.O.O.O.O.O.O.O.O.O.O.O.O.O.O.O.O.O.O.X",
" .....O...o...+......#+..o#...O#..o...+.......O.......OX",
" O.+.+.O.+.O.+.OoO.+.O.O.O.+.+.O.+.O.+.OoO.+.+.OoO.+.O.X",
" ...O...O...O...O...+..#+.#.O#..O...O...O...O...O...+..X",
" O.+.+.+.+.+.O.+.OoO.O.O#O.+#O.+.+.+.O.+.+.+.OoO.O.+.O.X",
" .O...O.O.O.o.O.O.#..##.O.#...O.O.O.o.O.O.O...O.+.O...OX",
" O.+.O.+.O.O.O.+.O.+.+.+#O.#oO.+.O.O.O.+.O.+.O.O.O.+.+.X",
" .O.+.O.O.+.O.O.O.O.O.O#O.+#O.O.O.+.O.O.O.O.+.O.+.O.O.OX",
" O.O.O.+.O.O.+.O.+.O.O.O.O.O#O.+.O.O.+.O.+.O.O.O.O.+.O.X",
" OO.OOO.OOO.OO+.OO+.O#+.OOO##OO.OOO.OO+.OOO.OO+.OOO.OOOX",
" O.O.+.O.O.+.O.O.O.O.O.O.+$$$$.O.O.+.O.O.O.+.O.O.+.O.O.X",
" OOOOOOOOOOOOOOOOOOO+OOOOO$$$$OO+OOOOOOOOOOOOOOOOOOOOOOX",
" O.O.O.O.+.O.O.O.O.O.O.O.O$$$$.O.O.O.O.O.+.O.O.+.O.O.O.X",
" OOOOOOOOOOOOOOO+OOOOOOOO$$$$$$OOOOOOOOOOOOOOOOOOOO+OOOX",
" OOO.+OO.OOO.OOO.OOO.OO$$$$$$$$$$OOO.+OO.OOO.OOO.OOO.OOX",
" OOOOOOOOOOOOOOOOOOOOO$$$$$$$OO$$$OOOOOOOOOOOOOOOOOOOOOX",
" OOOOOOOOOOOOOOOOOOOO$$$$$$$$$$OO$$OOOOOOOOOOOOOOOOOOOOX",
" OOOOOOOOOOOOOOOOOOO$$$$$$$$$$$$OO$$OOOOOOOOOOOOOOOOOOOX",
" %OOO%OOO%OOO%OOO%O$$$$$$$$$$$$$$%O$$%OOO%OOO%OOO%OOO%OX",
" OOOOOOOOOOOOOOOOOO$$$$$$$$$$$$$$$OO$OOOOOOOOOOOOOOOOOOX",
" OO%O%O%OOO%O%O%OO$$$$$$$$$$$$$$$$$%$$O%OOO%O%O%OOO%O%OX",
" OOOOOOOOOOOOOOOOO$$$$$$$$$$$$$$$$$O$$OOOOOOOOOOOOOOOOOX",
" %O%O%O%O%O%O%O%O%$$$$$$$$$$$$$$$$$$$$O%O%O%O%O%O%O%O%OX",
" OOOOOOOOOOOOOOOOO$$$$$$$$$$$$$$$$$$$$OOOOOOOOOOOOOOOOOX",
" %O%O%O%O%O%O%O%O%$$$$$$$$$$$$$$$$$$$$O%O%O%O%O%O%O%O%OX",
" O%OOO%OOO%OOO%OOO$$$$$$$$$$$$$$$$$$$$%OOO%OOO%OOO%OOO%X",
" %O%O%O%O%O%O%O%O%O$$$O$$$$$$$$$$$$$$%O%O%O%O%O%O%O%O%OX",
" O%O%O%O%O%O%O%O%O%$$$$$$$$$$$$$$$$$$O%O%O%O%O%O%O%O%O%X",
" %O%O%O%O%O%O%O%O%O%$$$$O$$$$$$$$$$$O%O%O%O%O%O%O%O%O%OX",
" %%O%%%O%%%O%%%O%%%O%$$$$$$$$$$$$$$O%%%O%%%O%%%O%%%O%%%X",
" %O%O%O%O%O%O%O%O%O%O%$$$$$$$$$$$$O%O%O%O%O%O%O%O%O%O%OX",
" %%%%%%%%%%%%%%%%%%%%%%$$$$$$$$$$%%%%%%%%%%%%%%%%%%%%%%X",
" %O%O%O%O%O%O%O%O%O%O%O%O$$$$$$%O%O%O%O%O%O%O%O%O%O%O%OX",
" %%%%%%%%%%%%%%%%%%%%%%%%%%%%%%%%%%%%%%%%%%%%%%%%%%%%%%X",
" %%%O%%%O%%%O%%%O%%%O%%%O%%%O%%%O%%%O%%%O%%%O%%%O%%%O%%X",
" %%%%%%%%%%%%%%%%%%%%%%%%%%%%%%%%%%%%%%%%%%%%%%%%%%%%%%X",
" %O%%%%%%%O%%%%%%%O%%%%%%%O%%%%%%%O%%%%%%%O%%%%%%%O%%%%X",
" %%%%%%%%%%%%%%%%%%%%%%%%%%%%%%%%%%%%%%%%%%%%%%%%%%%%%%X",
" %%%%%%%%%%%%%%%%%%%%%%%%%%%%%%%%%%%%%%%%%%%%%%%%%%%%%%X",
".XXXXXXXXXXXXXXXXXXXXXXXXXXXXXXXXXXXXXXXXXXXXXXXXXXXXXXX"
};
