/* XPM */
static char *magick[] = {
/* columns rows colors chars-per-pixel */
"48 48 27 1",
"  c Gray0",
". c #001071",
"X c #101071",
"o c #515151",
"O c #100086",
"+ c #101086",
"@ c #0010be",
"# c #202096",
"$ c #20209e",
"% c #203096",
"& c #30209e",
"* c #30309e",
"= c #4141ae",
"- c #4141be",
"; c #5141be",
": c #7171df",
"> c #7171ef",
", c #7182df",
"< c #8671ef",
"1 c #9ea29e",
"2 c #8682df",
"3 c #aeaedf",
"4 c #aebedf",
"5 c #aeaeef",
"6 c #beaeef",
"7 c #efefef",
"8 c None",
/* pixels */
"888888888888888888888888888888888888888888888888",
"888888888888888888881118888888888888888888888888",
"888888888888888888117771888888888888888888888888",
"888888888888888811777777188888888888888888888888",
"888888888888881177777777718888888888888888888888",
"8888888888881177777   77771888888888888888888888",
"88888888881177777  111 7777188888888888888888888",
"888888881177777  111111 777718888888888888888888",
"8888881177777  111111111 77771888888888888888888",
"88881177777  111111111111 7777188888888888888888",
"881177777  1111114131%111o 777718888888888888888",
"1177777  111111145464546ooo 77771888888888888888",
"177777 11111111X64O1141114oo 7777188888888888888",
"1777777 1111111641%&%*111641# 777718888888888888",
"oo777777 11111136.OXO.O#6#11&# 77771888888888888",
"ooo777777 1111161+1+.+#$#$#$1$# 7777188888888888",
"oooo777777 111646XOXoXO#11&#1#&# 777718888888888",
"ooooo777777 11464+.O.+.$#&#$#&#$# 77771888888888",
"oooooo777777 16364636.7X&#&#&#&#&# 7777188888888",
"ooooooo777777 46=541.7.+.$#$#$#$#$# 777718888888",
"oooooooo777777 4;464OXO1OXO#&#&X& &# 77771888888",
" oooooooo777777 =6@o,o.o:<:>.+.O.;=  77777188888",
"o oooooooo777777  12OoOo<:<:<=;=;   777777718888",
"oo oooooooo777777  1o+.+:>=>:-=   77777777771888",
"8oo oooooooo777777  oXoX<:<=;   7777777777777188",
"88oo oooooooo777777 oo >:<    777777777777777718",
"888oo oooooooo777777 o<:<   77777  7777777777771",
"8888oo oooooooo777777 :   77777  7777  777777777",
"88888oo oooooooo777777  77777  7777  777777777oo",
"888888oo oooooooo7777777777  7777  777777777oooo",
"8888888oo oooooooo77777777 7777  777777777oooooo",
"88888888oo oooooooo7777777777  777777777oooooo11",
"888888888oo oooooooo77777777 777777777oooooo11oo",
"8888888888oo oooooooo777777777777777oooooo11oo11",
"88888888888oo oooooooo777777777777oooooo11oo11oo",
"888888888888oo oooooooo777777777oooooo11oo11oo  ",
"8888888888888oo oooooooo777777oooooo11oo11oo  oo",
"88888888888888oo oooooooo777oooooo11oo11oo  ooo8",
"888888888888888oo oooooooooooooo11oo11oo  ooo888",
"8888888888888888oo ooooooooooo11oo11oo  ooo88888",
"88888888888888888oo oooooooo11oo11oo  ooo8888888",
"888888888888888888oo oooooo1oo11oo  ooo888888888",
"8888888888888888888oo oooooo11oo  ooo88888888888",
"88888888888888888888oo oooo1oo  ooo8888888888888",
"888888888888888888888oo oooo  ooo888888888888888",
"8888888888888888888888oo    ooo88888888888888888",
"88888888888888888888888oooooo8888888888888888888",
"888888888888888888888888ooo888888888888888888888"
};
