/* XPM */
static char *magick[] = {
/* columns rows colors chars-per-pixel */
"56 46 44 1",
"  c Gray100",
". c #bebabe",
"X c #000010",
"o c #beb6be",
"O c #aeaaae",
"+ c #aea6ae",
"@ c #c7bac7",
"# c Gray0",
"$ c #cfc7cf",
"% c Gray65",
"& c #080408",
"* c #ae5528",
"= c #ae9e59",
"- c #000808",
"; c #e7d79e",
": c #bec3cf",
"> c #aea671",
", c #aeb2cf",
"< c #000018",
"1 c #bec3be",
"2 c Cyan",
"3 c #d7dfe7",
"4 c #59a2d7",
"5 c #aeb228",
"6 c #003008",
"7 c #285d49",
"8 c #085928",
"9 c #188651",
"0 c #10a210",
"q c #aeaeb6",
"w c #5155ff",
"e c #d7d3d7",
"r c #ff61ff",
"t c #202020",
"y c #be2020",
"u c #aeaeae",
"i c #ffae00",
"p c #182020",
"a c #f7b2ae",
"s c #ffb610",
"d c #ff8e08",
"f c #cf5528",
"g c #9e9a9e",
"h c #dfae69",
/* pixels */
"                                                       .",
" ......................................................X",
" ......................................................X",
" ...o..o..o..o..o..o..o..o..o..o..o..o..o..o..o..o..o..X",
" O...O...+...O...O...+...O...O...+...O...O...+...O...O.X",
" ..o.@o...@o..@o..@o..@o..@o..@o..@o..@o..@o...@o..@o..X",
" O.O.O.O.O.O.O.O.+.O.O.O.O.O.+.O.O.O.O.O.+.O.O.O.O.O.O.X",
" .....O.o.....+.......O..o....O.##....+.......+...o...OX",
" O.+.+.O.O.+.O.O.+.+.O.+.###.O##$%&X.O.O.+.+.O.O.+.O.+.X",
" ...O...Oo..Oo..O##.+..#&*&=#-;:>;%$##o.O...O.o.O...O..X",
" O.+.O.+.O.O.O.##,,<-##***&&$%1;2;,;1%-X.+.O.O.O.+.+.O.X",
" .O...O.O.+..&-3434,,##**#-3>;45;,>>4;%$##Oo..+.O.O...OX",
" O.+.+.O.O.O#,4323234346&77890794;>4;4>;>6oO@O.O.+.OoO.X",
" .O.O.+.O.O.q<84:,3234-&##--X&-702;,>>;,-.+.O.O.O.O.O.OX",
" O.O.O.O.+.O.-*64343w2-er@r@r@<&77>>4866:q.O.O.+.O.O.O.X",
" O+.OOO.OOO.###*t2342w&rrerrer&y-896-5#X-uO.OOO.OO+.OOOX",
" O.O.+.O.O.O#ii#&&,442#@rrerre&yy----tiii#.O.+.O.O.O.+.X",
" OOOOOOOOOOO#iiii-p,2w&rrerrar&&&--&iiiiii#OOOOOOOOOOOOX",
" O.O.O.O.O.O#iiiiss<-w&errer@r@r-#iiiiiiii##.O.O.+.O.O.X",
" OOOOOO+OOOO#iiiiiiii&<rrerrarX&iiiiiiii##OOOOOOOOOOOOOX",
" OOO.OOO.OOO#iiiiiiiiii-#rer<XiiiiiiiiX##OOO.OOO.OOO.OOX",
" OOOOOOOOOOO#iiiiiiiiiiii&&&iiiiiiii##**#OOOOOOOOOOOOOOX",
" OOOOOOOOOOO#iiiiiiiiiiiii&=&iiiii##****#OOOOOOOOOOOOOOX",
" OOOOOOOOOOO#iiiiiiiiiiiiiXd*#ii##****f=#OOOOOOOOOOOOOOX",
" gOOOgOOOgOO#iiiiiiiiiiiii&=f*-#*****=fdXgOOOgOOOgOOOgOX",
" OOOOOOOOOOO#iiiiiiiiiiiii&=dh****f5fhd=#OOOOOOOOOOOOOOX",
" OOgOgOgOOOg#iiiiiiiiiiiii&d=fd**=fhd=fh&OOgOgOgOOOgOgOX",
" OOOOOOOOOOO#iiiiiiiiiiiii-fhd==d=dhfd=d&OOOOOOOOOOOOOOX",
" gOgOgOgOgOg#iiiiiiiiiiiii&=fhfd=fhf5hf=&gOgOgOgOgOgOgOX",
" OOOOOOOOOOO&iiiiiiiiiiiii&d=d=hfsfhdf=d&OOOOOOOOOOOOOOX",
" gOgOgOgOgOg##iiiiiiiiiiii&=fd=fh=d=fhd=&gOgOgOgOgOgOgOX",
" OgOOOgOOOgOO##iiiiiiiiiii&hdhfhdf=d=d&&+OgOOOgOOOgOOOgX",
" gOgOgOgOgOgOgO##iiiiiiiii#f=d=d=dhf-XqgOgOgOgOgOgOgOgOX",
" OgOgOgOgOgOgOgOg##iiiiiii<sf=dfhf#&gOgOgOgOgOgOgOgOgOgX",
" gOgOgOgOgOgOgOgOgO##iiiii#=dhf=&-ugOgOgOgOgOgOgOgOgOgOX",
" ggOgggOgggOgggOgggOg##iii&hf=-&gggOgggOgggOgggOgggOgggX",
" gOgOgOgOgOgOgOgOgOgOgO##i#dX&+%+gOgOgOgOgOgOgOgOgOgOgOX",
" gggggggggggggggggggggggg#&XgggggggggggggggggggggggggggX",
" gOgOgOgOgOgOgOgOgOgOgOgOgOgOg+g+gOgOgOgOgOgOgOgOgOgOgOX",
" ggggggggggggggggggggggggggggggggggggggggggggggggggggggX",
" gggOgggOgggOgggOgggOgggOgggOgggOgggOgggOgggOgggOgggOggX",
" ggggggggggggggggggggggggggggggggggggggggggggggggggggggX",
" gOgggggggOgggggggOgggggggOgggggggOgggggggOgggggggOggggX",
" ggggggggggggggggggggggggggggggggggggggggggggggggggggggX",
" ggggggggggggggggggggggggggggggggggggggggggggggggggggggX",
".XXXXXXXXXXXXXXXXXXXXXXXXXXXXXXXXXXXXXXXXXXXXXXXXXXXXXXX"
};
