/* XPM */
static char *magick[] = {
/* columns rows colors chars-per-pixel */
"48 48 63 1",
"  c Gray0",
". c Gray3",
"X c #101008",
"o c #101010",
"O c #181818",
"+ c #202020",
"@ c #202820",
"# c #282828",
"$ c #283030",
"% c #302828",
"& c Gray19",
"* c Gray22",
"= c #414141",
"- c #494949",
"; c #495151",
": c #515151",
"> c #595151",
", c #595951",
"< c Gray35",
"1 c Gray38",
"2 c Gray41",
"3 c #717171",
"4 c #797171",
"5 c #797979",
"6 c #798286",
"7 c #867986",
"8 c #868286",
"9 c #868a86",
"0 c #8e8a8e",
"q c #8e9296",
"w c #969296",
"e c #969a9e",
"r c #9e9296",
"t c #9e929e",
"y c #9e9a9e",
"u c #a6a29e",
"i c #a6a2a6",
"p c #a6a2ae",
"a c #aea2a6",
"s c #aeaab6",
"d c #aeb2ae",
"f c #b6b2b6",
"g c #beb2be",
"h c #bebabe",
"j c #bec3c7",
"k c #c7c3c7",
"l c #c7cbcf",
"z c #cfcbcf",
"x c #cfd3cf",
"c c #d7cbcf",
"v c #d7d3d7",
"b c #dfd3df",
"n c #dfdbdf",
"m c #e7e3e7",
"M c #e7ebe7",
"N c #efe3e7",
"B c #efebef",
"V c #f7f3ef",
"C c #f7f3f7",
"Z c #f7fbff",
"A c #fff3f7",
"S c #fffbff",
"D c None",
/* pixels */
"DDDDDDDDDDDDDDDDDDDDDDDDDDDDDDDDDDDDDDDDDDDDDDDD",
"DDDDDDDDDDDDDDDDzBDDDDDDDDDDDDDDDDDDDDDDDDDDDDDD",
"DDDDDDDDDDDDDDDDBv:yDDDDDDDDDDDDDDDDDDDDDDDDDDDD",
"DDDDDDDDDDDDDDDDSm:.wDDDDDDDDDDDDDDiBDwDDDDDDDDD",
"DDDDDDDDDDDDDDDhSmw=.8DDDDDDDDDDDDvSv.0DDDDDDDDD",
"DDDDDDDDDDDDDDDnCnvw+ :DDDDDDDDDDBSBw#DDDDDDDDDD",
"DDDDDDDDDDDDDDDBBnDf8&.+:<8DyDDenSCCi=DDDDDDDDDD",
"DDDDDDDDDDDDDDDCn0832811=%+##DSSSmzb8=DDDDDDDDDD",
"DDDDDDDDDDDDDDDSg:<-#+#&oX..+2qdDtiz:&DDDDDDDDDD",
"DDDDDDDDDDDDDDiS<o++Oo        o<09wD=#DDDDDDDDDD",
"DDDDDDDDDDDDDDvf=+X             =:5wo-DDDDDDDDDD",
"DDDDDDDDyeDDDvh+                 +=2O1DDDDDDDDDD",
"DDDDDDDDCy-,8f#                   o%&&yDDDDDkviD",
"DDDDDDDnSkw01o                     o:imBBBSSSk0D",
"DDBCnvvShDy1.                       -evCCZCBa=DD",
"DDvSSSSSfi3o                        @3kBmbBM$-DD",
"DDzSzmnki8#                         .:kCmznw wDD",
"DDDSzzfi8*.                          *zAmzh*&DDD",
"DDDmmfw3-O                           @kCBhr.3DDD",
"DDDzSy03&X                            3CBk3ODDDD",
"DDDDBht4$.                            &Nmn*:DDDD",
"DDDDjCu3*.                            +bnw DDDDD",
"DDDDDBh5*.                             lm#&DDDDD",
"DDDDDkC5;.                             h0.wDDDDD",
"DDDDDfSf3                             o7.1DDDDDD",
"DDDDDBCi<.                            o*:DDDDDDD",
"DDDDnSz0=o                            +--DDDDDDD",
"DDDhSBh2&+                            ##.DDDDDDD",
"DDDnZvw2=O                            =5 2DDDDDD",
"DDDBCht5-+                           XDno=DDDDDD",
"DDDSCf5-*++                          1nx5#DDDDDD",
"DDzBs&o.o$-.                        #yCj##DDDDDD",
"DDmk#o:0DD38X                      .2BCi*#DDDDDD",
"DDB<+qpDDD0Cf.                     =mSmi&=DDDDDD",
"DDk+yDDDDDDkS2@                  .-kSAvg<#DDDDDD",
"DD38DDDDDDDvSi1#o.             #<enSCmzc5o3DDDDD",
"DDDDDDDDDDDkCmr=#o           O5fmbVCmnccf+=DDDDD",
"DDDDDDDDDDDhBVh8==+O.     .*3hBSBbBmvzlzz< yDDDD",
"DDDDDDDDDDDDBCkw21<113;185wDpzSSBBSCNvcnf5o1DDDD",
"DDDDDDDDDDDimSkq0867tr8ii3=&:fBSD88kBNcDw:O=DDDD",
"DDDDDDDDDDDikSbiyw07>O   ##..3vh  &DDDDir=.#DDDD",
"DDDDDDDDDDDDgSNhDia1 *:8DDDD1:nX 3DDDDDDDDDDDDDD",
"DDDDDDDDDDDDDMSvhf0$:DDDDDDDDw3 1DDDDDDDDDDDDDDD",
"DDDDDDDDDDDDDyBCxk1OwDDDDDDDDDD0DDDDDDDDDDDDDDDD",
"DDDDDDDDDDDDDDdBAz1ODDDDDDDDDDDDDDDDDDDDDDDDDDDD",
"DDDDDDDDDDDDDDDajSuXDDDDDDDDDDDDDDDDDDDDDDDDDDDD",
"DDDDDDDDDDDDDDDD051 wDDDDDDDDDDDDDDDDDDDDDDDDDDD",
"DDDDDDDDDDDDDDDDDDi28DDDDDDDDDDDDDDDDDDDDDDDDDDD"
};
