/* XPM */
static char * image_name[] = {
"56 46 10 1",
" 	c #FFFFFFFFFFFF",
".	c #BEFBBAEABEFB",
"X	c #000000001040",
"o	c #BEFBB6DABEFB",
"O	c #AEBAAAAAAEBA",
"+	c #AEBAA699AEBA",
"@	c #C71BBAEAC71B",
"#	c #000000000000",
"$	c #FFFF14514103",
"%	c #9E799A699E79",
"                                                       .",
" ......................................................X",
" ......................................................X",
" ...o..o..o..o..o..o..o..o..o..o..o..o..o..o..o..o..o..X",
" O...O...+...O...O...+...O...O...+...O...O...+...O...O.X",
" ..o..@o...@o..@o.@o...@o..@o.@o...@o..@o.@o..@o.@o.@o.X",
" O.O.+.O.O.O.O.O.O.O.O.O.O.O.O.O.O.O.O.O.O.O.O.O.O.O.O.X",
" .....O...o...+.......+...o...O...o...+.......O.......OX",
" O.+.+.O.+.O.+.OoO.+.+.O.+.O.+.+.O.O.+.OoO.+.+.OoO.+.O.X",
" ...O...O...O...O...O...#######.O.o.O...O...O...O...+..X",
" O.+.+.+.+.+.O.+.+.+.#############.O.+.O.+.+.OoO.O.+.O.X",
" .O...O.O.O.o.O.O.O.###############...+.O.O...O.+.O...OX",
" O.+.O.+.O.O.O.+.O.######O.O.O.O####.O.O.+.OoO.O.O.+.+.X",
" .O.+.O.O.+.O.O.O.#####.O.O.O.O.O.###.+.O.O.O.O.+.O.O.OX",
" O.O.O.+.O.O.+.O.#####.O.O.+.O.O.O.###.O.+.O.O.O.O.+.O.X",
" OO.OOO.OOO.OOO.#####OO.OOO.OO+.OOO####.OOO.OO+.OOO.OOOX",
" O.O.+.O.O.+.O.#####.O.+.O.+.O.O.+.####O.O.+.O.O.+.O.O.X",
" OOOOOOOOOOOOOO#####OOOOOOOOOOOOOOOOOOOOOOOOOOOOOOOOOOOX",
" O.O.O.O.+.O.O.#####.O.O.O.O.O.O.O.O.O.O.+.O.O.O.O.O.O.X",
" OOOOOOOOOOOOO#####OOOOOOOOO+$$OOOOOO$$OOOOOOOO+OOO+OOOX",
" OOO.+OO.OOO.O#####O.OOO.+OO.$$+.OOO.$$O.OOO.OOO.OOO.OOX",
" OOOOOOOOOOOOO#####OOOOOOOOOO$$OOOOO+$$OOOOOOOOOOOOOOOOX",
" OOOOOOOOOOOOO#####OOOOOOO$$$$$$$$$$$$$$$$OOOOOOOOOOOOOX",
" OOOOOOOOOOOOO#####OOOOOOO$$$$$$$$$$$$$$$$OOOOOOOOOOOOOX",
" %OOO%OOO%OOO%#####OO%OOO%OOO$$OO%OOO$$+O%OOO%OOO%OOO%OX",
" OOOOOOOOOOOOO#####OOOOOOOOOO$$OOOOOO$$OOOOOOOOOOOOOOOOX",
" OO%O%O%OOO%O%O#####O%O%OOO%O$$%OOO%O$$%OOO%O%O%OOO%O%OX",
" OOOOOOOOOOOOOO#####OOOOOOOOOOOOOOOOOOOOOOOOOOOOOOOOOOOX",
" %O%O%O%O%O%O%O#####O%O%O%O%O%O%O%O####%O%O%O%O%O%O%O%OX",
" OOOOOOOOOOOOOOO#####OOOOOOOOOOOOOO####OOOOOOOOOOOOOOOOX",
" %O%O%O%O%O%O%O%O#####O%O%O%O%O%O%O###O%O%O%O%O%O%O%O%OX",
" O%OOO%OOO%OOO%OOO#####OOO%OOO%OOO###O%OOO%OOO%OOO%OOO%X",
" %O%O%O%O%O%O%O%O%O######%O%O%O%####O%O%O%O%O%O%O%O%O%OX",
" O%O%O%O%O%O%O%O%O%O###############O%O%O%O%O%O%O%O%O%O%X",
" %O%O%O%O%O%O%O%O%O%O#############O%O%O%O%O%O%O%O%O%O%OX",
" %%O%%%O%%%O%%%O%%%O%%%O#######O%%%O%%%O%%%O%%%O%%%O%%%X",
" %O%O%O%O%O%O%O%O%O%O%O%O%O%O%O%O%O%O%O%O%O%O%O%O%O%O%OX",
" %%%%%%%%%%%%%%%%%%%%%%%%%%%%%%%%%%%%%%%%%%%%%%%%%%%%%%X",
" %O%O%O%O%O%O%O%O%O%O%O%O%O%O%O%O%O%O%O%O%O%O%O%O%O%O%OX",
" %%%%%%%%%%%%%%%%%%%%%%%%%%%%%%%%%%%%%%%%%%%%%%%%%%%%%%X",
" %%%O%%%O%%%O%%%O%%%O%%%O%%%O%%%O%%%O%%%O%%%O%%%O%%%O%%X",
" %%%%%%%%%%%%%%%%%%%%%%%%%%%%%%%%%%%%%%%%%%%%%%%%%%%%%%X",
" %O%%%%%%%O%%%%%%%O%%%%%%%O%%%%%%%O%%%%%%%O%%%%%%%O%%%%X",
" %%%%%%%%%%%%%%%%%%%%%%%%%%%%%%%%%%%%%%%%%%%%%%%%%%%%%%X",
" %%%%%%%%%%%%%%%%%%%%%%%%%%%%%%%%%%%%%%%%%%%%%%%%%%%%%%X",
".XXXXXXXXXXXXXXXXXXXXXXXXXXXXXXXXXXXXXXXXXXXXXXXXXXXXXXX"};
