/* XPM */
static char *magick[] = {
/* columns rows colors chars-per-pixel */
"56 46 25 1",
"  c Gray100",
". c #bebabe",
"X c Gray0",
"o c #beb6be",
"O c #aeaaae",
"+ c #aea6ae",
"@ c #c7bac7",
"# c #9e9a9e",
"$ c #6986be",
"% c #f7b2ae",
"& c #bec3be",
"* c #080408",
"= c Gray65",
"- c #717986",
"; c #000018",
": c #aeaeb6",
"> c #aeaeae",
", c #000010",
"< c #a69ea6",
"1 c #dfba8e",
"2 c #a6a2a6",
"3 c #7992b6",
"4 c #000808",
"5 c #9696ae",
"6 c #b6aeb6",
/* pixels */
"                                                       .",
" ......................................................X",
" ......................................................X",
" ....o..o..o..o..o..o..o..o..o..o..o..o..o..o..o..o..o.X",
" O.o.O...+...+...O.o@O...+...O.o@....+...O.o@O...+...O.X",
" .....@o..@o...@o.....#$XXXXXXXX$#.o...@o......o...@o..X",
" O.+.O.O.O.O.O.O.O.+$XX.   % %.#$XX$.+.O.O.+.O.O.+.O.O.X",
" .....+.......o...$X.   .$XXXX$#..#XX.O..o....+.......OX",
" O.+.+.OoO.+.+..o#.  .#XXXXXXXXX$..XXO.O.O.+.O.+.+.+.+.X",
" ...O...O...O..%%  .#$XXXXXXXXXX..XXO...+...Oo..O...O..X",
" O.+.O.+.+.+..%   .#$XXXXXXXXXX..XXO.+.+.O.+.O.O.+.+.O.X",
" .O...O.O....%   %#$XXXXXXXXXX..XXO...O.O.O...+.O.O...OX",
" O.+.+.O..o%%    %#$XXXX$$###..XXO.O.+.O.+.O.O.O.+.OoO.X",
" .O.O.O.+..&%   .#$XXX#. .....XXO.+.O.+.O.##+.+.O.O.O.OX",
" O.O.+.O.O..%  .#$*XX. .XXXXXXXO.O.O.O.O.#XX.O.O.+.O.O.X",
" O+.OOO.OO+o% .#$XXX. XX$$#OOOO.OO+.OO+.#XXX$OO.OO+.OOOX",
" O.O.O.+.O.#  $$*XX. XX$OO.O.O.O.O.O.O.#XX=-;O.+.O.O.+.X",
" OOOOOOOOO#. .$XXX$ XX#OOOOOOOOOOOOOOO#XX=:$*OOOOOOOOOOX",
" O.O.+.O.O$% $*XXX..X$OO.O.O.O.+.O.+.#XX==X$X$.O.O.O.O.X",
" OOOOOOOOO$ .XXXX$.$XOOOOOOOOOOOOOOO#XX.#XX*$XOOOOOOOOOX",
" OOO.OOO.OX .XXXX$.*$OOO.OOO.+OO.OOOXX%#*XXX$*OO.+OO.OOX",
" OOOOOOOOOX $XXXX#.X#OOOOOOOOOOOOOOOX.#XXXX*$XOOOOOOOOOX",
" OOOOOOOOOX $XXXX#.X#OOOOOOOOOOOOOOOX.XXXXXX$*OOOOOOOOOX",
" OOOOOOOOOX $XXX*#=X#OOOOOOOOOOOOOOO*=XXXXXX$XOOOOOOOOOX",
" #OOO#OOO#X $XXXX#&*#OOOO#OOO#OOO#O#X#*XXXXX$XOOO#OOO#OX",
" OOOOOOOOOX #XXX*#=*$OOOOOOOOOOOOOO$X>XXXXXX#XOOOOOOOOOX",
" OO#O#O#OOX #XXXX-o-,#O#OOO#O#O#OOOX$.XXXXX$$*O#OOO#O#OX",
" OOOOOOOOO$.%XXX*,=<*$OOOOOOOOOOOO$*.$XXXXX$*$OOOOOOOOOX",
" #O#O#O#O##X $XXXX-o#X##O#O#O#O#O#X$.*XXXXX#X#O#O#O#O#OX",
" OOOOOOOOOOX..XXX*;#=#X$OOOOOOOO$*$%$XXXXX$$XOOOOOOOOOOX",
" #O#O#O#O#O$X%$XXXX*=1#*X$####$XX$ $*XXXXX#*$#O#O#O#O#OX",
" O#OOO#OOO#OX==XXXX**==#$XXXXX*$#%$XXXXXX#$XOO#OOO#OOO#X",
" #O#O#O#O#O#$X.#XXXXX*$=1#=1#=>.O$*XXXXX$$*$O#O#O#O#O#OX",
" O#O#O#O#O#O#,-=$XXXX**,$-222=$$*XXXXXX#$XXO#O#O#O#O#O#X",
" #O#O#O#O#O#O#,3=$XXXXX,X,XXX***XXXXXX$$*XO#O#O#O#O#O#OX",
" ##O###O###O##<X3=$XXXXXXXXXXXXXXXXXX#$XX##O###O###O###X",
" #O#O#O#O#O#O#O#,-@#XXXXXXXXXXXXXXXX$$*XO#O#O#O#O#O#O#OX",
" ###############O,4==$XXXXXXXXXXXX$#$XX################X",
" #O#O#O#O#O#O#O#O#-44==#$XXXXXX$$$$*X$O#O#O#O#O#O#O#O#OX",
" ################5:6-**$####$#$$X**$###################X",
" ###O###O###O###O##5:+#XXXXXXXX*$###O###O###O###O###O##X",
" ######################################################X",
" #O#######O#######+#######O#######O#######O#######O####X",
" ######################################################X",
" ######################################################X",
".XXXXXXXXXXXXXXXXXXXXXXXXXXXXXXXXXXXXXXXXXXXXXXXXXXXXXXX"
};
