/* XPM */
static char *magick[] = {
/* columns rows colors chars-per-pixel */
"56 46 22 1",
"  c #fffbff",
". c #beb6be",
"X c #bebabe",
"o c Gray0",
"O c #c7bac7",
"+ c #aea6ae",
"@ c #6986be",
"# c #eff3f7",
"$ c #717986",
"% c #bec3cf",
"& c #aeb2cf",
"* c #fff3ff",
"= c #080408",
"- c #386da6",
"; c #aeaeb6",
": c #9e9a9e",
"> c #aeaaae",
", c Gray59",
"< c #a69ea6",
"1 c #a6798e",
"2 c #9696ae",
"3 c #f7b2ae",
/* pixels */
"                                                       .",
" ..X...X...X...X...X...X...X...X...X...X...X...X...X...o",
" .O.O.O.O.O.O.O.O.O.O.O.O.O.O.O.O.O.O.O.O.O.O.O.O.O.O.Oo",
" X....................................... o............o",
" +XO.+O.O+XO.+O.O+XO.+O.O+XO.+O.O+XO.+O. .@.O+XO.+O.O+.o",
" O...X.X...X.X...X...X.X...X.X...X.. @o  oX..X..XX...X.o",
" +.+O+.+.+O+.+O+X+.+O+.+.+O+.+O+X+. .@@oo+.+O+.+.+O+X+Xo",
" ..X..+.O...O.+...O...+.O...O.+..O. @@@@o@OX..+.O.....+o",
" +O+.+O+.+.+.+.+O+.+O+.+.+.+.+.+.+. @@@@@o.+.+O+.+.+O+.o",
" ...+...+.O.+.O.+...+X.O+.O.+X.O+. @#@@@o@.O+...+.O.+.Xo",
" +X+O+.+X+.+X+.+.@O+.+.+.+.+.+.+. .X$%&o@+.+.+O+.+.+.+Oo",
" .+...+O+.+.O.+.@ @..O+.+X+O.O+. X.@%@o++.+.O.+.+O+.O.+o",
" +O+.+.+.+O+.+O$*  @.+.+O+.+.+. ..=@&.@+.+.+.+X+.+.+.+.o",
" .+.+O+.+.+.+.@    *$.+.+.+.+. .Xo+ .o+X+.+O+.+.+X+.+X+o",
" +X+.+.+O+.+.@       @X+. o+X*.Oo++ .@.+X+.+.+O+.+O+.+.o",
" ++.+++.+++X@     .   -O++ o X.o++ .o++X+++.+++.+++.+++o",
" +X+O+.+.+.@*    . X   @.+. .Xo+++ .@+X+.+O+.+.+O+.+O+Xo",
" ++++++++;$     .   X   @. O.o@++ .o+++++++++++++++++++o",
" +.+.+O+.@*    . . . .  @ ..oo @+ .@.+.+.+.+O+.+.+.+.+.o",
" +++++++@     .   .   X+ X.o+  o .=++++++++++++++++++++o",
" +++.++@     . X . .   @ .o@+ o@ .@+X+++O+++.+++X+++X++o",
" +++++@     X   .   : @ .o. @++ .o@++++++++++++++++++++o",
" ++++@     . . . X : o .oX   @+ X@ o+++++++++++++++++++o",
" +++@     .   .   ..o .o. .  + .o++ o++++++++++++++++++o",
" :+@     . . . X . o .oX . . @ .@:+++++++++:::+++++++++o",
" +@     .   X   . @ .o.     + .o@+++++++++::::::::+++++o",
" +     . . . . . .: oO...X..@ X@.o:::::::::::::::++:+:+o",
" +    .   X   .   :o...O.OX> .o.X.o:::::::,:,::<+++++++o",
" :   . . .   . X .o. . . .*@ .@.  .o:::,:::12::++:+:+:+o",
" +  .   X   .   o@  .   . + .oX . 3.o:21:+++:++++++++++o",
" : . . .   . X o @ . X .  @ .@  3XXO.o+:+2+:+:+:+:<:+:+o",
" +.   X   .   o 3 o   .  + .=3..O...  -+++:++<:+++:+++:o",
" : . . . . X o 3 3 o . X @ .@.XX.. .   @+:+:+<+:+:+:+:+o",
" +  .   .   o 3 3 3 o   + XoXX..    X   -<<<<<:<:+:+:+:o",
" : . . X . o 3 3@3 3 o  @ o..O*X*. .     =+:+:+<<:+:<:+o",
" :.   .   o 3 3 3 3 3 o oo.X  .   .     =-:+<1:+<1:+:::o",
" : . X . @ 3 3 3 3 3 3 @ . . . . .     o@++:+2+:+2+:+:+o",
"*:  .   @:::::<:<::<::::@   .   X     o@:::::::::::::::o",
" :*. . . . . . . . . . . . . . .     o@:+:<:+:<:<<<:<:+o",
" :X   .   .   .   .   .   .   .     o@:::::<1:::<1::<::o",
" :*. X . . . . . . . . . . X .     o@:::<:::+2:1+2::<::o",
"*:  .   .   .   .   .   .   .     o@:::::21::::2::<1:::o",
" : . . . X . . X . X . X . .     o@,::,:::+2::::::<<:::o",
" :.   X   .   .   .   .   X     o@::::21:::<1:<1:::::::o",
" ::::::::::::::::::::::::::::::::::::,:<::::::::2::12::o",
".oooooooooooooooooooooooooooooooooooo=ooooooo=oo=o===ooo"
};
