/* XPM */
static char *magick[] = {
/* columns rows colors chars-per-pixel */
"56 46 16 1",
"  c Gray100",
". c #bebabe",
"X c Gray0",
"o c #beb6be",
"O c #aeaaae",
"+ c #aea6ae",
"@ c #c7bac7",
"# c #6986be",
"$ c #9e9a9e",
"% c #080408",
"& c #717986",
"* c #000018",
"= c #000010",
"- c #f7b2ae",
"; c #bec3be",
": c #a69ea6",
/* pixels */
"                                                       .",
" ......................................................X",
" ......................................................X",
" ...o..o..o..o..o..o..o..o..o..o..o..o..o..o..o..o..o..X",
" O...O...+...O...O...+...O...O...+...O...O...+...O...O.X",
" ..o..@o..@o..@o..@o..@o..@o..@o..@o..@o..@o.....@o.@o.X",
" O.O.+.#XXXXXXXXXXXXXXXX#O.O.+.O.O.O.O.O.+.O.+.+.O.O.O.X",
" .....O##XXXXXXXXXXXXXX##.....O.......+.......O.......OX",
" O.+.O.#$$ ..$..$.$.. .$#+.+.O.+.+.+.O.O.+.+.O.+.+.+.O.X",
" ...+..#XXXXXXXXXXXXXXXX#$..Oo..O...Oo..+...Oo..O. X+..X",
" O.O.O.#X#$XXXXXXXXXXXXX#$.O.O.+.O.+.O.O.O.+.O.O. .#.O.X",
" .+...+#XXXXXXXXXXXXXXXX#$+...O.+.O...O.+.O.. #X  X...OX",
" O.O.+.#X##############X#$.+.+.O.O.+.O.O.O.O .##XX.O.+.X",
" .O.+.O#X$............$X#$+.O.O.O.O.O.+.+.O. ####X#.O.OX",
" O.O.+.#%$ .......$$#.$X#$.+.O.+.+.O.+.O.O.. &####X+.O.X",
" OO.O+O#X$ .....$.$$$.$%#$+.+OO.OOO.OOO.O+. # ###X#.OOOX",
" O.O.O.#X$$###&########%#$.O.+.O.O.+.O.O.. ..#@.%#.+.O.X",
" OO++OO##XXXX%*=%%X%%%%##$OOOOOOOOOOOOO+. ..#.#XOOO+OOOX",
" O.O.O.#                #$.+.O.O.O.O.O.. ..X#..#.O.+.O.X",
" OOOOOO# .$ .$ .$ .$ .$ #$OOO+OOOOOOOO. ..X# .XOO+OOOOOX",
" OOO.+O#                #$OO.OOO.O X.. ..X#+ .#O.OOO.OOX",
" OOOOOO# .$ .$ .$ .$ .$ #$OOO+OOOOO X ..X#O .XOOOOO+OOOX",
" OOOOOO#                #$OOOOOOOOO. ..X#+O .#+OO+OOOOOX",
" OOOOOO# #X #X #X -- -- #$OOOOOOOO. ..X#OO .XOOOOOOOOOOX",
" $OOO$O# XX XX XX -; -; #$OOO$OOO. ..XX #$ .#$OOO$OOO$OX",
" OOOOOO#                #$OOOOOOO-..X#  X .X+OOOOOOOOOOX",
" OO$O$O# #X #X #X $$ $$ #$O$O$O$O .X#$ X# .#O$O$OOO$O$OX",
" OOOOOO# XX XX XX $# $# &$OOO. X .X#OOOO .X#OOOOOOOOOOOX",
" $O$O$O#                #:O$O X .X#$+$O$ .# X$O$O$O$O$OX",
" OOOOOO# #X #X #X $$ $$ #$OOOO .X#+OOOO .XOO XOOOOOOOOOX",
" $O$O$O# XX XX XX $# $# #$O$O .X#$O$O$O .#+$O$O$O$O$O$OX",
" O$OOO$#                #$$O .X#+O$OOO .XO$OOO$OOO$OOO$X",
" $O$O$O#XXXXXXXXXXXXXXXX#$+$ X#$O$O$O$ .#$O$O$O$O$O$O$OX",
" O$O$O$$################$$$OX#$O$O$O$ .X$O$O$O$O$O$O$O$X",
" $O$O$O$$$$$$$$$$$$$$$$$$$OXO$O$O$O$O .#+$O$O$O$O$O$O$OX",
" $$O$$$$$$$$$$$$$$$$$$$$$$#O$$$O$$$O .XO$$$O$$$O$$$O$$$X",
" $O$O$O$O$O$O$O$O$O$O$O$O$O$O$O$O$O$ .#$O$O$O$O$O$O$O$OX",
" $$$$$$$$$$$$$$$$$$$$$$$$$$$$$$$$$$ .X$$$$$$$$$$$$$$$$$X",
" $O$O$O$O$O$O$O$O$O$O$O$O$O$O$O$O$O .#+$O$O$O$O$O$O$O$OX",
" $$$$$$$$$$$$$$$$$$$$$$$$$$$$$$$$$ .X$$$$$$$$$$$$$$$$$$X",
" $$$O$$$O$$$O$$$O$$$O$$$O$$$O$$$O$ XO$$$O$$$O$$$O$$$O$$X",
" $$$$$$$$$$$$$$$$$$$$$$$$$$$$$$$$$X$$$$$$$$$$$$$$$$$$$$X",
" $O$$$$$$$O$$$$$$$O$$$$$$$O$$$$$$$$$$$$$$$O$$$$$$$O$$$$X",
" $$$$$$$$$$$$$$$$$$$$$$$$$$$$$$$$$$$$$$$$$$$$$$$$$$$$$$X",
" $$$$$$$$$$$$$$$$$$$$$$$$$$$$$$$$$$$$$$$$$$$$$$$$$$$$$$X",
".XXXXXXXXXXXXXXXXXXXXXXXXXXXXXXXXXXXXXXXXXXXXXXXXXXXXXXX"
};
