/* XPM */
static char *magick[] = {
/* columns rows colors chars-per-pixel */
"56 46 18 1",
"  c Gray100",
". c #bebabe",
"X c #000010",
"o c #beb6be",
"O c #c7bac7",
"+ c #aea6ae",
"@ c #9e9a9e",
"# c Gray0",
"$ c #79869e",
"% c #aeaaae",
"& c #080408",
"* c #000018",
"= c #fffbff",
"- c #a69ea6",
"; c #fff3ff",
": c #a6798e",
"> c #9696ae",
", c Gray59",
/* pixels */
"                                                       .",
" ......................................................X",
" .oooooooooooooooooooooooooooooooooooooooooooooooooooooX",
" Oo.OoO.OoO.OoO.OoO.OoO.OoO.OoO.OoO.OoO.OoO.OoO.OoO.O.OX",
" +.oo+oo.+ooo+.oo+oo.+ooo+.oo+oo.+ooo+.oo+oo.+ooo+ooo+oX",
" .ooOo.Oooo.OoooOo.Oooo.OoooOo.Oooo.OoooOo.Oooo.Oo.Ooo.X",
" +o@o+o@o+O@o+o@o+o@o+O@o+o@o+o@o+O@o+o@o+o@o+O@o+o+.+oX",
" .OoOo+oOooooO+o.OooOo+oo.OoOo+oOooooO+o.OooOo+oooo.oO+X",
" +o+.+o+o+o+o+o+o+o+.+o+o+#####+.+o+o+o+o+o+.+o+O+o+o+.X",
" ooo+.Oo+OoO+.Oo+.Oo+o.O+##$$$##+.Oo+.Oo+.Oo+oOo+o.O+o.X",
" %O+o+o+o+.+.######+##o+##$###$##+.####+o+o+o+.+o+o+o+oX",
" .+ooo+o+o+o.######.##+##$#####$##+####o+o+.Oo+o+O+o.O+X",
" +.+O+o+O+o+o+#########################&o+o+o+o+o+o+o+.X",
" .+o+o+.+o+o+##$$$$$$$$$$$$$$$$$$$$$$$$##O+o+o+O+o+o+.+X",
" +.+o+O+o+O+o############$&####$&########+o+O+.+o+O+o+oX",
" ++o+++o+++.+############################++.+++o+++o+++X",
" +o+O+.+o+o+o#############....o##########+o+o+o+O+.@O+oX",
" ++++++++++++############o.*#*o.#########++++++++++++++X",
" +.+.+o+.+o+O####$$#####..*   X..########+.+o+.+o+o+o+oX",
" ++++++++++++####$$#####.X     *.########++++++++++++++X",
" +++o+++o+++.####$$#####.#     #.X#######+++O+++o+++o++X",
" ++++++++++++##########Xo.#   Xo.########++++++++++++++X",
" ++++++++++++############..X##..X########++++++++++++++X",
" ++++++++++++#############=....##########++++++++++++++X",
" @+++@+++@+++###############X#X##########@+++@+++@+++@+X",
" ++++++++++++############################++++++++++++++X",
" ++@+@+@+++@+@##########################+++@+@+@+++@+@+X",
" +++++++++++++++++++++++.#####.+.+.++++++++++++++++++++X",
" @+@+@+@+@+@+@+@+@+@+@+@#######@+@+@+@+@+@+@+@+@+@+@+@+X",
" ++++++++++++++++++++++#########+++++++++++++++++++++++X",
" @+@+@+@+@+@+@+@+@+@+@###@###+###@+@+@+@+@+@+@+@+@+@+@+X",
" +@+++@+++@+++@+++@++###++###+@###@+++@+++@+++@+++@+++@X",
" @+@+@+@+@+@+@+@+@+@###@+@###@+@###@+@+@+@+@+@-@+@+@+@+X",
"=+@+@-@+@-@-@+@-@+@###@+@+###+@+@###@+@+@-@-@+@+@-@+@+@X",
" @+@+@+@+@+@+@+@+@###@+@+@###@+@+@###@+@--+@+@+@+@+@-@+X",
";@@+@@@+@@@+@@@+@###@@@+@@###@@+@@@###@+@@@+@@@+@@@+@@@X",
" @-@+@---@+@-@+@###@+@+@+@###@+@+@+@###@-@+@+:+@+@---@+X",
";@@@>:@@@@>:-@@@##@@@@@@@@###@@@@@@@@##@@@@@@>@>:@@@@@@X",
" @+@+-+@--+@+@-@+@+@-@-@-@+@+@-@-@-@+@+@+@----+@+-+@+@+X",
";@@@@@@@>:@@@@@@@@@@@@@@@@@@@@@@@@@@@@@@@>:@@@@@@@>:@@@X",
" @@@-@:-+@-:+>@:+@@@+@@:+@@@-@@@--@@-@@@--@@+:-@+@@--@@X",
"=>:@@@>@@@@>@@@>@@@@>:@->@@@@>:@@>:@@>:@@@@@>@@@>:@@@@@X",
" @+-@@@@@@-@@@@@@:+@@>@@,@-@@@-@@@+-@@@@@:+@@@@:>@+@@@@X",
"=@@@>:@>:@@@@-:@@>@@@@@@@@>:@@>:@@@>:@@@@-@>:@@@@@@>:@@X",
" @@@@@@@@@@:>@@>@@@:>@:-@@@-@@@@>@@@@>@:>@@@@>@@@@@@-@@X",
".XXXX*XXX***XXXXXX**XX*XXXXXXXXXXXXXXX**XXXXXXXXXXXXXXXX"
};
