/* XPM */
static char *magick[] = {
/* columns rows colors chars-per-pixel */
"56 46 19 1",
"  c Gray100",
". c #bebabe",
"X c #000010",
"o c #beb6be",
"O c #aeaaae",
"+ c #c7bac7",
"@ c #aeaeae",
"# c #aea6ae",
"$ c Gray0",
"% c #285d49",
"& c #be2020",
"* c #b6aeb6",
"= c #cf5528",
"- c #202020",
"; c #ef2851",
": c #9e9a9e",
"> c Gray65",
", c #080408",
"< c #a6798e",
/* pixels */
"                                                       .",
" ......................................................X",
" ......................................................X",
" .o..o.o.o.o.o.o.o.o.o.o.o.o.o.o.o.o.o.o.o.o.o.o.o.o.o.X",
" O...O+..O.+.O..+O...O+..O.+.O..+O...O+..O.+.O..+O...O.X",
" o+o..o....o....o.....o....o....o.....o....o...o..+o...X",
" @.O.O.O.#.O.#.O.OoO.O.O.#.O.#.O.OoO.O.O.#.O.O.O.O.O.#.X",
" .....Oo......$$$$$$$$$$$$$$$$$....+o.Oo......#..o....OX",
" O.#.#.O.#.#.O$O.O.O.O.O.O.O.O$O.#.O.O.O.#.#.#.O.O.#.#.X",
" ...O...O...O%$.$.$.#...#...O.$.#...O...#...O...#...O..X",
" O.#.#.#.#.#.%$O$O$O.OoO.OoO.#$O.O.#.#.#.OoO.#.O.#.#.O.X",
" .#...O.O.O..%$.$$$.$$$$$$$$$$$$$$$$$.O.O.O...#.O.O...OX",
" O.O.#.#.O.#.%$O.O$O$O.O.O.O.O.O.O.O$O.#.O.#.O.O.#.#.#.X",
" .#.O.O.#.O.O%$.O.O.$.O.&.#.O.O.#.O.$.O.#.O.O.#.#.O.O.OX",
" O.O.#.O.O.O.%$O.#.O$O.#&O.O.#.O.O.#$O.O.O.#.O.O.O.#.O.X",
" OO.OOO.O#O*O%$.OO$$$O&.&O$$$$$$$$$$$$$$$$$.OO#.OO#.OOOX",
" O.#.O.#.O.O.%$O.O$$$O.&.O$O.O.O.O.O.O.O.O$O.O.O.O.O.#.X",
" OOOOOOOOOOOO%$OOOOO$OO#OO$OO$OOOOOOOOOOOO$O#OO#OO#OOOOX",
" O.O.#.O.O.O.%$O.O.O$O.O.O$O$O$O.#.O.#.O.O$O.O.O.O.O.O.X",
" OOOOOOOO#OOO%$OOOOO$OOOOO$O$$$OOOOOOOO#OO$OOOOOOOOO#OOX",
" OOO.OOO.OOO*%$O.#OO$OO$$O$O$O$O.OOO.OOO.O$O.#OO.#OO.OOX",
" OOO#OO#OOOO@%$OOOOO$O.=$=$OOOOO#OOO#OOOOO$OOOOOOOOOOOOX",
" OOOOOOOOOOOO%$OOO$$$OO=-;X*OOOOOO$OOOOOOO$OOOOOOOOOOOOX",
" OOOOOOOOOOOO%$OOO$$$O.=$X$OOOOOO$$$OOOOOO$OOOOOOOOOOOOX",
" :OOO:OOO:OOO%$OO:OO$:*=-=$.O:OO$$$$$:OOO:$OO:OOO:OOO:OX",
" OOOOOOOOOOO@%$OOOOO$O.;$=XOOOO$$$$$$$OOOO$OOOOOO#OOOOOX",
" OO:O:O:OOO:O%$:OOO:$:O=-X$>#:O$$$$$$$O:OO$:O:O:OOO:O:OX",
" OOOOOOOOOOOO%$OOOOO$*>.X=$OOOO$$O$O$$OOOO$OOOOOOOOOOOOX",
" :O:O:O:#:O:O%$:O:O:$:*>$=X>@:O:O:$:O:O:O:$:O:O:O:O:O:OX",
" OOOOOOOOOOO@%$$$$$$$O@*.$,@OOOOO$$$OOOOOO$OOOOOOOOOOOOX",
" :O:O:O:O:O:O%%%%%%%$:O:O>,>O:O:$$$$$:O:O:$:O:O:#:O:O:OX",
" O:OOO:OOO:OO@<@@@<%$O:O@o,OOO:OOO:OOO:OOO$OOO:OOO:OOO:X",
" :O:O:O:O:O:O:O:O:@%$:O:O:$:O:O:O:O:O:$:$:$:O:O:O:O:O:OX",
" O:O:O:O:O:O:O:O:O:%$$$$$$$O:O:O:O:O:O$$$O$O:O:O:O:O:O:X",
" :O:O:O:O:O:O:O:O:O%%%%%%%$:O:O:O:O:O:$:$:$:O:O:O:O:O:OX",
" ::O:::O:::O:::O:::@:<:O<%$O:::O:::O:::$::$O:::O:::O:::X",
" :O:O:O:O:O:O:O:O:O:O:O:O%$:O:O:O:O:O:O:O:$:O:O:O:O:O:OX",
" ::::::::::::::::::::::::%$$$$$$$$$$$$$$$$$::::::::::::X",
" :O:O:O:O:O:O:O:O:O:@:O:O%%%%%%%%%%%%%%%%:O:O:O:#:O:O:OX",
" :::::::::::::::::::::::::<::<::<::<::<::::::::::::::::X",
" :::O:::#:::O:::O:::O:::O:::@:::*:::@:::@:::O:::O:::O::X",
" ::::::::::::::::::::::::::::::::::::::::::::::::::::::X",
" :O:::::::O:::::::O:::::::O:::::::@:::::::O:::::::O::::X",
" ::::::::::::::::::::::::::::::::::::::::::::::::::::::X",
" ::::::::::::::::::::::::::::::::::::::::::::::::::::::X",
".XXXXXXXXXXXXXXXXXXXXXXXXXXXXXXXXXXXXXXXXXXXXXXXXXXXXXXX"
};
