/* XPM */
static char *magick[] = {
/* columns rows colors chars-per-pixel */
"48 48 59 1",
"  c Gray0",
". c #000808",
"X c #081008",
"o c #100008",
"O c #101018",
"+ c #102000",
"@ c #102c18",
"# c #002428",
"$ c #282008",
"% c #303028",
"& c #183869",
"* c #303041",
"= c #084900",
"- c #104928",
"; c #107918",
": c #206138",
"> c #387128",
", c #086171",
"< c #384941",
"1 c #491810",
"2 c #413000",
"3 c #792028",
"4 c #411c41",
"5 c #590869",
"6 c #413849",
"7 c #414918",
"8 c #695118",
"9 c #614130",
"0 c #414d59",
"q c #595951",
"w c #694941",
"e c #794d49",
"r c #794171",
"t c #616971",
"y c #696971",
"u c #3061ae",
"i c #7949b6",
"p c #5971d7",
"a c #7161c7",
"s c #309661",
"d c #519230",
"f c #38a296",
"g c #388acf",
"h c #71828e",
"j c #69c38e",
"k c #9e5520",
"l c #8e7d30",
"z c #9e798e",
"x c #be5196",
"c c #9661d7",
"v c #a6ba41",
"b c #a6d371",
"n c #df9238",
"m c #cfc338",
"M c #968aef",
"N c #96d79e",
"B c #c7929e",
"V c #efa29e",
"C c None",
/* pixels */
"CCCCCCC%*CCCCCCCCCCCCCCCCCCCCCCCCCCCCCCCCCCCCCCC",
"CCCCq    CCCCCCllll55llllrrrlCCCCCCCCCCCCCCCCCCC",
"C        CCCCllr555555lr555rdmlCCCCCCCCCCCCCCCCC",
"C%       CCl555rrrrllll8l;2.  llllCCCCCCCCCCCCCC",
"Ct     C6qt555rklllklk+$ X     $dlllCCCCCCCCCCCC",
"CC %<<<<tyw9rrklr$oX           @v>llllCCCCCCCCCC",
"CC% t60qy999r.                  :7vvdllCCCCCCCCC",
"CCt 5<tqrrrrr%          $=777; +<>qjbjjqCCCCCCCC",
"CCC tqrr5rznz8     $22$2227777X >7dvvvbyyCCCCCCC",
"CCC <rr55znnnlo$67271;272;2;77@ <>7jvjbNqhCCCCCC",
"CCC* z555xnxnz1 827922$2$277dldX>7dbNjbjbwhCCCCC",
"CCCr V555nVnznw e9722;8;llldlvv 7d>jbbjbNjqCCCCC",
"CCrr e855nznzkz 838klllklldvdvs% ddvjbbNbNdyCCCC",
"CCrzo6x55xVnznzo186lllk8lllvlsv>ob:jbNNNNNN<CCCC",
"CrrVo n55VnVnxn1 k7klk88ldlvsvbb b>dNNNNNNNqtCCC",
"Cr    V55VVVVnV8 lwlkll8lldvvsbsXNd>NbNNNNNj%CCC",
"%     V5eVVxnVnzoe9kllllllvdv% X  bdNNNNNNNN:yCC",
"      V54VVVVVVn.2e9BCCNCbls7     NdNNNNNNjNd<CC",
"     $4wwxVxVxVV  CeCeqeqyCC      NdNNNjjNjjjOCC",
"6    w9w4VxVx9o   C@600tqyyh      q;0Njjjjj:-@CC",
"r11O943w4xVx1     C*%eqeyehC$     >q>jjN;+.  @CC",
"rxx94449rxxxX     q@%t@@<hCCC#-+>.:>:..      :qC",
"rxxe6463xxxxo    O@%%@@  CCCCej>0 O::@       :%C",
"rxxx4erxxxxx1    <%@*@   CCCC<fd:+.:<;.    s0@OC",
"rxexxxexexexx11ow<%*<6  CCCBC<-    f:fo@:<:<:O+C",
"rxxrxrxxxrxrxrr440*6<yCCCCCCCO     f::@ s;:::@OC",
"rrxrxrrx5xrrrr5446%%yyCCCCCCq      f:0; ;<-0-#wC",
"rrxrrxrrx5rrrrr554qhyhCCCCCC@     +--:f s-,ff@hC",
"rrrrrr5x5x5r5r5555zyCCCCCCy@s#    ---4;.#::ssOCC",
"rrrrx5r5r5r55555riirteyyq%&gg,#@O-#&--s#.,-f,+CC",
"rr5x5rrr5r555555r5iiait0&apgggss-#-#-&,:.s-,:@CC",
"rr5555x55555r5iriiiicMMMMgpgggg,,---#,s,+;-;OtCC",
"Cr55r5555555r5r5iiiccaMMpMfpggggs&:&,,;,X#:#+CCC",
"Cr55555555r5i5iiiiiacMMMMppppggggss,,,,,. ,#qCCC",
"CC55555555i5i5iiiiiccMMMMpppfpguggss,- .  ,oyCCC",
"CC5z55r5r5i5iriiiicacMMMMMgpppgggggg#     @@qCCC",
"CCC5r555i5ri5iiiicacMMMMMgppfpgpgggg      Xw<CCC",
"CCC5555i5i5iiiiicacMpMMMMMpppppfuggg     .@66CCC",
"CCCCz5r5i5iiriiiicacMcMMMMMgppfpgggg@    %<<<CCC",
"CCCCC5rriiiiiiiicacpMMMMMgMppppgpgggg##.O<<<<CCC",
"CCCCCCe05iriiiiiccccMcMMMMppppgpfugpgg@o<<<<eCCC",
"CCCCCCCCeiiiiicciacMpMMMMMpgpppfpgpgg#%0<<<<CCCC",
"CCCCCCCCy6riiiicacacMcMMMMMMppppgpgs+6CCeteCCCCC",
"CCCCCCCCCy<6iicacMMaMMMMMgMgpppfpg*XyCCCCCCCCCCC",
"CCCCCCCCCCCC<6iacaMcaMMMMMpMpppu<+<zCCCCCCCCCCCC",
"CCCCCCCCCCCCCq@60acaMMMMMMpMp0@+0CCCCCCCCCCCCCCC",
"CCCCCCCCCCCCCCCy%O@@60&004@OX%tCCCCCCCCCCCCCCCCC",
"CCCCCCCCCCCCCCCCCCCyq0<<00ChCCCCCCCCCCCCCCCCCCCC"
};
