/* XPM */
static char *magick[] = {
/* columns rows colors chars-per-pixel */
"56 46 41 1",
"  c Gray100",
". c #bebabe",
"X c Gray0",
"o c #beb6be",
"O c #aeaaae",
"+ c #c7bac7",
"@ c #aeaeae",
"# c #aea6ae",
"$ c #9e9a9e",
"% c #6986be",
"& c Gray65",
"* c #bec3be",
"= c #dfba8e",
"- c #717986",
"; c #aeaeb6",
": c #080408",
"> c #cfc7cf",
", c #bec3cf",
"< c #000808",
"1 c #f7b2ae",
"2 c #000010",
"3 c #aeb2cf",
"4 c #b6aeb6",
"5 c #7992b6",
"6 c #000018",
"7 c #386da6",
"8 c #5155ff",
"9 c #a69ea6",
"0 c #59a2d7",
"q c #79869e",
"w c Gray59",
"e c #d7d3d7",
"r c #9696ae",
"t c #ffffd7",
"y c #ffe7be",
"u c #ffffc7",
"i c #e7d79e",
"p c #fffbff",
"a c #a6798e",
"s c #867986",
"d c #a6a2a6",
/* pixels */
"                                                       .",
" ......................................................X",
" ......................................................X",
" ..o.o.o.o.o.o.o.o.o.o.o.o.o.o.o.o.o.o.o.o.o.o.o.o.o.o.X",
" O...O.+.O...O.+.O...O.+.O...O.+.O...O.+.O...O.+.O...O.X",
" .o+o..o...+o..o...+o..o...+o..o...+o..o...+o..o...+o..X",
" O.@.O.O.#.O.O.O.#.O.O.O.#.O.O.O.#.O.O.O.#.O.O.O.#.O.O.X",
" .....Oo....$%%%...o..$%%%%%%%%%$$o...#...o...Oo....o.OX",
" O.#.#.O.#.%%#&.%#.O$%%#&*&*&*&O$%%%$O.#.O.OoO.O.#.O.O.X",
" ...O...O.X$o=*&.%..X o=.&o=.&o=*&#$%%$.Oo..O...O.o.Oo.X",
" O.#.#.#.X&*&.&.=o-;:X o&*&>&.&.&.=o&@%%.#.O.#.#.O.O.#.X",
" .#...O.X=.&>&*&o;,%XX<1>&o=.&>&*&o&o=*&%.#o..O.O.#...OX",
" O.OoO.%->&.&*&>&*&.%XX< .&*&*&=&*&>&*&.=-,O.#.#.O.O.O.X",
" .O.O.O:,1.1.1.1 1 1 XX2<1*=@=>&*=.&*&>&34%.O.O.O.#.#.OX",
" O.O.#.X-%%-%-5--%-;.XXXX21*&.&>&.&>=o&*&.-;oO.#.O.O.O.X",
" O#.OOO66%6%2%6%6%6-$XXXX<:&.=o&*=*&o&o=.&37O#O.OOO.#OOX",
" O.O.O.X%:%2%2%2%6%6%:XXX2::&&---85-------%6+O.O.#.O.O.X",
" OOO#OOX:%::$$$$#$$O$$$$$9&;-1,-%5-%%580%%%:O#OOOOOOOOOX",
" O.O.O.%::::$$$$$$$$$$$$$$$-,111,%%%%%5q85%:+@.O.O.#.O.X",
" OOOOOO#@#@X$$$$$$$$$$$$$w3-111111>%%%%%5%:XOOOOO#OOOOOX",
" OOO.OOO.@#:$$$$$$$$$$$$$$-,11111111e%%%%%:X.OOO.OOO.#OX",
" OOOOOOO##@X%$$$$$$$$$$$r;%111t1y11111+%%::XOOOOOOOOOOOX",
" OOOOOOOO##:X$$$$$$$$$$$$-,1111111111111>:XXOOOOOOOOOOOX",
" OOOOOOOOO@XXXO$$$$$$$$r;%111111t111u1111XXXOOOOOOOOOOOX",
" $OOO$OOO$#%:XX.#$$$$$$$-,11y111111y1111@<X%#$OOO$OOO$OX",
" OOOOOO@#OO%XXXX%.O$$$r;%1111111111111i*&<X#OOOOOOOOOOOX",
" OO$O$O$#OO$%:X:XX.o.o##+11t111y1 11,&@&&<-;#$O$OOO$O$OX",
" OOOOOOOOOOO#XXXXX:%..        1p1@o=@=&=@6;#OOOOOOOOOOOX",
" $O$O$O$O$O$O$XXXXX:X%%%&&&&&&=;=@&&&&=a2$#$O$O$O$O$O$OX",
" OOOOOOOOOOOO#O:XXXX:2%-=o&=@=&&&&i&&&2X@OOOOOOOOOOOOOOX",
" $O$O$O$#$O$O$@$%:XXXXX%;&&&=&4=&=&s::-;O$#$O$O$O$O$O$OX",
" O$OOO$@OO$OO#$O##%XX:6-&=&=&=&;-:22%#;O##$O#O$OOO$OOO$X",
" $O$O$O$#$O$O$O$O$O$O%%6::::X2X2-%4$4$#r@$@$@$O$O$O$O$OX",
" O$O$O$O$O$O$O$O$O$#$#$#$Od#d#&#3;$O$#$@$O$O$O$O$O$O$O$X",
" $O$O$O$O$O$O$O$O$O$O$O$O$#$#$#$oo..............o....$OX",
" $$O$$$@$$$O$$$O$$$O$$$O$$$O$$$@+1.1o..o.o..o.o....o.%$X",
" $O$O$O$#$O$O$O$O$O$O$O$O$O$O$#$. :%:%.....o+...o+..o%#X",
" $$$$$$$$$$$$$$$$$$$$$$$$$$$$$$$..%%%%.+%$%%$$%$$o..+%$X",
" $O$O$O$@$O$O$O$O$O$O$O$O$O$O$@$. ...%o..o+..........%#X",
" $$$$$$$$$$$$$$$$$$$$$$$$$$$$$$$..%%%%+>-$%$$%-$%$$o.%$X",
" $$$O$$$O$$$@$$$O$$$O$$$O$$$#$$$. 111%.+,...o+>+.o...%$:",
" $$$$$$$$$$$$$$$$$$$$$$$$$$$$$$$.+%%%%.,-$$%r;-$o+...%$X",
" $O$$$$$$$O$$$$$$$O$$$$$$$O$$$$$...+...o,+o.oo,..o..o%$:",
" $$$$$$$$$$$$$$$$$$$$$$$$$$$$$$$$%-%%-%%%-%%%%%-%%%%-%$X",
" $$$$$$$$$$$$$$$$$$$$$$$$$$$$$$$$;r#$;r9$;r$9$$;r$$9;$$X",
".XXXXXXXXXXXXXXXXXXXX:XX:XX:XXXXXXX:::XX:XX:X2::::XX::XX"
};
