/* XPM */
static char *magick[] = {
/* columns rows colors chars-per-pixel */
"48 48 79 1",
"  c Gray0",
". c #002400",
"X c #240000",
"o c #242400",
"O c #242455",
"+ c #244800",
"@ c #004855",
"# c #244855",
"$ c #246d55",
"% c #480000",
"& c #482400",
"* c #6d0000",
"= c #6d2400",
"- c #482455",
"; c #6d2455",
": c #484800",
"> c #6d4800",
", c #484855",
"< c #486d55",
"1 c #6d4855",
"2 c #6d6d55",
"3 c #2448aa",
"4 c #246daa",
"5 c #4848aa",
"6 c #486daa",
"7 c #6d48aa",
"8 c #6d6daa",
"9 c #486dff",
"0 c #6d9155",
"q c #24b6aa",
"w c #4891aa",
"e c #48b6aa",
"r c #6d91aa",
"t c #6db6aa",
"y c #4891ff",
"u c #48b6ff",
"i c #6db6ff",
"p c #48daff",
"a c #6ddaff",
"s c #6dffff",
"d c #910000",
"f c #912400",
"g c #b60000",
"h c #b62400",
"j c #b62455",
"k c #914800",
"l c #b64800",
"z c #b66d00",
"x c #914855",
"c c #916d55",
"v c #b64855",
"b c #b66d55",
"n c #da0000",
"m c #da2400",
"M c #da2455",
"N c #da6d00",
"B c #da6d55",
"V c #9148aa",
"C c #916daa",
"Z c #919155",
"A c #b69155",
"S c #9191aa",
"D c #91b6aa",
"F c #b691aa",
"G c #b6b6aa",
"H c #b6b6ff",
"J c #b6daaa",
"K c #91daff",
"L c #91ffff",
"P c #b6daff",
"I c #b6ffff",
"U c #da91aa",
"Y c #dab6aa",
"T c #dab6ff",
"R c #dadaff",
"E c #daffff",
"W c #ffdaff",
"Q c Gray100",
"! c None",
/* pixels */
"!!!!!!!!!!!!!!!!!!!!S2,o ,!!!!!!!!!!!!!!!!!!!!!!",
"!!!!!!!!!!!!!!!!!!!!r1<,,o 1!!!!!!!!!!!!!!!!!!!!",
"!!!!!!!!!!!!!!!!!!!S1<1<1,&  o!!!!!!!!!!!!!!!!!!",
"!!!!!!!!!!!!!!!!!!!2222222<oo  !!!!!!!!!!!!!!!!!",
"!!!!!!!!!!!!!!!!!!S22222221,&oX o!!!!!!!!!!!!!!!",
"!!!!!!!!!!!!!!!!!!2228SSr2,,,,+ooo!!!!!!!!!!!!!!",
"!!!!!!!!!!!!!!!!!Al>cSSSS2,,,,,,-o-!!!!!!!!!!!!!",
"!!!!!!!!!!!!!!!!Gbzl&SSSS,,,#,,,,,,o!!!!!!!!!!!!",
"!!!!!!!!!!!!!!!!Fzll=2FGc,,,,,,,,,,o!!!!!!!!!!!!",
"!!!!!!!!!!!!!!!!ZNzk>SGF,,,,,,,,,,,!!!!!!!!!!!!!",
"!!!!!!!!!!!!!!!Gblko=GG2,+-,-,-,,,,!!!!!!!!!!!!!",
"!!!!!!!!!!!!!!GRBb>kGHS,+,#,#,,,,-!!!!!!!!!!!!!!",
"!! oo,,22!!!!!GRRRTRTG1:-:-:,:,,,oX2!!!!!!!!!!!!",
"!,o,,-oX  o,22JRRRRRRF#-#,#-#,,,oXo=&cZ!!!!!!!!!",
"! X,,,-+-o&oo:WRRRRRR<-:-+-:-:-oX&=====>Z!!!!!!!",
"2  ,,,,,+O+oo,ERRREWD,#,+-+,+,#X &=kkk>==&2Z!!!!",
",  :12121,,,-oSQRRWR,:-+-+-:-:o XX%==kkkf===>Z!!",
",  O<1+ o-,,<2<RERES#-+-#-+-+-. 2,o%&&=fkk>===>Z",
"2  o1<1tKt<#o.o,RET,oo-o-+-o-oX o!!Zc>%&==fkk>=>",
"2   <2<rLLsLsaeewQ0O+o+O+O+-oo.  ,!!!!Zc&%&=>fkk",
"!   ,22<KmbSiaappaX Xooo&o&oo<, Xo2!!!!!!Zc&%&=A",
"!o  +22,avhhcappppq4$O. .o.X#o,o  o!!!!!!!!Z2=2!",
"!,X.o22,rDnhjpapw@#uppuw4#Owuwo,X  2!!!!!!!!!!!!",
"!2.o.202<KhhhrpPS   qupuuuuuuy$,# . !!!!!!!!!!!!",
"!! oX2C2,KjhgcaQS,X Xuuuuuuuuuyo1oX o!!!!!!!!!!!",
"!! oo,rC,ichhhIGS2<-.uuuuuuyuyy6+,.  ,!!!!!!!!!!",
"!!ooooSR2<KhghWSC2,.yuuuuuymmvVy#,,   !!!!!!!!!!",
"!!,oooSR2oaxfUGS22.fvuuuuyuMmmmrwO<o. o!!!!!!!!!",
"!!,.oo2Ec,ichRFS2,Xhnyuuyyy8nmmxy6-,X  2!!!!!!!!",
"!!! oo2WS2wrbGDS<Xfmhxuyuyyyvmhh8y#,+   !!!!!!!!",
"!!!ooo,EF<2iRDG2X#nhghyyyyyy8hghh66o,oX ,!!!!!!!",
"!!!ooooWG2+PDHS2.ylhhhwyyyyyyxhhf!y6,,.  2!!!!!!",
"!!!2&ooQGS2RGG2.,u8hgffyyyyyy6gfgf76-,o.Xo!!!!!!",
"!!!Co-+QGGDGRS<X1yyffff8yCx88y1dfd=93,,ooo<!!!!!",
"!!!!oo-QYGHGR2X*=yyxdfd1yxnmh69fdfd16#,,ooX!!!!!",
"!!!! O#QJHRRSXo*=6y7fd=*w8hhf161=d=*56o1ooo,!!!!",
"!!!R2:-QYDRR1.*=*,ywf=*=1yhfdf76==*=;65,,oooS!!!",
"!!!GE,#QRRE8.<&%&&46,*&%-6,*=*-5-%&%&-#o<,+-o!!!",
"!!!!FR2QFRGo,212121212121212121222122<121,-:-2!!",
"!!!!!QQQDH,2<1<2222222rS0C08022222<2<,,,,,,,,,2!",
"!!!!GRQQFGFGYEWRRGGGFGFSSSSZc222221<1,,,,,&ooo2!",
"GGGQQQQQQQQQERRRJGSSSC22<,,,,,oOoooooo.o.o.X.-0!",
"!!!!!SQQQR2,,,,,,oooooooooooooooooXoooXoX.X X0!!",
"!!!!!RRQGSROoooooooooooooooooooooo.o.o.o.X.Xr!!!",
"!!!!GG2QSoTSooooooooooooooooooo.           <!!!!",
"!!!GRG,Q,ooRrooo.X.X.      oooo,,,,2222!!!!!!!!!",
"!!!QG!CQ,.X R2 oo,o,,,,2222!!!!!!!!!!!!!!!!!!!!!",
"!!GG!!!Q!!!!!H!!!!!!!!!!!!!!!!!!!!!!!!!!!!!!!!!!"
};
