/* XPM */
static char *magick[] = {
/* columns rows colors chars-per-pixel */
"56 46 21 1",
"  c Gray100",
". c #beb6be",
"X c #bebabe",
"o c #000010",
"O c #c7bac7",
"+ c #aea6ae",
"@ c #b6aeb6",
"# c #080408",
"$ c Gray0",
"% c #ff1441",
"& c #be2020",
"* c #aeaaae",
"= c #9e9a9e",
"- c #fffbff",
"; c #fff3ff",
": c #a69ea6",
"> c #a6798e",
", c #9696ae",
"< c #ff0c49",
"1 c Gray59",
"2 c #000018",
/* pixels */
"                                                       .",
" ..X.X.X..X.X.X..X.X.X..X.X.X..X.X.X..X.X.X..X.X.X..X.Xo",
" XO..O.O.O..O.O.O..O.O.O..O.O.O..O.O.O..O.O.O..O.O.O..Oo",
" ..O......O......O......O......O......O......O......O..o",
" +...+O..+..O+.O.+.O.+...+O..+...+O..+..O+.O.+.O.+...+.o",
" .O.O...O.O...........O.O...O.O.O...O.O..........O.O.O.o",
" +.+.+.+.+.+O+.+O+O+.+.+.+.+.+.+.+.+.+.+O+.+O+.+.+.+.+.o",
" X...O+..O....@......O+..O.O..+O..O.O.+...O...+O..O.X.+o",
" +O+.+.+O+.+.#$$#$#$$$$#$$$$$$$$$$$$$$$#$$$+X+.+.+.+.+Oo",
" ...+.O.+.O.$%%%%%%%%%%%%%%%%%%%%%%%%%%%%%&#+.O.@..O+..o",
" *.+O+.+.+.+#%&&&&&&&&&&&&&&&&&&&&&&&&&&&%&$.+.+.+.+.+Oo",
" O+...+.+X+.$%&$$$$$$$$$$$$$$$$$$$$$$$$$$%&$O.+.+.+.O.+o",
" +.+O+X+.+.+$%&$.+.+.+.+.+.+.+.+.+.+.+.+&%&$.+O+.+O+.+.o",
" .+.+.+.+O+.$%&$+O+.+.+O+.+ $O+.+.+O+.+.&%&$+.+.+.+.+.+o",
" *.+.+O+.+.+$%&$.+.+O+ $.+O$$+.+ $.+.+O+&%&$.+.+O+.+X+.o",
" ++O+++.+++.$%&$+++.++$$+++.+++X$$+.+++.&%&$++@.+++.+++o",
" +.+.+.+O+.+#%&$.+X+.+.+.+.+.+.+.+O+.*.+&%&$.+.+.+O+.+Oo",
" +++++++++++$%&$++++++++++++$+++++++++++&%&$+++++++++++o",
" *.+.+.+.+.+$%&$.+ $.+O+X+.+$+O+.+.+ $.+&%&$.+.+.+.+.+.o",
" ++++@++++++$%&$++$$++++++++$+++++++$$++&%&$+++++++++++o",
" +++.+++.+++$%&$.+++.+++.+++$+++.+++.+++&%&$.+++O+++.++o",
" +++++++++++$%&$++++++++++++$+++++++++++&%&#+++++++++++o",
" +++++++++++$%&$++++++++++++$+$+++++++++&%&$+++++++++++o",
" +++++++++++$%&$+ $+++++++++$$++++++* $+&%&$+++++++++++o",
" =+++=+++=++$%&$+$$++=+++=$$$$$$$$$++$$+&%&$+=+++=+++=+o",
" +++++++++++$%&$+++++++++++$$+++++++++++&%&$+++++++++++o",
" ++=+=+=+++=$%&$+++=+=+=++$=$=+=+++=+=+=&%&$+=+=+++=+=+o",
" +++++++++++$%&$+++++++++$++$+++++++++++&%&$+++++++++++o",
" =+=+=+=+=+=$%&$+= $+=+=+=+=+=+=+=+=-$+=&%&$+=+=+=+=+=+o",
" +++++++++++$%&$++$$++++++++++++++++$$++&%&$+++++++++++o",
" =+=+=+=+=+=$%&$+=+=+=+=+=+=+=+=+=+=+=+=&%&$+=+=+=+=+=+o",
"-+=+++=+++=+$%&$++=+++=+++=+++=+++=+++=+&%&$++=+++=+++=o",
" =+=+=+=+=+=$%&$+=+=+=;$+=+=+=+=;$+=+=+=&%&$+=+=+=+=+=+o",
"-+=+=:=:=+=+$%&$=+=+=+$$=+=;$+=+$$=+=+=+&%&$=+=+=:=:=+=o",
" =+=+=+=+=:=$%&$+=+=+=+=+=+$$=+=+=+=+=:=&%&$+=+=+=+=+=+o",
";==+===+===+$%&$===:===+===+===+===:===+&%&$===:===+===o",
" =:=+=+=+=+=$%&$&&&&&&&&&&&&&&&&&&&&&&&&&%&$+=+=+=+=:=+o",
";===:>=,>===$%%%%%<%<%<%<%%<%%<%<%<%<<%<%%&$=====:>====o",
" =+=::+=+=+=$&&&&&&&&&&&&&&&&&&&&&&&&&&&&&&$+=:=:=+,+=+o",
";=====================1=1=1==1=1=1==1=1=========:======o",
" ===:===::1=:===:=1=:===+===:===+===+===:===:=>,:==>+==o",
"-,>==,>=,>=================================1:==:==,:===o",
" =+===:==:::=>====:==>:1=>+==>:1=>+==>====::>,==>::====o",
"-===========,==,=>:=================,==,>==============o",
" ===>,=>,==>======,=>,=>,==>,==>,==>==========>,==>==>,o",
".oo22o22oo22o2oo2ooo2o22o2222o222o22o2oo22o2o22oo22222oo"
};
