/* XPM */
static char *magick[] = {
/* columns rows colors chars-per-pixel */
"48 48 162 2",
"   c Gray0",
".  c #000b00",
"X  c #13001c",
"o  c #130b1c",
"O  c #111111",
"+  c #00221c",
"@  c #132200",
"#  c #13221c",
"$  c #392a2a",
"%  c #39332a",
"&  c Gray20",
"*  c Gray22",
"=  c #002254",
"-  c #132254",
";  c #3b0054",
":  c #3b0b54",
">  c #392a41",
",  c #3b2254",
"<  c #00421c",
"1  c #13421c",
"2  c #13681c",
"3  c #3b421c",
"4  c #3b6800",
"5  c #3b681c",
"6  c #134254",
"7  c #006854",
"8  c #136854",
"9  c #3b4254",
"0  c #3b6854",
"q  c #710054",
"w  c #710b54",
"e  c #712254",
"r  c #716800",
"t  c #71681c",
"y  c #444444",
"u  c #464646",
"i  c Gray33",
"p  c #555555",
"a  c #545c54",
"s  c #5b4670",
"d  c #545467",
"f  c #546b67",
"g  c #5b6170",
"h  c #615c54",
"j  c #714254",
"k  c #615467",
"l  c #716854",
"z  c #606060",
"x  c Gray40",
"c  c Gray42",
"v  c #717171",
"b  c Gray50",
"n  c #1368a1",
"m  c #3b42a1",
"M  c #3b68a1",
"N  c #7100a1",
"B  c #710ba1",
"V  c #7122a1",
"C  c #7142a1",
"Z  c #7c6b8c",
"A  c #7f7f8d",
"S  c #7168a1",
"D  c #7168ff",
"F  c #3b951c",
"G  c #139554",
"H  c #3b9554",
"J  c #3bc754",
"K  c #719500",
"L  c #71951c",
"P  c #719554",
"I  c #618067",
"U  c #7c8067",
"Y  c #7f847f",
"T  c #71c71c",
"R  c #71c754",
"E  c #71ff54",
"W  c #1395a1",
"Q  c #3b95a1",
"!  c #3bc7a1",
"~  c #7c808c",
"^  c #7c9a8c",
"/  c #7195a1",
"(  c #7195ff",
")  c #71c7a1",
"_  c #71ffa1",
"`  c #b22254",
"'  c #b26800",
"]  c #b2681c",
"[  c #886170",
"{  c #887f7f",
"}  c #b24254",
"|  c #b26854",
" . c #ff6854",
".. c #b222a1",
"X. c #b242a1",
"o. c #b268a1",
"O. c #b242ff",
"+. c #b268ff",
"@. c #ff42a1",
"#. c #ff68a1",
"$. c #b2951c",
"%. c #888070",
"&. c #88847f",
"*. c #88a670",
"=. c #b29554",
"-. c #be8070",
";. c #bea670",
":. c #b2c754",
">. c #bed070",
",. c #ff9554",
"<. c Gray51",
"1. c Gray53",
"2. c #888888",
"3. c #8d8d8d",
"4. c #88908d",
"5. c #909090",
"6. c #989898",
"7. c Gray60",
"8. c #9b9b9b",
"9. c #9c90a9",
"0. c #9ca08d",
"q. c #9ca0a9",
"w. c #9cb3a9",
"e. c #a09a8c",
"r. c #be80b0",
"t. c #b295a1",
"y. c #a0b88c",
"u. c Gray63",
"i. c #a4a4a4",
"p. c #aaaaaa",
"a. c #aaadaa",
"s. c #afafaf",
"d. c #aaaab3",
"f. c #b0aaaa",
"g. c #b0aab3",
"h. c #bea6b0",
"j. c #b0b5aa",
"k. c #bdb5aa",
"l. c #b2b2b2",
"z. c #b0b5b3",
"x. c Gray71",
"c. c #bdb5b3",
"v. c Gray72",
"b. c #bbbbbb",
"n. c #a09ac0",
"m. c #b295ff",
"M. c #a0b8c0",
"N. c #b2c7a1",
"B. c #bed0b0",
"V. c #b2ffa1",
"C. c #b2c7ff",
"Z. c #b2ffff",
"A. c #ff95a1",
"S. c #cbb8c0",
"D. c #c6c6c6",
"F. c Gray83",
"G. c #dddddd",
"H. c #ffc7ff",
"J. c #eeeeee",
"K. c Gray94",
"L. c Gray100",
"P. c None",
/* pixels */
"P.P.P.P.P.P.P.P.P.P.P.P.P.P.P.P.P.P.f.z.9.y.s.s.s.y.i.z.x.P.P.P.P.P.P.P.P.P.P.P.P.P.P.P.P.P.P.P.",
"P.P.P.P.P.P.P.P.P.P.P.P.P.P.P.P.0.D.B.G.N.B.*.B.;.B.*.b.N.B.e.q.s.k.P.P.P.P.P.P.P.P.P.P.P.P.P.P.",
"P.P.P.P.P.P.P.P.P.P.P.P.P.P.S.Z.L.>.;.t $.r ] r r r L L L L N.t.h.e.c.P.P.P.P.P.P.P.P.P.P.P.P.P.",
"P.P.P.P.P.P.P.P.P.P.P.s.y.J.B.=.t ] t ] r t r t 4 t 4 L F L L P L =./ e.a.P.P.P.P.P.P.P.P.P.P.P.",
"P.P.P.P.P.P.P.P.P.P.u.V.L.;.=.$.=.] =.t | t ] r ' r L K =.L P L :.L :.P 6.5.P.P.P.P.P.P.P.P.P.P.",
"P.P.P.P.P.P.P.P.a.S.J.h.| =.t | t =.t | t $.r t r L 4 L L P L P L :.L R P 2.U d.P.P.P.P.P.P.P.P.",
"P.P.P.P.P.P.P.s.D.B.A.=.=.] ,.| =.t =.] $.r ] r r r L L L L =.L :.L :.R :.R t.3.g.P.P.P.P.P.P.P.",
"P.P.P.P.P.P.j.Z.h.=.| =.| | ] | t | t | t t r t 4 t 4 L F L L R L P L :.R R R / g g.P.P.P.P.P.P.",
"P.P.P.P.P.P.D.B.A.=.A.=.,.=.=.=.,.] =.t =.t ] r ' r L K =.L =.L :.R :.R :.R N.R t.<.p.P.P.P.P.P.",
"P.P.P.P.P.S.B.A.| A.| =.| ,.| | ] =.t | t $.r t r L 4 L L P L R L :.R R R :.R ) R P I p.P.P.P.P.",
"P.P.P.P.u.K.A.=.A.| A.=.A.| ,.=.=.] =.] =.r ] r r r P L P L =.P :.T :.R N.R N.R V.R l 4.P.P.P.P.",
"P.P.P.s.B.A.=.A.| ,.| A.| =.| =.] | ] | t t r t 4 t 4 L L P L :.L R R :.R R R V.R _ R v a.P.P.P.",
"P.P.P.M.L.A.A.,.A.,.A.=.A.=.A.=.,.=.=.] =.] $.r ' t L L :.L :.R :.R N.R V.R V.E V.E V.H Z P.P.P.",
"P.P.x.J.-.A.=.A.=.A.| A.| A.| =.| =.t | t =.t t r L 5 P L :.L R R :.R ) R V.R _ E V.E _ 3 s.P.P.",
"P.P.S.B.A. .A.A.A.,.A.,.A.| A.=.A.| ,.] t.P t.=.t.P t.P t.T :.R N.R N.R V.R V._ V.E V._ / c P.P.",
"P.s.B.A.| #.| A.=.A.=.A.=.A.=.A.| =.=.t.P t.p.p.p.p.p.p.P t.R :.R R R V.R _ E V.E _ E V.J i a.P.",
"P.u.H.o.A.#.A.A.A.A.A.A.A.,.A.=.A.=.t.t.p.p.p.p.p.p.p.p.p.p.N.R V.R V.E V._ V._ V._ V._ V.3 1.P.",
"P.D.h.#.| A.| #.| A.| A.=.A.=.A.| A.p.p.p.p.l x 0 x 0 t.p.p.p.N.) V.E V._ V.R _ R _ R ) R P f P.",
"f.B.#.o.#.| #.o.A.| A.A.A. .A.A.A.t.p.p.t.# X h k a k u S / p.p.p.) V._ V.R V._ _ R _ ) ) J u P.",
"z.G.| o.} o.| #.| #.| #.| #.| A.=.p.p.2.. z a.P.P.P.P.P.5.l / p.p.N.) V.R ) R _ J ) J ) J ) # g.",
"9.F.#.| #.o.#.| #.o.#.o.#.#.A.t.p.p.t.@ k P.P.P.P.P.P.P.P.6.t.t.p.p.N.) V.) ) R V.) ) R _ R 3 a.",
"e.B.} o.| #.| o.| #.| o.| #.| t.p.p.0 O p.P.P.P.P.P.P.P.P.P.%.t.p.p.P ) R ) J ) J ) J ) J ) 2 z ",
"S.h.@.} #.} @.} #.} #.X.#.} #.t.p.p., h P.P.P.P.P.P.P.P.P.P.n.p.p.p.p.! ) J ) J ) J ) J ) J 0 z ",
"y.h.} o.j X.} o.j X.} o.} o.o.p.p.p.@ k P.P.P.P.P.P.P.P.P.P.w.C.p.p./ ) J ) J ) H ) H ) H ) 2 z ",
"S.h.X.} #.} X.} #.} X.} #.} o.p.p.p.O a P.P.P.P.P.P.P.P.P.P.n.N.p.p.p.J ) J ) J ) J ) J ) J 0 h ",
"e.h.j X.} X.j X.} X.j X.j X.l p.p.p.1 z P.P.P.P.P.P.P.P.P.P.y.G.p.p.p.! H ! G ! H ! G ! H ! 2 z ",
"n.h.X.` X.j X.e       e ..e       p.,     i P.  P.P.  P.      u p.  & H Q       Q       ! H 9 h ",
"4.t.j X.e X.e   L.L.L.  e w   t.p.p.  i 1.  P.        P.  l.V.  p.    Q <   G Q G Q   Q G Q # d.",
"x.B.X.e ..} ..  L.L.L.  ..:   S p.p.  6.%.  P.  i i   P.      3 p.      0   Q G Q G   H ! H # p.",
"a.b.[ ..e ..e   L.L.L.  w N X     p.1     , ^   P.P.  D.  H.p.p.  N.7   8       G Q   W G Q * P.",
"P.i.r.e ..e ..  L.L.L.  N q N w X.p.p.p.p.t.m.N.H.N.L.G.b.p.p.p.p.8 n 7 W 8 Q G Q 8 Q G Q 1 k P.",
"P.6.6...e w e   L.L.L.  : B , V , o.p.p.p.p.p.p.p.p.p.p.p.p.p.p.H n 8 n 7 7 7 n 7 8 8 Q 7 # Y P.",
"P.&.            L.L.L.  ..o       o t.p.j                   j Q Q #                 6 8 M * p.P.",
"P.i L.L.L.L.L.L.L.L.L.  e   L.L.L.  C , 3 L.L.L.L.L.L.L.L.L.  M # 0 L.L.L.L.L.L.L.L.+ = 1 z P.P.",
"  L.L.L.L.L.L.L.L.L.L.  V   L.L.L.  O.  L.L.L.L.L.L.L.L.L.L.  M   L.L.L.L.L.L.L.L.L.L.  O p.P.P.",
"  L.L.L.3     ; L.L.L.  ,   L.L.L.  C   L.L.L.9             8 M   L.L.L.+     8 L.L.L.  a P.P.P.",
"  L.L.L.  [ V   L.L.L.  ..  L.L.L.  +.  L.L.L.  m.( ( / ( Q ( Q   L.L.L.  n Q   L.L.L.  f.P.P.P.",
"  L.L.L.  / ,   L.L.L.  V   L.L.L.  S   L.L.L.  ( m./ ( S ( M S   L.L.L.  Q 8   L.L.L.  P.P.P.P.",
"  L.L.L.  <.S   L.L.L.  C   L.L.L.  +.  L.L.L.m           0 C Q   L.L.L.  n Q #       i P.P.P.P.",
"  L.L.L.  p.~   L.L.L.  C   L.L.L.  S   L.L.L.L.L.L.L.L.L.6 8 (   L.L.L.  M n M < z p.P.P.P.P.P.",
"  L.L.L.  P.g.  L.L.L.  O.  L.L.L.  +.m , L.L.L.L.L.L.L.L.L.  Q   L.L.L.  M Q # > p.P.P.P.P.P.P.",
"  L.L.L.  P.P.  L.L.L.  C   L.L.L.  S C #           0 L.L.L.  (   L.L.L.  Q + >       i P.P.P.P.",
"  L.L.L.  P.P.  L.L.L.  O.  L.L.L.  +.D +.S m.( m.(   L.L.L.  Q   L.L.L.  O k   L.L.L.  P.P.P.P.",
"  L.L.L.  P.P.  L.L.L.  9   L.L.L.  S +.S D S m.( (   L.L.L.  (   L.L.L.  A p.  L.L.L.  P.P.P.P.",
"  L.L.L.i     b L.L.L.  Z   L.L.L.  +.m             , L.L.L.  Q   L.L.L.{     i L.L.L.  P.P.P.P.",
"  L.L.L.L.L.L.L.L.L.L.  P.  L.L.L.  S   L.L.L.L.L.L.L.L.L.L.  -   L.L.L.L.L.L.L.L.L.L.  P.P.P.P.",
"i b L.L.L.L.L.L.L.L.L.  P.  L.L.L.  s   L.L.L.L.L.L.L.L.L.% $ b b i L.L.L.L.L.L.L.L.b i P.P.P.P.",
"P.i                   i P.P.      P.P.d                   i P.P.P.b                 i P.P.P.P.P."
};
