/* XPM */
static char *magick[] = {
/* columns rows colors chars-per-pixel */
"56 46 31 1",
"  c Gray100",
". c #bebabe",
"X c #aea6ae",
"o c #000010",
"O c Gray59",
"+ c #beb6be",
"@ c #c7bac7",
"# c #79869e",
"$ c #ff1441",
"% c #188651",
"& c #28ff20",
"* c #51a249",
"= c #8e8a8e",
"- c #a6a2a6",
"; c Yellow",
": c #b6aeb6",
"> c #aeb2cf",
", c #ae5528",
"< c #717986",
"1 c #cfc7cf",
"2 c #5155ff",
"3 c #d7d3d7",
"4 c #bec3be",
"5 c #fff3ff",
"6 c #aeaaae",
"7 c #aeaeb6",
"8 c #9e9a9e",
"9 c #fffbff",
"0 c #eff3f7",
"q c #aeaeae",
"w c #be2020",
/* pixels */
"                                                       .",
" .....X....X...X....X...X....X...X....X...X....X...X...o",
" X..X....X........X........X........X........X........Xo",
" .....................X........X........X........X.....o",
" X...X...X..XX.X.X...X...O...X...X...X...X...X...X..XX.o",
" ..X....X..+.......+...+...+...+...X+.....+.X..+.......o",
" X.X.XXX+X.X.X+X.O.XXX.X.X.XXX.XXX.X.XXX+XXX.X.O.X+X.X.o",
" ....+X...X..XX@+.+...#X@+X...X.+#@+..X....#+.X@+.X...Xo",
" O.X.X.X+X.X+$$$$$$$$+#X%%%%%%%%@#&&%%@&&&@#+X.X.X.X+X.o",
" ..+XX..X@..X$$$$$$$$+#+*%*%*%*%.=%%*%@@&&+#X..XX...O..o",
" X.X.X+XXX.X.$$$$$$$$.#-%%%*%%*+@;%*%:@&&&@#.X.X.X+X.X.o",
" .XX.@X.X.XX.$$$$$$$$+#>*%*%%@>;;,%%@@@&&&@<..X.X.X...Xo",
" X.X.X.X.X.X+$$$$$$$$+#X%%%%1;;,,,,2..&&&&@#+X.X+XXX.X.o",
" .X.X.X.X+X.X$$$$$$$$ #>*%*@;;#;,,,@X3&&&& #X+X.X@X.X.Xo",
" X.X.X.X.X.X.$$$$$$$$+#-%%@;;#;;,,,X+@@3&&3<@X.XXX.X.X.o",
" XXXXXXXXXX.X$$$$$$$$ #4%@;;#;;;,;X...3*&&5#XXX.XXX.XXXo",
" X.X.X+X.X.XX+++.+ .  #64;;#;;;#;;+.... 35 #.X+X.X.X.X.o",
" XXXXXXXXXXX#########<#.;;#;;;#;;XX<O#O#####XXXXXXXXXXXo",
" X.X.X.X.X+X+-+-+-+-+7+;;#;;;#;;+X@7.X+-+-.#+X.X.X.X.X.o",
" XXXXXXXXXXX6$$$$$$$$.;;#;;;#;;XX#X+@&&&&&+#XXXXXXXXXXXo",
" XXX.XXX.XXX.$$$$$$$.;;#;;;#;;-X.#-..@&&&&@#+6XX.XXX.XXo",
" XXXXXXXXXXXX$$$$$$.;;#;;;#;;X7%+#@..@@3&&.#XXXXXXXXXXXo",
" XXXXXXXXXXXX$$$$$.;;#;;;#;;-X%%4#-. .@@&&@8XXXXXXXXXXXo",
" XXXXXXXXXXXX$$$$.;;#;;;#;;X7%*% #...+@@3& #XXXXXXXXXXXo",
" OXXXOXXXOXXX$$$.;;#;;;#;;-X%%%*+#X...9+@@@#-OXXXOXXXOXo",
" XXXXXXXXXXXX$$.;;#;;;#;;-:%%*%% #+.....+. #XXXXXXXXXXXo",
" XXOXOXOXXXOX$. .#;;;#;;-7.@4 @  #+....9.9 #-OXOXXXOXOXo",
" XXXXXXXXXXXX. .+ ;;#;;X-#####<######X######XXXXXXXXXXXo",
" OXOXOXOXOXO. ..  #0;;-OXO+O-X7O+#7O+#+O+=.#-OXOXOXOXOXo",
" XXXXXXXXXXX ;+  # #;7XX22222222+#q2222222+#6XXXXXXXXXXo",
" OXOXOXOXOXO;$$.#0###=#O22222222+#-2222222.#-OXOXOXOXOXo",
" XOXXXOXXXOX$$$$ ###-+#X22222222+#O2222222+#6XOXXXOXXXOo",
" OXOXOXOXOXO$$$$w###%4#=22222222+#-2222222+#-OXOXOXOXOXo",
" XOXOXOXOXOXw$$www#*%.#X22222222+#O2222222+#O6OXOXOXOXOo",
" OXOXOXOXOXOXwwwwO%%% #=222222229#-22222229#-OXOXOXOXOXo",
" OOXOOOXOOOXOOwwO%%*%+#X22222222+#=2222222+#OOOXOOOXOOOo",
" OqOXOXOXOXOX%%%*%*%% #=222222225#-22222229#-O6OXOXOXOXo",
" OOOOOOOOOOOX444.4 4  #O+++::5:9 #X+++:5+0 #OOOOOOOOOOOo",
" OXOXOXOXO-O##############<#########<<######-O6OXOXOXOXo",
" OOOOOOOOOOOOOOO-=-O=O=O=XOXOX=O=O==O7O-OO=OOOOOOOOOOOOo",
" OOOXOOO-OOO-OOOqOOOqOOOqOOO-OOOqOOOXOOOXOOOXOOO-OOOqOOo",
" OOOOOOOOOOOOOOOOOOOOOOOOOOOOOOOOOOOOOOOOOOOOOOOOOOOOOOo",
" OqOOOOOOOqOOOOOOOqOOOOOOOXOOOOOOOXOOOOOOOXOOOOOOOqOOOOo",
" OOOOOOOOOOOOOOOOOOOOOOOOOOOOOOOOOOOOOOOOOOOOOOOOOOOOOOo",
" OOOOOOOOOOOOOOOOOOOOOOOOOOOOOOOOOOOOOOOOOOOOOOOOOOOOOOo",
".ooooooooooooooooooooooooooooooooooooooooooooooooooooooo"
};
