/* XPM */
static char *magick[] = {
/* columns rows colors chars-per-pixel */
"56 46 35 1",
"  c #fffbff",
". c #beb6be",
"X c #bebabe",
"o c #080408",
"O c #c7bac7",
"+ c #aea6ae",
"@ c Gray100",
"# c Gray65",
"$ c #b6aeb6",
"% c #dfba8e",
"& c #eff3f7",
"* c #cfc7cf",
"= c #bec3cf",
"- c #9e9a9e",
"; c #717986",
": c #6986be",
"> c #51718e",
", c #000010",
"< c #fff3ff",
"1 c #f7b2ae",
"2 c #a69ea6",
"3 c #000018",
"4 c #5155ff",
"5 c #386da6",
"6 c Gray0",
"7 c Gray59",
"8 c #000808",
"9 c #9696ae",
"0 c #dfae69",
"q c #ae6161",
"w c #a6798e",
"e c #aeb2cf",
"r c #59a2d7",
"t c #7992b6",
"y c #8e8a8e",
/* pixels */
"                                                       .",
" .X...X..X...X..X...X..X...X..X...X..X...X..X...X..X...o",
" .O.O.O.O.O.O.O.O.O.O.O.O.O.O.O.O.O.O.O.O.O.O.O.O.O.O.Oo",
" ......................................................o",
" +O.O+.O.+O.O+.O.ooo.+O.O+.O.+O.O+.O.+O.O+.O.+O.O+.O.+.o",
" .......O.......o..Oo.......O.......O.......O........O.o",
" +O+.+O+.+.+O+.+o+.+.O.ooo.+oooo.+o+.+o+O+.+.+O+.+O+.+.o",
" ...O.....O...O.o.O...o.O.o.o...o.oO..o....O....O...O..o",
" .O...O.O...O...o...O.o...o.o.O.o..o.o.O.O...O....O...Oo",
"@#..O#..#.O.#.O.oO#.o.o..Oo.oooo#O..oO#...#...#O#...#..o",
" X....O..O$.O...Oooo.O.ooo..o.X.O..Oo..O.O.O.O...O.O.O.o",
"@#X#O.$%#$%..$%.#.#X#..X#.#OoX#..X#o#$%.#..$%.#$%.#...#o",
"@...%$...X$#.X$.X.X.X%$O.X...O.%$.XXX...X%$.$.X...X%$.Xo",
"&%.#.#.##.#*#O#  o%.#=#.#.%.#.#.#$%.#.#.-=#O#$%X#.#.#X#o",
" .#..X%OX#X..#@;:>,#  o#...#X%$..#..X%$#X..#.O$#.%$.X#.o",
"<#*%.#.##$%X# 1,:,:,;:;o#  o#*#$%X#O-=%X#$%X#X#O2*#X#$%o",
" .#$#*#.*#O# 111,: :,:3:o;:;, @ o#*#.#$#*#.%X#.%.#.#*#.o",
"@#.%.#*-%X# 111  o:::,: :3:,:o4;;o#*#X%O#O#.#O#.#.%$%.#o",
" #%$#%#O%-@111 X  o:::o:::,: :o:3:o%%2#%$%#%$%#%##O#%-Xo",
"@#.#.#O-# 111 . .  o::;o:::o:::3:*;o#$2O#O2O#O#O#O#O#O#o",
"@#%2%O%#<111 X #@-  o:::,:::o:::o;5:,%%2%2.%#%#%#%##O%#o",
"<#.#O#$<111 .@#@- .  ,:::o:::o:::3::;o-O#$#O#O#$#O#1#$#o",
" ##%##<111 X #@#<. #@ 6:::o:::o:::3:::o#%#%###1#%##%#%#o",
" #12#<111 .@# 7 . #@- &::::o:::,:::3::;o%#21#%71#$%2#.#o",
" ##%<111 . #@2 . #@-  8:::::o::>3:::3:::,%%22#%2+##%#%#o",
"@%# ;-1 .@#<- .@#@-  o:o9&::>o:::6:::3:5;o2%#%2#%#122%#o",
" ##<;:9  #@#<.@#@-@ o:o . 8::, :::o:::,:::,#2$#%##-02%2o",
"<##<::;-@@7 . -@7@ o:o .X# ,:o 6::8&:::3::;oq1#w%%###22o",
"@#$#@>::2@ .@#@-@@o:o ..### o.# o:6 8::o.:::3#%#2%w12%#o",
" ###$ ::;-  7@-@ o:o ..XX#-.o##- oX# 3>6<e:;o$w$wOq###2o",
" #%### >::9  -  o:o .: ..X-o.X##.o### ,O#@$:3#%%2#$%##%o",
"<2#-%-$ ::;-@  o:o .o3; $%o X..-o.X#-Xo%#- ,##-2-%w#w%-o",
" #%2-2##@>::2 o>:- .oo, #oo;<.%o ...-o..##$o#2#%22%222#o",
"<-#####-2 r5:;::,:o .o..oo6, 2o,; $%o<O..#o###2##2-$w%2o",
" ##2#####2 ;r4::o::o..#o .o..ooo3 #oo;<.%,#####2###2#22o",
"<####w%-2#2 5t:::o::o-,;o.X#o .o..oo,,@#o##w%##w%w###2#o",
"<%w7##-7##-- :::::o:o:o::o2o;3..#o .o..o2-##w72#2#-w##7o",
"<-#w###w#22#-&:::::o:;:,:3;,::o2,;o.X#o#############-%-o",
" --#-w2-------@:::o:::::6:::,:o:o::o2o#-7-w--w-w-w--w-7o",
"<-2-###--###-#77oo-&:::6:::::o:::3;o-%-2###2--####-%-#-o",
" -#-w272w--72----7--9,6- :::6:::::32-y--w---#w--w2-w2--o",
"<-------------------7---7966-&:::o--------2w---2-------o",
" ----w-27-w----7--------------9oo7--7----------w-------o",
"<-w----w------w--------7-------7-------w--w--------w-7-o",
" ----------w272-w9-w9-----7--7---7-w9--2----w2---w29---o",
".oooooooooooo6o,ooooooooooooooooooooooooooooooooo3oooooo"
};
