/* XPM */
static char *magick[] = {
/* columns rows colors chars-per-pixel */
"48 48 64 1",
"  c Gray0",
". c #181008",
"X c #181808",
"o c #201808",
"O c #201810",
"+ c #282010",
"@ c #302818",
"# c #383018",
"$ c #383020",
"% c #493820",
"& c #792818",
"* c #494128",
"= c #514120",
"- c #514128",
"; c #514928",
": c #614928",
"> c #615938",
", c #695130",
"< c #715130",
"1 c #716941",
"2 c #865130",
"3 c #8e6138",
"4 c #966938",
"5 c #ae4930",
"6 c #866941",
"7 c #966941",
"8 c #9e7141",
"9 c #9e7949",
"0 c #8e7961",
"q c #ae7949",
"w c #ae8249",
"e c #a68259",
"r c #b68a51",
"t c #be8a51",
"y c #a69a61",
"u c #a69279",
"i c #b69261",
"p c #be9269",
"a c #beb269",
"s c #c79251",
"d c #c7a269",
"f c #d7a261",
"g c #d7aa69",
"h c #efba71",
"j c #cfc371",
"k c #ffd379",
"l c #ae9a86",
"z c #bea296",
"x c #c7aa86",
"c c #c7aa96",
"v c #dfba96",
"b c #cfbaa6",
"n c #cfbaae",
"m c #dfd386",
"M c #cfc3be",
"N c #dfc3a6",
"B c #e7db86",
"V c #e7c3a6",
"C c #e7d3be",
"Z c #ffeb8e",
"A c #f7e3a6",
"S c #e7dbd7",
"D c #efebe7",
"F c None",
/* pixels */
"FFFFFFFFFFFFFFFFFFFFFFFFFFFFFFFFFFFFFFFFFFFFFFFF",
"FFFFFFFFFFFFFFFFFFFFFFFFFFFFFFFFFFFFFFFFFFFFFFFF",
"FFFFFFFFFFFFFFFFFFF=++FFFFFFFFFFFFFFFFFFFFFFFFFF",
"FFFFFFFFFFFFFFFFFF=+#++qq<FFFFFFFFFFFFFFFFFFFFFF",
"FFFFFFFFFFFFFFF=f=O$###%tf:FFFFFFFFFFFFFFFFFFFFF",
"FFFFFFFFFFFFFFFth3$######<%F::FFFFFFFFFFFFFFFFFF",
"FFFFFFFFFFFFFFF;-$$######@O4fs:FFFFFFFFFFFFFFFFF",
"FFFFFFFFFFFF=s=@$$$########@<4F::FFFFFFFFFFFFFFF",
"FFFFFFFFFFFFrhr$$$$$########@+O8s<FFFFFFFFFFFFFF",
"FFFFFFFFFFFF%2&$$$$$@;$$####@@@:tqF34FFFFFFFFFFF",
"FFFFFFFFF=9@@&$$$$$@%lu*$$###@@@#O4<3:FFFFFFFFFF",
"FFFFFFFFFihg&$$$$$#&Mpny0&$##@@@@@Owf3FFFFFFFFFF",
"FFFFFFFFF;d:&$$$$$#4Synln0;$$#@@@@@@<.F::FFFFFFF",
"FFFFFF=:@@-&$$$$$@cbbllxlnn:&#@@@@@@@OOss=FFFFFF",
"FFFFFF1kh&&$$$$$+6iDie4eeMycM-$#@@@@@@@;r@FFFFFF",
"FFFFFF6h6&&$$$$+7DdNy8744c0Dyel&#@@@@@@@@@O33FFF",
"FFFFFF@-&&&$$$@0pxDi8&28740xeDb3>$#@@@@@@@@wf2FF",
"FFF=B6X&&&&&$#:vDcpq2&227744llySM1&#@@@@@@@@:OFF",
"FFFaZi&&&&&&#;CddVwqq8&&&87444nuebM>$#@@@@@@@OOF",
"FFF@9&&&&&&$%dVSVwwwqq827&287440cxeeu-@@@@@@@#.F",
"=0@@&&&&&&$#nCVxrrwwwqqq72&&474464Mnz;@@@@@@#OOF",
"aZa&&&&&&&@rgvvdtrrwwwqqq8828876<bnn,@@@@@@#+OFF",
"6m:&&&&&&+uSssstttrrwwwqqq88883<dpp6@@@@@@#+O@FF",
"==*&&&&&&2DVVCl:rttrrwwwwqqq84<CMMM@@@@@@@@Off@F",
":-*&&&&&&&0AVgVn>8tttrrwqwqq8<cci9&@@@@@@@O+<fs+",
"$--*&&&&&&&-zDVgCl<rttr5&5wq<lpVD;@@@@@@@+.F+<@+",
"X#***&&&&&&&&7vDAhn:8tt5&5w<0SMp,@@@@@@@+@=oF++%",
"F@>&**&&&&&&&&>pgDvvy<trww<0SpVl#@@@@@@+@whwoF%F",
"F>Ai&&&&&&&&&&&&lvhDhM:qt<uxCS9##@@@@@+oF%hhqOFF",
";AAy.@&&&&&&&&&$$:nAvSce<0xSpM;###@@@+@=oF%tOOFF",
":maFFOy$&&&&&&&$$$*9AAAvzNcCN=####@@+OwhwoF@@FFF",
"X3=FOjAa@&&&&&&$$$$$0xCvSvCc0#####@+Oo%hhqOFFFFF",
"FFFFyAA>@+$&&&&&$$$$$&zvCgD9$#####@OXFF%tOOFFFFF",
"FFFF-m1FF#y&&&&&$$$$$$$1Cvd&#####@O@j*FF@@FFFFFF",
"FFFFX3=FOBAj@$&&&$$$$$$$;e&#####@Ooakki%FFFFFFFF",
"FFFFFFFFyAB@@+#&&$$$$$$$$$######Oo.%fkd%FFFFFFFF",
"FFFFFFFF=j;FF;j*$&$$$$$$$$#####+oXFF%6%FFFFFFFFF",
"FFFFFFFFX3=F@BZa+#$&$$$$$$####@o%j*FF%%FFFFFFFFF",
"FFFFFFFFFFFFaZBO@O@$$$$$$####@oXakki%FFFFFFFFFFF",
"FFFFFFFFFFFF%a*FF;m:$$$$$####OX.%fkd%FFFFFFFFFFF",
"FFFFFFFFFFFFX3=F@mZjO@#$$###+XXFF%6%FFFFFFFFFFFF",
"FFFFFFFFFFFFFFFFiZmO@o@#$$$@X%j*FF%%FFFFFFFFFFFF",
"FFFFFFFFFFFFFFFF@i*FF@m1##$OXakki%FFFFFFFFFFFFFF",
"FFFFFFFFFFFFFFFFX3=F@mZm$@Oo.%fkd%FFFFFFFFFFFFFF",
"FFFFFFFFFFFFFFFFFFFF1ZB*FO+XFF%6%FFFFFFFFFFFFFFF",
"FFFFFFFFFFFFFFFFFFFFOe6FFFFFFFF%%FFFFFFFFFFFFFFF",
"FFFFFFFFFFFFFFFFFFFFX3=FFFFFFFFFFFFFFFFFFFFFFFFF",
"FFFFFFFFFFFFFFFFFFFFFFFFFFFFFFFFFFFFFFFFFFFFFFFF"
};
