/* XPM */
static char *magick[] = {
/* columns rows colors chars-per-pixel */
"48 48 215 2",
"   c Gray0",
".  c #000011",
"X  c #001100",
"o  c #110000",
"O  c #110011",
"+  c #111100",
"@  c #111111",
"#  c #000022",
"$  c #110022",
"%  c #110033",
"&  c #002200",
"*  c #002211",
"=  c #003300",
"-  c #003311",
";  c #112200",
":  c #112211",
">  c #113300",
",  c #113311",
"<  c #220022",
"1  c #220033",
"2  c #222200",
"3  c #222211",
"4  c #332211",
"5  c #222222",
"6  c #2a2a2a",
"7  c #222233",
"8  c #223333",
"9  c #110044",
"0  c #220044",
"q  c #220055",
"w  c #330044",
"e  c #330055",
"r  c #331144",
"t  c #220066",
"y  c #330066",
"u  c #330077",
"i  c #331166",
"p  c #332255",
"a  c #004400",
"s  c #005500",
"d  c #114400",
"f  c #115500",
"g  c #115511",
"h  c #006600",
"j  c #116600",
"k  c #116611",
"l  c #117700",
"z  c #224400",
"x  c #224411",
"c  c #225500",
"v  c #225511",
"b  c #334400",
"n  c #335500",
"m  c #335511",
"M  c #224422",
"N  c #2a462a",
"B  c #2a542a",
"V  c #334422",
"C  c #38542a",
"Z  c #335533",
"A  c #226600",
"S  c #226611",
"D  c #227700",
"F  c #336600",
"G  c #336611",
"H  c #337700",
"J  c #337711",
"K  c #2a622a",
"L  c #227722",
"P  c #337733",
"I  c #443322",
"U  c #440066",
"Y  c #440077",
"T  c #441177",
"R  c #442244",
"E  c #443344",
"W  c #445500",
"Q  c #444433",
"!  c #555533",
"~  c #446600",
"^  c #446611",
"/  c #447700",
"(  c #557700",
")  c #446622",
"_  c #447722",
"`  c #467f2a",
"'  c #444444",
"]  c Gray33",
"[  c #547654",
"{  c #6b6b54",
"}  c #607654",
"|  c #6b7654",
" . c #767654",
".. c Gray50",
"X. c #009900",
"o. c #118800",
"O. c #118811",
"+. c #119900",
"@. c #11bb00",
"#. c #11bb11",
"$. c #228800",
"%. c #229900",
"&. c #338800",
"*. c #338811",
"=. c #339900",
"-. c #339911",
";. c #2a8d2a",
":. c #389b2a",
">. c #22aa00",
",. c #22bb00",
"<. c #33aa00",
"1. c #33bb00",
"2. c #11cc00",
"3. c #11dd00",
"4. c #00ee00",
"5. c #22cc00",
"6. c #22cc11",
"7. c #22dd00",
"8. c #33cc00",
"9. c #33dd00",
"0. c #22ee00",
"q. c #22ff00",
"w. c #22ff11",
"e. c #33ee00",
"r. c #448800",
"t. c #448811",
"y. c #449900",
"u. c #558800",
"i. c #558811",
"p. c #559900",
"a. c #469b2a",
"s. c #548d38",
"d. c #44aa00",
"f. c #44aa11",
"g. c #44bb00",
"h. c #55aa00",
"j. c #55aa11",
"k. c #55bb00",
"l. c #54a92a",
"z. c #668800",
"x. c #669900",
"c. c #66aa00",
"v. c #66bb00",
"b. c #54a454",
"n. c #608d54",
"m. c #6b8254",
"M. c #769854",
"N. c #7f877f",
"B. c #7f987f",
"V. c #44cc00",
"C. c #44dd00",
"Z. c #55cc00",
"A. c #55dd00",
"S. c #44ee00",
"D. c #55ee00",
"F. c #55ff00",
"G. c #66cc00",
"H. c #66dd00",
"J. c #77cc00",
"K. c #77dd00",
"L. c #7fc62a",
"P. c #66ee00",
"I. c #77ee00",
"U. c #62e22a",
"Y. c #88aa00",
"T. c #88aa11",
"R. c #88bb00",
"E. c #88bb11",
"W. c #99bb00",
"Q. c #99bb11",
"!. c #8da92a",
"~. c #8db82a",
"^. c #aabb00",
"/. c #90907f",
"(. c #90987f",
"). c #98987f",
"_. c #82a454",
"`. c #82af54",
"'. c #8da454",
"]. c #87a17f",
"[. c #8dba60",
"{. c #90a17f",
"}. c #90a97f",
"|. c #98a97f",
" X c #a4a454",
".X c #a9a97f",
"XX c #88cc00",
"oX c #88dd00",
"OX c #99cc00",
"+X c #99dd00",
"@X c #8dc62a",
"#X c #88ee00",
"$X c #99ee00",
"%X c #9be22a",
"&X c #aadd00",
"*X c #a9c62a",
"=X c #aaee00",
"-X c #bbee00",
";X c #bbff00",
":X c #a9e22a",
">X c #b8e22a",
",X c #8dc654",
"<X c #bad154",
"1X c #ccee00",
"2X c #ccff00",
"3X c #ddff11",
"4X c #c6e22a",
"5X c #d4f038",
"6X c #a1a987",
"7X c #aaaaaa",
"8X c #aaafaa",
"9X c #afaaaa",
"0X c #afb5aa",
"qX c #b5bbaa",
"wX c None",
/* pixels */
"wXwXwXwXwXwXwXwXwXwXwXwXwXwXwXwXwXwXwXwXwXwXwXwXwXwX] wXwXwXwXwXwXwXwXwXwXwXwXwXwXwXwXwXwXwX....",
"wXwXwXwXwXwXwXwXwXwXwXwXwX....wXwXwXwXwXwXwXwXwXwX..  ..wXwXwXwXwXwXwXwXwXwXwXwXwXwXwXwXwX]   ] ",
"wXwXwXwXwXwXwXwXwXwXwXwXwX] 6 wXwXwXwXwXwXwXwXwXwX]   ] wXwXwXwXwXwXwXwXwXwXwXwXwXwXwX..6   6 wX",
"wXwXwXwXwXwXwXwXwXwXwXwXwX]   ] wXwXwXwXwXwXwXwXwX  .   wXwXwXwXwXwXwXwXwXwXwXwXwXwX]       ..wX",
"wXwXwXwXwXwXwXwXwXwXwXwXwX]     wXwXwXwXwXwX..wX]   O   ] wXwXwXwXwXwXwXwXwXwXwX..        ] wXwX",
"wXwXwXwXwXwXwXwXwX7X7XwXwX]   . ] wXwXwXwX7X] 7X6 O . O 6 wXwXwXwXwXwXwXwXwXwX6   .       ..wXwX",
"wXwXwXwXwXwXwXwXwX....wXwX] O .   ..wXwXwX..] ] O O $ O O ..wXwXwXwXwXwXwX..    o       6 wXwXwX",
"wXwXwXwXwXwXwXwXwX..] ..wX]   $ . 6 wXwXwX] ] 6 . $ $ $ . ] wXwXwXwXwXwX6 . . .   .     wXwXwXwX",
"wXwXwXwXwXwXwXwXwX..] ] wX] O . $   ..wX..] ]   < $ < $ <   wXwXwXwX..  O   O   O   o ] wXwXwXwX",
"wXwXwXwXwXwXwXwXwX..] ] ..] . $ $ %   wX] ] 6 $ % 1 % 1 % $ ] wXwX6   $ . O . O . .   wXwXwXwXwX",
"wXwXwXwXwXwXwXwXwX..] ] ] ] O O $ $ $ ] ] ] 6 $ 1 % 1 % 1 $ 6 ..  O $ O $ . O . O   ] wXwXwXwXwX",
"wXwXwXwXwX(.{.wXwX..] ] ] ] . % $ 1 % . ] ] . 0 O.w.q.6.O.0 . O % 1 $ $ $ $ . O   6 wXwXwXwXwXwX",
"wXwXwX|.5X-X1X;XqX..] ] ] 6 O $ 1 % 1 $ 6 6 1 0 W.-X1X-XY.1 0 % 1 $ 1 $ $ O $ . o ..wXwXwX0XqXwX",
"wXwXqX4X-X1X-X-X>X..]  .2X3X2X3X-X^.V q .   q R -X1X-X1XT.q 0 0 8 I V 1 $ $ ^ Q.*X.XwX X2X1X<XwX",
"wX8XU.#X=X:X!.D.I.|.] | &X=X-X=X-XP.D.M e 1 e L I.=X-X=X&X0 r XX-XP.D.G.7 $ ~ D.I.@XwX_.-X=X*XwX",
"wX}.e.P.D.2 > S.S.'.] { =X-X=X-X=XP.e.f.q y q 1.F.R.OX&X+Xy E.-X=XP.e.P.Z.% D C.S.~.wX/.=X-X=XwX",
"wX,XA.e.%.    S.H.L.] C =X=X(   c #XD.9.e e p S.I.r.x.+XXXE =XI.A.d.D.e.S.k c C.I.%XwX} =X=X+X8X",
"wX+XA.7.j     9.7.D . 3 +X=Xu.  c =XD.5.t y P 9.7.& z.XXR.! $X#X>.  A 5.g . B 9.0.D.|. .=X=XoX).",
"6 v.V.8.>           $ , oXK./ $.V.K.C.o.y y i.,.h.  W v.c.) H.S.D.H         } 8.H.C.#X#XoXK.G.].",
"wX>.d.k.d O .       $ 4 J.K.D.P.H.9.y.X y i g.+.+.J r.x.p.Q A.H.I.e.H.b   ] [ @.2.V.H.XXK.J.V.M.",
"wXH y.X.h   O   ,.V.t., v.k.1.@.,.1.d   U Z / / o.<.=.H / M A 2.5.C.H.4.:.wXN.c.@.1.` k.v.d.<.b.",
"7Xc $.l l.  . $ =.p.u.3 d.y.D x f.=.D $ y _ h A f n F A A m   c j.g.1.,.V.6X..y.=.p.;   H &.=.a.",
"..> A j j [.6 = f A v - $.$.z X D H =.0 T t.s a     > f f g       z =.%.$.`...o.l D >   f D D ;.",
"..6 z n c -.q.3.s s > : l G c   c F D i ' f s =     z a f x 5 *.d.  d / D s.7Xh h s [ 6 d v A O.",
"..6   > d a a a a a   - j c a . = c c ) J a & X     X & d H #.=.o.X c c A K wXa s a B.7XN c s f ",
"7X..    + N B B &   6 * f d a 0 = z c S %       u Y .     @ - s a I.&.a c N wXs s a n.wX] d s s ",
"wXwX6               ] = s a a 0 X > ; h 0     $ Y y .     $ % = a d d a ; 6 wXs a a m.wX] & X & ",
"wX9X7X6           6 6 .   X * q .     . #   . t y u 0 $   .   X & a & X   ] wX6     ] wX..      ",
"wX7XwXwX..6 6 6 ] 7X  .     . 0 $     . q y y y U y U y y 0 %               wX6     ..wX7X      ",
"wXwXwXwXwXwX7X7X7X] . #     . 0 % .   . q y q y t y t y q y 9           . . ..6     ] wXwX] ] ..",
"wX9XwXwXwXwX7X7X7X] O $ O . $ 1 0 .   0 e e y e y e $ O w q e $       . 1 O ] wXwXwXwXwXwXwXwXwX",
"wXwXwXwXwXwX7X7X7X  . $ $ % % 0 # ] ] % 0 e q e q e   ] 6 O % 0 0 0 % 1 % %   wXwXwXwXwXwXwXwXwX",
"wXwXwXwXwXwX7X7X..  O O $ $ 1 $ 6 ..] $ w 0 e 0 e $ 6 ] ] ] 6   1 % 1 $ 1 $ O ] wXwXwXwXwXwXwXwX",
"wXwXwXwXwX7X7X7X] O . $ . $ . 6 7X....  9 0 0 0 0 O ] ] ] ] ] ] 6 . $ % $ $ . 6 wXwXwXwXwXwXwXwX",
"wXwXwXwXwX7X7X7X6   O . $ O O ..7X7X..6 1 1 0 1 0   ] ] ] ] ] ] ] ] 6   $ O $   wXwXwXwXwXwXwXwX",
"wXwXwXwXwX7X7X7X  O . O . . ..7X7X7X..] . 1 % 0 $ 6 ] ] ] ] ] ] ] ] ] ..6 . . . ] wXwXwXwXwXwXwX",
"wXwXwXwX7X7X7X..    O . O ] 7X7X7X7X....O $ 1 % $ ] ..] ] ] ] ] ] ] ] ..wX..6     wXwXwXwXwXwXwX",
"wXwXwXwX7X7X7X]   .   . 6 wXwX7X7X7X....  % $ %   wXwX7X..] ] ] ] ] ] ..wXwXwX..6 wXwXwXwXwXwXwX",
"wXwXwXwX7X7X7X  o   O   wXwXwX7X7X7X7X..] . $ . 6 wXwXwXwX7X..] ] ] ] ] wXwXwXwXwXwXwXwXwXwXwXwX",
"wXwXwXwX7X7X7X    .   ..wXwXwX7X7X7X....] O . O ] wXwXwXwXwXwX7X..] ] ] ..wXwXwXwXwXwXwXwXwXwXwX",
"wXwXwX7X7X7X]       ] wXwXwXwX7X7X7X7X....  O   wXwXwXwXwXwXwXwXwX7X..] ] wXwXwXwXwXwXwXwXwXwXwX",
"wXwXwX7X7X7X]     6 wXwXwXwXwXwX7X7X......  . 6 wXwXwXwXwXwXwXwXwXwXwX7X..wXwXwXwXwXwXwXwXwXwXwX",
"wXwXwX7X7X7X    6 wXwXwXwXwXwXwX7X7X....7X]   ] wXwXwXwXwXwXwXwXwXwXwXwXwXwXwXwXwXwXwXwXwXwXwXwX",
"wXwXwX7X7X..    ..wXwXwXwXwXwXwX7X7X....7X..  wXwXwXwXwXwXwXwXwXwXwXwXwXwXwXwXwXwXwXwXwXwXwXwXwX",
"wXwX7X7X7X]   ..wXwXwXwXwXwXwXwXwX7X....wXwX6 wXwXwXwXwXwXwXwXwXwXwXwXwXwXwXwXwXwXwXwXwXwXwXwXwX",
"wXwX7X7X7X6 6 wXwXwXwXwXwXwXwXwXwX....7XwXwXwXwXwXwXwXwXwXwXwXwXwXwXwXwXwXwXwXwXwXwXwXwXwXwXwXwX",
"wXwX7X7X7X] wXwXwXwXwXwXwXwXwXwXwX7X..7XwXwXwXwXwXwXwXwXwXwXwXwXwXwXwXwXwXwXwXwXwXwXwXwXwXwXwXwX",
"wX7X7X7X7XwXwXwXwXwXwXwXwXwXwXwXwX7X..wXwXwXwXwXwXwXwXwXwXwXwXwXwXwXwXwXwXwXwXwXwXwXwXwXwXwXwXwX"
};
