/* XPM */
static char *magick[] = {
/* columns rows colors chars-per-pixel */
"48 48 107 2",
"   c Gray0",
".  c #000b00",
"X  c #130b00",
"o  c #13001c",
"O  c #130b1c",
"+  c #111111",
"@  c #002200",
"#  c #00221c",
"$  c #132200",
"%  c #13221c",
"&  c #3b0b00",
"*  c #3b001c",
"=  c #3b221c",
"-  c #222222",
";  c #2a2a2a",
":  c #000b54",
">  c #130b54",
",  c #002254",
"<  c #132254",
"1  c #3b2254",
"2  c #13421c",
"3  c #3b421c",
"4  c #134254",
"5  c #394641",
"6  c #3b4254",
"7  c #394670",
"8  c #396141",
"9  c #3b6854",
"0  c #710b00",
"q  c #71001c",
"w  c #710b1c",
"e  c #71221c",
"r  c #444444",
"t  c Gray33",
"y  c #555555",
"u  c #5b6170",
"i  c #714254",
"p  c #615c67",
"a  c #616b54",
"s  c #716854",
"d  c #606060",
"f  c Gray40",
"g  c #616b67",
"h  c Gray42",
"j  c #777777",
"k  c Gray50",
"l  c #130ba1",
"z  c #1322a1",
"x  c #3b22a1",
"c  c #1342a1",
"v  c #3b42a1",
"b  c #3b68a1",
"n  c #3b42ff",
"m  c #3b68ff",
"M  c #5b46b0",
"N  c #5b61b0",
"B  c #615c8c",
"V  c #616b8c",
"C  c #7168a1",
"Z  c #7142ff",
"A  c #7168ff",
"S  c #5b8070",
"D  c #719554",
"F  c #618067",
"G  c #7f847f",
"H  c #5b80b0",
"J  c #7c808c",
"K  c #7f848d",
"L  c #7f908d",
"P  c #7195a1",
"I  c #7c80c0",
"U  c #7195ff",
"Y  c #71c7a1",
"T  c #b2001c",
"R  c #b2221c",
"E  c #b22254",
"W  c #887f8d",
"Q  c #b268ff",
"!  c #888888",
"~  c #88908d",
"^  c Gray60",
"/  c #8884a9",
"(  c #8880b0",
")  c #8890a9",
"_  c #9c90a9",
"`  c #88a6b0",
"'  c #9ca0a9",
"]  c #b295a1",
"[  c #aaaaaa",
"{  c #aaadaa",
"}  c #aaaab3",
"|  c #aaadb3",
" . c #b0aaaa",
".. c #b0aab3",
"X. c #b0adb3",
"o. c #bbbbbb",
"O. c #b295ff",
"+. c #b2c7a1",
"@. c #b2ffa1",
"#. c #b2c7ff",
"$. c #b2ffff",
"%. c Gray80",
"&. c #dddddd",
"*. c #ffc7ff",
"=. c #eeeeee",
"-. c Gray100",
";. c None",
/* pixels */
";.;.;.;.;.;.} K V V M 7 N N N 7 M V ) { [ ;.;.;.;.;.;.;.;.;.;.;.;.;.;.[ h F y u s 6 d G ;.;.;.;.",
";.;.;.;.K V 7 v v v c v v b v A b A b ( J / [ ;.;.;.;.;.;.;.;.;.;.[ 8 C P *.@.-.-.*.s 6 6 ;.;.;.",
";.;...B M c v v v v Z v n v A b A b A C U C I | ;.;.;.;.;.;.;.;.W s ! %.-.-.&.o.] P O.] 6 6 ;.;.",
";.} 7 v 4 v c v c v c b v C b A v C b A b A C ( G ;.;.;.;.;.;.[ 9 P +.-.+.] P ] P ] P 9     ;.;.",
" .V v c v v v v A v Z v A b A b A C U P O.P O.P ( | ;.;.;.;.;.S j -.-.+.#.] ] P #.6     s ;.;.;.",
"K v 4 v v v c v v b v A b A b A C U b A C O.P U P ' ;.;.;.;.[ 6 ] -.&.#.P ] P 9     4 ;.;.;.;.;.",
") c v v v v Z v n v A b A b A C U C U P O.P O.P O.C ;.;.;.;.W s -.-.-.] ] P i   6 ;.;.;.;.;.;.;.",
"v v c v c v c b v C b A v C b A b A C O.P U P O.P C ;.;.;.;.a ] -.] -.] P ]   9 ;.;.;.;.;.;.;.;.",
"A v v v A v Z v A b A b A C U P O.P O.P O.P O.P #.v ;.;.;.;.h +.-.] -.+.#.]   6 ;.;.;.;.;.;.;.;.",
"b v c v v b v A b A b A C U b A C O.P U P O.P O.C z ;.;.;.;.8 &.+.] Y -.P ] % O [ ;.;.;.;.;.;.;.",
"A b Z v n v A b A b A C U C U P O.P O.P O.P O.P v : ;.;.;.;.i -.] 6   -.*.P C   k ;.;.;.;.;.;.;.",
"b C b A v C b A v C b A b A C O.P U P O.P O.b x , > ;.;.;.W 9 -.4   6 9 -.] 9 1 ; [ ;.;.;.;.;.;.",
"A C O.P O.C A b A C U P O.P O.P O.P O.P Q v z , z > ;.;.;.g ] -.s   -.-.-.+.] 9   k #.;.;.;.] % ",
"b U C U P #.P A C U b A C O.C A C C 4 z , > , l , l ;.;.;.u +.*.P 9 -.6 6 -.P C % ; ;.;.+.] 4   ",
"A C O.P O.P O.P U C A v n v v z x < z : z : z > z : ;.;.d s -.] ] P   -.-.-.*.] u   *.] ] P 1   ",
"b C C O.P O.P O.b C b b c v c v , < , > , > , l , > ;.;.5 +.+.] P ] 6 -.4 6 -.] 9 % % ] P 6   9 ",
"A C O.P #.O.O.P O.C A v A v v z x < z , z > z , z > ;.G s -.] P #.] ] P #.] -.o.#.]   6 1   i ;.",
"b U C U P #.P U C A b m v v 4 c < z , > , > , l , l G 6 -.] P ] P ] 4 6 6 9 4 6 % - .     9 ;.;.",
"A C O.P O.P O.P U C A v n v v z x < z : z : z > z p i -.] 6 *.] ] 6             + % 1 6 ;.;.;.;.",
"b C C O.P O.P O.b C b b c v c v f f f f f f f f 2 9 -.] 4 ] +.] 4     9 2 r 3   4 6 X ;.;.;.;.;.",
"A C O.P #.O.O.P O.C A v A v v z f +.*.+.-.+.*.D s -.] 6 #.#.] 6     ] P s P ] ]     o k ;.;.;.;.",
"b U C U P #.P U C A b m v v 4 c f *.+.*.+.*.s 9 -.] 4 ] +.] 4     ] D ] 3 ^ ^ ] P ] . k ;.;.;.;.",
"A C O.P O.P O.P U C A v n v v z f +.*.+.*.s i -.] 6 O.#.] 6     ] D ] ] i P [ [ #.[ * k ;.;.;.;.",
"b C C O.P O.P O.b C b b c v c v f *.+.*.s 9 -.] 4 ] +.] 4     ] D ] P ] 6 ] +.#.+.+.+ k ;.;.;.;.",
"A C O.P #.O.O.P O.C A v A v v z f +.*.D s -.] 6 #.#.] 6     q 0 T w e 0 E w R 0 E w = k ;.;.;.;.",
"~ U C U P #.P U C A b m v v 4 c f *.s 9 -.] 4 ] +.] 4     [ 9 +.] #.%.&.P -.$.-.-.-.X k ;.;.;.;.",
"..H O.P O.P O.P U C A v n v v z f s i -.] 6 O.#.] 6     [ [ C +.o.%.&.=.] -.-.-.-.-.= k ;.;.;.;.",
";./ b O.P O.P O.b C b b c v c v 2 9 -.] 4 ] +.] 4     r r 6 3 i 6 s 9 f 6 f f f f f X k ;.;.;.;.",
";.;._ ` #.O.O.P O.C A v A v v < s -.] 6 #.#.] 6     [ [ *.+.] %.&.-.-.-.[ -.-.-.-.-.= k ;.;.;.;.",
";.;.[ / S O.P U C A b m v v < 9 -.] 4 ] +.] 4     [ [ +.] #.! &.=.-.$.-.[ -.-.-.-.-.X k ;.;.;.;.",
";.;.;.;.} ~ ( ( U C A v n < i -.] 6 O.#.] 6     q r i r i 3 s 9 C f f f f f f f f f = k ;.;.;.;.",
";.;.;.;.;.;.{ X.L V V N < 9 -.] 4 ] +.] 4     ] & ] ] o.%.&.P -.$.-.-.-.[ -.-.-.-.-.X k ;.;.;.;.",
";.;.;.;.;.;.;.;.;.;.;.G s -.] 6 #.#.] 6     ] P T +.*.%.&.-.] -.-.-.-.-.[ -.-.-.-.-.= k ;.;.;.;.",
";.;.;.;.;.;.;.;.;.;.G 9 -.] 4 ] +.] 4     r r 6 0 i 6 s 9 f f f f f f f f f f f f f X k ;.;.;.;.",
";.;.;.;.;.;.;.;.;.G i -.] 6 O.#.] 6     ] D ] ^ q %.&.=.-.-.O.-.-.-.-.-.[ -.-.-.-.-.= k ;.;.;.;.",
";.;.;.;.;.;.;.;.G 9 -.] 4 ] +.] 4     ] D ] P ] 0 &.+.-.$.-.[ -.-.-.-.-.[ -.-.-.-.-.X k ;.;.;.;.",
";.;.;.;.;.;.;.G s -.] 6 #.#.] 6     r r s r i 6 E s C s f f f f f f f f f f f f f f = k ;.;.;.;.",
";.;.;.;.;.;.G 9 -.] 4 ] +.] 4     ] D ] ^ ] [ o.w -.$.-.-.-.[ -.-.-.-.-.[ -.-.-.-.-.X k ;.;.;.;.",
";.;.;.;.;.G i -.] 6 O.#.] 6     r D ] ^ ] [ *.+.R -.-.-.-.-.[ -.-.-.-.-.[ -.-.-.-.-.= k ;.;.;.;.",
";.;.;.;.G y -.] P 6 +.] 4     ;.r 6 3 i 6 s 9 f w f f f f f f f f f f f f f f f f f X k ;.;.;.;.",
";.;.;.G s -.] P #.] ] 6     ;.;.s ] ] [ *.+.%.+.E -.-.-.-.-.[ -.-.-.-.-.[ -.-.-.-.-.= k ;.;.;.;.",
";.;.G 6 -.9   6 P ] 4     ;.;.;.3 ] [ o.+.%.+.*.w -.-.-.-.-.[ -.-.-.-.-.[ -.-.-.-.-.X k ;.;.;.;.",
";.;.W 6 ]       ] 6     ;.;.;.;.i 3 s 9 C f f f R f f f f f f f f f f f f f f f f f = k ;.;.;.;.",
";.;.G   4 -.-.9 4     ;.;.;.;.;.6 o.+.%.+.#.+.*.w -.-.-.-.-.[ -.-.-.-.-.[ -.-.-.-.-.X k ;.;.;.;.",
";.;.W     6 i 6     ;.;.;.;.;.;.s +.%.+.-.+.*.+.E -.-.-.-.-.[ -.-.-.-.-.[ -.-.-.-.-.= k ;.;.;.;.",
";.;.;.6           ;.;.;.;.;.;.;.9 - # - $ - - - - - - - - - - - - - - - - - - - - - @ k ;.;.;.;.",
";.;.;.;.6 6 i 6 ;.;.;.;.;.;.;.;.;.k k k k k k k k k k k k k k k k k k k k k k k k k k k ;.;.;.;.",
";.;.;.;.;.;.;.;.;.;.;.;.;.;.;.;.;.;.;.;.;.;.;.;.;.;.;.;.;.;.;.;.;.;.;.;.;.;.;.;.;.;.;.;.;.;.;.;."
};
