/* XPM */
static char *magick[] = {
/* columns rows colors chars-per-pixel */
"48 48 175 2",
"   c Gray0",
".  c #3f281f",
"X  c #302820",
"o  c #30282f",
"O  c #303720",
"+  c #3f372f",
"@  c #3f3f2f",
"#  c #203740",
"$  c #2f3f50",
"%  c #3f4f30",
"&  c #3f4740",
"*  c #304750",
"=  c #3f4f50",
"-  c #3f5f40",
";  c #30575f",
":  c #3f5f5f",
">  c #2f4f60",
",  c #3f5760",
"<  c #305f7f",
"1  c #3f5f70",
"2  c #3f676f",
"3  c #50301f",
"4  c #403f2f",
"5  c #503f20",
"6  c #5f3720",
"7  c #5f3820",
"8  c #603f1f",
"9  c #603820",
"0  c #6f3f20",
"q  c #404730",
"w  c #4f4f30",
"e  c #40582f",
"r  c #504f30",
"t  c #50573f",
"y  c #505f3f",
"u  c #5f573f",
"i  c #406730",
"p  c #4f673f",
"a  c #50673f",
"s  c #5f673f",
"d  c #5f6f3f",
"f  c #70401f",
"g  c #70471f",
"h  c #7f471f",
"j  c #6f472f",
"k  c #6f4f3f",
"l  c #7f4820",
"z  c #40574f",
"x  c #4f574f",
"c  c #4f5f5f",
"v  c #505f40",
"b  c #5f5740",
"n  c #5f5f4f",
"m  c #40576f",
"M  c #4f5f60",
"N  c #505f6f",
"B  c #5f6740",
"V  c #5f704f",
"C  c #5f7840",
"Z  c #506760",
"A  c #5f6f6f",
"S  c #50777f",
"D  c #605f50",
"F  c #705f4f",
"G  c #606740",
"H  c #6f6f40",
"J  c #60675f",
"K  c #607740",
"L  c #607f4f",
"P  c #60775f",
"I  c #706750",
"U  c #706f50",
"Y  c #606f7f",
"T  c #706f60",
"R  c #707f60",
"E  c #707770",
"W  c Gray50",
"Q  c #406780",
"!  c #707f90",
"~  c #6f875f",
"^  c #708850",
"/  c #6f977f",
"(  c #7f8760",
")  c #708f7f",
"_  c #7f9760",
"`  c #408fb0",
"'  c #6f8f90",
"]  c #7f8780",
"[  c #7087af",
"{  c #5097cf",
"}  c #4fa0df",
"|  c #5fa0cf",
" . c #5fafe0",
".. c #6098c0",
"X. c #6fa8e0",
"o. c #60b0f0",
"O. c #6fb8ff",
"+. c #7fb8f0",
"@. c #7fc0e0",
"#. c #7fc0f0",
"$. c #80481f",
"%. c #8f4f1f",
"&. c #90501f",
"*. c #90571f",
"=. c #9f501f",
"-. c #804f20",
";. c #8f572f",
":. c #a0581f",
">. c #af581f",
",. c #af5f1f",
"<. c #b0601f",
"1. c #af672f",
"2. c #b06820",
"3. c #b06f20",
"4. c #bf703f",
"5. c #806050",
"6. c #cf6f1f",
"7. c #c07730",
"8. c #8f8f6f",
"9. c #90976f",
"0. c #8f8f80",
"q. c #8f8f90",
"w. c #809780",
"e. c #8f979f",
"r. c #90979f",
"t. c #9fa890",
"y. c #8fa0af",
"u. c #8fb0b0",
"i. c #90a0af",
"p. c #a0b89f",
"a. c #afb0a0",
"s. c #a0b0b0",
"d. c #afb8bf",
"f. c #b0b8bf",
"g. c #8fa8cf",
"h. c #8fb8df",
"j. c #9fb0c0",
"k. c #9fb8d0",
"l. c #80b0ef",
"z. c #80b8e0",
"x. c #a0b8c0",
"c. c #bfc08f",
"v. c #bfd8bf",
"b. c #80c8ff",
"n. c #8fc8ff",
"m. c #9fc7ef",
"M. c #90d0ff",
"N. c #9fe0ff",
"B. c #afc0cf",
"V. c #bfc0c0",
"C. c #b0c8d0",
"Z. c #afc8e0",
"A. c #afd0ef",
"S. c #b0d0ef",
"D. c #bfd0ef",
"F. c #bfdfff",
"G. c #a0efff",
"H. c #afe0ff",
"J. c #b0efff",
"K. c #c0b0bf",
"L. c #cfc0bf",
"P. c #cfc8df",
"I. c #c0d0c0",
"U. c #d0d8df",
"Y. c #cfe0e0",
"T. c #cfe0ff",
"R. c #cfe8ff",
"E. c #cff7ff",
"W. c #d0e8e0",
"Q. c #e0e8ff",
"!. c LightCyan",
"~. c #eff0f0",
"^. c AliceBlue",
"/. c Gray100",
"(. c None",
/* pixels */
"(.(.(.(.(.(.(.(.(.(.(.(.(.(.(.(.(.(.(.(.(.(.(.f . (.(.(.(.(.(.(.(.(.(.(.(.(.(.(.(.(.(.(.(.(.(.(.",
"(.(.(.(.(.(.(.(.(.(.(.(.(.(.(.(.(.(.(.(.(.(.(.f . (.(.(.(.(.(.(.(.(.(.(.(.(.(.(.(.(.(.(.(.(.(.(.",
"(.(.(.(.(.(.(.(.(.(.(.(.(.(.(.(.(.(.(.(.(.(.f <.h . (.(.(.(.(.(.(.(.(.(.(.(.(.(.(.(.(.(.(.(.(.(.",
"(.(.(.(.(.(.(.(.(.(.(.(.(.(.(.(.(.(.(.(.W x M c & & + W (.(.(.(.(.(.(.(.(.(.(.(.(.(.(.(.(.(.(.(.",
"(.(.(.(.(.(.(.(.(.(.(.(.(.(.(.(.(.(.(.d.V.v.F.Z.T.Z.B.] ! W (.(.(.(.(.(.(.(.(.(.(.(.(.(.(.(.(.(.",
"(.(.(.(.(.(.(.(.(.(.(.(.(.(.(.(.(.L./././.J.b.m.a.B.B.x.j.s.e.W (.(.(.(.(.(.(.(.(.(.(.(.(.(.(.(.",
"(.(.(.(.(.(.(.(.(.(.(.(.(.(.(.V././.~.R.H.b.z.h.B.Y.P.x.j.j.y.] W (.(.(.(.(.(.(.(.(.(.(.(.(.(.(.",
"(.(.(.(.(.(.(.(.(.(.(.(.(.(.I././.U.E.H.#.#.z.z.B.C.x.j.u.y.i.q.q.Y (.(.(.(.(.(.(.(.(.(.(.(.(.(.",
"(.(.(.(.(.(.(.(.(.(.(.(.(.V././.p.E.M.b.b.b.@.A.Z.x.j.j.y.y.i.q.W W n (.(.(.(.(.(.(.(.(.(.(.(.(.",
"(.(.(.(.(.(.(.(.(.(.(.(.a././.W.!.R.n.b.z.z.z.h.x.s.e.e.y.y.i.q.W E V B (.(.(.(.(.(.(.(.(.(.(.(.",
"(.(.(.(.(.(.(.(.(.(.(.a././././.!.H.b.#.z.@.z.g.r.8.^ ~ ] r.r.W E D y d e (.(.(.(.(.(.(.(.(.(.(.",
"(.(.(.(.(.(.(.(.(.(.(.V././.^.^.!.F.#.+.m.Z.Z.a.8.^ L K L K R D y p G B s n (.(.(.(.(.(.(.(.(.(.",
"(.(.(.(.(.(.(.(.(.(.e.!.^./.c.t.!.R.z.z.D.D.s.9._ _ ^ p a P y B y e p y y p (.(.(.(.(.(.(.(.(.(.",
"(.(.(.(.(.(.(.(.(.{ A.J.!.^.D.T.Q.Z.m.A.D.B.( d ^ w.L a a p p p e e y y y y e (.(.(.(.(.(.(.(.(.",
"(.(.(.(.(.(.(.(.(.{ N.J.J.M.n.R.T.C.C.P.s.( ^ ~ r.( K - V p i i e e p e y i % (.(.(.(.(.(.(.(.(.",
"(.(.(.(.(.(.(.(.{ @.G.J.N.H.Q.T.S.V.I.P.t.K ~ K w.q.P p a i e e p y e y p y p e (.(.(.(.(.(.(.(.",
"(.(.(.(.(.(.(.(.{ M.G.G.N.J.F.m.Z.w.d.P.d.0.w.~ q.W d p p e i e e a y B B a d w (.(.(.(.(.(.(.(.",
"(.(.(.(.(.(.(.x M.M.M.M.+.#.n.C.w.w.p.U.K.( ~ ~ 0.( i p e e y a y B y y y G d n @ (.(.(.(.(.(.(.",
"(.(.(.(.(.l $.J #.#.M.b.O. .m.f.a.~ R 0.8.d s d C d s p e y s y s s a y y d d v @ 5 3 (.(.(.(.(.",
"(.(.(.&.%.6.6.* O.O.b.M.o. .{ k.f.w.( L d d G a s d s d y p B e y s F s s d H G O j 8 6 6 (.(.(.",
"(.(.3 =.6.,.%.* o.o.+.+.o.} } { ../ L ^ K d G s G p n e B v t e C G T d G p n U X j f f f 3 (.(.",
"(.(.f 6.<.*.%.& X.X.l.| } } { ' ' ) ^ H P n n n v y n v Z N M N b y J D s s n I + j h f f 0 (.(.",
"(.(.f <.<.>.%.h [ [ X...{ { ` S K H R S ! S N Z S D , n : c J J n b n D y b r + j l h h f 5 (.(.",
"(.(.f =.,.<.,.=.%.;.[ [ ..` Y S Y b Y P S S Y M M N * > t x , u r u D n b t . h l l l h f X (.(.",
"(.(.(.9 &.=.,.<.,.>.=.1.4.2 Y M M > : M = : = : 2 : : v n N u u b & ;.;.-.l l l h f f 8 3 X (.(.",
"(.(.(.(.7 0 l =.,.,.,.,.<.2.2.7.3.7.7.7.3.3.3.2.2.<.<.<.,.<.,.,.*.*.*.&.&.-.$.l f 0 6 . X (.(.(.",
"(.(.(.(.(.(.7 0 g l &.=.=.=.=.=.:.:.=.=.=.=.=.=.&.%.&.%.%.%.%.%.%.l l l l h j 0 0 5 . X (.(.(.(.",
"(.(.(.(.(.(.(.(.k j 0 0 h f h h l l f f f f f f f f f f f f f f l l l 0 j 0 0 0 X X (.(.(.(.(.(.",
"(.(.(.(.(.(.(.(.(.m 5.k j j 0 7 7 0 0 f 0 0 0 0 0 0 0 0 0 0 0 0 7 7 0 , * 1 $ . (.(.(.(.(.(.(.(.",
"(.(.(.(.(.(.(.(.(.(.m Q 1 c t n q 4 4 4 + 4 4 4 4 O @ 4 + q w w & , , 2 m $ (.(.(.(.(.(.(.(.(.(.",
"(.(.(.(.(.(.(.(.(.(.(.N Q 1 : v B y G d G G G d G v U d G u b G N N 1 m * (.(.(.(.(.(.(.(.(.(.(.",
"(.(.(.(.(.(.(.(.(.(.(.(.2 < 1 2 2 z : Z v v v d H T G v v % z ; 2 2 2 1 (.(.(.(.(.(.(.(.(.(.(.(.",
"(.(.(.(.(.(.(.(.(.(.(.(.(.> 1 1 1 > 1 1 N P D y d D D D b z ; > 1 1 , (.(.(.(.(.(.(.(.(.(.(.(.(.",
"(.(.(.(.(.(.(.(.(.(.(.(.(.(.; Q 1 < 1 1 Q A n t G D D b t c ; > 1 $ (.(.(.(.(.(.(.(.(.(.(.(.(.(.",
"(.(.(.(.(.(.(.(.(.(.(.(.(.(.(.; m 1 < 1 1 2 D I I G v c : , , , * (.(.(.(.(.(.(.(.(.(.(.(.(.(.(.",
"(.(.(.(.(.(.(.(.(.(.(.(.(.(.(.(.(.> > ; 1 1 N n D N - > * * # * (.(.(.(.(.(.(.(.(.(.(.(.(.(.(.(.",
"(.(.(.(.(.(.(.(.(.(.(.(.(.(.(.(.(.(.f f =.,.%.f 6 0 0 g X X X (.(.(.(.(.(.(.(.(.(.(.(.(.(.(.(.(.",
"(.(.(.(.(.(.(.(.(.(.(.(.(.(.(.(.,.>.>.%.=.<.%.f 9 0 0 g . + o o 3 (.(.(.(.(.(.(.(.(.(.(.(.(.(.(.",
"(.(.(.(.(.(.(.(.(.(.(.(.(.(.(.>.<.6.<.%.=.<.$.f 6 7 0 0 . X X X X 6 (.(.(.(.(.(.(.(.(.(.(.(.(.(.",
"(.(.(.(.(.(.(.(.(.(.(.(.(.(.>.<.6.<.<.%.6 ,.&.f 7 7 9 8 . X X X X X 6 (.(.(.(.(.(.(.(.(.(.(.(.(.",
"(.(.(.(.(.(.(.(.(.(.(.(.(.f <.6.<.<.<.,.%.. h f 0 9 9 . . X X X X . . 5 (.(.(.(.(.(.(.(.(.(.(.(.",
"(.(.(.(.(.(.(.(.(.(.(.(.(.f ,.6.<.<.<.>.=.h . 3 3 3 3 3 . . . X . . . 6 (.(.(.(.(.(.(.(.(.(.(.(.",
"(.(.(.(.(.(.(.(.(.(.(.(.(.f =.<.<.<.<.<.>.h f 8 3 3 3 3 . . . . . . 3 5 (.(.(.(.(.(.(.(.(.(.(.(.",
"(.(.(.(.(.(.(.(.(.(.(.(.(.7 f %.>.<.<.<.<.>.$.f 7 6 3 3 . . . . . . 3 7 (.(.(.(.(.(.(.(.(.(.(.(.",
"(.(.(.(.(.(.(.(.(.(.(.(.(.(.7 f %.>.,.<.<.<.=.$.0 8 6 3 3 3 3 3 3 6 7 (.(.(.(.(.(.(.(.(.(.(.(.(.",
"(.(.(.(.(.(.(.(.(.(.(.(.(.(.(.7 f h =.>.,.,.>.>.=.f 8 8 3 3 3 6 7 7 (.(.(.(.(.(.(.(.(.(.(.(.(.(.",
"(.(.(.(.(.(.(.(.(.(.(.(.(.(.(.(.(.5 9 f $.$.$.$.l f f 8 6 6 7 7 (.(.(.(.(.(.(.(.(.(.(.(.(.(.(.(.",
"(.(.(.(.(.(.(.(.(.(.(.(.(.(.(.(.(.(.(.6 7 7 9 9 0 9 9 7 7 7 (.(.(.(.(.(.(.(.(.(.(.(.(.(.(.(.(.(."
};
