/* XPM */
static char *magick[] = {
/* columns rows colors chars-per-pixel */
"48 48 53 1",
"  c Gray0",
". c Gray3",
"X c #101010",
"o c #181818",
"O c #202020",
"+ c #202028",
"@ c #202820",
"# c #202828",
"$ c #282828",
"% c #283028",
"& c #302828",
"* c #303028",
"= c Gray19",
"- c #383830",
"; c Gray22",
": c #384141",
"> c #413838",
", c #413841",
"< c #414141",
"1 c #414941",
"2 c #494941",
"3 c #494949",
"4 c #494951",
"5 c #515149",
"6 c #515151",
"7 c #515159",
"8 c Gray35",
"9 c #596161",
"0 c Gray38",
"q c Gray41",
"w c #697171",
"e c #716971",
"r c #717171",
"t c #797179",
"y c #797979",
"u c #867979",
"i c #868286",
"p c #868a8e",
"a c #8e8a8e",
"s c #969296",
"d c #9e9a9e",
"f c #a6a2a6",
"g c #b6b2b6",
"h c #bebabe",
"j c #c7c3c7",
"k c #cfcbcf",
"l c #dfd3d7",
"z c #dfdbdf",
"x c #e7e3e7",
"c c #efebef",
"v c #f7f3f7",
"b c #fffbff",
"n c None",
/* pixels */
"nnnnnnnnnnnnnnnnnnnnnnnnnnnnnnnnnnnnnnnnnnnnnnnn",
"nnnnnnnnnnnnnnnnnnnnnnnnnnnnnnnnnnnnsi06$annnnnn",
"nnnnnnnnnnnnnnnnnnnnnnnnnnnnnniq6=$ O<03n$snnnnn",
"nnnnnnnnnnnnnnnnnnnnnnnai63$. ;<<ihbczaqi8$rnnnn",
"nnnnnnnnnnnnnnnndi06$O OOyahxnaaiysq8=OX.X 3nnnn",
"nnnnnnnnnnir6<$ X<ryiiiargddqq7=$Oanz<   = $nnnn",
"nnnni63$X <3<8qradfpa8;<=tvzcO   Ocbz    k<Onnnn",
"nnna .rndnfi836,$0jlh    zbbi    dbbr   ab6 nnnn",
"nnnd= 9qngkhO  X dbb=   0bbcX   <bbcX  Obbi dnnn",
"nnnlhO0bbbb<  X <bbi   Xcbb0    hbbd   ihh0 innn",
"nnnk0 <bbbn    Xzbk    ibbk    6hniX    $$3qnnnn",
"nnnhi.XbbcO  X acb=   Odka<    .$=66iinnnnnnnnnn",
"nnnnn$ bbi  X $hh0     O$<6qisnnnnnnnnnnnnnnnnnn",
"nnnnh  ad  OX .$$66iidnnnnnnnnnnnnnnnnnnnnnnnnnn",
"nnnnaOO     .36ridnnnnnnnnnnnnnnnnnnnnnnnnnnnnnn",
"nnnnj=OXX ;6<<=$=$o:$66iinnnnnnnnnnnnnnnnnnnnnnn",
"nnndko;<iOO#;<880qrritq96<;<=60iannnnnnnnnnnnnnn",
"nnnazo;ibr    rhs6==36rriadnhfdy< X$<6qidnnnnnnn",
"nnnn6o=hbcX   6bbh    rgdr=<6qpsfggfdrq;% O3nnnn",
"nnnn<<Ozbbi    cbb<   ObbbO   Ondiy60adghxgOrnnn",
"nnnn6  O<riX   abbh    nbbd    kbbb=   dfiiX=nnn",
"nnnn<..OooX..  Xiah=   <bbcX   0bbbd   ibbb< nnn",
"nnnn<yO6<<;=*OOoXX.     dhbi    zbbcX  XbbbX$nnn",
"nnnn;q$66363333<63$$OOoXX.      ibbbi   dbz =nnn",
"nnna8<;639883033y0<<<<;==$$OooX.. O<0   Obn 6nnn",
"nnni0<<33860ra61y3<<6<<<<<<<;==$$OOoXX.  =O rnnn",
"nnn6yo3333360338q1<8ir8<3<<;3;;;;;===$$$OOX<dnnn",
"nnn3r$33yyr072<q9<<q66qe38q3a8;;;;;======= nnnnn",
"nnn5qX33338qriiaq86<<<<<33;;<y30r0=======@Onnnnn",
"nnn=8O33332<<<<i60wiiyq86;;;;;;;3========o3nnnnn",
"nns;<=333666<<<s2<<<<<60qyyy063--========Xqnnnnn",
"nni6;;33380i0<3i<<<<;;;;;;;;40qyyr06<===*.annnnn",
"nn63$333300i6<9q<<6s6<8q;;;;;====;38qy6*$ nnnnnn",
"nn<0$2<<<<<<<<q8<3irrua006<===========*$O$nnnnnn",
"nn=8#<<qiirq86y6>;;;;<8>8ry;it;======&$$X6nnnnnn",
"nn*6$<<<<<360wa8yq86;;;;;;;;3003====*$$$.rnnnnnn",
"nd=<=<<<<<<<<<r<<600yyy083;===<;======$$ snnnnnn",
"ni===<<<63<<<;q<;;;;;;=380ryyq83=*$$$$$@.nnnnnnn",
"n0=O<<<<i0i5;68;;;;;;========<40ryyq0=$o=nnnnnnn",
"nrXX<<<<<36;;0<;;;;;==========*$$$$;<=$X6nnnnnnn",
"nn X<<<<<;;;;3;;;;===========*$$$$$$$#+.innnnnnn",
"nn<X$&;>;;;;;;;;;===========&$$$$$$$++O dnnnnnnn",
"nnd6=$. .Xoo$$;;==========*$$$$$$$$+OOOOnnnnnnnn",
"nnnnnnnnai66$$  ..ooO$===*$$$$$$$#+OOOX<nnnnnnnn",
"nnnnnnnnnnnnnnnnii66$O  ..XoOO$$#+OOOOX0nnnnnnnn",
"nnnnnnnnnnnnnnnnnnnnnnndir63$O  ..XXoO.innnnnnnn",
"nnnnnnnnnnnnnnnnnnnnnnnnnnnnnnndiq6<$X.nnnnnnnnn",
"nnnnnnnnnnnnnnnnnnnnnnnnnnnnnnnnnnnnnnnnnnnnnnnn"
};
