/* XPM */
static char *magick[] = {
/* columns rows colors chars-per-pixel */
"48 48 71 1",
"  c Gray0",
". c #2f0010",
"X c #300010",
"o c #3f3830",
"O c #400f20",
"+ c #4f072f",
"@ c #4f102f",
"# c #50002f",
"$ c #5f0730",
"% c #501830",
"& c #403830",
"* c #600730",
"= c #60073f",
"- c #60083f",
"; c #6f083f",
": c #700840",
"> c #700f40",
", c #7f1f40",
"< c #7f1f4f",
"1 c #6f2740",
"2 c #6f274f",
"3 c #70274f",
"4 c #7f3750",
"5 c #505040",
"6 c #5f5f5f",
"7 c #704840",
"8 c #7f7760",
"9 c #7f7f6f",
"0 c #80305f",
"q c #90404f",
"w c #804760",
"e c #8f4060",
"r c #8f4760",
"t c #8f4860",
"y c #8f506f",
"u c #904f60",
"i c #90506f",
"p c #905870",
"a c #8f686f",
"s c #9f7f70",
"d c #af5f50",
"f c #b06f50",
"g c #b07750",
"h c #bf7f50",
"j c #a0707f",
"k c #80886f",
"l c #8f8070",
"z c #90807f",
"x c #cf9050",
"c c #cf975f",
"v c #d0985f",
"b c #8f8f80",
"n c #b0878f",
"m c #b0908f",
"M c #bfb89f",
"N c #c0a7af",
"B c #d0b8af",
"V c #c0c0a0",
"C c #cfcfaf",
"Z c #d0d0b0",
"A c #dfd8bf",
"S c #e0d8bf",
"D c #efd8df",
"F c #efe7c0",
"G c #efefdf",
"H c #f0f0cf",
"J c #f0f8df",
"K c #fff8d0",
"L c LightYellow",
"P c ivory",
"I c None",
/* pixels */
"IIIIIIIIIIIIIIIIIIIIIIIIIIIIIIIIIIIIIIIIIIIIIIII",
"IIIIIIIIIIIIIIIIIIIIIIIIIIIIIIIIIIIIIIIIIIIIIIII",
"IIIIIIIIIIIIIIIIIIIIIIIIIIIIIIIIIIIIIIIIIIIIIIII",
"IIIIIIIIIIIIIIIIIIIIIIIIIIIIIIIIIIIIIIIIIIIIIIII",
"IIIIIIIIIIIIIIIIIIIIIIIIIIIIIIIIIIIIIIIIIIIIIIII",
"IIIIIIIIIIIIIIIIIIIIIIIIIIIIIIIIIIIIIIIIIIIIIIII",
"IIIIIIIIIIIIIIIIIIIIIIIIIIIIIIIIIIIIIIIIIIIIIIII",
"IIIIIIIIIIIIIIIIIIIIIIIIIIIIIIIIIIIIIIIIIIIIIIII",
"IIIIIIIIIIII55bbbbbIIIIIIIIIIIIIIIIIIIIIIIIIIIII",
"IIIIIIIIIII&89ZZZZZbbbbIIIIIIIIIIIIIIIIIIIIIIIII",
"IIIIIIIIII&89kZPPPPPLDoIIIIIIIIIIIIIIIIIIIIIIIII",
"IIIIIIIIII&99kCGPPPLLLoIIIIIIIIIMbbbbbIIIIIIIIII",
"IIIIIIIII&899kVAPLLLLLLoIIIIIIIIbZZZZZbbbbbIIIII",
"IIIIIIII&8999kVCLLLLLLLoIIIIIIIIbJJJJJZZZS7.IIII",
"IIIIIIII&9999kVVGLLLLLLLoIIIIIIbJJJJJJJKS%..IIII",
"IIIIIII&899999MVALLLLLLLJoIIIIbZJJJJJJJKa.X.IIII",
"IIIIIII&999999MVCLLLLLLLLL666bGJJJJJJJKSOXX.IIII",
"IIIIII&9999999MVCLLLLLLLLLLJJJJJJJJJJKKaXXX.IIII",
"IIIII&89999999MVMHLLLLLLLLLJJJJJJJJJKKSOXXX.IIII",
"IIIII&99999999MMMALLLLLLLLJJJJJJJJJKKKaXXXX.IIII",
"IIII&899999999MMMCLLLLLLJJJJJJJJJJKKKSOXXXX.IIII",
"IIIO8999999999MMMVJLLLLJJJJJJJJJJKKKKaXXXXX.IIII",
"IIIOak99999999MMMMHLLJJJJJJJJJJJKKKKF@XXXXX.IIII",
"III+>3eal99999MMMMCJJJJJJJJJJJKKKKKKzXXXXX..IIII",
"III+:>:<><3wakMMMMCJJJJJJJJJJKKKKKKF@XXXXXX.IIII",
"III+>>hvvd<:::<usmMGJJJJJJJJKKKKKKKsXXXXXXX.IIII",
"III+:fvvvvh:::::::<ejNSGJJKKKKKKKKF@XXXXXXX.IIII",
"III.<xccvvvq::::::::--:<inBFKKKKKKsXXXXXXXX.IIII",
"III.<cccccvh:::::::;;-----<ejnBSHF@XXXXXXXX.IIII",
"III.>hxccccc,:::::;;----<0uuutttpwXXXXXXXXX.IIII",
"III.:fxxxxccq:::;;;--;2euuuuttttt1XXXXXXXXX.IIII",
"III.:<xxxxxx,:;;;--;2eyyuuutttttt1XXXXXXXXX.IIII",
"III.::qhxxxh:;;--;2eiyyuuuttttttt1XXXXXXXXX.IIII",
"III.::=qhhg,;--:3tiiyuuuutttttttt1XXXXXXXXX.IIII",
"III.:::;*$*--:3tiiyyuuutttttttttr1XXXXXXXXX.IIII",
"III.;;;;---:3tiiyyuuuutttttttttrr%XXXXXXXXX.IIII",
"III.;----:0uiiyyuuuutttttttttrrrr%XXXXXXXXX.IIII",
"III.---:0uiyyyuuuutttttttttee422;+XXXXXXXXX.IIII",
"III.-<0uyyyuuuuuttttte0422--$****#XXXXXXXXX.IIII",
"III.0tyuuuuuuure022;-*$===*******#XXXXXXXXX.IIII",
"III..1www0022-=$-========********#XXXXXXXX..IIII",
"IIIII....+$$=--========**********#XXXXXXX..IIIII",
"IIIIIIIII.....+*=====************#XXXXXX..IIIIII",
"IIIIIIIIIIIIII....+**************#XXXXX..IIIIIII",
"IIIIIIIIIIIIIIIIII....+**********#XXXX..IIIIIIII",
"IIIIIIIIIIIIIIIIIIIIII.....+*****#XX..IIIIIIIIII",
"IIIIIIIIIIIIIIIIIIIIIIIIIII....+*#X..IIIIIIIIIII",
"IIIIIIIIIIIIIIIIIIIIIIIIIIIIIII.....IIIIIIIIIIII"
};
