/* XPM */
static char *magick[] = {
/* columns rows colors chars-per-pixel */
"56 46 22 1",
"  c #fffbff",
". c #beb6be",
"X c #bebabe",
"o c Gray0",
"O c #c7bac7",
"+ c #aea6ae",
"@ c #9e9a9e",
"# c #fff3ff",
"$ c #6986be",
"% c #f7b2ae",
"& c #080408",
"* c #a6a2a6",
"= c #51718e",
"- c #aeaeb6",
"; c #9696ae",
": c #aeb2cf",
"> c Gray59",
", c #eff3f7",
"< c #a69ea6",
"1 c Gray100",
"2 c #a6798e",
"3 c #000010",
/* pixels */
"                                                       .",
" .X..X..X..X..X..X..X..X..X..X..X..X..X..X..X..X..X..X.o",
" .O.O.O.O.O.O.O.O.O.O.O.O.O.O.O.O.O.O.O.O.O.O.O.O.O.O.Xo",
" X...................................................X.o",
" +XO.+O.O+XXO+XXO+XXO+XXO+XXO+XXO+XXO+XXO+XXO+XXO+X.O+.o",
" ....X....O.......O.......O.......O.......O.......O...Xo",
" +O+X+.+X+.+.+O+.+.+.+O+.+.+.+O+.+.+.+O+.+.+.+O+.+.+O+.o",
" ....O+.O...O.+..O..O.+..O..O.+..O..O.+..O..O.+...O...+o",
" +X+.+.+.+O+.+.+.+.+.+.+.+.+.+.+.+.+.+.+.+.+.+.+O+.+X+.o",
" ..O+..O+...+..O+X .@O.O+.O.+O.O+.OX .@O+..O+.O.+...+OXo",
" +X+.+.+.+O+X+O+.#$$o@.+.+.+.+.+.+.#$$o@.+O+.+.+X+O+.+.o",
" .+..O+X+.+...+. $+$$o@.+X+.O.+X+. $+$$o@.+..O+.+.+...+o",
" +O+.+.+O+.+O+. %.o+o$o@.+.+.+.+O %.o+o$o@.+.+.+O+.+O+.o",
" .+.+.+.+.+.+. %% .o+$$&@O+.+O+. %% .o+$$&@.+X+.+.+.+X+o",
" +X+O+.+.+O+. %% @ .o+$$o@.+.+. %% @ .o+$$o@O+.+O+.+.+.o",
" ++.+++O+++X %% @ . .o*$$o@O++ %% @ . .o*$$o@++.+++O+++o",
" +.+.+.+.+.#%% @ . @ .o+$$o@. %% @ . @ Xo+$$o@.+.+.+.+Xo",
" +++++++++ %% @ O.@ . Xo*$$o %% @ O.@ . Xo*$$&@++++++++o",
" +X+.+.+X %% @ .%@ . @ Xo@$ %% @ .%@ . @#Xo@$$o@.+.+.+Xo",
" +++++++ %% @ .%@ . @ . o+ %% @ .%@ . @ . o*$$$&@++++++o",
" +++O++ %% @ .O@#. @ . .o %% @ .O@#. @ . .oX$$$$o@++O++o",
" +++++ %% @ .%@ . @ . .o %% @ .%@ . @ . Xo.$$$$$$&@++++o",
" ++++ .  @ .O@#. @ . .o X  @ .X@#. @ . .oX$$$=$$$$o@+++o",
" +++. $o  . @ . @ . .o. $o  .#@ . @ . Xo.$$o$-$$$$o@+++o",
" @++. $$o  @#. @ . .oO. $$o  @ . @ . .oX$$oo$$;$$$o@+@+o",
" ++++ $$$o  . @ . .o.$$ $$$o  . @ . Xo.$$o  o$$:$$o@+++o",
" ++@+@ $$$o  @ . .oX$$o@ $$$o  @#. .oX$$o +@ o$$>o@@+@+o",
" +++++@,$$$o  . Xo.$$o .@,$$$o  . Xo.$$o .++@ ooo@+++++o",
" @+@+@+@ $$$o  .oX$$o .X.@ $$$o  .oX$$o .X.+@@.o@@+@+@+o",
" +++++++@,$$$ooo+$$o @$ .+@,$$$ooo+$$o @$#X++@o$+++++++o",
" @+@+@+@+@ $$$$@$$o .o$$ .+@ $$$$@$$o .o$$ .+o$@+@+@<@+o",
" +@+++@+++@,$$$$$$o X.o$ +o$@,$$$$$$o X.o$ +o$@++<@+++@o",
" @+@+@+@+@+@1$$$$$$o .X+.o$@+@1$$$$$$o .X+.o$@+@+@+@+@+o",
"#+@<@+@<@+@+;,$=$$$$o X+o$@+@+;,$=$$$$o X+o$@+@+@+@+@+@o",
" @+@+@+@+@<@+@ $$$$$$o.o$@+@+@+@ $$$$$$o.o$@<@+@+@<@+@<&",
"#@@<@@@+@@@+@>;,$$$$$$o$@@@<@@>+;,$$$$$$o$@+@@@<@@@+@@@o",
" @+@+@<@+@+@+@+@,$$$$o@@<@+@+@+@+@,$$$$o@@+@+@<<<@+@+@+o",
"#@@@@@@;@@@@@@@@@;ooo@@@@@@@@@@@@@@;ooo@@@@@@@@@@@@@@@@o",
" @<@+@<@<@<@<@+@+>@@@@<@+@<@<@+@+@+>@@@@<@<@<@+@+2+@<@+o",
"#@@@;2@<@@@@@@@@@@@@@@@@@;@@@@@>@@@@@@@@@@@@@@@;@<;@@@@o",
" @@@+<@2+@@@+@@@<@@@<@@@<@@@+@@@<@@@<@@@<@@@<<2@+@@2+@@o",
"#@@@@@@;@;2@;2@@@@@@@@@@@@;2@;2@@@@@@@@@<;2<@;@@@@@<;@@o",
" @<@2;@@@<+@@;@@2;+@2;@2;@+<@@@;@2+;@2@@@@+;@@@2;@<@@@@o",
"#@@@@@@@@@@@@@@@<@@@@@@<@@@@@@@@<;@@@;@;2@@@@2@@@@@@@@@o",
" @@@@@2@@2;@@2@;>@@@@@@@2@@2;@2;>@@@@@@@@;@@@@;@@2;@2@@o",
".ooo&oo3oo&&o3o&&&o&oooo3o3o&oo&&&&&&&&o&&&o&o&&oo&o3ooo"
};
