/* XPM */
static char *magick[] = {
/* columns rows colors chars-per-pixel */
"48 48 57 1",
"  c Gray0",
". c #081010",
"X c #101818",
"o c #182018",
"O c #281818",
"+ c #301008",
"@ c #202020",
"# c #302020",
"$ c #382828",
"% c Gray22",
"& c #411810",
"* c #412020",
"= c #492820",
"- c #493c38",
"; c #592020",
": c #592820",
"> c #513028",
", c #612820",
"< c #612828",
"1 c #692828",
"2 c #594138",
"3 c #694938",
"4 c #714120",
"5 c #714128",
"6 c #794128",
"7 c #794d30",
"8 c #794941",
"9 c #715551",
"0 c #796161",
"q c #8e3028",
"w c #864928",
"e c #8e5538",
"r c #964920",
"t c #964d28",
"y c #a64d30",
"u c #a66938",
"i c #b66928",
"p c #be7530",
"a c #8e6d61",
"s c #8e7579",
"d c #a65941",
"f c #a65d51",
"g c #ae7151",
"h c #b67949",
"j c #a67969",
"k c #be7961",
"l c #c77938",
"z c #be8a71",
"x c #be9261",
"c c #cf8a41",
"v c #c79261",
"b c #e7ae69",
"n c #be9a8e",
"m c #dfb69e",
"M c #d7c3c7",
"N c #efdfd7",
"B c None",
/* pixels */
"BBBBBBBBBBBBBBBBBBBBBjbmNmBBBBBBBBBBBBBBBBBBBBBB",
"BBBBBBBBBBBBBBBBBBBBaNmhmNmBBBBBBBBBBBBBBBBBBBBB",
"BBBBBBBBBBBBBBBBBBB0MNMMMNNmBBBBBBBBBBBBBBBBBBBB",
"BBBBBBBBBBBBBBBBBB9MMMMNNMNNmBBBBBBBBBBBBBBBBBBB",
"BBBBBBBBBBBBBBBBB8MMMMMMNNNNNmBBBBBBBBBBBBBBBBBB",
"BBBBBBBBBBBBBBBB9MMMnnnnnmmNNNMBBBBBBBBBBBBBBBBB",
"BBBBBBBBBBBBBBB9MMs02<3wlbbbmmMMBBBBBBBBBBBBBBBB",
"BBBBBBBBBBBBBB9nj-#=,5ticbbbcidjmBBBBBBBBBBBBBBB",
"BBBBBBBBBBBBB3j9O*4rdyillcllitr48ngBBBBBBBBBBBBB",
"BBBBBBBBBBBB3a-#:6rrrtulllputtrr48jjBBBBBBBBBBBB",
"BBBBBBBBBBB30-&<556wrrippppyiwrrrr3jkBBBBBBBBBBB",
"BBBBBBBBBB30$&>4<556wryppuutrrrrwwr6jkBBBBBBBBBB",
"BBBBBBBBB29$&>:>4<476wyuuyytrrrrrwwr6jkBBBBBBBBB",
"BBBBBBBB29-o>=>>:>546wtuttttrwrwwwrww50jBBBBBBBB",
"BBBBBBB20-o$$*=>:<415wtytttrrwwwrrwwwr59jBBBBBBB",
"BBBBBB>0-o@#$*=>:>>556tttttrwwwwwwwwww4>9jBBBBBB",
"BBBBB=a0@X@@$$*=>:,,46rttttrwwwwwwwwwwr4O9kBBBBB",
"BBBB=9j%X@@@#$*==:><55rtyyrrrwwwwwwwwwrw*X9kBBBB",
"BBB*8j0@X@@@@$*>=>:554ehxkdrrwww6wwwwwwr5oo9xBBB",
"BB=3js-X@@@@@#$*=>:<4ehkkkkg7rww666w6w6w6*o.2xBB",
"B*8ass%@X@@@@@$*==>,wxvpphvxu6w6w6w6wwww6>OoX3kB",
"=7jss0%X@@X@@@&$==:5gvvkxkhduew4w466666ww>@@@X2v",
"ubxss9@X@@@@@@#$*=:7ngzbmzkie97ww664www6w:@@@@O2",
"bNnjs9@@@@@X@@@$*=,unxvnznxuee7466666w6ww5@@#&#O",
"eckss0@@@X@@X@##*=>uxxxznnzvue766666666ww>@O=e7&",
">3aas9%X@@@X@@@#**>exnmvxxxvue74654646w6w5#O5bz5",
"B9asss%X@@X@@X@#$*<djvxvzxkud7666466666ww>O>euhk",
"BB9ass-X@@@@X@@@$*=7gvkvbvngdw465555666ww>O$uihk",
"BBB0ss9@X@@@@X@O$*=,dvmNNmbcrw665476646w4$O3fcch",
"BBBB0s0@X@@@@@@@#$=:4ibNNNctw6454564666w5##dcllc",
"BBBBBss%X@@@X@X@@&=>,rpbbcurw5545566w6ww>#3ghclc",
"BBBBBBs0@X@@@@@@@#*=>1rupyrw645556466wr4*&3glclp",
"BBBBBBBs9XX@@X@X@@$=><44rrrw45566wwwwrtr55egcpcp",
"BBBBBBBB0%X@@@X@@O#$*,7ee7d7777eteiiipplphvghlpp",
"BBBBBBBBB9%X@@@@@@@&*>5377d8ue3eetlcllcpexkkghlp",
"BBBBBBBBBB9%X@@@X@@#$*===>>237556wihlvld5kggkggl",
"BBBBBBBBBBB9%XX@@X@@#$==>=:===>,>5>4eple:4ta9eef",
"BBBBBBBBBBBB9%@X@@@@#$*===:::::>,1,*#>7e1>5>$O-f",
"BBBBBBBBBBBBB9%XX@XX@#*==>:>=>:,>>$o@O@#=5>#+O2f",
"BBBBBBBBBBBBBB9%@X@@@#*=>;===15>$oo@@X@o#>>=*2ff",
"BBBBBBBBBBBBBBB-%XX@o@#**==*=<>@X@@X@@o$=@@O>fgf",
"BBBBBBBBBBBBBBBB--@X@@@@@@@@@@@o@X@@@@@@o@XX#eff",
"BBBBBBBBBBBBBBBBB-%@X@@X@@@X@X@@@@@#@o@o@#@@X*eg",
"BBBBBBBBBBBBBBBBBB--@X@@@@@@@@X@@$@o@X@#*==#@o=8",
"BBBBBBBBBBBBBBBBBBB--@X@@@@@@@@X=$o@@#*;<<,;@@@>",
"BBBBBBBBBBBBBBBBBBBB-9@XX@@@X@@#>o@#5q,<:<:#=#@#",
"BBBBBBBBBBBBBBBBBBBBB-9@@@@@@@X>*@#4iq<<>=<:<>#O",
"BBBBBBBBBBBBBBBBBBBBBB-9@X@X@@@*$#;qr513>#*=$=@-"
};
