/* XPM */
static char *magick[] = {
/* columns rows colors chars-per-pixel */
"56 46 40 1",
"  c Gray100",
". c #beb6be",
"X c #a6a2a6",
"o c #000010",
"O c #aeaeae",
"+ c #bec3be",
"@ c #bebabe",
"# c Gray59",
"$ c Gray65",
"% c #aeaeb6",
"& c #080408",
"* c #b6aeb6",
"= c #9696ae",
"- c Cyan",
"; c #5155ff",
": c #202496",
"> c #9e9a9e",
", c #285d49",
"< c #717986",
"1 c #202851",
"2 c #51718e",
"3 c #79869e",
"4 c #aeaaae",
"5 c #8e8a8e",
"6 c #000808",
"7 c #aeb2cf",
"8 c #282c30",
"9 c #fffbff",
"0 c #fff3ff",
"q c #303430",
"w c #a69ea6",
"e c #aea6ae",
"r c #a6798e",
"t c #ff1441",
"y c #be2020",
"u c #eff3f7",
"i c #ae6161",
"p c #961408",
"a c Gray0",
"s c #000018",
/* pixels */
"                                                       .",
" X.X.X.X.X.X.X.X.X.X.X.X.X.X.X.X.X.X.X.X.X.X.X.X.X.X.X.o",
" .O.O.O.O.O.O.O.O.O.O.O.O.O.O.O.O.O.O.O.O.O.O.O.O.O.O.Oo",
" O+O+.+O+.+O+.+O+.+O+.+O+.+O+.+O+.+O+.+O+.+O+.+O+.+O+.@o",
" #..O$O+O$O+O$O+O$O+O$O+O$O+O$O+O$O+O$O+O$O+O$O+O$O+O$%o",
" O.O+%+O+%+O+%+O+%+O+%+O+%+O+%+O+%+O+%+O+%+O+%+O+%+O...o",
" #.$.#OOX$.#.$XX.#OOXX.#.$XX.#OOXX.#.$XX.#OOXX.#.$.#OX+&",
" +%.O.OO.O.*=-;-;-; O.O.O ..O . .O*O:-;::   .O$.O.O.+OXo",
" $.$+>.X.$%X;:::::: ,,,#*,,< .,O,#<,::1:::  OO%$.$+>.X.o",
" XO.>+O%$.@=-:1::1: ,,<*,,< 2,,,3<4,:::::1: OO..5+O.XO.o",
" X.$.#.X.>*X;:::::: ,<%,,2 .,::: %.,:1::::::OOOX.>.$+$.6",
" %$O+O$.$.#X;:::1:: ,%,,< *,,:1: 7<8::::1:::O.$+>+#O.%Xo",
" #.$%X+>+>.X-:::::19X,8<0*,,8::: <<,::::::1:@$%X.>+$.$.o",
" .>+X.>.X%%X;:1::::9,,< 7,8,,::: <7,::1:::::X%$+$.$%>.Xo",
" #.>.$+>.X+=-::::::9,20.,,,<,:1: *#,::::::::OOOXO$%O+>.6",
" X$+>X5+$XXX;::::1:9< .,q,2<99  %<,,:::1::1:XX#.XXOO$XXo",
" X%X.$%X%X.X-:1::::99%,,,<<0%<2.<,,8:1::::::*$.$.X.X.X%o",
" XXXX$XX$$X5;::::::<,,,8,,,,,,,,,,,,::::::::XX>XXX$>X$Oo",
" #.$%O.X%O%%-::1;-;-;::::::::::::::::::1::1:*X+>%X.$%X.&",
" XXXO>X$XXX5;::::1::::::1:::1::1::1::1::::::XXXXOX$XXXXo",
" XXX%XXX.XXX;::::::1::1::::::::::::::::::1::OXXX.>XX+XXo",
" XXXXXXXXXX#-:1:2*=w=7=7*.e*.e*.*e*.ee7<::::OXXX$XXX>XXo",
" #XXXXXXXXX>;:::e999    9  9  99       <:::1=XXXXXXXXXXo",
" XXXXXXXXX>r-:::.                      21:::XOXXXXXXXXXo",
" #XXX#XXX#%=;:1:%        tttttt        3::::X#XXX#XXX#Xo",
" XXXXXXXXXXr-:::*       ttyyyyty       <::1:XXXXXXXXXXXo",
" #X#X#X#XXX=;:::O       tyu u tyu      3::::>#X#XXX#X#Xo",
" XXXXXXXXX=r-:1:.       yy    ty       <::::XXXXXXXXXXXo",
" #X#X#X#X#X#;:::O       u    ttyu      3:1::$#X#X#X#X#Xo",
" XXXXXXXw%%i-:::*           tty        <::::XXXXXXXXXXXo",
" #X#X#X#X#w#;:1:%          ttyu        3:::1w#w#X#X#X#Xo",
" X#XXX#Xww=r-:::.          ty          <1:::ww#XXw#XXX#o",
" #X5X#w#X#w5;:::O          yp          3::::X#w#X#X5X#wo",
"9##X#w#X#w=r-:1:O                     u<::1:#X#w#X#w#X#o",
" #w#X#w#X#w5;:::%        u ty          3::::>#X#w#X#X#Xo",
"9##w5##w5#=r-a&:.          yy          <::::##5X#5#w#5#o",
" #X#w#X#w#w#;aa:O          u           3:1::>#w#w#w#w#wo",
"9#5###5##5=i-:::.                     u<::::###########o",
" #w#w#w#w#>#::1:#33333333333333333333333:::1w#w5w#w5w#wo",
"9###5######5r#5##5555555555555555555555#555=#####5#####o",
" #5#w##5w###X5##w###$###X###X###X###X###X##5w###w###w#5o",
"9##########5#############################5####5####5###o",
" #####5##5w##5#5#5w#5#5#5#w5#5#5#5X#5#5###w#####5#w####o",
"0##5#5#################################5###5##r#####5##o",
" #######5###5####5#5#5#5#5#5#5#5#5#5#########5=#5####5#o",
".ooooososososssososoosoosososososososoosoososoooosooosoo"
};
