/* XPM */
static char *magick[] = {
/* columns rows colors chars-per-pixel */
"56 46 34 1",
"  c Gray100",
". c #bebabe",
"X c #bec3be",
"o c #000011",
"O c #aeaaae",
"+ c #9e9a9e",
"@ c #5155ff",
"# c #79869e",
"$ c #717986",
"% c #285d49",
"& c #202496",
"* c #010101",
"= c #303430",
"- c #bec3cf",
"; c #cfc7cf",
": c #7992b6",
"> c #307159",
", c #aeaeb6",
"< c Cyan",
"1 c #c7bac7",
"2 c #6986be",
"3 c #a69ea6",
"4 c #9696ae",
"5 c #a6798e",
"6 c #e7e7ef",
"7 c #ffffd7",
"8 c #b6aeb6",
"9 c #59a2d7",
"0 c #d7d3d7",
"q c #aeb2cf",
"w c #d7dfe7",
"e c #ff1441",
"r c #284d96",
"t c #003008",
/* pixels */
"                                                       .",
" .X.X.X.X.X.X.X.X.X.X.X.X.X.X.X.X.X.X.X.X.X.X.X.X.X.X.Xo",
" X..O.X..O.X..O.X..O.X..O.X..O.X..O.X..O.X..O.X..O.X..Xo",
" .OX.X.OX.X.OX.X.OX.X.OX.X.OX.X.OX.X.OX.X.OX.X.O.X..XO.o",
" O.X.O.X.O.X.O..XO.X.O..XO.X.O.X.O..XO.X.O..XO.X.OXO.O.o",
" X..X.X..XO..X.X...O.X.X..X..XO..X.X...O.X.X...X.X..X.Xo",
" OX+.+.OXO.OX+.+XOXO.+.+.+.OXO.OX+.+XOXO.+.+X+XOOO.O.O.o",
" ....XO.O..X..OX...X.XO.X@@@##########$%@@.X..O..X.X.XOo",
" OXOXO.OXOOO.OXOOO.+.OXO@&&&#%%%%%%%%%%*&&*O.OX+.OOO.+.o",
" .O.O.O.O..XOO..OX.XO..X@&&&%%%=%=%=%=%*&&&*+..XO..XO.Xo",
" OXO.OXOXO.O.OXO.O.O.+@@@X.XXX------$@@&&&&*XO.O.OX+.O.o",
" .OOX.O.OX+.X.O.OX+.X@&&&;$:$$$$$$$$*&&*&&&*..OX+.O..XOo",
" O.O.OX+.O.OX+.O.O.OX@&&&%%%%%%%>%%%o&&&*&&*XO.OXOXOXO.o",
" XOXO.O.OXO.O.OXO.,@<@X..X..-1---$<@&&&&*&&*OXO.O.+.O.Oo",
" O.O.+XO.O.OXO.OOO2&&&;+#$3$$3$$4o&&*&&&*&&*.OOOXO.OX+.o",
" OOXOOO.OOOOOOO.,5<&&&#:$:$$$4$$$*&&&*&&*&&*OOO.OOO.OOOo",
" O.+.OXO.OXO.O.O@<@6777777  7 1@<&&&&*&&*&&*.OXO.OXO.OXo",
" OOOOOOOOOOOO85<@@@7X.....X..X%@@*&&&*&&*&&*OOOOOOOOOOOo",
" OXO.O.OXO.OXO-@&&&###########%@@@*&&*&&*&&*.O.O.O.O.O.o",
" OOOOOOOOOOOX9-9,4,,.,.#1#X09q&@@@*&&*&&*&&*OOOOOOO+OOOo",
" OOO.OOOOOOOq@@@0,;.X,#.#.X%@@*&@@*&&*&&*&&*XOOOXOOOXOOo",
" OOOOOOOOO,q-@@@OX.OO#.#ooX#@@@*&@*&&*&&*&&*OOOOOOOOOOOo",
" OOOOOOOOOO,99@@OXXO#.#1o&+#@@@*&@*&&*&&*&&*OOOOOOOOOOOo",
" OOOOOOOOOOq-@@@XOO#.+.X*&O%@@@*&@*&&*&&*&&*OOOOOOOOOOOo",
" +OOO+OOO+O,9@@@O+#.#X.Xo&X%@@@*&@*&&*&&*&&*O+OOO+OOO+Oo",
" OOOOOOOOOOqw@@@,#.#X..#X.X%@@@*&@*&&*&&*&&*OOOOOOOOOOOo",
" OO+O+O+OOO+99@@#%%%%%,#%%%$@@@*&@*&&*&&***.O+O+OOO+O+Oo",
" OOOOOOOOO,qq@@@@@@@@@@@@@@@@@@*&@*&&*&&*#X.OOOOOOOOOOOo",
" +O+O+O+O+O+99@@@@@@@@@@@@@@@@@*&@*&&*&&*..X.+O+O+O+O+Oo",
" OOOOOOOOO,q-@@&&&&&&&&&&&&&&@@*&@*&&***..X.OOOOOOOOOOOo",
" +O+O+O+O+O+9@&#$#$$$:$$$#XXXq@*&@*&&*#.X..OO+O+O+O+O+Oo",
" O+OOO+OOO+qw@&##:#:#..1-.XXw9@*&@*&&*.X.7.XOO+OOO+OOO+o",
" +O+O+O+O+O+99&:#.....Xeeee.7w@*&@***.X..X...+O+O+O+O+Oo",
" O+O+O+O+,+q-@&#+...7.ee..XX-9@*&@*#.X.XOOOO+O+O+O+O+O+o",
" +O+O+O+O+,+9@&##.X..X.ee7XXXw@*&@*X.7..X.O+O+O+O+O+O+Oo",
" ++O+++O+++qw*&#.X..X X.eeXX-9@**o..X.X..X+O+++O+++O+++o",
" +O+O+O+O+O+9@r#.. X.eeee.XXXw@*#XX..O.OXOO+O+O+O+O+O+Oo",
" +++++++++O:w@&.X.X...X..X. -9@*X.. X.X++++++++++++++++o",
" +O+O+O+O+O+,**.%%%%%%%%%%%%*t*X.X.X...OO+O+O+O+O+O+O+Oo",
" ++++++++++++++O+,O+O+OOO+O++4+OOOO+OO+++++++++++++++++o",
" +++O+++O+++O+++O+++O$4$3+++O+++O+++O+++O+++O+++O+++O++o",
" ++++++++++++++++++++8+8+++++++++++++++++++++++++++++++o",
" +O+++++++,+++++++O+++++++,+++++++O+++++++O+++++++O++++o",
" ++++++++++++++++++++++++++++++++++++++++++++++++++++++o",
" ++++++++++++++++++++++++++++++++++++++++++++++++++++++o",
"Xooooooooooooooooooooo*ooooooooooooooooooooooooooooooooo"
};
