/* XPM */
static char *magick[] = {
/* columns rows colors chars-per-pixel */
"48 48 90 1",
"  c Gray0",
". c #000011",
"X c #001100",
"o c #001111",
"O c #110000",
"+ c #110011",
"@ c #111111",
"# c #111122",
"$ c #111133",
"% c #112211",
"& c #112222",
"* c #221111",
"= c #221122",
"- c #221133",
"; c #222222",
": c #222233",
"> c #223333",
", c #332233",
"< c Gray20",
"1 c #222244",
"2 c #223344",
"3 c #332244",
"4 c #332255",
"5 c #333344",
"6 c #333355",
"7 c #333366",
"8 c #224433",
"9 c #334433",
"0 c #334455",
"q c #334466",
"w c #443333",
"e c #442244",
"r c #442255",
"t c #443344",
"y c #443355",
"u c #553355",
"i c #443366",
"p c #443377",
"a c #553366",
"s c #444455",
"d c Gray33",
"f c #555555",
"g c #444466",
"h c #444477",
"j c #445566",
"k c #554466",
"l c #554477",
"z c #555566",
"x c #555577",
"c c #446655",
"v c #556666",
"b c #664466",
"n c #665577",
"m c #775566",
"M c #606060",
"N c Gray40",
"B c #60606b",
"V c #606b60",
"C c #6b6060",
"Z c #6b606b",
"A c #667766",
"S c Gray50",
"D c #666688",
"F c #8877bb",
"G c #8888aa",
"H c #8899aa",
"J c #9988bb",
"K c #9999aa",
"L c #9999bb",
"P c #88aaaa",
"I c #99aabb",
"U c #aa99bb",
"Y c #aaaaaa",
"T c #aaaabb",
"R c #aabbbb",
"E c #aaaacc",
"W c #bbaacc",
"Q c #bbaadd",
"! c #bbbbcc",
"~ c #bbbbdd",
"^ c #bbcccc",
"/ c #bbccdd",
"( c #ccbbdd",
") c Gray80",
"_ c #ccccdd",
"` c #ccdddd",
"' c #ddccdd",
"] c #dddddd",
"[ c Gray100",
"{ c None",
/* pixels */
"{{{{{{{{{{{{{{{{{{{{{{{{{{{{{{{{{{{{{{{{{{{{{{{{",
"{{{]]]`F~Q~Q[[[[[[[[[[[[[[[[[[[[[fY]]]`]]3{{{{{{",
"{{'gpgi lzlz[`(!WIJGGf  f[[[UIUTU;K532313: {{{{{",
"{{`hgpg jljx[_^EILHGHLIET  f[[[ER-P32323212 {{{{",
"{{]gagi kzlz[!WTJGGcbzUTW!   fY[[;K5333:3:3: f{{",
"{{`pgiq zljl[WILHGHxvnvnA( ff fY[[H3f31323:1 ff{",
"{{'gigi lzlz[IJGGHJLUzmNu<*fff ffYffY[[:3:3: ff{",
"{{`gqiq jljx[LHGHLIETW^(^D%5ff[ fffY[[[f:1:1 ff{",
"{{]giii kzlz[GGHJLUTW!()() 9w<[^ fY[[[Yf,::: ff{",
"{{`iqiq zljl[GHLIETW!(_(/_ f9t{(fY[[YY[f:1:1 ff{",
"{{'iiyi lzlz[HJLUTW!()()(^ fff[)Y[[YffY[f:-: ff{",
"{{`i0i0 jljx[LIETW^(_(/_^( fff[Y[[Yf  fY[f:: ff{",
"{{]siyi kzlz[LUTW!()()(^()f[[[Y[[Yf    fY[fffff{",
"{{`iqi6 zljl[ETW!(_(/_^(/_^(/Y[[Yf Y:1: ffY[[Yf{",
"{{'yi6y lzlzY;-;-;-;-;-;-;-;fY[Yf Y:-#= ffY[[[Yf",
"{{`i6i6y KPKHKPKHKPKHKPKHKffYYYY Y:$&$& ffYYY[[ ",
"{{]6y6y6r6y5r545453533323ff[Yff Y:*%*@=f ffYYY {",
"{{`i6i676666665454242323ffYYYf f:-%$%-&-  ffY f{",
"{{'6y6r64545454545333:3ffYYff f:-@*@-@=@-  f ff{",
"{{`y666666662424242323ffYYff  :$&$%$%$&$%-   ff{",
"{{]6r665r            ffYYff   *%*@*%*@*%*@=& ff{",
"{{`66666 ljlzljlzljlffYYff  zr949r849r9$%-%$ ff{",
"{{'6454 lzlzlzlzlzlffYYff  zr9r9rjljr<e>=@*@ ff{",
"{{`6666 jljljljljlffYYff  jr9r9rjljlj48z%#%# ff{",
"{{]5454 kzljljljlffYYff  jr9r9rjljljljec*#=@ ff{",
"{{`6662 zljljljlffYYff  jr9r9rjljljljljK&### ff{",
"{{'5453 lzljljlffYYff  jr9r9rjljljljljlH=@=@ ff{",
"{{`6242 jljljlffYYff  jr9r9rjljljljljljK#### ff{",
"{{]5353 kzljlf[YYff  jr9r9rjljljljljljlH=@#@ ff{",
"{{`4542 zljYfff[Yf  jr9r9rjljljljljljljK##@# ff{",
"{{'5353 lzYfYfff   jr9r9rjljljljljljljlH#@+@ ff{",
"{{`4232 jYf[YYf   jr9r9rjljljljljljljljKo#@@ ff{",
"{{]5333 Yfff[Yf  jr9r9rjljljljljljljljlH+@+@ ff{",
"{{`4232YfYfff  fjr9r9rjljljljljljljljljK@#o+ ff{",
"{{'33:Yf[YYf   jr9r9rjljljljljljljljljlH+@+@ ff{",
"{{`32Yfff[Yf  jr9r9rjljljljljljljljljljKo+o+ ff{",
"{{]:YfYfff  fjr9r9rjljljljljljljljljljlH+@+X ff{",
"{{`Yf[YYf   jr9r9rjljljljljljljljljljljKo+o+ ff{",
"{{Yfff[Yf  jr9r9rjljljljljljljljljljljlH+X+  ff{",
"{YfYfff  fjr9r9rjljljljljljljljljljljljKo.o. ff{",
"{ffYYf   zr9r9rjljljljljljljljljljljljlH+ +  ff{",
"SfYYff  zr9r9rjljljljljljljljljljljljljKo+X. ff{",
"SfYff f r9r9rjljljljljljljljljljljljljlH+ O  ff{",
"S f   :#o49rjljljljljljljljljljljljljljoX    ff{",
"{f  f *%*                                   fff{",
"{{{{fZVBVZfffffffffffffffffffffffffffffffffffff{",
"{{{{{MCMZffffffffffffffffffffffffffffffffffffff{",
"{{{{{BVB{{{{{{{{{{{{{{{{{{{{{{{{{{{{{{{{{{{{{{{{"
};
