/* XPM */
static char *magick[] = {
/* columns rows colors chars-per-pixel */
"56 46 23 1",
"  c Gray100",
". c #bebabe",
"X c #000010",
"o c #aeaaae",
"O c #aea6ae",
"+ c #beb6be",
"@ c #285d49",
"# c Gray0",
"$ c #ff1441",
"% c #303430",
"& c #bec3cf",
"* c #aeaeae",
"= c #b6aeb6",
"- c #79869e",
"; c #717986",
": c #aeaeb6",
"> c #c7bac7",
", c #9e9a9e",
"< c #ae5528",
"1 c #ffae00",
"2 c #9696ae",
"3 c #a6a2a6",
"4 c #a6798e",
/* pixels */
"                                                       .",
" ......................................................X",
" ......................................................X",
" ......................................................X",
" o...O...O...O...O...O...O...O...O...O...O...O...O...O.X",
" ..+...+...+...+...+...+...+...+...+...+...+...+...+...X",
" o.O.O.O.O.O.O.O.O.O.O.O.O.O.O.O.O.O.O.O.O.O.O.O.O.O.O.X",
" .....O.......O.......O...@#..O.......O.......O.......oX",
" o.O.O.O.O.O.O.O.O.O.O.O.O@#.O.O.O.O.O.O.O.O.O.O.O.O.O.X",
" ...O...O...O...O$..O...o.@#O...O...O...O...O...O...O..X",
" o.O.o.O.O.O.o.O$$.O.o.O.o@#.o.O.O.O.o.O.O.O.o.O.O.O.o.X",
" .O...o.o.O...o.$$O...o.o@@@#.o.o.O...O.o.O...O.o.o...oX",
" o.o.O.O.o.o.O.O$$$o.O.O@%&*@#.O.o.o.O.o.o.o.O.o.O.O.O.X",
" .o.O.o.o.o.O.o.$$##O.o.@.o.o#o.o.O.o.o.O.o.O.o.o.o.o.oX",
" o.o.o.O.O.O.o.O$#.##o.o@*=o.#.o.O.o.O.o.o.O.o.O.o.O.o.X",
" oO.oOo.ooo.ooo.$####oo.@@o.##O.ooo.ooO.oOo.ooo.oOo.oooX",
" o.o.o.O.o.o.O.o$####-.o=@@@@o.o.o.O.o.o.o.O.o.O.o.O.o.X",
" ooooooooooOooooo###o=;o:%@%@ooooOoooooooooooooooooooooX",
" o.o.O.o.o.o.o.o.o.#@o>,#@&:@@.o.o.o.O.o.O.o.O.o.o.o.O.X",
" ooooooooOoooooOoooo#@o#<#::%@oooooooooOooooooooooOooooX",
" ooo.ooo.ooo.Ooo.ooo.##1<<oo@@*o.Ooo.ooo.ooo.ooo.ooo.ooX",
" ooooOoooooooooooooooo#<1<<:%@@oooooooooooooOoooOooooooX",
" oooooooooooooooooooooo#<1<<:@%:OooooooooooooooooooooooX",
" oooooooooOoooooooooooo##<1<<X@oooooOooooooooooooooooooX",
" ,ooo,ooo,ooo,ooo,ooo,@###<1<<#@o,ooo,ooO,ooo,ooo,ooo,oX",
" oooooooooooooooOooooo@@o*#<1<<#oooooooooooooooooooooooX",
" oo,o,o,ooo,o,o,ooo,o,@%:o@#<1<<*oo,o,o,ooo,o,o,Ooo,o,oX",
" oooooOoooooooooooo..@@@.&;-#<1<<..oooooooooOooooooooooX",
" ,o,o,o,o,o,o,o,o,o,.@%,:,@@:#<1<<o,o,o,o,o,o,o,o,o,o,oX",
" ooooooooooooOoooooo*@@*=o##o*#<1<<ooooooooooooooooooooX",
" ,o,o,o,o,o,o,o,o,o,@%@,o,o,o,*#<1<<o,o,o,o,o,o,o,o,o,oX",
" o,ooo,ooo,ooo,ooo,o@@:*=o,ooo,*#<1<<o,ooo,ooo,ooo,ooo,X",
" ,o,o,o,o,O,o,o,o,o,@%2,:,o,o,o,##<1<<o,o,o,o,o,o,O,o,oX",
" o,o,o,o,o,o,o,o,o,@@@,o,o,o,o,o###<1<<o,O,o,o,o,o,o,o,X",
" ,o,o,o,o,o,o,o,o,o@%:23o,o,o,o,o###<1<<o,o,o,O,o,o,o,oX",
" ,,o,,,o,,,o,,,o,,4@@,,o,,,o,,,o,@#*#<1<<,,o,,,o,,,o,,,X",
" ,o,o,o,o,o,o,o,o,:@@4:,:,o,o,o,o@@,*#<1<<o,o,o,o,o,o,oX",
" ,,,,,,,,,,,,,,,,,,X,2,,,,,,,,,,,,#,,,#<1#,,,,,,,,,,,,,X",
" ,o,o,o,o,o,o,o,o,o@*,o,o,o,o,o,o,@,o,*##,o,o,o,o,o,o,oX",
" ,,,,,,,,,,,,,,,,,,,,,,,,,,,,,,,,,,,,,,,,,,,,,,,,,,,,,,X",
" ,,,o,,,o,,,o,,,o,,,o,,,o,,,o,,,o,,,o,,,o,,,o,,,o,,,o,,X",
" ,,,,,,,,,,,,,,,,,,,,,,,,,,,,,,,,,,,,,,,,,,,,,,,,,,,,,,X",
" ,o,,,,,,,o,,,,,,,o,,,,,,,o,,,,,,,o,,,,,,,o,,,,,,,o,,,,X",
" ,,,,,,,,,,,,,,,,,,,,,,,,,,,,,,,,,,,,,,,,,,,,,,,,,,,,,,X",
" ,,,,,,,,,,,,,,,,,,,,,,,,,,,,,,,,,,,,,,,,,,,,,,,,,,,,,,X",
".XXXXXXXXXXXXXXXXXXXXXXXXXXXXXXXXXXXXXXXXXXXXXXXXXXXXXXX"
};
