/* XPM */
static char *magick[] = {
/* columns rows colors chars-per-pixel */
"56 46 22 1",
"  c #fffbff",
". c #beb6be",
"X c #bebabe",
"o c Gray0",
"O c #c7bac7",
"+ c #aea6ae",
"@ c #6986be",
"# c #f7b2ae",
"$ c #000018",
"% c #717986",
"& c #aeaeb6",
"* c #aeb2cf",
"= c #9e9a9e",
"- c #fff3ff",
"; c #080408",
": c #a69ea6",
"> c #386da6",
", c Gray59",
"< c #a6798e",
"1 c #9696ae",
"2 c Gray100",
"3 c #000010",
/* pixels */
"                                                       .",
" ..X..X...X..X...X..X...X..X...X..X...X..X...X..X...X..o",
" .O.O.O.O.O.O.O.O.O.O.O.O.O.O.O.O.O.O.O.O.O.O.O.O.O.O.Oo",
" X.....................................................o",
" +XO.+O.O+XO.+O.O+XO.+O.O+XO.+O.O+XO.+O.O@o@X+O.O+XO.+Xo",
" O...X...X...X...X...X...X...X...X...X..o.#@.X...X...O.o",
" +.+O+.+X+.+O+.+X+.+O+.+X+.+O+.+X+.+O+Xo.#@@.+O+.+.+X+.o",
" ..X..+O..O...+O..O...+O..O...+O..O..+oX#@o@X.+X.O.O..+o",
" +O+.+.+.+.+O+.+.+.+O+.+.+.+O+.+.+.++oX#@o@+.+.+.+.+.+Oo",
" ...+.O.+.O.+.O.+.O.+.X.+O..+.O.+.O+oX#@$%..+.O.+O.X+..o",
" +X+O+.+O+.+.+.+.@.+.+O+.+.+X+.+.++oX#@$@&*+O+.+.+.+O+.o",
" .+...+.+.+.X.+X@ @.O.+.+.+O..+X++oX#@o@=.+X..+O+.+..X+o",
" +O+.+X+.+.+O+.%-  @.+.+O+.+.+O++;.#@$@=.+O+.+.+.+O+.+.o",
" .+.+O+.+O+.+.@     %.+.+.+.+.+=o##@o@=.+.+.+O+.+.+.+O+o",
" +.+.+.+.+.+O@-      @.+X+O+.+=o##:o@=.+.+.+.+.+O+.+.+.o",
" ++X+++O+++.@     .   @O+++.+:o##=o@=++O+++O+++.+++X+++o",
" +X+.+.+.+X@     . .   @.+.+=;##:@$=.+.+.+.+.+O+.+.+.+Xo",
" ++++++++&%     .   .  -@++=o #=@o=++++++++++++++++++++o",
" +.+O+.+O>     . X . .   @=o #:@$=.+.+.+.+.+O+.+.+O+.+Xo",
" +++++++@     . @ .   .  .o #=@o=++++++++++++++++++++++o",
" +++.++@     . oo. . X ..o #=@o=.+++.+++O++++===++++.++o",
" +++++@     X o X   .  Xo##=@o=++++++++++========++++++o",
" ++++@     . o . . X ..o  =@o@++++++++======,=,=+++++++o",
" +++@     X o .   . .@@oo@@o. @+++======,====++++++++++o",
" =+@     . o . X . .@#  oooX   @==========:++++++=+++=+o",
" +@     . ...   .  @#Xo@@o -X...o======+:++++++++++++++o",
" +     .  @X . . X.@ o.@o@..X.X..o==:=:+:++=+=+=+++=+=+o",
" +    X   o   X   @# .@oo.XX.O.   >++++++++++++++++++++o",
" =   . . X@. . . .@ .@ooX..O-. .   >O=+=+=::+=+=+=+=+=+o",
" +  .   . o .   .@#@oo@X.   .   .   >++:+++++++++++++++o",
" = . . .  @@ X . @@o@. . . . . . X   @+:+=+=:=+=+=+=+=+o",
" +.   X    @o..  oo   .   .   .   X   >++:=++:=+++=+++=o",
" = . . . .  .@@@@. X . . . . . X . .   @+:+=+::=+=+=:=+o",
" +  .           .   o   .   X   .   .   >:::=+=+=:=+=+=o",
" = . X @@@ . . . X o o X . . . . . .     ;+:::::::+=+=+o",
" =.   o # o   X   o # o   .   .   X     ;>=+===+:<=+===o",
" = . @ # # @ . . o # # o X . X . .     o@++=:::=+1+=+=:;",
"-=   @# @ #@    o # @ # o   .   X     o@====:<====1<===o",
" =-X @2#2# @ . X o # # @ . . . .     o@@==+=+1+=+=+=+=+o",
" =.   3 # o   .   @ # @   X   .     o@@==1<====:<======o",
" = . . %@@ X . X . @ @2X . . X     o@@,=+===+===+1==+==o",
"-=  .   22  .   .  2@   .   .     o@@===,====1<====1<==o",
" = . X .2. . X . X .2. . . X     o@@,1====:=<:===<+=:==o",
" =.   .   .   .   .   .   .     o@@,====1<:=1====1===,=o",
" ====================================,=========<1======o",
".oooooooooooooooooooooooooooooooooooo;o;;ooooooo;;;;oooo"
};
