/* XPM */
static char *magick[] = {
/* columns rows colors chars-per-pixel */
"56 46 24 1",
"  c #fffbff",
". c #beb6be",
"X c #bebabe",
"o c Gray0",
"O c #c7bac7",
"+ c #aea6ae",
"@ c #fff3ff",
"# c #6986be",
"$ c #9e9a9e",
"% c Gray59",
"& c #a69ea6",
"* c #386da6",
"= c #51718e",
"- c #9696ae",
"; c #717986",
": c #000010",
"> c #080408",
", c #000018",
"< c #aeaaae",
"1 c Gray100",
"2 c #f7b2ae",
"3 c #eff3f7",
"4 c #bec3cf",
"5 c #a6798e",
/* pixels */
"                                                       .",
" ..X..X...X..X...X..X...X..X...X..X...X..X...X..X...X..o",
" .O.O.O.O.O.O.O.O.O.O.O.O.O.O.O.O.O.O.O.O.O.O.O.O.O.O.Oo",
" X.....................................................o",
" +XO.+O.O+XO.+O.O+XO.+O.O+XO.+O.O+XO.+O.O+XO.+O.O+XO.+Xo",
" O...X...X...X...X...X...X...X.X....XX.....X.X...X...O.o",
" +.+O+X+.+O+.+O+X+.+O+X+.+O+.+.+X+O+.+.+O+.+O+.+X+.+X+.o",
"@X.X..@          @    @  @      @  @        @   @+.O..+o",
" +.+.+ #$## $#$#$#$#$#$#$#$#$########### ###o ###o.+.+Xo",
" X.O+. %#%#@$&*%#%#%#%#%#%#%#%#%#%#%#=## ###o ###o.X+O.o",
" +.+X+ #$## $#&#$#$*&#$#-#$*&#-;-=#####o ###o ###oO+.+.o",
" O+..O.ooooooooooo:>oooooo>>ooo,:,,oo:oooooooooooo+..X+o",
" +.+.+ o                                      $$$o.+O+.o",
" .+O+. o                                    o &*$o+.+.+o",
" +.+.+ o                               .X#..o #&#oX+.+Xo",
" ++X++ o              X       <        . # .o $#$o+O+++o",
" +.+.+ o             .o. X . + +       #####o #$#o.+.+Xo",
" +++++ o              .#      +        ..#..o %##o+++++o",
" +X+O+ o     <        $ #              X #1.o #%#o.+X+.o",
" +++++ o    + <       $2 #             #####o -##o+++++o",
" +++.+ o     +        $ 2 #            ..#..o #%#o++.++o",
" +++++ o             2.2 2 #           X3# .o %##o+++++o",
" +++++ o     X       $2 2 2 #          #####o #-#o+++++o",
" +++++ o            X. 2 2 21#         X4=..o $##o+++++o",
" $+++$ o     .     2# 2 2 2 2 #        X # Xo #%#o+++$+o",
" +++++ o          2# 2 2 2 2121#      ooooooo %##o+++++o",
" ++$+$ o     X   2# 2 2 2 2 2121#             ###o+$+$+o",
" +++++ o        X# 2 2 2 2 212121#            -##o+++++o",
" $+$+$@o     X .$ 2 2 2 2 2 2 2121$X          ###o+$+$+o",
" +++++ o    .o###################%.oX         %##o+++++o",
" $+$+$ o     .  13 13 13 13 3 3 1  .          ###o+$+$+o",
"@+$+++ o        X                             %##o$+++$o",
" $+$+$@o          X                           ###o+$+$+o",
"@+$&$+ o            X  <                      =##o$+$+$o",
" $+$+$@o              < <                     ###o+$&$+o",
"@$$+$$ o               +                     1###o$+$$$o",
" $&$+$@o                                      ###o+$+$&>",
"@$$$$$ o                                     3###o$$$$$o",
" $+$&$@ooooooooooooooooooooooooooooooooooooooooooo+$&$+o",
"@$$$$$$$$$$$$$$$$$$$$$$$$$$$$$$$$$$$$$$$$$$$$$$$$$$$$$$o",
" $$$+$$$+$$$+$$$+$$$+$$$+$$$+$$$+$$$+$$$+$$$+$$$+$$$+$$o",
"@$-5$$$$$$$$$$$$$$$$$$$$$$$$$$$$$$$$$$$$$$$$$$$$$$-5$$$o",
" $+$$$5-%$&$$$$$$$&$$$$$$$&$$$$$$$&$$$$$$$&$$$$$$$&&$$$o",
"@$$$-$$$$$$-5$%-5$$$-5%-5$$-5$%-5$$-5$%-5$$-5$%-5$$$$$$o",
" $$$$$$$$5&$$$$$$$$$$$$$$$$$$$$$$$$$$$$$$$$$$$$$$$$5-$$o",
".ooo>ooo>ooooooooooooooooooooooooooooooooooooo>ooo>ooooo"
};
