/* XPM */
static char *magick[] = {
/* columns rows colors chars-per-pixel */
"56 46 30 1",
"  c Gray100",
". c #bebabe",
"X c #000010",
"o c #beb6be",
"O c #aeaaae",
"+ c #aea6ae",
"@ c #c7bac7",
"# c Gray0",
"$ c #285d49",
"% c #188651",
"& c #202496",
"* c #080408",
"= c #28ff20",
"- c #51a249",
"; c #5155ff",
": c #307159",
"> c #aea671",
", c #59a2d7",
"< c #8e8679",
"1 c #9e9a9e",
"2 c #aeaeae",
"3 c #085928",
"4 c #284d96",
"5 c #aeaeb6",
"6 c #303430",
"7 c #000808",
"8 c #a6a2a6",
"9 c Gray59",
"0 c Gray65",
"q c #b6aeb6",
/* pixels */
"                                                       .",
" ......................................................X",
" ......................................................X",
" ...o..o..o..o..o..o..o..o..o..o..o..o..o..o..o..o..o..X",
" O...O...+...O...O...+...O...O...+...O...O...+...O...+.X",
" ...o.@o...@o..@o.@o...@o..@o.@o...@o..@o.@o...@o.@o...X",
" O.+.O.O.+.O.O.O.O.O.+.O.O.O.O.O.+.O.O.O.O.O.+.O.O.O.+.X",
" .....O.......Oo......O...o...O.......Oo......O.......OX",
" O.+.+.+.+.+.+.O.+.+.+.O.#######.+.+.+.O.+.+.O.+.+.+.O.X",
" ...O...O...O...O...O.#$$%#&&#&####.O...O...Oo..O...+..X",
" O.+.O.+.O.+.O.+.+.O%*=&&&&&&&&&#&###O.+.+.O.O.+.O.O.O.X",
" .O...O.+.O.o.O.O.O&&=$&&&&&&%$$$##&##O.O.Oo..O.+.Oo..OX",
" O.+.+.O.O.O.O.+.O&&&&-=&&&-&=*$%$&####O.O.O.+.O.O.O.+.X",
" .O.O.O.+.O.+.O.O&&&;=%-=-&=-%%&$%#&####+.O.O.O.O.+.O.OX",
" O.O.+.O.O.+.O.+&&;;&=&=%==$=--=*&&&&#&##O.+.O.+.O.O.O.X",
" O+.OOO.OOO.OOO&&;&;;&;===--=&&$%&*&#&####O.OOO.OO+.OOOX",
" O.O.O.+.O.O.O.&;&;;&;;--=-=%&&=:-&&&#&###.O.+.O.O.O.+.X",
" OOOOOOOOOO+OO&;&;;;;;&==-=-===$=&&&&#&####OOOOOOOOOOOOX",
" O.O.+.O.O.O.O&&;;;&;;;=====&:-=$=&&&&#&###O.O.+.O.+.O.X",
" OOOOOOO+OOOOO;;;&;;;;;===-==%=$-&&&&#&####OOOOOOOOOOOOX",
" OOO.OOO.OOO.&;&;;;;;;;==-==-==%=&&&&&#&#&##.OOO.OOO.OOX",
" OOOOOOOOOOOO&;;;;;;;;;>===-=-=$=&&&&&&#####OOOOOOOOOOOX",
" OOOOOOOOOOOO&;&;;;;;;;,=-===-=-&&&&&#&&#&##OOOOOOOOOOOX",
" OOOOOOOOOOOO&;;;;;;;;;;===<=-&=&&&&&&&####&OOOOOOOOOOOX",
" 1OOO1OOO1OOO&;&;;;;;;;;====&;&;&;&&&&#&#&##O1OOO1OOO1OX",
" OOOOOOOOOOOO&;;;;;;;;;;;;==;&;&&;&&&&&#####OOOOOOOOOOOX",
" OO1O1O1OOO1O;&;;;;;;;;;;;==;-&;&&&&&&&#&#&#O1O1OOO1O1OX",
" OOOOOOOOOOOO2&;&;;;;;;;&;;;&=-=&&&&%#&####OOOOOOOOOOOOX",
" 1O1O1O1O1O1O1&;;;;;;;;;;;;;&;&=&-$-3:$#&##1O1O1O1O1O1OX",
" OOOOOOOOOOOO2&;&;;&;;4;;&;&;&;&&=3%$$#$###OOOOOOOOOOOOX",
" 1O1O1O1O1O1O15&;&;;;;;;;;;;;&;&&6-$%$$###O1O1O1O1O1O1OX",
" O1OOO1OOO1OO21&;;;&;;&;&;&&;&&;&=$$$7$#$#1OOO1OOO1OOO1X",
" 1O1O1O1O1O1O128&;&;;&;;;&;;&;&&&$$-7=*##1O1O1O1O1O1O1OX",
" O1O1O1O1O1O1O129&;&;;&;&;&&;&&&&%$$**#$1O1O1O1O1O1O1O1X",
" 1O1O1O1O1O1O1O121&;&&;&;&;&&;&&&&7$$$#121O1O1O1O1O1O1OX",
" 11O111O111O111O189&;&;&4;&&&&&&&*$7$#1O111O111O111O111X",
" 1O1O1O1O1O1O1O1O120&&&;&&&;&&&&&*$7#121O1O1O1O1O1O1O1OX",
" 1111111111111111111O-&&&&&&&&&*&**11111111111111111111X",
" 1O1O1O1O1O1O1O1O1O1O0q90&&&&&*&q1O1O1O1O1O1O1O1O1O1O1OX",
" 111111111111111111111111999190011111111111111111111111X",
" 111O111O111O111O111O111+111+111+111O111O111O111O111O11X",
" 111111111111111111111111111111111111111111111111111111X",
" 1O1111111O1111111O1111111+1111111O1111111O1111111O1111X",
" 111111111111111111111111111111111111111111111111111111X",
" 111111111111111111111111111111111111111111111111111111X",
".XXXXXXXXXXXXXXXXXXXXX*X*X*X*X*X*XXXXXXXXXXXXXXXXXXXXXXX"
};
