/* XPM */
static char *magick[] = {
/* columns rows colors chars-per-pixel */
"56 46 48 1",
"  c Gray100",
". c #bebabe",
"X c #000010",
"o c #beb6be",
"O c #aeaaae",
"+ c #aea6ae",
"@ c #c7bac7",
"# c #b6aeb6",
"$ c #28ff20",
"% c #aeaeb6",
"& c #307159",
"* c #285d49",
"= c #303430",
"- c #515549",
"; c #dfae69",
": c #ffebae",
"> c #000808",
", c #ffffc7",
"< c #f7b2ae",
"1 c #080408",
"2 c #aeb2cf",
"3 c #085928",
"4 c #5155ff",
"5 c #ffe7be",
"6 c #8e8679",
"7 c Gray65",
"8 c #e7d79e",
"9 c #aeaeae",
"0 c #51a249",
"q c #ef1028",
"w c #be2020",
"e c #bec3be",
"r c #dfba8e",
"t c #cf5528",
"y c #ff1441",
"u c #a6a2a6",
"i c #595128",
"p c #a69ea6",
"a c #9e9a9e",
"s c Gray59",
"d c #ef2851",
"f c #ae9e59",
"g c #ae6161",
"h c #fffbff",
"j c #fff3ff",
"k c #9696ae",
"l c #a6798e",
"z c #000018",
/* pixels */
"                                                       .",
" ......................................................X",
" ......................................................X",
" ...o..o..o..o..o..o..o..o..o..o..o..o..o..o..o..o..o..X",
" O...O...+...O...O...+...O...O...+...O...O...+...O...O.X",
" .o..o@o..@o..@o..@o..@o..@o..@o..@o..@o..@o...@o..o@o.X",
" O.O.O.O.O.O.+.O.+.O.O.O.+.O.+.O.O.O.+.O.+.O.O.O.O.O.O.X",
" .....O.......O..o.#$$$$......O.......O.......+.......OX",
" O.+.+.OoO.+.O.O.O$$$$$$$%o+.+.OoO.+.O.+.+.+.+.OoO.+.O.X",
" ...O...O...Oo.o%$$$&$****.=-...O...Oo..O...O...O...+..X",
" O.+.+.+.OoO.O.+$*$*$**;:;>,<1.+.+.O.O.+.O.+.O.+.+.O.O.X",
" .O...O.O.O...+2$***&3;:-45<51O.O.Oo..O.O.+...O.O.Oo..OX",
" O.+.O.+.O.+.O.+*6733;:85<5;>9.O.O.O.+.O.+.OoO.+.O.O.+.X",
" .O.+.O.O.O.O.97*398*:0;qw5851O.+.O.O.+.O.O.O.O.O.O.O.OX",
" O.O.O.+.+.O.Oe9e399384:qq;q;>eO.O.+.O.O.+.O.+.O.+.+.O.X",
" OO.O+O.OOO.OO9er99e91,8;8<t:>1.O+O.OO+.OOO.OO+.OOO.OOOX",
" O.O.O.O.O.+.O.%%9e9-<5,<qyr<>4>.O.O.O.O.+.O.O.O.O.+.O.X",
" OO+OOOO+OOOO999%99ui5<158;,>44q1OOO+OOOOOO+OOOO+OOOOOOX",
" O.O.O.O.O.O.Oo9e9e9e>17>>>>44>q>O.O.O.+.O.O.O.O.O.O.O.X",
" OOOOO+OOOOOOO%9%9OOOO9#999>4>yq41OOOOOOOOOOOO+OOOOO+OOX",
" OOO.OOO.+OO.OOO.9OO.OOO.O9O1qq>4>OO.OOO.OOO.OOO.+OO.OOX",
" OOOOOOOOOOOOOOOOOOOOOOOOOOO7q>441OO+OOO+OOOOOOOOOOOOOOX",
" OOOOOOOOOOOOOOOOOOOOOOOOOOO7>44>q4pOOOOOOOOOOOOOOOOOOOX",
" OOOOOOOOOOOOOOOOOOOOOOOOOO9O%4>q>4OOOOOOOOOOOOOOOOOOOOX",
" aOOOa+OOa+OOa+OOa+qqqqqqs#OOa>qyq4%OaOOOa+OOa+OOa+OOa+X",
" OOOO+OOO+OOO+OOOOuqqqdqq9OOOO7q>47uqqqOO+OOO+OO+OOOOOOX",
" OOa+aOa+OOa+aOa+O7aqqqqqq7aOaO>499qqdqs9OOa+aOaOOOa+aOX",
" O+OOO+OOOOOOO+OOOO9fdqqdqqOOOO9%97qqq79OO+OOOO+OO+OO+OX",
" aOa+aOa+a+a+aOa+aO79sqqqqqq7aOaOaqqdg7aOaOa+a+aOaOa+aOX",
" O+OOO+OOOOOOO+OOOOO99fdqdqyqOOOuqqq7#9O9OO+OOOO+O+OOOOX",
" aOa+aOa+a+a+aOa+a+aO79qqqqqqs9aqqdg9a9a+a+aOa+aOa+a+a+X",
" +aOO+aOO+aOO+aOO+a#p97fqqqdqqsqqq6#9#aOO+a+O+a+O+aOO+aX",
" a+a+a+a+a+a+a+a+a+aOa9u7qtqqgqqdqqs#a7aOa+aOa+aOa+a+aOX",
" +a+a+a+a+a+a+a+a+a+aOa#6qqqsqdqqqqqaOa+a+a+a+a+a+a+a+aX",
" a+a+a+a+a+a+a+a+a+a+apuqqdg77qqdqqq7aOa+a+a+a+a+a+a+a+X",
" aa+aaa+aaa+aaa+aaa+aasqqqsoaafqqqdqqaa+aaa+aaa+aaa+aaaX",
" a+a+a+a+a+a+a+a+a+a+aqqdg777a+sqtqqqq7a+a+a+a+a+a+a+a+X",
"haaaaaaaaaaaaaaaaaaasqqqsaasaa7sqqqqdqqaaaaaaaaaaaaaaaaX",
" a+a+a+a+a+a+a+a+s+aqqdgrs9a9a7a7qqqqqqs+s+a+s+a+a+a+a+X",
"haasasasasasasasaaa7s6sasaaaaaaa7ss67667aaaaaaaaasasaaaX",
" aaa+aaa+aaa+aaa+aas+7aa9aaa+aaa777797aa+aaapaaa+aaa+aaX",
"jsaaaklaaklaaklaaaaaaaaaaaaasaaaaasaaaaaaaaaaplaaklasaaX",
" a+aaapaaa+paapalk+aaaasaa+aaaaaaa+aaaaasapaaakaaa+paasz",
"haklaaklaaaklasapaasaaaaaaaaasasaaaaasaplaaplaaklaaaaaaX",
" aaapsaakaaakaaasaaalpsalkalaalpsaaaaasaaaaakaaapaalkaaX",
".XXXXXzXXXXXXXzXzXXXzXXzzXXzXzzXXX1XXXXXXzXXXXXXXXzzXXXX"
};
