/* XPM */
static char * image_name[] = {
"56 46 23 1",
" 	c #FFFFFFFFFFFF",
".	c #B6DAAEBAB6DA",
"X	c #A699A289A699",
"o	c #000000001040",
"O	c #BEFBB6DABEFB",
"+	c #AEBAAEBAAEBA",
"@	c #A699A699A699",
"#	c #AEBAAEBAB6DA",
"$	c #000008200820",
"%	c #965896589658",
"&	c #0000FFFFFFFF",
"*	c #51445555FFFF",
"=	c #79E786179E79",
"-	c #000000000000",
";	c #9E799A699E79",
":	c #FFFF14514103",
">	c #FFFFFFFF0000",
",	c #A6999E79A699",
"<	c #8E388A288E38",
"1	c #FFFFFBEEFFFF",
"2	c #FFFFF3CEFFFF",
"3	c #A69979E78E38",
"4	c #000000001861",
"                                                       .",
" ..X.X.X.X.X.X.X.X.X.X.X.X.X.X.X.X.X.X.X.X.X.X.X.X.X.X.o",
" XO.O..O.O..O..O.O..O..O.O..O..O.O..O..O.O..O..O.O..O.Oo",
" O+O+OO+O+OO+OO+O+OO+OO+O+OO+OO+O+OO+OO+O+OO+OO+O+O+O..o",
" XO.O@#OO@#OO@+OO@#OO@+OO@#OO@+OO@#OO@+OO@#OO@+OOXOO+XO$",
" O+O+O+O+O+O+#OO+O+O+#OO+O+O+#OO+O+O+#OO+O+O+.O+O+O+OO.o",
" %.XO@.XO@.XO@.@.XO@OX+XOXO@O@.@.XO@OX+XOXO@O@#++++++X.o",
" ..O+OXO+O+OO#@O#O+O+OXO+O+&*#@O#O+O+OXO+O#.+OX..O..O.Xo",
" XO@#XO@.XO@+XO@O@.XO@.XO@&*&*.@O@.XO@.XO@O@O@#XO@#XO@.o",
" ..+++O#@O+OXO.#XO+OX+O.X&*&*&*#X#O#@O+OX+O#X+OO@.O+@O.o",
" %.XO@.XO@#XO@+=$-$-$-$-&*&*&*&*-$-$--$-=X.XOXO;#XOX#XO$",
" .++O.X#@.XO+.X-       &*&*&*&*&*      =$#@OO+@O++@OO.Xo",
" X.XO@#XO@#XOXO- X.X.X&*&*&*&*&*&*.X.X.=-X.@++#@.XO;O@#o",
" .X.X#@OX#@O@.X- .-------------&*&*.X.;=-OX#XOX#@OX#@.Xo",
" X.@O@.@#XO@#X.$ X-           --&*&*.XO=-X.XO@.X.@#XO@.o",
" XX#X@@OXX@.XXX- X-           - -&*&*X;=-XX#@X@OXXX.@XXo",
" %.XOX#XO@#XO@.- X-           -  -&*&*.=-XO@.@#X.XO@#X.o",
" X@@X@X@@XX@@@X- &- -----     -   -&*&*=---:XXX@@@@XXXXo",
" X#X#X#X#XOX#XO-&*-           -    -&*&*-::-OX#X#X#+.X.o",
" XXXXXXXXXXXXXX&*&- -----     -     -&*&->>-XXXX+XXXXXXo",
" %XXOXXXOX@X.X&*&*-           --------&->>-X.XXX.XXX.XXo",
" XXXXXXXXXXXX&*&*&-                  -->>--XXXXXXXXXXXXo",
" XXXXXXXXXXX&*&*&*- --- ----- ---    ->>--&*XXXXXXXXXXXo",
" XXXXXXXXXXX***&*&-                 ->>--&*-XXXXXXXXXXXo",
" %XXX%XXX%XXX***&*- ------ ------  ->>--&*-XX%XXX%XXX%Xo",
" XXXXXXXXXXX,,***&-               ->>--&*-XXXXXXXX@XXXXo",
" %X%X%X%XXX%X<,***- --- ------   ->>--&*-XX%X%X%XXX%X%Xo",
" XXXXXXXXXXXXXX-**-              ->---*--XXXXXXXXXXXXXXo",
" %X%,%X%X%,%X%X-1*- ------ ---  -%-- --=-%,%,%X%X%X%X%Xo",
" X,XXXXX;XXXXXX- X-             --   -;=-XXXXXX;XXX,XXXo",
" %X%;%X%X%,%,%X- %- --- ------ -     -X=-%X%,%X%X%X%X<Xo",
" ,%XXX<XX,%XXX%- X-                  -<=-X<XX,%XXX<XXX%o",
" %X%X%X%X%,%,%,- %- ------           -X=-%X%X%,%X%X%X%Xo",
" X%X%X%X%;%X%,%- X-                  -<=-X%X%;%,%X%X%X%o",
" %<%,%X%X%X%;%X---- ---              ----%X%X%X%X<,%X%,o",
" %%,%<%,%<%X%%%X%%-                  -%X%%%,<%%,%%%,<%%o",
" %X%,%,%,%,%X<,%X<--------------------X<X%,%,%X%,%X%,%Xo",
"1%%<%%%%%%%<%%%%%%%%%%%%%%***-%%%%%%%%%%%%<%%%%<%%<%%%%o",
" %,%,%,%,%,%,%,%,%,%X<X%,<X*-%,<X%,<X%,%,%,%,%,%,%,%,<,o",
" <%%%%%%%%%%%%%%<%%<%%<%%%%%%%%%%%%%%<%%<%%%<%%%%%%%%%%o",
" %%<,%<%,<%<,%<%,%%%,%%%,%<%,%<%,%<%,%%%,%%%,%<%,%<%,%%o",
"1%%%%%%<%%%%%%%%%%%%%%%%<%%%<%%%<%%%%%%%%%%<%%%%<%%%%<%o",
" %%%<%%%%<,%%<%%<%,%%<%%%%,%%%%%%%,%%<%<%<,%%%<%%%,%%%%o",
"2%%<%%%<%%;<%%%<;<%%<%%%<%%%%%<%<%%%<%%%%%%%%<%;<%%<%%%o",
" %%%%3%%%%<;<%%%%<%%%%3%%%<%%%%%%%<%%%3%%%<%%%%3%%<;<%%o",
".oooo4o4ooooo4oo4o4o4o44o4o4oo4o4o4o4o44o4o4ooo4o4oooooo"};
