/* XPM */
static char *magick[] = {
/* columns rows colors chars-per-pixel */
"48 48 59 1",
"  c Gray0",
". c #000c00",
"X c #000808",
"o c #101000",
"O c #000820",
"+ c #182010",
"@ c #201c00",
"# c #282810",
"$ c #302800",
"% c #303018",
"& c #282830",
"* c #303428",
"= c #000049",
"- c #000079",
"; c #202851",
": c #493810",
"> c #594500",
", c #515130",
"< c #515138",
"1 c #515938",
"2 c #695508",
"3 c #515d41",
"4 c #616141",
"5 c #716d49",
"6 c #797d59",
"7 c #182896",
"8 c #0000d7",
"9 c #0000f7",
"0 c #000cf7",
"q c #2834ef",
"w c #616def",
"e c #6992ff",
"r c #966900",
"t c #9e7110",
"y c #be8200",
"u c #9e8649",
"i c #868261",
"p c #9e9671",
"a c #a69a69",
"s c #aeaa79",
"d c #df9e08",
"f c #e7ae38",
"g c #e7ba59",
"h c #b6b286",
"j c #beb686",
"k c #b6b296",
"l c #aeaaef",
"z c #cfc38e",
"x c #dfd3a6",
"c c #efd386",
"v c #efe39e",
"b c #efe3a6",
"n c #efe3ae",
"m c #f7efa6",
"M c #f7f3ae",
"N c #f7f3b6",
"B c #fff3be",
"V c #fffbff",
"C c None",
/* pixels */
"CCCCCCCCCCCCCCCCCCCCCCCCCCCCCCCCCCCCCCCCCCCCCCCC",
"CCCCCCCCCCCCCCCCCCCCCCCCCCCCCCCCCCCCCCCCCCCCCCCV",
"CCVVVVVVVVVVVVVVVVVVVVVVVVVVVVVVVVVVVVVVVVVVVVVV",
"CCVVVVVVVVVVVVVVVVVVVVVVVVVVVVVVVVVVVVVVVVVVVVVV",
"CCVVVVVVVVVVVVVVVVVVVVVVVVVVVVVVVVVVVVVVVVVVVVVV",
"CCVVVVVVVVVVVVVVVVVVVVVVVVVVVVVVVVVVVVVVVVVVVVVV",
"CCVVVVVVVVVVVVVVVVVVVV   VVVVVVVVVVV VVVVVVVVVVV",
"CCVVkkkkkkkkkkkkkVVVVV VVVV   V  VV VVVVVVVVVVVV",
"CCVVi   *%*%*%+  %VVVV VVVVV VV VVVVVVVVVVVVVVVV",
"CCVVV<  4VVVVVVk+ VVVV VVVVV   VVVVVVVVVVVVVVVVV",
"CCVVVV%  pVVVVVVk VVVV VVVV VV VVVVVVVVVVVVVVVVV",
"CCeeeewX  weeeeeeXqeee eeee ee eeeeeeeeeeeeeeeeV",
"CCVVVVVV  +VVVVVVVVVVV VVV  V   VV VVVVVVVVVVVVV",
"CCVVVVVVp  %VVVVVVVVVV VVVVVVVVVVV    VVVVVVVVVV",
"CCVVVVVVV4  4VVVVVVVVV VVVVVVVVVV   V VVVVVVVVVV",
"CCVVVVVVVV%  pVVVVVVVV VVVVVVVVVV  V VVVVVV   3V",
"CCVVVVVVVVVX 5VVVVVVVV VV              Vs VVVVVV",
"CCVVVVVVVVVX<VVVVVVVVV VVVVVVVVVVVVVVVV6>@VVVVVV",
"CCVVVVVVVVX:VVVVVVVVVV VVVVV     VVBb6:td$VVVVVV",
"CCVVVVVVV %VVVVVVVVVVV VVVVVV VVVVx1&af$4$VjVVVV",
"CCVVVVVV%+VVVVVVVV VVV VVVVVV  Vp&:lngtOy@ppsVVV",
"CCVVVVV+XVVVVVVVV5XVVV VVVVV V a:dbBcf.uy@66pjVV",
"CCVVVV% ikkkkkku< 3VVV VVVVV VV&tgNng>:yro45ujVV",
"CCVVV+            pVVV VVVV    @dcBcu.ft2@<5ujVV",
"CCVV%             VVVV VVVVVVVp2fMngouyr2@:4ujVV",
"CCeeeeeeeeeeeeeeeeeeee   eeeee;tcNc2#yr2:@&;7qwV",
"CCVVVVVVVVVVVVVVVVVVVVVVVVVVVV%dnn2 ur2>$o#4ihVV",
"CCVVVV VVVVV VVVVVVVVVVVVVVVVx:gMct:t2>$o.:46sVV",
"CCVVVVVVVVV VVVVVVVVVVVVVVVVVatbbfdyr2:o.#146sVV",
"CCVVV  V         VVVVVVVVVVVV&fmcddr2:o.#,14ihVV",
"CCVVVV VVV VV VV VVVVVVVVVVVN#vbfdr2:o.#<<35ajVV",
"CCVVV  V      V VVVVVVVVVVVVz2mgdy2:@.#<<35isVVV",
"CCVVV VV  VVV V  VVVVVVVVVVV6avfd2:@.#,<35ipVVVV",
"CCVVVVVVVVVVVVVVVVVVVVVVVVa$osgdr>@.#,<35ipjVVVV",
"CCVVVVVVVVVVVVVVVVVVVVVVV1::g5>r>$.+,,15ipjVVVVV",
"CCVVVVVVVVVVVVVVVVVVVVVV*-:a34y$.o+,,14ipjVVVVVV",
"CCVVVVVVVVVVVVVVVVVVVVV579q;5t$$o.*,146pjVVVVVVV",
"CCVVVVVVVVVVVVVVVVVVVVV;90lwqO>@.o&146pjVVVVVVVV",
"CCVVVVVVVVVVVVVVVVVVVV;89wlq97X.oo*15ujVVVVVVVVV",
"CCeeeeeeeeeeeeeeeeeeeq-9qlwq8=O&OX;;77wweeeeeeeV",
"CCVVVVVVVVVVVVVVVVVVV&89llq9-OO=-X<46sVVVVVVVVVV",
"CCVVVVVVVVVVVVVVVVVVa79qlw07=O&=-#14usVVVVVVVVVV",
"CCVVVVVVVVVVVVVVVVVV;90lwq8-OO=7O&14ujVVVVVVVVVV",
"CCVVVVVVVVVVVVVVVVV489wlw07&O&-=*,15aVVVVVVVVVVV",
"CCVVVVVVVVVVVVVVVVV;90lwq8-OO=7o,<46aVVVVVVVVVVV",
"CCVVVVVVVVVVVVVVVV&89wlq97OO=-=:,15ujVVVVVVVVVVV",
"CCVVVVVVVVVVVVVVVj-9qlw08=O&=7+,146aVVVVVVVVVVVV",
"VVVVVVVVVVVVVVVVVVVVVVVVVVVVVVVVVVVVVVVVVVVVVVVV"
};
