/* XPM */
static char *magick[] = {
/* columns rows colors chars-per-pixel */
"48 48 100 2",
"   c Gray0",
".  c #101010",
"X  c #102010",
"o  c #102020",
"O  c #201010",
"+  c #201020",
"@  c #202010",
"#  c #202020",
"$  c #202030",
"%  c #203020",
"&  c #203030",
"*  c #302020",
"=  c #302030",
"-  c #303020",
";  c Gray19",
":  c #303041",
">  c #304130",
",  c #304141",
"<  c #413030",
"1  c #413041",
"2  c #414130",
"3  c #414141",
"4  c #414151",
"5  c #415141",
"6  c #415151",
"7  c #514141",
"8  c #514151",
"9  c #515141",
"0  c #515151",
"q  c #515161",
"w  c #516151",
"e  c #516161",
"r  c #615151",
"t  c #615161",
"y  c #616151",
"u  c Gray38",
"i  c #616171",
"p  c #617161",
"a  c #617171",
"s  c #716161",
"d  c #716171",
"f  c #717161",
"g  c #717171",
"h  c #717186",
"j  c #718271",
"k  c #718286",
"l  c #867171",
"z  c #867186",
"x  c #868271",
"c  c #868286",
"v  c #868296",
"b  c #869286",
"n  c #869296",
"m  c #968286",
"M  c #968296",
"N  c #969286",
"B  c #969296",
"V  c #96929e",
"C  c #9e9296",
"Z  c #9e929e",
"A  c #96a296",
"S  c #96a29e",
"D  c #9ea296",
"F  c #9ea29e",
"G  c #9eae9e",
"H  c #9ea2ae",
"J  c #9eaeae",
"K  c #aea29e",
"L  c #aeae9e",
"P  c #aea2ae",
"I  c #aeaeae",
"U  c #aeaebe",
"Y  c #aebeae",
"T  c #aebebe",
"R  c #beaeae",
"E  c #beaebe",
"W  c #bebeae",
"Q  c #bebebe",
"!  c #bebecf",
"~  c #becfbe",
"^  c #becfcf",
"/  c #cfbebe",
"(  c #cfbecf",
")  c #cfcfbe",
"_  c Gray81",
"`  c #cfcfdf",
"'  c #cfdfcf",
"]  c #cfdfdf",
"[  c #dfcfcf",
"{  c #dfcfdf",
"}  c #dfdfcf",
"|  c #dfdfdf",
" . c #dfdfef",
".. c #dfefdf",
"X. c #dfefef",
"o. c #efdfdf",
"O. c #efdfef",
"+. c #efefdf",
"@. c #efefef",
"#. c None",
/* pixels */
"#.#.#.#.#.#.#.#.#.#.#.#.#.#.#.#.#.#.#.#.#.@ + # * # = #.#.#.#.#.#.#.#.#.#.#.#.#.#.#.#.#.#.#.#.#.",
"#.#.#.#.#.#.#.#.#.#.#.#.#.#.#.#.#.#.#.#.#.# o # % = & #.#.#.#.#.#.#.#.#.#.#.#.#.#.#.#.#.#.#.#.#.",
"#.#.#.#.#.#.#.#.#.#.#.#.#.#.#.#.#.#.#.#.+ # * # = - O . #.#.#.#.#.#.#.#.#.#.#.#.#.#.#.#.#.#.#.#.",
"#.#.#.#.#.#.#.#.#.#.#.#.#.#.#.#.#.#.#.#.o $ % ; ; : X + #.#.#.#.#.#.#.#.#.#.#.#.#.#.#.#.#.#.#.#.",
"#.#.#.#.#.#.#.#.#.#.#.#.#.#.#.#.#.#.#.# * - = - < # + X O #.#.#.#.#.#.#.#.#.#.#.#.#.#.#.#.#.#.#.",
"#.#.#.#.#.#.#.#.#.#.#.#.#.#.#.#.#.#.#.$ % ; ; : , $ o # X #.#.#.#.#.#.#.#.#.#.#.#.#.#.#.#.#.#.#.",
"#.#.#.#.#.#.#.#.#.#.#.#.#.#.#.#.#.#.* - = - < ; = # # # + X #.#.#.#.#.#.#.#.#.#.#.#.#.#.#.#.#.#.",
"#.#.#.#.#.#.#.#.#.#.#.#.#.#.#.#.#.#.& ; ; : , 3 & = % $ o # #.#.#.#.#.#.#.#.#.#.#.#.#.#.#.#.#.#.",
"#.#.#.#.#.#.#.#.#.#.#.#.#.#.#.#.#.- ; ; < 2 3 ; < - = % * # # #.#.#.#.#.#.#.#.#.#.#.#.#.#.#.#.#.",
"#.#.#.#.#.#.#.#.#.#.#.#.#.#.#.#.#.; > 1 , 3 5 1 , ; ; = % = # #.#.#.#.#.#.#.#.#.#.#.#.#.#.#.#.#.",
"#.#.#.#.#.#.#.#.#.#.#.#.#.#.#.#.; ; 1 2 3 3 7 3 1 > < ; = % * # #.#.#.#.#.#.#.#.#.#.#.#.#.#.#.#.",
"#.#.#.#.#.#.#.#.#.#.#.#.#.#.#.#.> 1 3 3 5 8 5 4 , 3 > ; & ; & $ #.#.#.#.#.#.#.#.#.#.#.#.#.#.#.#.",
"#.#.#.#.#.#.#.#.#.#.#.#.#.#.#.> 1 2 7 5 8 0 8 5 7 3 3 > < ; ; % * #.#.#.#.#.#.#.#.#.#.#.#.#.#.#.",
"#.#.#.#.#.#.#.#.#.#.#.#.#.#.#.1 , 4 5 0 0 t w q 6 8 ^ _ , : > ; % #.#.#.#.#.#.#.#.#.#.#.#.#.#.#.",
"#.#.#.#.#.#.#.#.#.#.#.#.#.#.1 2 7 5 8 0 d y t 0 0 5 ( ~ 1 > < ; = - #.#.#.#.#.#.#.#.#.#.#.#.#.#.",
"#.#.#.#.#.#.#.#.#.#.#.#.#.#.5 4 5 0 w u p i p u w ( ~ ( ~ 3 , 1 ; ; #.#.#.#.#.#.#.#.#.#.#.#.#.#.",
"#.#.#.#.#.#.#.#.#.#.#.#.#.3 7 5 0 0 t j l f d y t Q / Q / 3 3 2 1 ; ; #.#.#.#.#.#.#.#.#.#.#.#.#.",
"#.#.#.#.#.#.#.#.#.#.#.#.#.8 6 0 w u u c j g g d ~ Q Q Q Q Q 5 3 , 1 ; #.#.#.#.#.#.#.#.#.#.#.#.#.",
"#.#.#.#.#.#.#.#.#.#.#.#.8 5 8 0 t u M c z j l f #.W E W E Y 8 3 3 2 1 ; #.#.#.#.#.#.#.#.#.#.#.#.",
"#.#.#.#.#.#.#.#.#.#.#.#.5 q w u e i n M c c k #.#.E Y E Y U Y 0 5 4 3 1 #.#.#.#.#.#.#.#.#.#.#.#.",
"#.#.#.#.#.#.#.#.#.#.#.9 r w t u s B B B M c c #.#.#.R I R I I 0 8 3 7 2 1 #.#.#.#.#.#.#.#.#.#.#.",
"#.#.#.#.#.#.#.#.#.#.#.q e u u d a F A V n B #.#.#.#.I I J I J P 0 0 5 4 3 #.#.#.#.#.#.#.#.#.#.#.",
"#.#.#.#.#.#.#.#.#.#.r 0 u u d f P F F D Z B #.#.#.#.#.F P F K F t 0 8 3 8 2 #.#.#.#.#.#.#.#.#.#.",
"#.#.#.#.#.#.#.#.#.#.e u p g a h J P G F S #.#.#.#.#.#.F F F G F S t w 0 5 4 #.#.#.#.#.#.#.#.#.#.",
"#.#.#.#.#.#.#.#.#.y u p s g l Y I I P F F #.#.#.#.#.#.#.Z D F D Z y t 0 0 5 7 #.#.#.#.#.#.#.#.#.",
"#.#.#.#.#.#.#.#.#.u u d g z k Q Y U J P #.#.#.#.#.#.#.#.A F A V A Z e t w 0 6 #.#.#.#.#.#.#.#.#.",
"#.#.#.#.#.#.#.#.u p d g z x / Q E Y R I #.#.#.#.#.#.#.#.#.B B B B B s u t 0 r 9 #.#.#.#.#.#.#.#.",
"#.#.#.#.#.#.#.#.p g g z k c ~ ! T Q T #.#.#.#.#.#.#.#.#.#.B n B b B n d e t w 0 #.#.#.#.#.#.#.#.",
"#.#.#.#.#.#.#.p d g z c m _ ( ~ / Q E #.#.#.#.#.#.#.#.#.#.#.m b m c M f s u t w r #.#.#.#.#.#.#.",
"#.#.#.#.#.#.#.g j c k v n _ _ _ ~ ( #.#.#.#.#.#.#.#.#.#.#.#.c v c c k v a d e u e #.#.#.#.#.#.#.",
"#.#.#.#.#.#.d g z c m b { _ [ _ ( ~ #.#.#.#.#.#.#.#.#.#.#.#.#.x z j z x l g d u t 0 #.#.#.#.#.#.",
"#.#.#.#.#.#.j z c v n B ' { ' _ _ #.#.#.#.#.#.#.#.#.#.#.#.#.#.h j h j h j h a d p u #.#.#.#.#.#.",
"#.#.#.#.#.j z c m B C } { } { ' [ #.#.#.#.#.#.#.#.#.#.#.#.#.#.#.d g g f l j l f d u t #.#.#.#.#.",
"#.#.#.#.#.c c M n V A  .| | ] { #.#.#.#.#.#.#.#.#.#.#.#.#.#.#.#.a g p d a d j h g g p #.#.#.#.#.",
"#.#.#.#.c c M N B A o.| | | { } #.#.#.#.#.#.#.#.#.#.#.#.#.#.#.#.#.u s u u p c x g f d u #.#.#.#.",
"#.#.#.#.b B A V A H .. .|  .| #.#.#.#.#.#.#.#.#.#.#.#.#.#.#.#.#.#.u e u e u u c j h g g #.#.#.#.",
"#.#.#.b M B Z A Z +.O...o.| | #.#.#.#.#.#.#.#.#.#.#.#.#.#.#.#.#.#.#.t w t y t b m x z g d #.#.#.",
"#.#.#.B A Z S F G @...O...O.#.#.#.#.#.#.#.#.#.#.#.#.#.#.#.#.#.#.#.#.w q w q w q b c k z j #.#.#.",
"#.#.M B Z D K F P I R Y E Q / Q ( ) [ _ { ' { | | | o.| O...O.+.O.+.O.0 0 0 0 0 M b m x z g #.#.",
"#.#.A F S H G I J U T Q Q ! ~ _ _ ` ' { ' | ] | |  ...O...O.X.@.X.@.X.0 5 8 6 0 6 B n M c c #.#.",
"#.A Z F K L I I R W Q Q / ) _ ) [ _ { ' { | | | o.| O...O.+.O.+.O.+.@.+.7 9 8 5 7 B B N m c c #.",
"#.F G P J I Y U T Q ~ ! ^ _ _ ` ' { ' | | | |  ...O...O.X.@.X.@.@.@.@.@.3 4 3 4 5 8 A V B M c #.",
"F F P I I Y E W Q Q ( ) ( _ [ _ { } { | | | o.| O...O.+.O.+.O.@.@.@.O.@.@.3 1 3 1 2 Z B B N M c ",
"> 3 > 3 , 1 > 3 > 1 > 3 > : > 1 > : > ; ; ; > ; ; ; > : > : > 1 > 3 > 3 > 1 > 3 , 3 > F A V B B ",
"#.> 1 > 1 ; 1 > < ; < > < ; ; ; < ; ; - = - ; - = ; ; ; < ; ; ; < ; < > < ; 1 > 1 ; 1 F F D Z #.",
"#.#.> : > ; > : > ; ; : ; ; ; ; ; ; & = & = % = & ; & ; ; ; ; ; ; ; ; : > ; > : > ; > : G F #.#.",
"#.#.#.; ; - ; ; ; - = ; = % = - = % = # = # * # = % = % = - = - = - = ; ; - ; ; ; - ; ; P #.#.#.",
"#.#.#.#.& = & ; & ; % ; % = & = % $ % # # # % # # $ % = % = & = % ; % ; & ; & ; & ; & ; #.#.#.#."
};
