/* XPM */
static char *magick[] = {
/* columns rows colors chars-per-pixel */
"56 46 16 1",
"  c Gray100",
". c #b6aeb6",
"X c #beb6be",
"o c #a6a2a6",
"O c Gray0",
"+ c #aeaeae",
"@ c Gray65",
"# c #aeaeb6",
"$ c Gray59",
"% c #000808",
"& c #a69ea6",
"* c #8e8a8e",
"= c #fffbff",
"- c #080408",
"; c #9e9a9e",
": c #a6798e",
/* pixels */
"                                                       .",
" ..X...oX..o...oX..o...oX..o...oX..o...oX..o...oX..o...O",
" oX+XXX+X.XXXXX+X.XXXXX+X.XXXXX+X.XXXXX+X.XXXXX+X.XXXXXO",
" +XX+X+XX+X++X+XX+X++X+XX+X++X+XX+X++X+XX+X++X+XX+X+X+.O",
" o.XX@.X+oXXX@#X+XXXX@#X+oXXX@#X+oXXX@#X+oXXX@#X+oX+XoXO",
" XX+X+X+XX+X+X+Xo+o+o+X+XX+X+.X+XX+X+.X+XX+X+X+XX+XX+X.O",
" $+oXooX@#ooX@XoXXXXXoXoX@oX@oX@oX@X@X+XX+oX@.ooX@X@X@#%",
" ..XX+X+X+XX+X+Xo+o+@X+X+X+X#X+.X+#.#@X@XoX+X+XX+X+X#.oO",
" oX@+oXooX@#ooX@.oXX+oX@.oX@oXooXooX@#o#+X@XoX@+ooX@.oXO",
" +X#XX@X+X.@XX+Xo#@XoXo#X#@X+X+Xo+X+XoXoXo#@X+XoX+X#@X.O",
" o.o+o#ooX@#o@.oX@#o+X+++o.ooX@oXooX@.@Xo+X.oXo.ooX@#oXO",
" .@XoXXX#@X.X#@X+Xo.oXo.++XX#@X+X+Xo+X#@.oXo#o+X+Xo+X.oO",
" $.o+o+oo.@#@oX@#oX@.@.o.oX@o.ooXo%O%O%.oX@.oXoXooXoX@#%",
" .oXo%%%%O%O%OOO%.@Xo#@Xo#@X#@X#@.OOOOO #@#@Xo#@X.@#@.oO",
" oX@.OOOOOOOOOOOO o@#+o@.o.@oX@o.o%OOOO oXoo%O%OooX@#oXO",
" ooooOOOOOOOOOOOO o.o+oo@Xoooo+Xooo     .o.OOOOO @o.oooO",
" o.o.%OOOO        oooooo#oX@o#ooX@o.o.ooooo%OOOO o#oXo.%",
" ooooOOOOO oooooooO%O%O%oooOO%%oooOO%O%o.oOOOOOOOO%o@ooO",
" $.o.%OOOO .oo.o.ooOOOOO oOOOO  .oOOOOO oo%OOOOOOOO .o.%",
" ooooOOOOO oooooooooOOOOOoOOO  oooOOOOO ooOOOOOOOOO oooO",
" ooooOOOOOOOO%O%.oooOOOOOOOOO oo.oOOOOO oooOOOOO    .ooO",
" ooooOOOOOOOOOOO ooooOOOOOOO  ooooOOOOO oooOOOOO ooooooO",
" ooooOOOOOOOOOOO ooooOOOOOO  oooooOOOOO oooOOOOO ooooooO",
" ooooOOOOO       o$oooOOOOO ooooooOOOOO oooOOOOO ooooooO",
" $o$oOOOOO o$$ooo$ooooOOOOOO$oooo$OOOOO oooOOOOO $ooo$oO",
" ooooOOOOO ooooooooo$OOOOOOO oooooOOOOO o$oOOOOO ooooooO",
" $oooOOOOO o$oo$o$&oOOOOOOOOOo$$o$OOOOO oooOOOOO oo$o$oO",
" ooooOOOOOOOOOOOOO$oOOO OOOOOOooooOOOOO o$oOOOOOOOOooooO",
" $o$oOOOOOOOOOOOOO OOOO oOOOOO $o$OOOOO ooooOOOOOOO o$oO",
" o&ooOOOOOOOOOOOOOOOOO  ooOOOOOo&oOOOOO o$o$oOOOOOO oooO",
" $o$&$                 $o$o     o$$     $&oo$&      o$&O",
" o$o$oooo$oooo$ooo$o$o$&$oooo$ooooo$ooo$o$o$o$oooo$ooo$O",
" $o$o$o$$&$o$$&$o$&$o$o$o$&$$&$$o$*o$o$o$o$&$o$o$$&$o$oO",
" o$&*o$oo$o$o&$o*o$o$o$o*o$oo$oo$&o$&$o$&$o*&$o$oo$o$o$O",
" $o$o$&$*o$o$$o$o$$*&$$$&$o$$&$$o$$&$o$*$&$$$o*&$$&$&$oO",
" $*$$&$$$$&$*$$&$$$o$&*$$o*$*$o&$*$$&*$$&$&$*$o$$*$o$*$O",
" $&$&$*&$&$$&$&$*$$$$$&$&$$&$$&$$&$&$$$$$$$&$&$$&$&$o$&O",
" $$*$$$$$$*$$*$$$&$&*$$$$$$$$*$$*$$$$$&$&*$$$$$$*$$$*$$O",
" $&$&$$&$&$$&$&$$$$$$$&$&$*&$$&$$&$&*$$$$$$&$&$$&$&$&$&O",
"=$$$$$*$$$$$$$$$*$*&$*$$*$$$$$$*$$$$$$*$*$*$*$$*$$$$$$$O",
" $$*&$$*$&*$*$&$&$$$&$$$&$$$*&$$&$*$&$$$&$$$&$$$&$*$&$*-",
"=$*$$$$$$$$$$$$$$$$$$$*$$$*$$$$$$$$$$$*$$$$$$$*$$*;*$$$O",
" $$$$*$*$*&$*$*$*$&*$$$$*$&$*$*$*$&$*$$$*$&*$$$$*$&$$*$-",
" *$$*;*;$$$$$$$$$$$$$$:$$$$$$;*;*;*$$$:$$$$$$:$$$$$$$$$O",
" $$$$*;:$$$:$$:$$:$$$*$$$:$$:$$$$*;*$$$$:$$$$$$:$$*$*$*-",
".-----O-O----------------------------------------------O"
};
