/* XPM */
static char *magick[] = {
/* columns rows colors chars-per-pixel */
"56 46 39 1",
"  c Gray100",
". c #b6aeb6",
"X c Gray0",
"o c #a69ea6",
"O c #8e8a8e",
"+ c #386da6",
"@ c #9e9a9e",
"# c #beb6be",
"$ c #080408",
"% c #a6a2a6",
"& c #000018",
"* c #a6798e",
"= c #79869e",
"- c #000010",
"; c #8e8679",
": c #aeaeb6",
"> c Gray59",
", c #fffbff",
"< c #aeb2cf",
"1 c #717986",
"2 c #aeaaae",
"3 c #9696ae",
"4 c #aea6ae",
"5 c #000808",
"6 c #ae9e59",
"7 c #51718e",
"8 c #fff3ff",
"9 c #bec3cf",
"0 c #eff3f7",
"q c #51a249",
"w c #aea671",
"e c #c7bac7",
"r c #ae6161",
"t c #6986be",
"y c #717571",
"u c Gray65",
"i c #5155ff",
"p c #f7b2ae",
"a c #867986",
/* pixels */
"                                                       .",
" ......................................................X",
" ...............oOO+O+O+O+OO@o.........................X",
" .......#.....OO++++++++++$+X++%........#....#....#....X",
" o..#o...o.#O++$@O@+&+&+#*=+O$XX+%.#.%...o...o...%...%.X",
" ..........O$+&+$+$.O-+$;=*O$+XXXX%...........:#.......X",
" @#@:%.@#>+$+X+o@-+O+++*++#=;$+X+XX@.@.@#@#>#@.@.%.%.@#X",
",.:#..@..+$+-+@.O...<+1#*2;=**-+-+XX3#@.:.:#..@.......@X",
" @.@.@.@+-+X++#O++O..#<O:=4=5+1$+X+XX@.@#@#@.@<@#>.@.@.X",
" ..#@..+X+-+-++++*O.....O<16OO$+-+-+X$@.@..<@...@..#@..X",
" @.@.@O$+$+++++*7#,.,..O.O.7#O+$XXO$+X+3.@.@.@#@.@.3.@#$",
"8#@.<.$+-+-+&++#,,........3*O+$+O$++X$-+@.@...3.@<@...@X",
" @.@.++-++++*90.,. . ..O.O.q#&+$O$$+O$X$.@.3#@.@.@.@#3.X",
",.@.o+$+-++O: ,,  . ......*<O*O+$+-+&+X$+.@.@.@.@.@.@.@X",
" @<@=X+o@O+*,. . . . ....O.O.O+&+X+X+X+-$@#@.3#@.@.@.3#X",
"8@@.++X@o.#+      . ......1w7*$+X+-+-+X+X+3.@@@.@o@.o@@X",
" @.OO$+O++,:8. .,. . ..O.O.=e$+-+X+X+-XX$+.@.@.3.@.@.@.$",
",@3rO.&+:++8.,. . ....<...O.O+$+-+-+X+X+X$@@@3@@@@3@o@@X",
" @.+7w4$+<8+,.,. . . ..O.O.O.$+X+-+-+-+-XX.@.@.oe@.@.3.$",
",o>3O:O.-..:#............:>rO+-+-+-+XXX+X$@3@@@@@@3@@@@X",
" @@+OO.OO$+*=..,.,...#.O.O.=<O+X+X+-+$+-XX@o.o*3e@@o.@oX",
",o@+O3O..O-+-+5......:#.*=O1OOO+OOOO*;>rO@q1w1o@@@o@@@@X",
",@@+1o.O.X+X+X+-+O.O.O.O.=.O*+1+*0   0,,0,,,0$3@@o@*o@@$",
"8@o+O63@O+X+-+-+5+:##.OO16O*q*+O=  ,       ,,$@oo@@o3@@X",
" O@+1O1o3$+-+X+X+-*X.O.O<1=+*+1+*  , ,    , ,X4@1q4@@q3$",
"83o+OOO=@+-+X+-+-+X+X+*OOO1>tr++;  O..=... , $@oo43o4ooX",
" @@r+1+OO1+X+-+X+X+-+X++=+O+O+o+1         , ,X@@43@q31o$",
"8@@t+OO=*6++X+X+-+X+-+$1OO+=+1++O ,O.+..O.O, $o@@@@4@o@X",
" q4q*+*+=*1O+-+-+X+X+-O+w+1+O+++7        ,  ,X@@@ooq*;@$",
",oo4o&r=*OO1*+-+X+-+X+37+*+*++&16 ,O..O.O.., $++@o3o@o@X",
" *@O3+++=+*+O5+X+-+X++O+O+3+1& ,1,  , ,     ,X88+@@yo1oX",
",@1@@@-++y+O1+-+-+$O=*+++1++$, oO, *..O.+.., X .0-6o@oOX",
" O@=@=;+++1+O-+X+-O+*+1+*++&, ..O ,    ,     X@,.,$1o63$",
",u1@;@>+&++O++-+&++1++++++&, ..@$............X@=,. -1@=X",
" =o=@Oo;++++*&+X@+O+*++++&#,..++++++++++++++++++.   $O@X",
",16o16=@*+&+++-+++++++i++O,,   ,,,           , .....$OOX",
",O31o13O3>+++++-++++++$++*,  .,. . . . . #,#,. .. ..XO3$",
" O*qOO*w1**++-++++i+++++&*  . .,.#=OOOOO=OO=OO.  . #5rOX",
" Oo*31313=3=3++-+-+X+&+-+1,,,.,.,:O. p3 .@,.@@.,. ..5OoX",
" ==*q31wO161*O*+-+X+-+-+XO,,.,.,..1*p+@.X@.X3@.  . O&6=X",
" O61<r=*3=O3@=O*@++-+-+-+1#,,.,.,#,,  ,  ,, ,,,,. .+X1=$",
",*1O*>q=1O*OO=O=*O161*OOO+.:...:#.:...............O$+OOX",
" =3O*1o*q*@1=61==Oo*=6173O++X+5+X+$+X+X+X+X+X+X+X+$++O*$",
" *q=131=*=O=O1O=;31O31O3161*OOOOOOOO1;=*OOOOOOOOOOOO1O=X",
" **@1aw*O=O*73OO*=O=76*1373O*13rOO1OOO*O=1O*=613rt6*=O1-",
".-$$--$-X$X$$XX$XXX$$&$$X$XX$$$5$$$$$5X5$$X$$$$$5XX$$$$X"
};
