/* XPM */
static char *magick[] = {
/* columns rows colors chars-per-pixel */
"56 46 31 1",
"  c Gray100",
". c #bebabe",
"X c #000010",
"o c #beb6be",
"O c #aeaaae",
"+ c #aea6ae",
"@ c #c7bac7",
"# c #080408",
"$ c #285d49",
"% c #ffffd7",
"& c #79869e",
"* c #717986",
"= c #ae9e59",
"- c #ffae00",
"; c Yellow",
": c #ffb610",
"> c #cf5528",
", c #b6aeb6",
"< c #188651",
"1 c #9e9a9e",
"2 c #000808",
"3 c #51a249",
"4 c #aeaeb6",
"5 c #7992b6",
"6 c #8e8a8e",
"7 c #9696ae",
"8 c #6986be",
"9 c #cfc7cf",
"0 c #aeb2cf",
"q c #a69ea6",
"w c #000018",
/* pixels */
"                                                       .",
" ......................................................X",
" ......................................................X",
" ...o..o..o..o..o..o..o..o..o..o..o..o..o..o..o..o..o..X",
" O...O...+...O...O...+...O...O...+...O...O...+...O...O.X",
" .o..@o...@o..@o..@o...@o..o.@o...@o..@o..@o...@o..@o..X",
" O.O.O.O.O.O.O.O.O.O.O.O.O.O.O.O.O.O.O.O.O.O.O.O.O.O.O.X",
" .....O.o.....O...o#######....O.o.....O..o....+...o...OX",
" O.+.+.O.O.+.+.+.O.$%o&$##oO.+.O.O.+.+.O.O.+.O.O.O.OoO.X",
" ...O...Oo..O...O..$%.*$##..O...Oo..O...+...Oo..+...O..X",
" O.+.O.+.O.+.$*.&&$$############&O.+.+.O.O.+.O.O.+.O.O.X",
" .O...O.O.O.#$%.+%..&*$$#########.O...O.+.O...+.O.O.o.OX",
" O.+.+.O.O.+&##$$#X#############&+.O.+.O.O.+.O.O.+.O.O.X",
" .O.O.O.+.O.O#=--;-;-;--;-;-:>=#O.O.O.O.+.O.O.O.O.O.O.OX",
" O.O.+.O.O.+.#-;;;;;;;;;;;;-;--#.+.+.O.O.O.+.O.+.O.+.O.X",
" O+.OOO.OOO.O#--;;;;;;;-;;;;---#OOO.OO+.OOO.O+O.OOO.OOOX",
" O.O.O.+.O.+.#-;;;;;;;;;;-;-;--#.O.O.O.O.+.O.O.O.+.O.O.X",
" OOOOOOOOOOOO#--;;;;;;;;;;;;---#OOOOOOOOOOOOOOOOOOOOOOOX",
" O.O.O.O.O.O.#-;;;;;;;;;;-;;---#oO.O.+.O.O.O.O.+.O.+.O.X",
" OOOO+OOO+OO,#--;;;;;;;-;;;-;--#OOOOOOOOOOOOOOOOOOOOOOOX",
" OOO.OOO.OOO.#-;;;;;;;;;;;;;---#oOOO.OOO.+OO.+OO.OOO.OOX",
" OOOOOOOOOOOO#--;;;;;;;-;;;-;--#,OOOOOOOOOOOOOOOOOOOOOOX",
" OOOOOOOOOOOO#-;;;;;;;;;;-;;---#OOOOOOOOOOOOOOOOOOOOOOOX",
" OOOOOOOOOOO,#--;;;;;;;;;;;-;<<<&&&&&&&&&&&OOOOOOOOOOOOX",
" 1OOO1OOO1OOO#-;;;;;;;;;;-;;-#2<3<<<<3<<<<3*41OOO1OOO1OX",
" OOOOOOOOOOOO#--;;;;;;;-;;;-;#X3<<<3<<3<3<<5OOOOOOOOOOOX",
" OO1O1O1OOO1O#-;;;;;;;;;;;;;-X#<<3<<3<<<<3<6+1O1OOO1O1OX",
" OOOOOOOOOOO,#--;;;;;;;-;;;-;##3<<3<<<3<3<<&OOOOOOOOOOOX",
" 1O1O1O1O1O1O#-;;;;;;;;;;-;;-##<<3<<3<<<<<35+1O1O1O1O1OX",
" OOOOOOOOOOOOX--;;;;;;;;;;;-;##3<<3<<<3<3<<*+OOOOOOOOOOX",
" 1O1O1O1O1O1O#-;;;;;;;;;;-;;-##<<<<3<3<<<3<7+1O1O1O1O1OX",
" O1OOO1OOO1O,#--;;;;;;;-;;;-;<#<77<*55<757<&4O1OOO1OOO1X",
" 1O1O1O1O1O1O#-;;;;;;;;;;;;;-<#<,&<7,*<7+*<7+1+1O1O1O1OX",
" O1O1O1O1O1O1#--;;;;;;;-;;;-;<#3*7<5*7<**7<*1+1O1O1O1O1X",
" 1O1O1O1O1O1O#-;;;;;;;;;;-;;-##<<<3<<<3<<<38O1O1O1O1O1OX",
" 11O111O111O1#--;;;;;;;;;;;-;<<<77**77*577*6111O111O111X",
" 1O1O1O1O1O1o$&9&&$$############17o7,70q+74741O1O1O1O1OX",
" 11111111111#$%11%..&*$$#########1111111111111111111111X",
" 1O1O1O1O1O1&##$$#X#############&1+q+1+1+1+1+1O1O1O1O1OX",
" 111111111111111111111111111111111111111111111111111111X",
" 111O111O111O111O111O111O111O111+111+111+111O111O111O11X",
" 111111111111111111111111111111111111111111111111111111X",
" 1O1111111O1111111O1111111O1111111+1111111O1111111O1111X",
" 111111111111111111111111111111111111111111111111111111X",
" 111111111111111111111111111111111111111111111111111111X",
".XXXXXXXXXXXXXXXXXXXXXXXXXXXXXXXXXXXXXwXXwXXwXXXXXXXXXXX"
};
