/* XPM */
static char * image_name[] = {
"56 46 27 1",
" 	c #FFFFFBEEFFFF",
".	c #EFBEF3CEF7DE",
"X	c #FFFFFFFFFFFF",
"o	c #B6DAAEBAB6DA",
"O	c #BEFBB6DABEFB",
"+	c #AEBAAEBAAEBA",
"@	c #000000001040",
"#	c #BEFBC30BBEFB",
"$	c #000008200820",
"%	c #965896589658",
"&	c #A699A699A699",
"*	c #8E388A288E38",
"=	c #BEFBBAEABEFB",
"-	c #A699A289A699",
";	c #AEBAAEBAB6DA",
":	c #000000000000",
">	c #79E786179E79",
",	c #71C679E78617",
"<	c #9E799A699E79",
"1	c #0000FFFFFFFF",
"2	c #186186175144",
"3	c #082004100820",
"4	c #5144A2894924",
"5	c #AEBAA699AEBA",
"6	c #A6999E79A699",
"7	c #A69979E78E38",
"8	c #000000001861",
" .XX.XX.XX.XX.XX.XX.XX.XX.XX.XX.XX.XX.XX.XX.XX.XX.XX.XXo",
"XoO+OoooO+OoooO+OoooO+OoooO+OoooO+OoooO+OoooO+OoooO+O+o@",
".OoOo+#+OOo+O+OOo+O+OOo+O+OOo+O+OOo+O+OOo+O+OOo+O+OOOOo$",
"XO+O+OooO+o#+OO+o#+OO+o#+OO+o#+OO+o#+OO+o#+OO+o#+OO+ooo@",
".%O+#&o+O%O+O&o+#*Oo+&OoO%+OO&o+O%O+O&o+#*Oo+&OoO%+O+&O@",
"XO+OO+o#oO+oO+#oOO+O#+O+O+OO+O+OO+oOO+o=+OO+O=+O+o=+OOo@",
".&O&++o&+-O&o-o&+-O&++o&O&o&O&O&o&O&++o&o&o-+-O&O&o-O&;@",
"XoooO;&o=+O+O;&o=+ooOo-+O+O+o;&O+O+oO;&=+#+o#o&O+O+O+o-@",
".&O&+-o-o-O&O&o&;+o$$$$$$$$$$$$-O&O&;-o&o-O&;&;-O&O-O-O$",
"X=+o-#;O&+O;&O;O:$$.-o:>,>>.-+>:$$;o&OO;&O;o&OoO-+O;&oo@",
".&O-o&o&O-O&;-$$.-o-O&>::::-O-o-o>$$o&++o&o-O&+-O-O&;-O@",
"X;-=+O-;-;&oO$.oX.XX+o-.XX.Oo+X.X.<>$O-o-;&Oo;+;&o-+#o-@",
"X&o&o-O&O&;-$.O$>>>>.-$>>>>.O$>>>>.&>:o-O&;-++++o&;-O&o@",
"X;&o-;&;&O-o$X&>:::$-+>::::O<>:::$-+>$-;&o&O-O-;&O-o&o-@",
".%o-O&o-o&;-$<.X+-o-o-o.X.X&o-o-o-X>>:o-O&;-o&o-o&;-O&;@",
"X--;&&&O---o-$-+XX.O--$>>>>.---o .,>:--;&&-O&&&O---;&--@",
"X&o-O-;-;-O&o-$$o&O.X.>::::X.X.X>>::o-O-O-;-;-;-O&O-o-o@",
".&-&&-----&---:-::>&&&------&&&>::>::$--&---+--&&&-----@",
" -;-;-O-O&;-O&:::-::::::::::::::>:::::::o&O-++o&;-;-O&O@",
".-+--&&&&----::12:::-::-::-::>:::1232:-::$---------&&--@",
" &--O---;---:>:223123:::::::::123123123::-:-o---O&--;--@",
".-----------:>::4312321232123212323312321::$--------+--@",
" -----------:-:-::323214:224:24:33*:24:2123:-----------@",
".-----------:->::-3333::333:3:::>::>3::4122:-----------@",
" %&--%---%---:. >:33-33-:3-::>:::>--::::2353-%---%---%-@",
".-------------::X.X,3:::::::::>---::--:3333:-----------@",
" %-*-%-*---%-%-%:::X .XX.XX.X.-:::-%-::%3323-%-*---*-%-@",
".------------------::$::::::$::----::-::312:-----------@",
" %-%-%-%-%-%-%6%-%-%-%-%-%-%-%-%-%::::123123-%-%-%-%-%-@",
".-------------------------------6-:-32123233-----------@",
" %<%-%-%-%-%-%-%-%-%-%-%6%6%6%6%-%:::24333&3-%6%-%-%-%-@",
"X-%---%--6%--6%--6%--6%---%---%---::-3:63336&6%---%---%@",
".%-%-%6*-%-*-%6*-%-*-%-%-%-%-%-%-%:1:::::%6%-%6*-%6%6%-@",
"X-%6%-%-%6%6%6%-%6%6%-*6%6*-%6*-%6:12::-%6%6%6%-%-*6%-%@",
"X*-%6*-%6%6%6%6%6%6%6%-%6%-%6%-%6%:323-%6%&%-%6%6%-%6*-@",
"X%%6%%%6%%%-%%%-%%%6%%%6%%%6%%%6%%:333%6%%%-*%%6%%%6%%%@",
".%6%6%6%-*-%6%6%6%-%-*-%6%6%-*-%6%6:-:-%6*6%-%-%-*-%6%6@",
"X%%%%%%%%%%*%%*%%*%*%%%%*%%*%%%*%%%%::%%%%%%%*%*%%%%%%%@",
" *-%6*-*-%6%-%-%6%-%6%6%-%6%-%6%-*6%6%6%6%6%6%6%-%6*-%6@",
" %%*%%%%%%%%%%%*%%%%%%%%%%%%%%%%%%%%%%%*%%*%%%%%%%%%*%%@",
".%%%6%%*6%*%6%*%6%*%6*%*6%*%6*%*6%%*6%*%6%%%6%*%6%*%6%*@",
" %%%%*%%%%%%*%%%%%%%%%%%%%%%%%%%%*%%%%%%%%*%*%%%*%%%%%%@",
" *-%*<%*%*6%%%*%*%6%*%*%*%6%*%%%%%6%*%%%*%6<%%*%%%6%%%%@",
" %*%%%*%%%<*%%%%%%*%%%%%<*%%*<*%*%%%%%*%%%%%%*<*<*%%*%%@",
"X%%%*%%%%7%%%7%*<%%%7%*<7%%%%%%%%%*<*<*<*%*%%%%%%%%*<*%@",
"o@@@@@@@@8@@@@8@@@@@@8@@@@@@@@@@@@@@@@@@@@@@@@@@@@@@@@@@"};
