/* XPM */
static char *magick[] = {
/* columns rows colors chars-per-pixel */
"48 48 64 1",
"  c Gray0",
". c #302020",
"X c #382030",
"o c #303020",
"O c #412020",
"+ c #413020",
"@ c #413030",
"# c #513030",
"$ c #613030",
"% c #513041",
"& c #414130",
"* c #514130",
"= c #515130",
"- c #614130",
"; c #615130",
": c #514141",
"> c #515151",
", c #614141",
"< c #615141",
"1 c #714141",
"2 c #715141",
"3 c #715151",
"4 c #716141",
"5 c #716151",
"6 c #797979",
"7 c #798279",
"8 c #8e5141",
"9 c #8e5151",
"0 c #8e6141",
"q c #8e6151",
"w c #8e7151",
"e c #9e6151",
"r c #9e7151",
"t c #8e7561",
"y c #9e6161",
"u c #9e7161",
"i c #967d71",
"p c #ae6151",
"a c #ae7151",
"s c #ae7161",
"d c #be7161",
"f c #9e8a51",
"g c #9e8a61",
"h c #968671",
"j c #ae8a51",
"k c #ae8a61",
"l c #a69269",
"z c #be8a61",
"x c #be8a71",
"c c #df9a71",
"v c #cfaa71",
"b c #dfaa71",
"n c #aeaaae",
"m c #beb2b6",
"M c #df9a8e",
"N c #dfb2a6",
"B c #efaa9e",
"V c #efba8e",
"C c #ffaa8e",
"Z c #dfdbcf",
"A c #d7dfd7",
"S c #e7cfd7",
"D c #fffbff",
"F c None",
/* pixels */
"FFFFFFFFFFFFFFFFFFFFFFFFFFFFFFFn FFFFFFFFFFFFFFF",
"FFFFFFFFFFFFFFFFFFFFFFFFFFFnnxkx FFFFFFFFFFFFFFF",
"FFFFFFFFFFFFF FFFFFFFFFnnzzzxzzz FFFFFFFFFFFFFFF",
"FFFFFFFFFnnxk FFFFFnnxlxkxlxkxVDDsg>FF FFFFFFFFF",
"FFFFFFzzzzzzz nnzzzzzzzzzzzVDDDbMFFFFn FFFFFFFFF",
"FFFFFFkxkxkxkxkxkxkxkxkBDDDDvDDDDnnxkx FFFFFFFFF",
"FFFFFndkzkdkzkdDDDD DDDDMDDDDnnzxzzzxz FFFFFFFFF",
"FFnskskxkskFFFFnnxl vDDDDnnxkxlxkxlxVDDsf>FF FFF",
"FrsrsrsrsrsFzzzzzzz nnzzzzzzzzzzzVDDDcMFFFFn FFF",
"FuryrururBFFkxkxkxkxkxkxkxkxkBDDDDvDDDDnnxkx FFF",
"FweeeweFFFFndkdkzkdkzDDDD DDDDMDDDDnnzzzxzzz FFF",
"FqqqqqFFnskskxkskFFFFnnxk vDDDDnnxlxkxlxkxVDDsg>",
"F09490FrsrsrsrsrsFzzzzzzz nnzzzzzzzzzzzVDDDbMc9>",
"F>4353FyruryrurBFFkxkxkxkxkxkxkxkxkBDDDDvMkq5q4F",
"F<121<FeeweeeFFFFndkzkdkzkdkzkdVDDDDMjsse09094>F",
"F><<*xFqqqqqFFnskskxkskskskNDDDDvMkuwewqqq5q43FF",
"F2,-,zF49094FrsrsrsrsrsrCDDDMcsrerereqe0909482FF",
"F>&%=MF>5343FuryrururBDDDMvsrsrurywyweqq5q4343FF",
"F*##,FF21<12FweeeweDDDMcsrsrsrpreweqe09094822*FF",
"F#&@+FF><,=xFqqqqqDMwyrugsgsrurewqwqqq5q4342<#FF",
"F.#+#FF<,-,zF09490Drdksjsasrprereqe0909482221oFF",
"F.oX@FF>*:*MF>4353Dyksksgsrurywewqqq594342<2< FF",
"F*O..FF##*,FF<121<Dksjsrsrpreweqq0909482221<, FF",
"F:..<FF#&@@FF><<*xDsgsgsrurewqwqqq5q4342<2<<& FF",
"F*..1FF.#+#FF2,-,zDjsasrprereqe090948222121;O FF",
"F: .kFF.oO@FF>&%=MDsgsrurywewqqq594342<2<1<,o FF",
"F> .xFF*..OFF*##,FMrsrpreweqq0909482221<1;,- >FF",
"F, .kFF*..<FF#&@+Fvsrurewqwqqq5q4342<2<<<,;, >FF",
"F-  MFF*O.2FF.#+#FMrpreweqe090948222121;,-,* 6FF",
"F,  DkF% .kFF.oX@Fkuryweqqqq594342<2<1<,<,*X 7FF",
"F- >DkF> .zFF*O..Fpreweqq09094822<1<1;,-,*$o 6FF",
"Fs >DsF, .lFF:..<Frewqwq4q4q4342<2<<;,;,*:*O 6FF",
"Fj >D0F-  MFF*..1Feweqe0909482221;1;,-,*$*#  6FF",
"Fs nDqZ,  DsF: .kFweqqqq594342<2<1<,=,*:**o >>FF",
"Ft nD4S- >DkF> .xFeqq09094822<1<1;,-,*$*O  >>7FF",
"Fi nD3Zs >DkF, .kFwq4q4q4342<2<<;,=,*:o  >>>>6FF",
"Fl D22Nj >D4F-  MFe0909482221;1;,-,*O  >>>>666FF",
"Fi D22ms nD9A,  Dkqq594342<2<1<,=,*  >>>>666FFFF",
"FF D2  t nD2S- >Dk9094822<1<1;,-,  >>>>666FFFFFF",
"FF   >>i nD3Zs >Ds494342<2<<;,=  >>>>6666FFFFFFF",
"FF66>66h D22Nj >D09482221;1;,  >>>>6666FFFFFFFFF",
"FFFnnnnt D<3ms nDq4342<1<,<  >>>>6666FFFFFFFFFFF",
"FFFFFFFn D1  t nD4822<1<,  >>666666FFFFFFFFFFFFF",
"FFFFFFFF   >>i nD342<2<  >>>66666FFFFFFFFFFFFFFF",
"FFFFFFFF66666h D22221  >>>>6666FFFFFFFFFFFFFFFFF",
"FFFFFFFFFnnnni D22<  >>>>6666FFFFFFFFFFFFFFFFFFF",
"FFFFFFFFFFFFFn D2  >>66666FFFFFFFFFFFFFFFFFFFFFF",
"FFFFFFFFFFFFFF   >6FFFFFFFFFFFFFFFFFFFFFFFFFFFFF"
};
