/* XPM */
static char *magick[] = {
/* columns rows colors chars-per-pixel */
"48 48 156 2",
"   c Gray0",
".  c #001000",
"X  c #100000",
"o  c #100010",
"O  c #101000",
"+  c #101010",
"@  c #201010",
"#  c #201020",
"$  c #301020",
"%  c #202010",
"&  c #302010",
"*  c #202020",
"=  c #203030",
"-  c #302020",
";  c #302030",
":  c #303020",
">  c Gray19",
",  c #303041",
"<  c #304130",
"1  c #304141",
"2  c #412020",
"3  c #412030",
"4  c #413020",
"5  c #413030",
"6  c #513030",
"7  c #613030",
"8  c #413041",
"9  c #513041",
"0  c #613041",
"q  c #414130",
"w  c #514130",
"e  c #614130",
"r  c #615130",
"t  c #414141",
"y  c #414151",
"u  c #415151",
"i  c #514141",
"p  c #514151",
"a  c #515141",
"s  c #515151",
"d  c #515161",
"f  c #516161",
"g  c #614141",
"h  c #615141",
"j  c #615151",
"k  c #714141",
"l  c #714151",
"z  c #715141",
"x  c #715151",
"c  c #615161",
"v  c #616151",
"b  c #716141",
"n  c #716151",
"m  c #616171",
"M  c #617161",
"N  c #617171",
"B  c #716161",
"V  c #717161",
"C  c #717171",
"Z  c #616186",
"A  c #717186",
"S  c #865141",
"D  c #865151",
"F  c #965151",
"G  c #866141",
"H  c #866151",
"J  c #867151",
"K  c #966151",
"L  c #9e6151",
"P  c #967151",
"I  c #9e7151",
"U  c #866161",
"Y  c #867161",
"T  c #867171",
"R  c #966161",
"E  c #967161",
"W  c #9e7161",
"Q  c #967171",
"!  c #9e7171",
"~  c #867186",
"^  c #867196",
"/  c #968251",
"(  c #9e8251",
")  c #868271",
"_  c #968261",
"`  c #9e8261",
"'  c #968271",
"]  c #9e8271",
"[  c #9e9261",
"{  c #9e9271",
"}  c #ae8261",
"|  c #ae8271",
" . c #ae9271",
".. c #868286",
"X. c #868296",
"o. c #86829e",
"O. c #869296",
"+. c #9e8286",
"@. c #968296",
"#. c #969286",
"$. c #9e9286",
"%. c #969296",
"&. c #96929e",
"*. c #9e92ae",
"=. c #9ea286",
"-. c #96a296",
";. c #96a29e",
":. c #9ea296",
">. c #9ea29e",
",. c #9eae9e",
"<. c #9ea2ae",
"1. c #9eaeae",
"2. c #ae8286",
"3. c #ae9286",
"4. c #ae9296",
"5. c #be9286",
"6. c #aea286",
"7. c #aeae86",
"8. c #aea296",
"9. c #aea29e",
"0. c #aeae96",
"q. c #aeae9e",
"w. c #bea296",
"e. c #bea29e",
"r. c #beae96",
"t. c #beae9e",
"y. c #bebe9e",
"u. c #aea2ae",
"i. c #aeaeae",
"p. c #aea2be",
"a. c #aebeae",
"s. c #beaeae",
"d. c #beaebe",
"f. c #bebeae",
"g. c #bebebe",
"h. c #becfae",
"j. c #cfbe9e",
"k. c #cfaeae",
"l. c #cfbeae",
"z. c #cfbebe",
"x. c #dfbebe",
"c. c #cfcfae",
"v. c #cfcfbe",
"b. c #cfdfbe",
"n. c #dfcfbe",
"m. c #dfdfbe",
"M. c Gray81",
"N. c #dfcfcf",
"B. c #dfdfcf",
"V. c #dfdfdf",
"C. c #dfefef",
"Z. c #efcfdf",
"A. c #efdfdf",
"S. c #efdfef",
"D. c #efefef",
"F. c None",
/* pixels */
"F.F.F.F.F.F.F.F.F.F.F.F.F.F.F.F.F.F.F.F.F.F.F.F.F.F.F.j.U m.n.7.w.8.F.F.F.F.F.F.F.F.F.F.F.F.F.F.",
"F.F.F.F.F.F.F.F.F.F.F.F.F.F.F.F.F.F.F.F.F.F.F.F.y.l.y.N.0.8.8.w._ ] _ F.F.F.F.F.F.F.F.F.F.F.F.F.",
"F.F.F.F.F.F.F.F.F.F.F.F.F.F.F.F.F.F.F.F.l.y.k.j.n.r.w.6.2.' Q H 0 w ] { F.F.F.F.F.F.F.F.F.F.F.F.",
"F.F.F.F.F.F.F.F.F.F.D.S.C.S.D.S.C.S.D.S.C.S.D.S.C.S.D.S.C.S.D.S.C.S.c.v.F.9 F.F.F.F.F.F.F.F.F.F.",
"F.F.F.F.F.F.F.F.F.F.F.D.S.D.S.D.S.D.S.A.S.A.A.B.A.B.A.B.N.n.N.v.x.v.n.c.x.w 7   F.F.F.F.F.F.F.F.",
"F.F.F.F.F.F.F.F.F.F.F.S.D.S.C.S.V.A.B.V.B.V.B.N.B.N.v.M.v.z.f.s.i.i.,.p.O.0            .F.F.F.F.",
"F.F.F.F.F.F.F.F.l.y.+.=.S.D.Z.B.N.n.n.n.N.v.x.v.z.f.l.f.s.q.9.:.%.O.^ X.y       2 ` 5.- F.F.F.F.",
"F.F.F.F.F.l.y.$.=.w.6.3.c.v.c.n.v.v.v.v.c.z.h.g.a.i.i.u.;.&.O.~ N m u > =   - ] [ 3.6.- F.F.F.F.",
"F.F.F.m.3.8.w.6.3. .] _ D c.n.c.l.l.z.f.s.s.s.q.9.>.&...~ C m s y > ;   2 ` ] ` ] ` | - F.F.F.F.",
"F.N.m.N.y.9.{ ] _ ] _ D h n.f.g.f.d.a.i.1.<.;.&.O.X.A m f p 1 , =   - ] { ] _ ] { ] { - F.F.F.F.",
"n._ 7 6 n.m.F.` D z g w 6 i.u.i.u.>.u.>.&.O.^ A m f p t ; > ;   2 ` ] E W _ W ` ] ` } - F.F.F.F.",
"_       w N.v 5 w 6 : - % y 1.*.;.&.-.@.A Z f d u y = > =   - ] [ E _ E _ Q _ ] _ ] ` - F.F.F.F.",
"W   o O   m.j O $ & @ O X t X.X.@.A A M c s y < ; > ;   2 ` ] J R P E P W _ W ` W ` W - F.F.F.F.",
"_ * % # % N.s + + @ +       X.o.m c u y 1 , = , =   - ] { U J R Y E Y E E W _ W _ W _ - F.F.F.F.",
"! 4 2 - 2 m.i       2 - 0 w p y p 1 8 > ; >     2 ` ] H H H K H K H R P E P W P W ( W - F.F.F.F.",
"m.9 q 6 w N.    - - w 0     u y = , = >     - ] [ x n H n H J H J U J E P E / W / W _ - F.F.F.F.",
"n.g 7 w 0 m.  w 7 w     2 w ; > ; >     2 ` ] z D b D G H H H H K H K P K P W P W ` W - F.F.F.F.",
"m.g w 9 ) N.w         9 w   = ,     - ] { x h x n H n H H H H H J K J R P E E W ` ] _ - F.F.F.F.",
"Q Y Q F.+.m.7 6   w 7           2 ` ] g k h z z D b D H H H K H K H K P E P W ` W / W - F.F.F.F.",
"F.F.F.F.m.9 w 0   -         - ] [ g h g h x h x b D n H n H H H H U J E P E _ W _ W _ - F.F.F.F.",
"F.F.F.F.n.w 7 w Q & 7     ` ] w 0 e g r k h k z D b D b D G H G K J R P W P E P W ( W - F.F.F.F.",
"F.F.F.F.m.0 w # ' - w o { 9 w g i g g g h k h x z x b D n H H U J R J E E E J E E W _ - F.F.F.F.",
"F.F.F.F.n.w 7 @ +.% 7 O ] 6 7 e g e k g k h k z z z D z D G H H K J R J R J R P R / W - F.F.F.F.",
"F.F.F.F.m.9 w @ ' - w + [ 6 w g w g h g h k h z z x b H n H J H J H J R J U J E P E P - F.F.F.F.",
"F.F.F.F.n.w 7 @ Q & 7 O ] 6 6 w 0 e g e k h k z S z D b D H H G H H K J K P K P L P K - F.F.F.F.",
"F.F.F.F.m.0 w # ' 5 w # { 6 w g i g g g h k h x b D n D n H n H H H H R J K P E P W / - F.F.F.F.",
"F.F.F.F.n.n 7 @ Q q 7 @ 2.6 7 w 0 e g g k h k z x z D b D b D G H H K H K P L P W P W - F.F.F.F.",
"F.F.F.F.m.Q w @ ' i w # { 9 w g w g h g h x h x z x b x b x n H H H J P P E P W P W ` - F.F.F.F.",
"F.F.F.F.n.{ 7 @ U a 7 % 3.6 7 w 0 e g r k z k z z z z z D b D G K K K P K P I P W I W -   F.F.F.",
"F.F.F.F.F.8.w # n j w $ 6.9 w 0 i g g g h k h x h x h x b H H H J K J R P R P E _ W ` -     F.F.",
"F.F.F.F.F.r.7 & x v 7 - 4.w 0 e g e g e g r k h k z S z D G F G K G K K K P W P W P l         F.",
"F.F.F.F.F.N.w - h B w - 6.9 w g w g h g h g h z h x b H b H H H H H J K P E / W h             F.",
"F.F.F.F.F.m.7 - g Y 7 - w.6 0 e g e g e g e k h z z D G D G K G K H K P L P k                 F.",
"F.F.F.F.F.N.V 3 a T w 3 0.6 w g h g w g h k h x b D b D H D H H J K J R g                     F.",
"F.F.F.F.F.m.Q 4 9 ' 7 - w.6 7 w g w g e k h k z D z D G D G D G K J 7                       F.F.",
"F.F.F.F.F.N.=.5 q #.w - 0.6 w w w g r g h z z z z D b D b H H H w                       F.F.F.F.",
"F.F.F.F.F.F.e.4 3 $.7 % e.w 7 w 7 e k r k z z z S z D G S G 2                       F.F.F.F.F.F.",
"F.F.F.F.F.F.m.6 : 8.w # y.g w g h g h k h z h z z D h D -                       F.F.F.F.F.F.F.F.",
"F.F.F.F.F.F.n.6 - 8.7 @ l.e g e k r k h k r k z k z 2                       F.F.F.F.F.F.F.F.F.F.",
"F.F.F.F.F.F.m.0 % t.w @ h.g w g r g h k h g h z -                       F.F.F.F.F.F.F.F.F.F.F.F.",
"F.F.F.F.F.F.n.w @ y.7 O x.e 0 e k e k r k z 2                       F.F.F.F.F.F.F.F.F.F.F.F.F.F.",
"F.F.F.F.F.F.m.9 + n.w + b.g e g g k w k -                       F.F.F.F.F.F.F.F.F.F.F.F.F.F.F.F.",
"F.F.F.F.F.F.n.6 o m.7 O n.e g e g r 2                       F.F.F.F.F.F.F.F.F.F.F.F.F.F.F.F.F.F.",
"F.F.F.F.F.F.m.0 . N.w o m.g h k -                       F.F.F.F.F.F.F.F.F.F.F.F.F.F.F.F.F.F.F.F.",
"F.F.F.F.F.F.n.    m.    n.e 2                       F.F.F.F.F.F.F.F.F.F.F.F.F.F.F.F.F.F.F.F.F.F.",
"F.F.F.F.F.F.F.F.F.  5 6                         F.F.F.F.F.F.F.F.F.F.F.F.F.F.F.F.F.F.F.F.F.F.F.F.",
"F.F.F.F.F.F.F.F.F.F.                        F.F.F.F.F.F.F.F.F.F.F.F.F.F.F.F.F.F.F.F.F.F.F.F.F.F.",
"F.F.F.F.F.F.F.F.F.F.F.F.                F.F.F.F.F.F.F.F.F.F.F.F.F.F.F.F.F.F.F.F.F.F.F.F.F.F.F.F."
};
