/* XPM */
static char *magick[] = {
/* columns rows colors chars-per-pixel */
"56 46 12 1",
"  c Gray100",
". c #bebabe",
"X c #000010",
"o c #beb6be",
"O c #aeaaae",
"+ c #aea6ae",
"@ c #c7bac7",
"# c #5155ff",
"$ c #aeaeae",
"% c #ff1441",
"& c #9e9a9e",
"* c Gray0",
/* pixels */
"                                                       .",
" ......................................................X",
" ......................................................X",
" ...o..o..o..o..o..o..o..o..o..o..o..o..o..o..o..o..o..X",
" O...O...+...O...O...+...O...O...+...O...O...+...O...O.X",
" ..o..@o...@o..@o.@o...@o..@o.@o...@o..@o.@o..@o.@o.@o.X",
" O.O.+.O.O.O.O.O.O.O.O.O.O.O.O.O.O.O.O.O.O.O.O.O.O.O.O.X",
" .....O...o...+.......+...o...O...o...+.......O.......OX",
" O.+.+.O.+.O.+.OoO.+.+.O.+.O.+.+.O.O.+.OoO.+.+.OoO.+.O.X",
" ...O...O...O...O...O...O...+...O.o.O...##..O...O...+..X",
" O.+.+.+.+.+.O.+.+.+.OoO.+.O.O.+.O.O.+.###.+.OoO.O.+.O.X",
" .O...O.O.O.o.O.O.O...O.O.O.o.O.O.+...####O...O.+.O...OX",
" O.+.O.+.O.O.O.+.O.+.O.+.O.O.O.+.O.O.#####.O.+.O.O.+.+.X",
" .O.+.O.O.+.O.O.O.O.+.O.O.O.+.O.O.O.##$###O.O.O.+.O.O.OX",
" O.O.O.+.O.O.+.O.+.O.O.+.+.O.O.+.+.##O.###.O.O.O.O.+.O.X",
" OO.OOO.OOO.OO+.OOO.OOO.OOO.OOO.OO##OO$###O.OO+.OOO.OOOX",
" O.O.+.O.O.+.O.O.O.+%%.O.O.+.O.O.##O.O.###.O.O.O.+.O.O.X",
" OOOOOOOOOOOOOOOOOOO%%+OOOOOOOOO##OOOO$###OOOOOOOOOOOOOX",
" O.O.O.O.+.O.O.O.+.%%%%O.O.O.+.###########.O.O.+.O.O.O.X",
" OOOOOOOOOOOOOOOOOO%%%%OO+OOOO##$O$O$O$###OOOOOOOOO+OOOX",
" OOO.+OO.OOO.+OO.O%%%%%%.OOO.##O.OOO.OO###$O.OOO.OOO.OOX",
" OOOOOOOOOOOOOOOOO%%%%%%OOOO##OOOOOOOO$###OOOOOOOOOOOOOX",
" OOOOOOOOOOOOOOOO%%%%%%%%O######OOOOO#######OOOOOOOOOOOX",
" OOOOOOOOOOOOOOOO%%%%%%%%OOOO$O$OOOOOOOOO$$OOOOOOOOOOOOX",
" &OOO&OOO&OOO&OO%%%+O%%%%%OOO&OOO&OO**OOO&OOO&OOO&OOO&OX",
" OOOOOOOOOOOOOOO%%%OO%%%%%OOOOOOOOO****OOOOOOOOOOOOOOOOX",
" $O&O&O&OOO&O&O%%%O&O&%%%%%&O&O&OO******$OO&O&O&OOO&O&OX",
" OOOOOOOOOOOOOO%%%OOO+%%%%%OOOOOO*OO*****OOOOOOOOOOOOOOX",
" &O&O&O&O&O&O&%%%&O&O&O%%%%%O&O&**O&O****&O&O&O&O&O&O&OX",
" OOOOOOOOOOOOO%%%%%%%%%%%%%%OOO***OOOO***OOOOOOOOOOOOOOX",
" &O&O&O&O&O&O%%%%%%%%%%%%%%%%&O***O&O&***&O&O&O&O&O&O&OX",
" O&OOO&OOO&OO%%%O+&OOO&+%%%%%O&***&OOO***O&OOO&OOO&OOO&X",
" &O&O&O&O&O&%%%&O&O&O&O&O%%%%%O***O&O&***&O&O&O&O&O&O&OX",
" O&O&O&O&O&O%%%O&O&O&O&O&%%%%%&***&O&O***O&O&O&O&O&O&O&X",
" &O&O&O&O&O&O&O&O&O&O&O&O&O&O&O***O&O&***&O&O&O&O&O&O&OX",
" &&O&&&O&&&O&&&O&&&O&&&O&&&O&&&***&O&&***&&O&&&O&&&O&&&X",
" &O&O&O&O&O&O&O&O&O&O&O&O&O&O&O****&O****&O*O&O&O&O&O&OX",
" &&&&&&&&&&&&&&&&&&&&&&&&&&&&&&******&*****&&&&&&&&&&&&X",
" &O&O&O&O&O&O&O&O&O&O&O&O&O&O&O&****O&O***O&O&O&O&O&O&OX",
" &&&&&&&&&&&&&&&&&&&&&&&&&&&&&&&&&&&&&&&&&&&&&&&&&&&&&&X",
" &&&O&&&O&&&O&&&O&&&O&&&O&&&O&&&O&&&O&&&O&&&O&&&O&&&O&&X",
" &&&&&&&&&&&&&&&&&&&&&&&&&&&&&&&&&&&&&&&&&&&&&&&&&&&&&&X",
" &O&&&&&&&O&&&&&&&O&&&&&&&O&&&&&&&O&&&&&&&O&&&&&&&O&&&&X",
" &&&&&&&&&&&&&&&&&&&&&&&&&&&&&&&&&&&&&&&&&&&&&&&&&&&&&&X",
" &&&&&&&&&&&&&&&&&&&&&&&&&&&&&&&&&&&&&&&&&&&&&&&&&&&&&&X",
".XXXXXXXXXXXXXXXXXXXXXXXXXXXXXXXXXXXXXXXXXXXXXXXXXXXXXXX"
};
