/* XPM */
static char *magick[] = {
/* columns rows colors chars-per-pixel */
"56 46 27 1",
"  c #fffbff",
". c #beb6be",
"X c #bebabe",
"o c Gray0",
"O c #c7bac7",
"+ c #aea6ae",
"@ c #6986be",
"# c #51718e",
"$ c #080408",
"% c Gray100",
"& c #eff3f7",
"* c #386da6",
"= c #59a2d7",
"- c #aeaeb6",
"; c #aeaaae",
": c #000808",
"> c #f7b2ae",
", c #9e9a9e",
"< c #a69ea6",
"1 c #000018",
"2 c #fff3ff",
"3 c Gray59",
"4 c #aeb2cf",
"5 c #a6a2a6",
"6 c #9696ae",
"7 c #000010",
"8 c #a6798e",
/* pixels */
"                                                       .",
" X...X...X...X...X...X...X...X...X...X...X...X...X...X.o",
" .O.O.O.O.O.O.O.O.O.O.O.O.O.O.O.O.O.O.O.O.O.O.O.O.O.O.Oo",
" X.....................................................o",
" +XO.+O.O+XO.+O.O+XO.+O.O+XO.+O.O+XO.+O.O+XO.+O.O+XO.+.o",
" O...X....      ....XX......XX......X.    ..XX...X....Oo",
" +.+O+.+O+ @@@@o@@@@@@@@@@@@@@@@@@@@@ @@@@o+.+O+.+O+X+.o",
" .O...O... @@@@o@@@@@@@@@@@@@@@@@@@@@ @oo@o.O...O....O.o",
" +.+X+.+.+ @@@@o@@#@@@#@@@#@@@#@@@#@@ @o @o+.+X+.+X+.+.$",
" .+...+OX.%@#@@o@@@@@@@@@@@@@@@@@@@@@&@@@@oO..+O..+O.X+o",
" +X+O+.+.+ @@@@o@@@@@@@@@@@@@@@@@@@@@%@@@@o+.+.+.+.+.+.$",
" .+.+.+.+. @@@@o@@@@@@@@@@@@@@@@@@@@@&@@@@o.+O+.+O+.+O+o",
" +O+.+O+.+ @@@@o@@@*=*@@*=*@@*=*@@@@@&@@@@o+.+.+.+.+.+.o",
" .+.+++.+-&@@@@o@@@@@@@=@@@@=@@@@=*@@ @#@@o.+++.+++O+++o",
" +.+X+.+X+ @@@@o@@@@@@@*@@@@*@@@@@@@@&@@@@o+O+X+O+.+.+Xo",
" ++++++++;&@@@@o@@@@@@@@@@@@@@@@@@@@@&@@@@o++++++++++++o",
" +X+.+O+.+ @@@@o@@*=@@@@@@@@@@@@@@@@@&@@@@o+.+.+.+.+.+Xo",
" ++++++++;&@@@@:@@@@@#*=@@@#@@=*@#=@@&@@@@o++++++++++++o",
" +.+O+.+X+ @#@@o@@@@@@@@@@=*=*@@@@*@@&@@@@o+X+.+.+O+.+Oo",
" +++++++++ @@@@@& &&&   &&       % %&@@@@@o++++++++++++o",
" +++.+++.+%@@@@@@@@@@@@@@@@@@@@@@@@@@@@@@@o+X+++O+++.++o",
" ++++++++-&@@@@@@@@@@@@@@@@@@@@@@@@@@@@@@@o++++++++++++o",
" +++++++++ @@@@@@@@@@@@@@@@@@@@@@@&&&&&&&&          +++o",
" +++++++++&=*@=*=@#@@@=*@@@@@=*@@&%>>>>>>>>>>>>>>>>> ++o",
" ,+++,+++, @@@@@@@@@@*@=@@*=*@@@@&>>>>>>>>>>>>>>>>>>>o+o",
" +++++++++ @@@@@@@&&&  & &   %  :%>>      <:<      >>o+o",
" ++,+++,+, @#@@@@& %          %%o@%>>     ooo     >>:++o",
" +++++++++ @*=*@@ %             o@ >>     ooo     >>1++o",
" ,+,+,+,+, @@@@@@&%.@@@. X X X Xo@@%>>    ooo    >>o;<+o",
"2+,+++,++- @@@@@@%.%@@#   .   . o@#%>>    :oo    >>o++,o",
" ,+,+,+3+,2@@@@@@& .@@@X X . . .o@@@%>>   ooo   >>:<+,+o",
"2+++,+++,+&@@@@@@%X.@@@.X..X.X.X1@@# >>   ,o,   >>o+,++o",
" ,+,<,+,+, @@@@@@&X.@#@X X.. .O.o@@@@ >>  .o.  >>1;<+,+o",
"2+,+,+,+++&@@@@#@ X4@@@...O.O...o@@@@  >>  ,  >>o+,+,+,o",
" ,+,+,<,+, @@@=@@&X-@@@-.+.+.+O+o@@@@ %>> ,o, >>1<+,+,+o",
"2,,+,+,+,-&@@@*@@ -5---+++++++++o@@@@ # >>ooo>>o,+,+,+,o",
" ,<,+,+,+,+ @@@@1 +,+66,-,+,+,+,o@@@: @ >><o,>>1+,+,<,+o",
"2,<<,,,+,,3-o:o:o ooooooooooooooooooo;7: >> >>o+,,,+,,,o",
" ,+,+8+6+,+,+,+,+,+,+,+,+,+,+,+,+,+<+,+, >>>>>1<+,<,+,+o",
"2,,,,6,,,,,3,,,,,,,,,,,,,,,,,,,,,,,,,,,,, >>>o,,,,,,,,,o",
" ,,,<<+,<,,,<,+,+3,,+,+,+,,,+,+,+,,,+,+,+,o1:++,<,,,<,+$",
"268,,,,,<8,,,,,,,,,,,,,,,3,3,,,,,,,,,,,3,,,<,,,,<68,,,,o",
" ,+,,8+,,6+,,,<,,8+6,8+6,,<<3,<,3,<,3,<<,,+,,,<,,,+<3,+$",
"2,,,,,6,,,,,68,,6,,,,6,,8,,68,,68,,68,,3,3,,3,,,,,3,,,,o",
" ,,3+,,8+,8<+,<3+,,,<<,,+<,,+<,,+<,,+<,,<<3,+,86+,86+,,o",
".o$$$$:::::oooo$$$$$$ooooo$$oo$$oo$$oo$$$$$$$:$$$$$$$$$o"
};
