/* XPM */
static char *magick[] = {
/* columns rows colors chars-per-pixel */
"56 46 25 1",
"  c Gray100",
". c #beb6be",
"X c #bebabe",
"o c #000010",
"O c #c7bac7",
"+ c #aea6ae",
"@ c #aeaaae",
"# c #79869e",
"$ c #717986",
"% c #aeaeb6",
"& c Gray0",
"* c #fffbff",
"= c #aeb2cf",
"- c #080408",
"; c #6986be",
": c #ff1441",
"> c Magenta",
", c #9e9a9e",
"< c #a69ea6",
"1 c Gray59",
"2 c #ff0c49",
"3 c #fff3ff",
"4 c #000018",
"5 c #9696ae",
"6 c #a6798e",
/* pixels */
"                                                       .",
" .X.X.X.X.X.X.X.X.X.X.X.X.X.X.X.X.X.X.X.X.X.X.X.X.X.X.Xo",
" .O..O.O..O..O.O..O..O.O..O..O.O..O..O.O..O..O.O..O..O.o",
" ..O....O..O....O..O....O..O....O..O....O..O....O..O...o",
" +...+...+...+...+...+...+...+...+...+...+...+...+...+Oo",
" .O.O.O.O..O.O.O..O.O.O.O..O.O.O..O.O.O.O..O.O.O..O.O..o",
" @.+.+.+.+.+.+.+.+.+.+.+.+.+.+.+.+.+.+.+.+.+.+.+.+.+.+.o",
" ...O.+..O..O.+.O..O.X+#####O.+..O..O.+..O..O.+..O..O.+o",
" @O+.+.+O+.+.+.+.+.+.$O+.%.+#&O+.+.+.+O+.+.+.+O+.+.+.+Oo",
" ...+.O.+.X.+O.O+.OX#*..##..+#&.+.OX+...+..O+...+X.O+..o",
" +.+.+.+.+.+.+.+.+.#*+.%$o.+.+#&O+.+.+O+X+.+.+O+.+.+.+Xo",
" X+O.O+.+O+.O.+.+X+# .##%X##X.#&+.+.O.+.+O+.O.+.+O+.O.+o",
" +.+.+.+.+.+.+O+.+X# +#o.+#o.%#&.+.+.+.+.+.+.+.+.+.+.+.o",
" .+.+X+O+.+O+.+.+.+# =#&+.#&+.#&+O+.+.+O+.+.+X+O+.+.+O+o",
" @.+.+.+.+.+.+.+O+.# +#&.+#-.+#&X+&#O+.+.+O+.+.+.+O+.+.o",
" ++O+++.+++X+++.++%# +#&+%#&+%#&++&&#++.+++O+++.+++.+++o",
" +.+.+O+.+O+.+O+.+.+#+.%.+.%.$o+X+.&&#X+.+.+.+O+.+X+.+.o",
" +++++++++++++++++++%####;$##-++++++&&###++++++++++++++o",
" @.+.+.+.+.+.+.+.+.+.%&&&&-o&%&#.+X+X&   &.+.+.+O+.+O+.o",
" +++++++++++++++++++++++++++++&&#+++# ++@ -++++++++++++o",
" +++O+++O+++.+++O+++.+++X+++.++&&#+# +++.+ &.+++.+++.++o",
" +++++++++++++++++++++++++++++++&&# ++++++@ +++++++++++o",
" @++++++++++::::::::+:::::::::+::::::++++++++++++++++++o",
" +++++++++++:>>>>>>:+:>>>>>>>:+:>>>>>:+++++++++++++++++o",
" ,+++,+++,++:>::::::&::::>::::&:>::::>:++,+++,+++,+++,+o",
" +++++++++++:>:&&&&&&&+&:>:&&&&:>::&::>&+++++++++++++++o",
" ++,+,+,+++,:>:&&&&&&&+&:>:&&&&:>:&&&:>&&++#+,+,+++,+,+o",
" +++++++++++:>:&&+++++++:>:&&++:>:&&+:>&&+#&+++++++++++o",
" ,+,+,+,+,+,:>:&&,+,+,+,:>:&&,+:>:&&+:>&&#&&+,+,+,+,+,+o",
" +++++++++++:>::::++++++:>:&&++:>::&:>:&&&+&+++++++++++o",
" ,+,+,+,+,+,:>>>>:+,+,+,:>:&&,+:>>>>>:&&&,+,+,+,+,+,+,+o",
"*+,+++,+++,+:>::::&&++,+:>:&&+,:>::::&&&&+,+++,+++,+++,o",
" ,+,+,+,+,+,:>:&&&&&+,+,:>:&&,+:>:&&&&&&+,+,+,+,+,+,+,+o",
"*+,+,<,<,+1+:>:&&&&&,+,+:>:&&+,:>:&&&&&+,+,+,+,<,+,<,+,o",
" ,+,+,+,+,+,2>:&&,+,+,+,:>:&&,+:>:&&+,+,+,+,<,+,+,+,+,+o",
"3,,<,,,+,,,+:>:&&,,+,,1+:>:&&,,:>:&&,,,+,,,+,,,+,,,+,,,o",
" ,+,+,+,+,<,:::&&,+,+,+,2::&&,+:::&&+,+,<,+,<<<,+,<,+,<4",
"3,,,,,,56,,,,,&&&,,,,,,,1,&&&,,,,&&&,,,,,,,,,,,,<6,,,,,o",
" ,<,<<<<+,+,<,&&&,<,<,<,+,&&&,<,+&&&+,<,<<<,<<<<<<+,<<<o",
"3,,,<6,,,,,,,,,,,,,,,,,,,,,,,,,,,,,,,,,,,,,,<6,,,,1<,,,o",
" ,,,+5,,<,65+,,,<,,,<<,,<,,,+,,,<,,,<,,6+,65+5,,<<65<,,o",
" 56,,,,,,5,,,,,,,<6,,56,,,,,,1,,,,,,,,,5,,5,,,,,,5,,,,,o",
" ,+5,65,,,+,,65,,,+5,,,,,6+,,65,,,<,,6<,,,+,,65,6,+,,,,o",
"*,,,,,<6,,6,,,,,,,,<6,,,,5,,,5,,56<,,5,,56,,,,,5,,,<6,,o",
" ,,,,,,,5,5,,,65,65,,,65,,,6<,,,,,,65,,,,5,,,,,,,,,,5,,o",
".ooooooooooo44ooooooo44oo4o4ooooooo4ooooooooooooo4oooooo"
};
