/* XPM */
static char *magick[] = {
/* columns rows colors chars-per-pixel */
"56 46 22 1",
"  c Gray100",
". c #bebabe",
"X c Gray0",
"o c #beb6be",
"O c #aeaaae",
"+ c #aea6ae",
"@ c #c7bac7",
"# c #6986be",
"$ c #080408",
"% c #9e9a9e",
"& c #f7b2ae",
"* c #717986",
"= c #aeaeb6",
"- c #fff3ff",
"; c #bec3cf",
": c #b6aeb6",
"> c #aeb2cf",
", c #9696ae",
"< c #386da6",
"1 c #000010",
"2 c #000018",
"3 c #a69ea6",
/* pixels */
"                                                       .",
" ......................................................X",
" ......................................................X",
" ...o..o..o..o..o..o..o..o..o..o..o..o..o..o..o..o..o..X",
" O...O...+...O...O...+...O...O...+...O...O...+...O...O.X",
" ..o..@o..@o..@o..@o..@o..@o..@o..@o..@o..@o.....@o.@o.X",
" O.O.+.O.O.O.O.O.+.O.O.O.O.O.+.O.O.O.O.O.+.O.+.+.O.O.O.X",
" .....O.......+.......O..o....#XXX#...+.......O.......OX",
" O.+.O.+.+.+.O.O.+.+.O.+.O.+.#..#XX#.+.O.+.+.O.+.+.+.O.X",
" ...Oo..O...O.o.O...Oo..O...OX ##XXXO...O...Oo..O...+..X",
" O.+.O.O.+.O.O.O.+.O.O.O.+.O.X##$XXX.OoO.+.O.O.+.O.O.O.X",
" .O...+.O.Oo..+.O.+...+.O.+..XXXXX#X..O.O.+...O.O.Oo..OX",
" O.O.O.O.O.O.O.O.O.O.+.O.O.O.#XX##$#.+.O.O.OoO.O.+.O.+.X",
" .O.+.O.+.O.O.+.O.+.O.O.+.O.+.#XX$#.O.O.+.O.O.+.O.O.O.OX",
" O.O.O.+.O.+.O.O.+.O.O.O.O.+.O%.##.+.O.O.O.O.O.O.+.O.O.X",
" O+.OOO.OOO.OO+.OOO.OO+.OOO.OO%&#$O.OO+.OO+.OO+.OOO.OOOX",
" O.O.+.O.O.+.O.O.O.+.O.O.+.O.O%.#$.O.O.O.O.O.O.O.O.+.O.X",
" OOOOOOOOOOOOOOOOOOOOOOOOOOOOO%&#XO+OOOOOOOOOOOOOOOOOOOX",
" O.O.O.O.+.O.O.O.O.O.O.O.O.O.O%.#$.O.O.+.O.+.O.+.O.O.O.X",
" OOOOOOOOOOOOOOOO+OOOO+OOOOOOO%&#XOOOOOOOOOOOOOOOOOOOOOX",
" OOO.OOO.OOO.+OO.OOO.OOO.OOO.O%.#$OO.OOO.OOO.OOO.OOO.+OX",
" OOOOOOOOOOOOOOOOOOOOOOOOOOOOO%&#XOOOOOOOOOOOOOOOOOOOOOX",
" OOOOOOOOOOOOOOOOOOOOOOOOOOO%%%#$X##%OOOOOOOOOOOOOOOOOOX",
" OOOOOOOOOOOOOOOOOOOOOOOOOO%.      .#OOOOOOOOOOOOOOOOOOX",
" %OOO%OOO%OOO%OOO%OOO%OOO%O%   ...%%$%OOO%OOO%OOO%OOO%OX",
" OOOOOOOOOOOOOOOOOOOOOOOOOO%  . ..%%XOOOOOOOOOOOOOOOOOOX",
" OO%O%O%OOO%O%O%OOO%O%O%OOO%   ...%%X%O%OOO%O%O%OOO%O%OX",
" OOOOOOOOOOOOOOOOOOOOOO%#################OOOOOOOOOOOOOOX",
" %O%O%O%O%O%O%%%%%%%%%O*     & . . . ..%$%O%O%O%O%O%O%OX",
" OOOOOOOOOOOOO#&   .XO=#.   & . . . ..%%XOOOOOOOOOOOOOOX",
" %O%O%O%O%O%%###############################%%O%O%O%O%OX",
" O%OOO%OO+%=*  . . . . @ . . . . . . . . ...XO%OOO%OOO%X",
" %O%O%O%O%%*- . . . . . . . . . . . . . . ..$%O%O%O%O%OX",
" O%O%O%O%=#  . . . . . . . . . . . . . . ...XO%O%O%O%O%X",
" %O%O%O%O%#######*####*#########*###*####*##X%O%O%O%O%OX",
" %%O%%%O%%#..O.O;=:OO:==OOOOOOO:=OO:=OOO:=:$#%%O%%%O%%%X",
" %O%O%O%O%%X.#%#%*=*=*>*,*=*=*=*><+#%#%#%#%X#%O%O%O%O%OX",
" %%%%%%%%%%#X.$%1,2,2,1,232,2,1,$3$%$%$%$%XX%%%%%%%%%%%X",
" %O%O%O%O%O%#$#$#$#$#X#$#X#X#$#$#$#X#X#X#XX#O%O%O%O%O%OX",
" %%%%%%%%%%%%#XXXXXXXXXXXXXXXXXXXXXXXXXXX$#%%%%%%%%%%%%X",
" %%%O%%%O%%%O%%%%%%%%%%%%%%%%%%%%%%%%%%%%%%%O%%%O%%%O%%X",
" %%%%%%%%%%%%%%%%%%%%%%%%%%%%%%%%%%%%%%%%%%%%%%%%%%%%%%X",
" %%%%%%%%%%%%%%%%%%%%%%%%%%%%%%%%%%%%%%%%%%%%%%%%%%%%%%X",
" %%%%%%%%%%%%%%%%%%%%%%%%%%%%%%%%%%%%%%%%%%%%%%%%%%%%%%X",
" %%%%%%%%%%%%%%%%%%%%%%%%%%%%%%%%%%%%%%%%%%%%%%%%%%%%%%X",
".XXXXXXXXXXXXXXXXXXXXXXXXXXXXXXXXXXXXXXXXXXXXXXXXXXXXXXX"
};
