/* XPM */
static char *Gimp2[] = {
/* width height num_colors chars_per_pixel */
"    48    60       39            1",
/* colors */
". c #020204",
"# c #5c7299",
"a c #9f9781",
"b c #a1b4cb",
"c c #b2c8e4",
"d c #ccdbec",
"e c #333334",
"f c #e0d9c5",
"g c #4e4c45",
"h c #e7f1f9",
"i c #7d7666",
"j c #5e6a7a",
"k c #eff1f5",
"l c #6f85a4",
"m c #8493ab",
"n c #090808",
"o c #f1f7fc",
"p c #728297",
"q c #a9a7a1",
"r c #c0b9a7",
"s c #61625f",
"t c #91a2b8",
"u c #8a8473",
"v c #cfcbbd",
"w c #5a574e",
"x c #fdfefc",
"y c #b2c2d7",
"z c #110e0f",
"A c #d5e7f9",
"B c #3f4041",
"C c #dee6ef",
"D c #b2b7bc",
"E c #c2cfdf",
"F c #25272b",
"G c #535d70",
"H c #6b798f",
"I c #afa58a",
"J c #716b5c",
"K c #938e7b",
/* pixels */
"xxxxxxxxxxxxxxxxxxxxxxxxxxxxxxxxxxxxxxxxxxxxxxxx",
"xxxxxxxxxxxxxxxxxxxxxxxxxxxxxxxxxxxxxxxxxxxxxxxx",
"xxxxxxxxxxxxxxxxxxxxxxxxxxxxxxxxxxxxxxxxxxxkxxxx",
"xxxxxxxxxxxxxxxxxxxxxxxxxxxxxxxxxxxxxxxxxxxvxxxx",
"xxxxxxxxxxxxxxxxxxxxxxxxxxxxxxxxxxxxxxxxxxfrxxxx",
"xxxxxxxxxCxxxxxxxxxxxxxxxxxxxoooooxxxxxxxkaqoxxx",
"xxxxxxxxxkfxxxxxxxxxoooooooooohhhhoooxxxxvKIkxxx",
"xxxxxxxxxoffxxxxxoooohhhhhhhCCAAAAhhoxxxvKuqoxxx",
"xxxxxxxxxxfvvkoohhhhhhAAAAAAAAAAAACkooxfKuuqkxxx",
"xxxxxxxxxokvrrdAAAAAAAdddAAAAAACCCCCCCvauuuqkxxx",
"xxxxxxxooohfrIIydddEEEEddAAAdAAddddddDKuiiirkxxx",
"xxxxxxoooohCrIaKbccccEddEEdEEEEccccyqKuuiiiyhoxx",
"xxxxxoooohAAvrIKKabcEEEEccccccyyyDqaKuuiiJuEdkxx",
"xxxxxooohhAdvrIaKKKqDyccccyyybbbqKKuuuiiJJKDEdkx",
"xxxxoohhCAdEyDIIaKKKKaqrDbqqaKKuuuuuiiiiJimtDdhx",
"xxxohhCAAdEddvrIIaaqrrqaKKKuuiiiiiiJJJJJiHlmbdhx",
"xxxohCAddEdoxxxraIkxxxxCKKKuiiiJJJJJJJJJi#lmbdhx",
"xxodcEEdddoxxxxxIxxxoxxxCKuuiJJJsswwwsJJjHlmbdkx",
"xoDJwgjbEfxxoqqxkxxxxxxxxruuiJJswwgwwssGjHlmDCkx",
"xviaaseBKfxxas.DxxxxfagfxviuiJsswgggwsgGjHltyCox",
"xpqxkaBFBaxx...uxxxxDk.exriiJJswgggggegG#pmtcCox",
"kwakfuBeBsrxqFuIfxxkBB.FoIiiJswwgggwBegGHlmbEkxx",
"CBJqKwBgwsuIIIIIakxxi..aviiiJswwggggeeGjpmtydoxx",
"CBgJsBgwsiiKaaaaaafoxvrvuiiJJswwgggBFBG#ltbECoxx",
"xgegggwJiuiuKKaaaKaaaIauiiswswwgggweFBGHmbydkxxx",
"xmBBwsJiuaiiiuKKKKKuuuiiiJBwwwgggwgFegjptyECoxxx",
"xdJwsJiuaaJJJiuKKuuuuiiiiBBswggggweeBGHmDcdhooxx",
"xoypiuKaquwsJJiuiiiiiiiseBJuwgggweFegjmbcEdhkoxx",
"xxCEtKaqKswwssJJJJJiJwBFBsKawggwBFeBGpbEEEdCoxxx",
"xxooCvaKissssJJiiJwBeFFBsuquggwBFeBgjtEEEEChoxxx",
"xxxohCEKweeeeezzn.zFeBsJuKugggFFeBgGpbEEEdCoxxxx",
"xxxohhCdDuweznnnzFegwJuKKiwBeFFeBgGptyccdCCoxxxx",
"xxxkhCCddEDtpGBBBwsJiKKJBFFFFeBgG#ltbbyECChoxxxx",
"xxxkCddddEyDqmHswBBeeeeeeeeBBgs#pmtbbbcddCkxxxxx",
"xxxkddddEEyDqtlHjGwggBBBBBgwGjpmttbbbcdddCxxxxxx",
"xxxoCdddEcDbttmppHjjjsGGGjjHplmtttbbbcddCoxxxxxx",
"xxxxkCCdEcybbttmlHHHHHHHppplmmmtttbycEdCoxxxxxxx",
"xxxxxxohCdEcybbttmmmmmmmmmmmmttbbycEdCChoxxxxxxx",
"xxxxxxxxohCdEEccyybbbbbbbttbbbycEEddChhhoxxxxxxx",
"xxxxxxxxxohCAAdEEEcccccccyyccEddACCCChhhooxxxxxx",
"xxxxxxxokhCChCCdEEEddddEEddddCChhhhhhhkkooxxxxxx",
"xxxxxxohhhhhhhhhCCACCCCAChhhhkkkhkkkkoooxxxxxxxx",
"xxxxxxooooooxxxxhEooookkkoookhkkooooxxxxxxxxxxxx",
"xxxxxxxhEtttyCxxl#Exokkhkoookooooxxxxxxxxxxxxxxx",
"xxxxxxy#lyEy#bxxllkxxooooxxxxxxxxxxxxxxxxxxxxxxx",
"xxxxxt#txxxx#Exxxxxxxxxxxxxxxxxxxxxxxxxxxxxxxxxx",
"xxxxy#lxxxxxtCxEbyxxCytxCtbxkytExxEbykbtCxxxxxxx",
"xxxxl#yxxxxxxxyl#yxCt#mtt##bmm##xym#lmm#lxxxxxxx",
"xxxC##kxxxxxxxxt#ExxC#lkxt#txx##xxy#yxxm#Exxxxxx",
"xxxE##xxxyttttxt#xxxE#bxxt#kxk#mxxt#Exxt#Exxxxxx",
"xxxE##xxxxb#txx#lxxxt#Exx##xxE#bxxm#xxxt#Cxxxxxx",
"xxxk##Cxxxt#Exk#txxxt#kxx#mxxb#Exx##xxx#lxxxxxxx",
"xxxxb#lkxxl#kxE#txxx##xxE#txxt#ExC#txxy#Cxxxxxxx",
"xxxxxb##tt#mxxE#ltCk#mxxy#yxxl#mtE#lEblExxxxxxxx",
"xxxxxxkEEExxxxxEExxkECxxCEkxxkECxb#yEExxxxxxxxxx",
"xxxxxxxxxxxxxxxxxxxxxxxxxxxxxxxxxt#Cxxxxxxxxxxxx",
"xxxxxxxxxxxxxxxxxxxxxxxxxxxxxxxxkl#Cxxxxxxxxxxxx",
"xxxxxxxxxxxxxxxxxxxxxxxxxxxxxxxxttttCxxxxxxxxxxx",
"xxxxxxxxxxxxxxxxxxxxxxxxxxxxxxxxxxxxxxxxxxxxxxxx",
"xxxxxxxxxxxxxxxxxxxxxxxxxxxxxxxxxxxxxxxxxxxxxxxx"
};
