/* XPM */
static char *magick[] = {
/* columns rows colors chars-per-pixel */
"50 58 64 1",
"  c #181921",
". c #1e1f29",
"X c #272939",
"o c #3e3624",
"O c #373135",
"+ c #2f3042",
"@ c #38384d",
"# c #3e3e55",
"$ c #4a4136",
"% c #524538",
"& c #584c3e",
"* c #654e37",
"= c #4c4844",
"- c #434258",
"; c #544d5d",
": c #555358",
"> c #4b4b65",
", c #56546f",
"< c #5f596b",
"1 c #5a5a77",
"2 c #625647",
"3 c #6c5948",
"4 c #6c5e52",
"5 c #625f65",
"6 c #70665c",
"7 c #776857",
"8 c #63617c",
"9 c #6c687e",
"0 c #7a6f63",
"q c #7d796d",
"w c #75718a",
"e c #7a7787",
"r c #83715e",
"t c #86796a",
"y c #80747c",
"u c #847f76",
"i c #807a8c",
"p c #908271",
"a c #998c7f",
"s c #888684",
"d c #908b82",
"f c #9c9386",
"g c #979694",
"h c #8282a0",
"j c #8e8ab4",
"k c #a69588",
"l c #ad9d8d",
"z c #a29d94",
"x c #a4a29c",
"c c #bba99d",
"v c #b0a9a0",
"b c #b4afa6",
"n c #bcb0a2",
"m c #bbbab8",
"M c #c5bbac",
"N c #c9c4bb",
"B c #d2c5b8",
"V c #cdccc5",
"C c #d6cdc1",
"Z c #dfd8cc",
"A c #d8d5d0",
"S c #e1e0de",
"D c Gray91",
"F c #efefee",
/* pixels */
"DDFFFFDDFFDFDSZDDDFDDDDFDFFSSDFDFDDDZDDFDDDSDFFDDF",
"DDCCCCVNMmMmNMNBCCNCBCBVCCNNBNCCZZAAZACNmbbbbbmNDF",
"SB-++OO->,1,,>-#--------->>>-##@+XX+XXO-,9999ww,MF",
"DC+#<,,899999988888888889888985<<<<<2<<899999wh,7D",
"FA@52=%%%$=-$=$=$$$$$==$=%=$=$%&%%%=%%=====-==916S",
"DZ@5qASVAVAVAASSAZSAAAAAvbnAAAVAAAASDAAAAVZAAN8,6S",
"DC@8qDFDDDDDSDDFFDFDDDDDp,7ZDDDDSDDDFFFFDDDDDB8,6S",
"DV@1uSSDFDDDDSDVdbDDDDDDd#6xDFDDDSADFFFDDDDDDN5,6S",
"Dn88qDFDFDDDDDStX4ZDDSDDf-5bFFFDDN6NDFFDDSSDDN8,7S",
"Sv,;qDDDDDFDDDDc@-xDDDDSn02NDSDDb:@uDDDFDDDSDC8,6S",
"Dv@>uFFDDDSSDDFFp19SDDDZSg:AFSDv>-<&VFDFFFFDSB<;6S",
"Db+;qDDSSDDDFFFFZ02xCd989iwyfZDb,2$wSDDFFDDDDN>-7S",
"Fb@>uDFFSSFFDDDDFA5::889981119MZl$qSFFDFDFDSDA#>0Z",
"Fx-:uFFDFSDFDSSFDS61>;2:2606:,#rVmSDFDFDFFDDDZ;>0S",
"Fv>:eDFDDFDFFDDFDp;:2$;qgbvgdp&XiADDDDSDDDFSDZ1;0S",
"Sb-:qDDDFFVADFDDN;,&=bDDDDDFDSv<9aDSDDDDSDDFSS1,7S",
"Dv#,uDDDDSq-0cCDd@w$ADFFFFDDDDDpw:VSNNMbSDDFFS517S",
"Fv#>pDDDDA-X+-0V4#<dFDDVmDDDSDFN8,kb->#9AFDDFS816Z",
"Dx#>pFDDDFl&296k=>2VFSSs0ADFDDFS680l:>@wdDDDFS517S",
"Fb#:pSDSFFDmgy:l@:5SDFDl5zDSDFDSy84Az2&$sFDDDZ810S",
"Fb#>pDDDDFDDDSSC+5qDDFFv>gDDDDFSw,6NSDSAAFFFDS5,0D",
"Sv#:pFDDFFFFDFDA#;uDDDDn9pzmFFFS912VFDDFFSDDFZ<,7S",
"Db->uFFFFDFFFDDZ<,0DDDDn16;6DFFM8<2mSDDDFDFDDZ117D",
"Sn-:tDFFFFFFFDFF99&ASDFl>24;nDDd84&>;tNDDSDDDZ517S",
"Dn,,uDFFFFDFFZMDc,>cDDDu=7l<tFA8,&p8-,1mFDDDDA516D",
"Fn,:tFDFFSDCz8;vZ<>6SFS5r,;0uSa14&ZM7;:0SFFDDC887S",
"Dc>,qFDSDDA2#504Sb>>lDS%7z&$mV,9=gDFZx05SDDFFA586S",
"Dc,,uSFDDDSyy$OeDDa#7CA=7VVAV5825ADDFFSVDDDDDC<87S",
"Dc,:qSDDDDDZqsVDDFA;@pZ:6ADZ914=mASDFFFFDSDSDA<87S",
"Sv,:qDDFFDDDSDDDDSSaX:mu3ADx@q$f2aSDDDFDDDSDDC810S",
"Dc1,qDFDDDDDDDDSx6AA#=ah5AS0#3gN<-aDDDFDFDDSDC<,0S",
"Dc1,qFDDDDDDDDAy-rlD5#rd7AA-,2VSp@=bFFDFFDFDDZ5>7S",
"Dc1,qDDSSDSDFb=>yOuDy-6q0VB@55SSA<$6SDDFFDDSDA,>7Z",
"Fv>:uFFFDSFFDl>rOsSS9-4gyNn+w6SFDN45SFFDFFDSDS:-rS",
"Fv>,uDFDDDDDDAuOgSFS<#2prnd@6uDDDDNAFSDDDFDSSZ:#0S",
"Db,:qDDDFFDFFFSMSDSZ#XX+#51@ydFFFFDDDFSDDDFDDA:#6S",
"Dn8,eDFDFFDDDDDDDDDV2$$@@>>>0zDDDDFSDDDDDDDDFZ:-9S",
"DM8;qDDDDDDFFDDFSDFA#&377pt02bDDFFDDDDDFDDDFFS>#0S",
"DM8,qFDDDFDFFSSDSDDM+X  X-,,uSFDFDDSSSDFFFDDFS&-7A",
"DM9:uDDDDDDDFDDDDDFM72332;$-4VDDDFSFDDFFFDDSFD1>rS",
"FV9;qSDDFFDDDDDFFDDM#o:46&*42SDDDDDDFDDDDFFDDS5,0S",
"DV8;uFSDFFDFDDSDDDDv2-O@OX#<mDFDFDDDDFFDDDDFFS::7D",
"DA1;uFDFDFFFFDDDFDDDx279t*%26DFFFDDDDDDFFSDDDS>:0D",
"SZ-,tFFFFFFFFFDFDDDFDSa80ugsmFFFFFDDFDDFDDFDDD:>7D",
"DA-1tDFFFFFFFFFFDDSDSDSt=gFFFFFFFFFFFSDDDSDFDZ:>7D",
"DA>1tSlklfnzBFFFDDDFFFDSnvvkVMzbclCDbkMckllmDS,,6S",
"DA>1uZ>,1><<6ZFFDZZDSFS9-X.@a8+t++pl+>a--#+$MS5,6S",
"DC>,tl;,;;#h96xZd<=yADz-#<857<+s++O#X=r,>$+-dS8,5S",
"DV,,tSm#;*6iwj17;@ >nDk@5r#+=:XzX+X+X-p>+0@<4V814S",
"DV,,tSS;14iw991<86@<7SN@Ot# ;<+zX>=<@;d#X+>0=A5,6S",
"DV1,tDZ117tiy8,6w,@76SA5 .O ;<+x.12p@>p#+w6OzA116S",
"DA,<tDZ>>70,61;7w-#qgDDl4@@#5<,p#96m#<u=13>vSS5,6S",
"DA><uDSk==N7&u%;N7=oxDFDm7*&&03$t%2Zz&ol*$ADDS1:6S",
"DC-;tAAMzzNbfczxNNnvAACZZAMbbMnbMvbZCvnCbmZVCC1,7Z",
"FA##;::,,;<8<<<88<,;;>::::1:::>:;:::;:::>;::::X>0S",
"FN->>->>>,,<1<811>>-@###@#>-#@##-##--#########-10S",
"DZa%-%&%%%$$$$$$$$%:2*2232:222*&&&&&&&&&&&2=%==%=S",
"DDSNmmMmmmmmmnmnmmmmmmmNmmmmmmmNmmmmmmmmmmmmNmmmND"
};
