/* XPM */
static char * Gnome_panel_xpm[] = {
"48 48 33 1",
" 	c None",
".	c #040305",
"+	c #7680AB",
"@	c #464346",
"#	c #6E645B",
"$	c #C6C0BA",
"%	c #776A5F",
"&	c #ABA097",
"*	c #6B749B",
"=	c #93857B",
"-	c #60688B",
";	c #525A79",
">	c #666E94",
",	c #E6E3E1",
"'	c #5D544B",
")	c #2C2723",
"!	c #83776D",
"~	c #7F8BB3",
"{	c #161412",
"]	c #D8D4CF",
"^	c #B9B0AA",
"/	c #3F3831",
"(	c #9D9085",
"_	c #F2F1EF",
":	c #554B42",
"<	c #838294",
"[	c #7279A2",
"}	c #625D67",
"|	c #CDC7C2",
"1	c #B2A8A0",
"2	c #201C19",
"3	c #BEB8B3",
"4	c #A5988E",
"[<+*-;;---->*[**>******>>-*[+[[++[**[***;;-->[*>",
"[[[*-;;}-->*[**>>->>>>>>>>>[[**[[*[[*>>-;;;-[[>*",
"-*![};;--*[*>>>---------->>[[**[[[[*>---;;-[+[>>",
"->[*};}->>---->-------->-->****[>[[*;;;;;-*~~[>-",
"*[*-;;}>--};--->-----,](@-->>>>>>>[>;;;;--+~<>--",
"[!>-;}>-------------,_]=/2--->--->>--@;--*+~+->-",
"**-}}----}--->^--->^,,|!@{--->----*-;;;--*[[*->-",
"-};;--}}----3,|='->3,]3!/{.->**>>>**;;;-------->",
";}}-}--;-;--$,|!')-^]$4!@..>>->>>>>>;;;->>*>>>->",
";;;}->>-----^33=@@;434=#/..>--->>>>--;;-->>>>>>>",
";;;->*[---;-((<}){)'!!%:2..---->>*>>-;;;-->>>>>>",
"}}->>%>>-;-;}%:)...{///2...->>>>-->>>--;-->>>>>>",
"---%>>>>>-;-;/2....*2){....->>>*>->**>-;>>>>>**>",
"-->--%*>^,$;--....>->>)2..-->>*-->>**>>>***>>***",
"------*>|,^#--->->>->>>>>>>->**>>*[[*>>**[>->*[*",
"#--->--*^^=@{->>>-->],,]|4!}*[**>*[[>>*[**>--[[+",
"-------*!(}2..->*>]_,],]^1(%/[*>-*[*>>>*>>>-*[[[",
"----->>*@#/{..>>-,,,]|33&4(}2.*>>>**>***>>->>***",
">---->**[/2...>>,_,$^&==<#!@..*->>**>>>***>*****",
">>-->**++[>..**,_]$1(=(4=%@)..>>>>->**>>******>>",
">>>->*[_,1:--*3_,]1==(((==:...>->>>>>*>>[[**>---",
">>>>>*],](')*[],,34(4=((=#/...>>*>>>>*>>[*>---;;",
"->****!((#/)[>],$4(((((=%/...>>>>>>>>*>>*>*>-;;;",
"--*[[[*:@2.{2*]]^(=!==!')....>>**>>>****>>>>>;;;",
"--***[[+{...{!||14=!!'/.....**>--->>**>**>**>;@@",
"*>>**[+++...[!]|^&4='/.....>**>--->>*>*>>*>>-;@@",
"[**[[**>>>**-%$|^4(=:{...>>>**>>31>>>>>>>[*-;;;@",
"+++[*;;;-----%3|^(=%/...*>->>],,]]1!/>>>*+*;;;;;",
"[[*>-;;;-;----1$3&=})..**>>>,,,,|$&})->>[+>;;;--",
"*>-;;;;---;---&314=})..>**>>^13314=@..>>[[;;;---",
"--;@;;;-;;;;--(3^4=#)..>***[:=4(==#)..>>*[-;----",
"--;@;;-;----->!^^&=%@{.**[*[['&14='{..>>>*>----;",
">-;;@;--;-->**@(44=!%:/)>**>>*^|&=:...->>**--;--",
">--;;---->>****#=(((!!%!==**|,_|4!)..>*>->>>--;;",
">------>>*****>:%=((====13$|,_,34#{..**>*>**--;-",
"----->>>>>***>>*#!((==(&&^3],]$&!/...->>>>>**-;-",
"-}->>>>>**>>*>>>/#%=(===(=441&4='{..>--->->[*>--",
";;-->***********>@'#!=(&4((4=((#)...---->>>*[*>>",
";--**>**[[[[*****>/:}!=(4=(44(!@...*>----->>>**>",
";;>**>>[[[****>>>>>)/:'%!!!=!%@....>--->->->>>>*",
";->*[[*[+++[>>*>**>*{2)):@::@)....+*->>>->-->>>>",
"->>***[*[+++***[*****............[~*>*[>-->->%>>",
"->>[**[*[[[[[***>*>*>**.........[++*[[[>-}-->[[[",
"--****+***[*[*******>>>>>>*..>*[[~+[[[[>---->>%*",
"->****[[[******>*******>>>****[[[+~++[[*---#>>--",
"*[[*[[[[++****>******>*>>**>>>*[+~~+++[>-}}}};};",
"*[[[**[*[*+***>*>>>>>>>>>***>>*+~~~~++*>;;;}};';",
"****[*******>>>******>>>>*****++~~++++>-;;;-};;;"};
