/* XPM */
static char *magick[] = {
/* columns rows colors chars-per-pixel */
"56 46 24 1",
"  c Gray100",
". c #bebabe",
"X c #000010",
"o c #aeaaae",
"O c #aea6ae",
"+ c #beb6be",
"@ c Gray0",
"# c Magenta",
"$ c #285d49",
"% c #5155ff",
"& c #a69ea6",
"* c #aeaeae",
"= c #9e9a9e",
"- c #28ff20",
"; c #080408",
": c #b6aeb6",
"> c #000018",
", c #000808",
"< c #202020",
"1 c #ff1441",
"2 c #51a249",
"3 c #182020",
"4 c #a6798e",
"5 c #a6a2a6",
/* pixels */
"                                                       .",
" ......................................................X",
" ......................................................X",
" ......................................................X",
" o...O...O...O...O...O...O...O...O...O...O...O...O...O.X",
" ..+...+...+...+...+...+...+...+...+...+...+...+...+...X",
" o.O.O.O.O.O.O.O.O.O.O.O.O.O.O.O.O.O.O.O.O.O.O.O.O.O.O.X",
" .....O.......O.......O.......O.......O.......O.......oX",
" o.O.O.O.O.O.O.O.O.O.O.O.O.O.O.O.O.O.O.O.O.O.O.O.O.O.O.X",
" ...O...O...O...O...O...O...o@@@@@..O...O...O...O...O..X",
" o.O.o.O.O.O.O.O.O.O.O.O.O.O.@###@$o.O.O.O.O.O.O.O.O.o.X",
" .O...O.o.O...o.o.O...o.o.O..@###@$...o.o.O...o.o.O...oX",
" o.o.O.o.o.o.O.O.o.o.O.O.o.O.@###@$o.O.O.o.o.O.o.o.o.O.X",
" .o.O.o.O.O.O.o.o.O.O.o.O.o.o@###@$.O.o.o.O.o.O.O.O.O.oX",
" o.O.o.O.o.o.o.O.o.o.o.o.o.O.@###@$o.o.O.o.O.o.o.o.o.o.X",
" oo.ooo.ooO.oOo.ooO.ooO.oOo.o@###@$.oOo.oOo.ooO.oOo.OooX",
" o.O.o.O.o.o.o.O.o.o.O@@@@@o.@###@$o.o.o.o.O.o.o.o.O.o.X",
" ooooOooooooOooooooOoo@%%%@$o@###@$&ooooOoooooooOooooooX",
" o.o.o.o.O.o.o.O.o.o.o@%%%@$.@###@$*.o.O.o.O.o.o.o.o.O.X",
" ooooooOooooOoooooOooo@%%%@$o@###@$ooOoooooooooOooOooooX",
" ooo.Ooo.ooo.ooo.ooo.o@%%%@$.@###@$o.ooo.Ooo.Ooo.ooo.ooX",
" ooOooooooooooooOooooo@%%%@$o@###@$&ooooooooooooooooOooX",
" ooooooooOooOooooooooo@%%%@$*@###@$*oooooooooooooooooooX",
" oooooooooooooo@@@@@oo@%%%@$o@###@$oooooOooooOoooOoooooX",
" =ooo=oOo=ooo=o@---;$=@%%%@$*@###@$oo=ooo=ooo=ooo=ooo=oX",
" ooooooooooooO:X---;$*@%%%@$o@###@$oooooooOooooooooooooX",
" oo=o=o=ooo=o=o;--->$=@%%%,$*@###@$=o=o=ooo=o=o=Ooo=O=oX",
" ooooOooooooOO&<---;$o@%%%@$o@###@$o@@@@@ooooOoooooooooX",
" =o=o=o=o=o=O=O;---<$=@%%%@$*@###@$=@111@$o=o=o=o=o=o=oX",
" ooooooooooOoOO<---;$O@%%%@$o@###@$o@111@$oooooooooooooX",
" =o=o=o=O=o=o=O;---<$=@%%%@$*@###@$=@111@$o=o=o=o=O=o=oX",
" o=ooo=ooo=oOO=<---;$O@%%%@$o@###@$o@111@$=ooo=Ooo=ooo=X",
" =o=o=o=o=o=o=O;---<$=@%%%,$*@###@$=@111@$o=o=o=o=o=o=oX",
" o=o=o=o=o=O=O=<---;$o@%%%@$=@###@$o@111@$=o=o=o=o=o=o=X",
" =o=o=O=o=o=O=O;--23$=@%%%@$*@###@$=@111@$o=o=o=o=o=o=oX",
" ==o===o===O===<---@$=@%%%@$=@###@$*@111@$=o===o===o===X",
" =o=o=o=o=o=O=O;><;;$=@@,@@$*@@@@@$=@@@@@$*=o=o=O=o=o=oX",
" ==============&$$$$$==$$$$$==$$$$$==$$$$$=============X",
" =o=o=o=o=o=O=O=O=&4o=*=*4*=*=*=54*=*=*4*=o=o=o=o=o=o=oX",
" ==================5=============5=====================X",
" ===o===o===O===O===O===*===5===o===o===o===o===o===O==X",
" ======================================================X",
" =o=======o=======o=======o=======o=======o=======o====X",
" ======================================================X",
" ======================================================X",
".XXXXXXXXXXXXXXXXXXXXXXXXXXXXXXXXXXXXXXXXXXXXXXXXXXXXXXX"
};
