/* XPM */
static char * image_name[] = {
"56 46 21 1",
" 	c #FFFFFFFFFFFF",
".	c #BEFBBAEABEFB",
"X	c #000000001040",
"o	c #AEBAAAAAAEBA",
"O	c #BEFBB6DABEFB",
"+	c #AEBAA699AEBA",
"@	c #C71BBAEAC71B",
"#	c #FFFFFFFFD75C",
"$	c #79E786179E79",
"%	c #71C679E78617",
"&	c #28A25D754924",
"*	c #79E79248B6DA",
"=	c #96589658AEBA",
"-	c #082004100820",
";	c #A6999E79A699",
":	c #000000000000",
">	c #000000001861",
",	c #AEBA555528A2",
"<	c #9E799A699E79",
"1	c #AEBAAEBAAEBA",
"2	c #000008200820",
"                                                       .",
" ......................................................X",
" ......................................................X",
" ......................................................X",
" o.O.+.O.+.O.+.O.+.O.+.O.+.O.+.O.+.O.+.O.+.O.+.O.+.O.+.X",
" ......................................................X",
" o.+.o.+.+.o.+.+.+.o.+.+.+.o.+.+.+.o.+.+.+.o.+.+.+.o.+.X",
" .....o...@O..o...@O..o...@O..o...@O..o...@O..o.......oX",
" o.+.+.o.o.o.o.o.o.o.o.o######.###.o.o.o.o.o.o.o.+.+.o.X",
" ...o...+...+...+...o.##....$%&$%&..+...+...o@O.o...o..X",
" o.o.+.o.o.o.o.+.o.+.#$$.$$$$$$$$&.o.o.+.o.o.o.o.+.o.+.X",
" .+...o.o.+...o.o.o.#$$$@%*%=$-*%&+...o.o.+...o.o.+...oX",
" o.o.+.o.o.oOo.o.+.#$$--.;$%*%X&&&.+.+.o.o.o.+.o.o.o.+.X",
" .o.o.o.+.o.o.+.o.+#$-+.:>$-X-+:--+.o.o.o.+.o.o.+.o.o.oX",
" o.o.+.o.o.o.o.o.o.#-+.+.#.$-o.+.+.+.o.+.o.o.o.o.o.+.o.X",
" oo.ooo.oo+.ooo.ooo.+o+.+#@$:o+.ooo.ooo.ooo.oo+.ooo.oooX",
" o.o.o.+.o.o.o.+.o.o.o.o.#.$>o.o.+.o.o.o.o.+.o.o.o.o.o.X",
" oooooooooooooooooo+oooo+#.$:ooooooooooooooooooooo+ooooX",
" o.o.o.o.o.o.+.o.o.o.o.o.#.$-o.o.o.o.o.o.+.o.o.o.o.o.o.X",
" ooo+oooooooooooooo+oooo+#.$:ooooooooooooooooo+ooooooooX",
" ooo.ooo.+oo.ooo.ooo.ooo.#.$>ooo.ooo.ooo.ooo.ooo.ooo.ooX",
" ooooooooooooooooooooooo+X>::ooooooooooooooooooooooooooX",
" oooooooooooooooooooooooo,,,:ooooooooooooooooooooooooooX",
" ooooooooooooooooooooooo,,,,::oooooooooooooooooooooooooX",
" <ooo<ooo<ooo<ooo<ooo<oo,,,,::ooo<ooo<ooo<ooo<ooo<ooo<oX",
" oooooooooooooooooooooo1,,,,::oooooooooooooooooooooooooX",
" oo<o<o<ooo<o<o<ooo<o<o<,,,,::o<ooo<o<o<ooo<o<o<ooo<o<oX",
" oooooooooooooooooooooo1,,,,::oooooooooooooooooooooooooX",
" <o<o<o<o<o<o<o<o<o<o<o<,,,,::o<o<o<o<o<o<o<o<o<o<o<o<oX",
" oooooooooooooooooooooo1,,,,::oooooooooooooooooooooooooX",
" <o<o<o<o<o<o<o<o<o<o<o<,,,,::o<o<o<o<o<o<o<o<o<o<o<o<oX",
" o<ooo<ooo<ooo<ooo<ooo<1,,,,::<ooo<ooo<ooo<ooo<ooo<ooo<X",
" <o<o<o<o<o<o<o<o<o<o<o<,,,,2:o<o<o<o<o<o<o<o<o<o<o<o<oX",
" o<o<o<o<o<o<o<o<o<o<o<1,,,,::<o<o<o<o<o<o<o<o<o<o<o<o<X",
" <o<o<o<o<o<o<o<o<o<o<o<,,,,::o<o<o<o<o<o<o<o<o<o<o<o<oX",
" <<o<<<o<<<o<<<o<<<o<<<1,,,,::<o<<<o<<<o<<<o<<<o<<<o<<<X",
" <o<o<o<o<o<o<o<o<o<o<o<,,,,2:o<o<o<o<o<o<o<o<o<o<o<o<oX",
" <<<<<<<<<<<<<<<<<<<<<<<<22::<<<<<<<<<<<<<<<<<<<<<<<<<<X",
" <o<o<o<o<o<o<o<o<o<o<o<1<1<o<o<o<o<o<o<o<o<o<o<o<o<o<oX",
" <<<<<<<<<<<<<<<<<<<<<<<<<<<<<<<<<<<<<<<<<<<<<<<<<<<<<<X",
" <<<o<<<o<<<o<<<o<<<o<<<o<<<o<<<o<<<o<<<o<<<o<<<o<<<o<<X",
" <<<<<<<<<<<<<<<<<<<<<<<<<<<<<<<<<<<<<<<<<<<<<<<<<<<<<<X",
" <o<<<<<<<o<<<<<<<o<<<<<<<o<<<<<<<o<<<<<<<o<<<<<<<o<<<<X",
" <<<<<<<<<<<<<<<<<<<<<<<<<<<<<<<<<<<<<<<<<<<<<<<<<<<<<<X",
" <<<<<<<<<<<<<<<<<<<<<<<<<<<<<<<<<<<<<<<<<<<<<<<<<<<<<<X",
".XXXXXXXXXXXXXXXXXXXXXXXXXXXXXXXXXXXXXXXXXXXXXXXXXXXXXXX"};
