/* XPM */
static char *magick[] = {
/* columns rows colors chars-per-pixel */
"48 48 64 1",
"  c Gray0",
". c #080400",
"X c #180800",
"o c #181000",
"O c #201008",
"+ c #281008",
"@ c #201810",
"# c #301c18",
"$ c #282018",
"% c #302010",
"& c #382018",
"* c #382820",
"= c #383830",
"- c #492820",
"; c #513020",
": c #593420",
"> c #613828",
", c #594538",
"< c #794930",
"1 c #795138",
"2 c #595d59",
"3 c #716d61",
"4 c #865938",
"5 c #965d41",
"6 c #8e6551",
"7 c #9e6541",
"8 c #9e6549",
"9 c #9e7149",
"0 c #9e7d69",
"q c #a66949",
"w c #ae7949",
"e c #ae7151",
"r c #b67149",
"t c #b67959",
"y c #867d86",
"u c #be8661",
"i c #c78259",
"p c #c79669",
"a c #d78e61",
"s c #df9a61",
"d c #df9e69",
"f c #dfa271",
"g c #efa661",
"h c #efa271",
"j c #efae79",
"k c #f7a669",
"l c #f7b271",
"z c #f7b679",
"x c #8e868e",
"c c #969296",
"v c #9e9696",
"b c #a6a29e",
"n c #b6b2ae",
"m c #d7aa86",
"M c #f7be8e",
"N c #dfc7a6",
"B c #ffc786",
"V c #ffc78e",
"C c #ffcb96",
"Z c #ffd3a6",
"A c #ffdba6",
"S c #ffebb6",
"D c #ffebc7",
"F c None",
/* pixels */
"FFFFFFFFFFFFFFFFFFFFFFFFFFFFFFFFFFFFFFFFFFFFFFFF",
"FFFFFFFFFFFFFFFFFFFFFFFFFFFFFFFFFFFFFFFFFFFFFFFF",
"FFFFFFFFFFFFFFFFFFFFFFFFFFFFFFFFFFFFFFFFFFFFFFFF",
"FFFFFFFFFFFFFFFmmmmbFFFFFFFFFFFFFFFFFFFFFFFFFFFF",
"FFFFFFb00000v0:sjzzmnFFFnFFFFFFFFFFFFFFFFFFFFFFF",
"FFFFFveahhfspitdllgNzuuMCMnFFFFFFFFFFFFFFFFFFFFF",
"FFFFb0psjlkkaiadhkgVzlgzBgznFFFFFFFFFFFFFFFFFFFF",
"FFFF3widgzCjttadkggABjgzlBBMmmNNbFFFFFFFFFFFFFFF",
"FFFF1ruagMSfrissdglBMlljzBVBBBVNmFFFFFFFFFFFFFFF",
"FFFy6uadhNSfruasgkgVghljzMBBBVCVMnFFFFFFFFFFFFFF",
"FFF1tuaghSDdwusdglSAdshkklMBBBCNAmbFFFFFFFFFFFFF",
"FFc<tisglSAfrashllDSdsskkVCBVVVNZCmFFFbFFFFFFFFF",
"FF36risklSNhradMMVDAdagllZDzzVVVCNMmbFFFFFFFFFFF",
"FF>57rshMAAdradlzCDAsahzzADBlVVCVCCAmbFnnFFFFFFF",
"FF*54rshhCAurishzADAdahBBSDVlCVVSVNSDmF2cFc,nnFF",
"FF;1>qasidjq5rsklADAdagzBDDChBBNDZNSSfFcFFc=yFFF",
"FF,=:8ut77r<>7ussMAVsdjMNDDBkCCADVBZNmbFFFFFFFFF",
"FF3#:<56516><5titahdisjMNSAzkCNDDNMjCmbFFFFynNFF",
"FFv#*>:,<5eafpe845qr7ajzMCMllCADSZjjjmmFFFF,F2FF",
"FFF,#;O;eurfNAp4>:<5<thdhzzglNSDSAjmmmuFFFFc2FFF",
"FFF3;09afirsjAA9;-*;:4qrriasMCZDNNfpff0FFFFNFFFF",
"FF3esdhspu0riaAp$#+O@&&-;:4rjzNVjjpmfp9bFFnxcFFF",
"Fb<ijMdauuq857u6@++o@###&::<isshaipffp6vFn22FFFF",
"F0<7fNfatu911<4=+++XO%@@+*O-11179wupf063b33FFFFF",
"F0<<tNMatw911>&oOo..O++++@X@+++-19uppu5=n$$FFFFF",
"Fb1<rmMau94,>&oo...Xoo@OOXX+OOO:190upu5:$  3FnnF",
"FF3:<qt941>>>&OOoXoo.o.XOoOO*;>655eiaw95o  oxnvF",
"FFb:::::::100>&#OX.ooXooo##1061445epirr98o   =,F",
"FFF3%%%%#4muu4>;$OOOooOO@#-5ee999988erww7<.  xyF",
"FFFFc#.X@,0uu953<*##++####,8996644440rw7wq1  23c",
"FFFFFc*X%-:4886861>#@@@@#*441441<,<50tr9qeq-   2",
"FFFFFFv3OO$:,146643##@@@%>1,:::::;<40ru9e97<$. y",
"FFbFFFFFv3&@-:::;<>*&##&*;-&&****;,48rtreqq8&o c",
"FFFFFFFFFFb3*#$++$@+#@+@#@OoX.@##*><5e00eqqq>..F",
"FFFFy,FFFFFFFvy3,*$*#@OO@OO++####&;,18q0e0eq,o$F",
"FFFF=,cFFFFFFFFFFFFF$  oO++++++#$**><5590ee8;$$F",
"FFFFFFFFFFFFFFFFFFFF2   ..#@+++@&&*;,148q984--=F",
"FFFFFFFFFFFFFFFyFFFFo     O&++++#**-;,<5654:*%.2",
"FFFFFFFFFFFFFFFyF3=,       @$++++#*&*:,<141-*3nF",
"FFFFFFFFFFFFFFFFFv22,$.    O#@++++=&;:><<1:-*=nF",
"FFFFFFFFFFF3xFFF2F2v2FF2   o#+++++%**=->>**&$2FF",
"FFFFFFFFFFF==cFFFFyFcFF2   .@oO++++%$=%%%$&*@vFF",
"FFFFFFFFFFFyyynF3FFFFFF2=$. .Oo..oooX@@@#*3v33FF",
"FFFFFFFFFFFFF$yFvFFFFFFFFFc  .oO....OO@#.3bFnx,x",
"FFFFFFFFFFFFFvxFFFFvFFyFyFy=2xx.xn2..yyy=2FFFFnF",
"FFFFFFFFFFFFFFFFFFFxcFFvFFyFnxDnFcnn,FFFnv2vFFFF",
"FFFFFFFFFFFFFFFFFFFFFFF=xFFnxxnxFFFNnFFFFncnFFFF",
"FFFFFFFFFFFFFFFFFFFFFFFFFFFFFFFFFFFFFFFFFFFFFFFF"
};
