/* XPM */
static char *magick[] = {
/* columns rows colors chars-per-pixel */
"48 48 65 1",
"  c Gray0",
". c #180c08",
"X c #201410",
"o c #301810",
"O c #301c10",
"+ c #302018",
"@ c #382018",
"# c #382420",
"$ c #412420",
"% c #492c20",
"& c #513020",
"* c #513028",
"= c #593020",
"- c #593428",
"; c #593828",
": c #693428",
"> c #613430",
", c #594138",
"< c #614128",
"1 c #694930",
"2 c #714128",
"3 c #714538",
"4 c #794d30",
"5 c #795138",
"6 c #615951",
"7 c #864d30",
"8 c #865938",
"9 c #965d38",
"0 c #966541",
"q c #867161",
"w c #a66541",
"e c #a67149",
"r c #a67d59",
"t c #b67149",
"y c #be7d51",
"u c #8e8279",
"i c #9e8e79",
"p c #c78651",
"a c #cf8a59",
"s c #c78e69",
"d c #c79271",
"f c #dfae79",
"g c #e7a261",
"h c #e7aa69",
"j c #efae69",
"k c #efaa71",
"l c #efba79",
"z c #ffb669",
"x c #f7ba79",
"c c #ffbe79",
"v c #ffd379",
"b c #9e9a96",
"n c #be9e8e",
"m c #a6a2a6",
"M c #aea6a6",
"N c #cfb29e",
"B c #ffcb86",
"V c #f7cb96",
"C c #ffd78e",
"Z c #ffd796",
"A c #ffdf96",
"S c #ffeb96",
"D c #ffe7a6",
"F c #fff3b6",
"G c None",
/* pixels */
"GGGGGGGGGGGGGGGGGGGGGGGGGGGGGGGGGGGGGGGGGGGGGGGG",
"GGGGGGGGGGGGGGGGGGGGGGGGGGGGGGGGGGGGGGGGGGGGGGGG",
"GGGGGGGGGGGGGGGGGGGGGGGGGGGGGGGGGGGGGGGGGGGGGGGG",
"GGGGGGGGGGGGGGGGGGGGGGGGGGGGGGGGGGGGGGGGGGGGGGGG",
"GGGGGGGGGGGGGGGGGGGGGGGGGGGGGGGGGGGGGGGGGGGGGGGG",
"GGGGGGGGGGGGGGGGGGGGGGGGGGGGGGGGGGGGGGGGGGGGGGGG",
"GGGGGGGGGGGGGGGGGGGGGGGGGGGGGGGGGGGGGGGGGGGGGGGG",
"GGGGGGGGGGGGGGGGGGGGGGGGGGGGGGGGGGGGGGGGGGGGGGGG",
"inNddnddinirnnrrrq66666quuGGGGGGGGGGGGGGGGGGGGGG",
"rthhlxxlllhssssjjjfsyyyewribGGGGGGGGGGGGGGGGGGGG",
"m37eeaypayyyaadkkgpye0849pgxnmGGGGGGGGGGGGGGGGGG",
"Gmq5>5238000wtaae-O<1517wppgVdumGGGGGGGGGGGGGGGG",
"GGGGGGGiiiuq53%O.@1584249wtgzjsruGGGGGGGGGGGGGGG",
"GGGGGGGGGGGGGu.+*<0ye4-148tgBjjksrbGGGGGGGGGGGGG",
"GGGGGGGGGGGGG6#>7ep81=5359tacBxzzfgnMGGGGGGGGGGG",
"GGGGGGGGGGGGG6>3e0<+o<5157wpjxcxzzzfnNGGGGGGGGGG",
"GGGGGGGGGGGGG5-7>&o%2805=<3thlcczzxxzlNnGGGGGGGG",
"GGGGGGGGGGGGG6*%o$33es5%<:2wgvZCBCCBVBBVfMGGGGGG",
"GGGGGGGGGGGGGm$.*22wr&o-<<8eakxVZAAADAZZClMGGGGG",
"GGGGGGGGGGGGGGi-5:90@@-324etyadVDDDFDDSSCZNNGGGG",
"GGGGGGGGGGGGGNMe==%Xo-<<7wew48txVVAFFFFFSSAVmGGG",
"GGGGGGGGGGGGGmr4@@Xo*><19p85=>7askxZDFDSSSSAnGGG",
"GGGGGGGGGGGGb81>#Oo&<=-9pn@$$$%:9tglvZZZAASCVnGG",
"GGGGGGGGGGGm83>-#X+<;&-edq.XXO@$=4ekccccCBCSDnGG",
"GGGGGGGGGGGq:>-$o.@,-%4fN+..O+OO%*:paVkxkkzvSVuG",
"GGGGGGGGGGG5=*X$<3uNs<3nN;.+@@+o#%%3wxlhyagcAFiG",
"GGGGGGGGGGG3@o5iMGGGNN7-8;X@$$#+#%-%9hgp:9gjBFdG",
"GGGGGGGGGGGi,uGGGGGGGMM<$+X.XX.X+**=-es2%walCFdb",
"GGGGGGGGGGGGGGGGGGGGGGGb8*O#66666,OXX..-=7tgvDlu",
"GGGGGGGGGGGGGGGGGGGGGGGGGi6uGGGGGGuXO#*-=2yhvDVq",
"GGGGGGGGGGGGGGGGGGGGGGGGGGGGGGGGGGG,#**->:thvDAq",
"GGGGGGGGGGGGGGGGGGGGGGGGGGGGGGGGGGGu#**-=2thvDAq",
"GGGGGGGGGGGGGGGGGGGGGGGGGGGGGGGGGGGb@-->>7afCDDq",
"GGGGGGGGGGGGGGGGGGGGGGGGGGGGGGGGGGGG#;>--7tjZFVq",
"GGGGGGGGGGGGGGGGGGGGGGGGGGGGGGGGGGGG%-,,-7pjCDdb",
"GGGGGGGGGGGGGGGGGGGGGGGGGGGGGGGGGGGG6#;<>8tjADqG",
"GGGGGGGGGGGGGGGGGGGGGGGGGGGGGGGGGGGGm%$>:9tjlrbG",
"GGGGGGGGGGGGGGGGGGGGGGGGGGGGGGGGGGGGGmq$$>8eumGG",
"GGGGGGGGGGGGGGGGGGGGGGGGGGGGGGGGGGGGGGGGbiMGGGGG",
"GGGGGGGGGGGGGGGGGGGGGGGGGGGGGGGGGGGGGGGGGGGGGGGG",
"GGGGGGGGGGGGGGGGGGGGGGGGGGGGGGGGGGGGGGGGGGGGGGGG",
"GGGGGGGGGGGGGGGGGGGGGGGGGGGGGGGGGGGGGGGGGGGGGGGG",
"GGGGGGGGGGGGGGGGGGGGGGGGGGGGGGGGGGGGGGGGGGGGGGGG",
"GGGGGGGGGGGGGGGGGGGGGGGGGGGGGGGGGGGGGGGGGGGGGGGG",
"GGGGGGGGGGGGGGGGGGGGGGGGGGGGGGGGGGGGGGGGGGGGGGGG",
"GGGGGGGGGGGGGGGGGGGGGGGGGGGGGGGGGGGGGGGGGGGGGGGG",
"GGGGGGGGGGGGGGGGGGGGGGGGGGGGGGGGGGGGGGGGGGGGGGGG",
"GGGGGGGGGGGGGGGGGGGGGGGGGGGGGGGGGGGGGGGGGGGGGGGG"
};
