/* XPM */
static char *magick[] = {
/* columns rows colors chars-per-pixel */
"48 48 59 1",
"  c Gray0",
". c #100800",
"X c #281408",
"o c #281808",
"O c #301810",
"+ c #301c10",
"@ c #382018",
"# c #412418",
"$ c #492820",
"% c #413428",
"& c #512428",
"* c #513028",
"= c #593020",
"- c #593828",
"; c #693c28",
": c #614538",
"> c #794138",
", c #794d30",
"< c #695549",
"1 c #8e5938",
"2 c #865541",
"3 c #9e5d41",
"4 c #966949",
"5 c #966d51",
"6 c #a66d49",
"7 c #b67151",
"8 c #b67951",
"9 c #b67d59",
"0 c #be8659",
"q c #a68a79",
"w c #c78659",
"e c #cf8661",
"r c #cf8e61",
"t c #cf9a69",
"y c #c79671",
"u c #d78a61",
"i c #df8e61",
"p c #df9e69",
"a c #e79e69",
"s c #e7a279",
"d c #efa671",
"f c #efb279",
"g c #ffbe79",
"h c #9e928e",
"j c #c7aa8e",
"k c #e7ba8e",
"l c #efb686",
"z c #f7b68e",
"x c #ffbe8e",
"c c #ffcf8e",
"v c #f7c396",
"b c #ffcf96",
"n c #ffdb96",
"m c #ffdf9e",
"M c #efcba6",
"N c #ffdfae",
"B c #ffebae",
"V c #fff3be",
"C c None",
/* pixels */
"CCCCCCCCCCCCCChqjyyCCCCykkjCCCCCCCCCCCCCCCCCCCCC",
"CCCCCCCCCCCCC5tfcblyCC1pggbMCCCCCCCCCCCCCCCCCCCC",
"CCCCCCCCCCCC5eagmVfjqC,agcBBkCCCCCCCCCCCCCCCCCCC",
"CCCCCCCCCCCC>wagNVfj4#,igcVVkCCCCCCCCCCCCCCCCCCC",
"CCCCCCCCCCCC;8idvNgt,+;wknNNfCCCCCCCCCCCCCCCCCCC",
"CCCCCCCCCCCC-3aMnMk,@O=wfnBncCCCCCCCCCCCCCCCCCCC",
"CCCCCCCCCCCC#3jMNmf;@X#9fcNbbCCCCCCCCCCCCCCCCCCC",
"CCCCCCCCCCCC:5agbbs-$X$7axnccCCCCCCCCjCCCCCCCCCC",
"CCCCCCCCCCCCC1eadxr=@X#19idazMCCCjCq0uzbCCCCCCCC",
"CCCCqq5CCCCCC;37eu2#XX+&,33wfBqCCCy637fnmbCCCCCC",
"CCh6ak9;%<CCC@&=;>&OX=-o@+$7fBjCCj9,17fnVBCCCCCC",
"Ch8wagj1=*:CCC:++@OX%7k46359dNmqC91;>9kBVBjCCCCC",
"Cq09igv7=;-2hCCCXXo#1kVmkfpagmBt62$O&egBVmjCCCCC",
"Cq67udk0%=8k5CCCOXo>9gmBBbxgcnM8,-+X#7abBcjCCCCC",
"CC19aMxj->sby=%%-o#7iaxMbngggk8>-#XX+>7ikfqCCCCC",
"CC30afxk,3akt-=->-3eiafgcxffd02-$oXO+=230yCCCCCC",
"CCh27uds,8tt<==-;3eruiasdffar,-%oXo-0jkyCCCCCCCC",
"CCCh435-=593=$%&,8yr9wuiipt9,*=$@+-0fxMyCCCCCCCC",
"CCCCCq%O$;>-$$&;5tpe6668807<-**==;6agMbjCCCCCCCC",
"CCCCCCC%o$*#Oo=2rsst063311>=*$=&;10pgxbkqCCCCCCC",
"CCCCCCCC:XXXO%,8ilssr962;;&%*$$&;168iaalyCCCCCCC",
"CCCCCCCCC:+O+;3wpappr094-$##&$%*%;;,3rlbkCCCCCCC",
"CCCCCCCCCCCO+,6wuuurre9<*$$&$$$%&=>5wdvvMCCCCCCC",
"CCCCCCCCCCC2#>578eww091-$$$***&$*-18uilgx:CCCCCC",
"CCCCCCCCCCCC2;3360eyy9,*$$$****$$&-,6eszv2+CCCCC",
"CCCCCCCCCCCCq>640tfff9-@$$->>:;-&*=;19tzvq.CCCCC",
"CCCCCCCCCCCCC583pakvj4%#$;1693,<>;-;26rdvj..CCCC",
"CCCCCCCCCCCCC667pdkf0;&&>9tty932,<><,30pfk...%%C",
"CCCCCCCCCCCCC63uifzt4=&>eMnnkjy62:>,336esk+..CCC",
"CCCCCCCCCCCCq5wuaxxy2&;6vNVVnMly83>,1360uj5..<CC",
"CCCCCCCCCCCC4eiilbvt2;3sNVVVVNMlty924448etqo...<",
"CCCyCCCCCCC5elailvvj88pMBVVVVBmxatty4641609;...C",
"C4udfsyCjj9ezbxddvvvslbNBVVVBBmnkprr076316y,O..C",
"56idxxlsdlvMnmbvzxbbbNBBBVNNNNmbMjwe0655,6a0-..C",
"q1edvxdaadvnnmbbvxvbnNBNmmMbcccgMza00003,wap;.+C",
"h;3essasdavbmNNNbvvvvvbvMMzkkzzzzlp941114eup*@+C",
"C:=;38eiaivbbnmmmxzzzsaslsssssstpp8,***269w9$$%C",
"CC<$#=36wuzlggxgMzsfprruyryre97644-@@$:,167:#O.C",
"CCCC@O=15wsispaasary0880009871;;;=@oX-,:,13#@<CC",
"CCCCC%O$;2<>,112,<>111112,:--#+oXXXO#--;::$OO:CC",
"CCCCCCC:::%#%%%#+@@+++oooo..XO@OXXoO@#%=*OO@@CCC",
"CCCCCCCCCCCCCCCCCCCChhh<X.....X*+XXoO@@+@O+=XCCC",
"CCCCCCCCCCCCCCCCCCCCCCCC%+...........OoOO+CCCCCC",
"CCCCCCCCCCCCCCCCCCCCCCCCCCC...........oO.CCCCCCC",
"CCCCCCCCCCCCCCCCCCCCCCCCCCCCCCCCCC<..CCC%CCCCCCC",
"CCCCCCCCCCCCCCCCCCCCCCCCCCCCCCCCCCCCCCCCCCCCCCCC",
"CCCCCCCCCCCCCCCCCCCCCCCCCCCCCCCCCCCCCCCCCCCCCCCC",
"CCCCCCCCCCCCCCCCCCCCCCCCCCCCCCCCCCCCCCCCCCCCCCCC"
};
