/* XPM */
static char *magick[] = {
/* columns rows colors chars-per-pixel */
"48 48 64 1",
"  c Gray0",
". c #080400",
"X c #100c08",
"o c #201008",
"O c #281008",
"+ c #281810",
"@ c #301810",
"# c #301818",
"$ c #282018",
"% c #382018",
"& c #412018",
"* c #492420",
"= c #513028",
"- c #613020",
"; c #694530",
": c #794530",
"> c #494949",
", c #615d59",
"< c #716961",
"1 c #797979",
"2 c #865138",
"3 c #965538",
"4 c #966141",
"5 c #966951",
"6 c #ae6941",
"7 c #b66949",
"8 c #b67949",
"9 c #be7951",
"0 c #968271",
"q c #b68251",
"w c #c78259",
"e c #cf8a59",
"r c #df9a61",
"t c #e79a59",
"y c #e79e69",
"u c #e7aa79",
"i c #f7aa69",
"p c #f7ae79",
"a c #f7b271",
"s c #f7be79",
"d c #ffba71",
"f c #ffba79",
"g c #ffcb79",
"h c #ffd379",
"j c #8e8686",
"k c #968e8e",
"l c #9e9a9e",
"z c #a6968e",
"x c #a69e9e",
"c c #a6a69e",
"v c #bea696",
"b c #cfbeb6",
"n c #f7ba86",
"m c #f7be8e",
"M c #f7c386",
"N c #ffcb86",
"B c #ffd386",
"V c #ffd38e",
"C c #ffd78e",
"Z c #ffd79e",
"A c #ffdb96",
"S c #ffdfa6",
"D c #ffe7be",
"F c None",
/* pixels */
"Fz5555jxFFFFFFFFFFFFFFFFFFFFFFFFFFFFFFFFFFFFFFFF",
"x5eymuw60xFFFFFFFFFFFFFFFFFFFFFFFFFFFFFFFFFFFFFF",
"06wrVDZsr50xFFFFFFFFFFFFFFFFFFFFFFcFFFFFFFFFFFFF",
"j437tunZSmaasvcFFFFFFFFFFFFFFFFFFFFFFFFFFFFFFFFc",
"x2:36weynZBggu00cFFFFFFFFFFFFFFFFFFFFFFFFFFFFFFv",
"Fj;*-:4wrpnBsdyye0xFFFFFFFFFFFFFFFFFFFFFFFFFFFFc",
"FFx=&-:38tiffaniyyy0xFFkjxFFFFFFFFFFFFFFFFFFFFFF",
"FFFc;%*-;8triupmafday05euv0FFFFFFFFFFFFFFFFFFFFF",
"FFFFFz=@*:49eyupdgNgarrpnBuvFFFFFFFFFFFFFFFFFFFF",
"FFFFFFc<$+*:6ryaMNBfiifNMSgaFFFFFFFFFFFFFFFFFFFF",
"FFFFFFFF,@*&2wraNssiidggSSBgbFFFFFFFFFFFFFFFFFFc",
"FFFFFFFFF<+O&3wafiriafsgSCBNMvzlFFFFFFFFFFFFFFFF",
"FFFFFFFFFF<oo%:retriddAZZACBBfBs<cFFFFFFFFFFFFFF",
"FFFFFFFFFFF1ooO6etiddsSDSAACMsCVmvFFFFFFFFFFFFFF",
"FFFFFFFFFFFF1o:wridNBADACAAVMNCCVvFFFFFlkFk>vvFF",
"FFFFFFFFFFFFj;7taMNBDDABMABhBVVVNmzFFFFFFFk>1FFF",
"FFFFFFFFFFFFj7einBCSDSVtsNNNBACBBBuxFFFFFFFFFFFF",
"FFFFFFFFFFFF5weidNVDDAaeMgdggZVgBhVvzFFFFFF1vbFF",
"FFFFFFFFFFFF57einBADBNefssfMNSNgVCZZvxFFFFF>F,FF",
"FFFFFFFFFFFc337tafBBsitfsdfsZSMNhVAABvFFFFFk,FFF",
"FFFFFFFFFFFj2::7tidfatpffsMBDZfVBVAVBecFFFFbFFFF",
"FFFFFFFFFFx5;--:4wty9edsgNBSDCaVBVCVnv0FFFbjkFFF",
"FFFFFFFFFzq5;@&*;37r-tdsBBADZsdBBBCBfujFFv,>FFFF",
"FFFFFFFFzuppr;oO%*-:4idgVASSNiNCBACNau5=k<1FFFFF",
"FFFFFFcyynpppy2oO&&&9idNVZABfdBCVSVMiu4 . $FFFFF",
"FFFFFcupmVnmmpu;.XO-7erfMfsdihBVZZNyrr5    1FFbF",
"FFFFxwynDSZmppu5ooo*;37tttteMCAVSBaeeee.   XjblF",
"FFFF07rpZDCppiy5+.X%*-:6982rNCBZZsr444e#     =>F",
"FFFF06wymmmuurw;O.Xo&&*--$9mCCASBu4-:5e2     j0F",
"FFFFz36wrtrw942*oXoXO@@$@-enNBAMie==:4eeX    ,1l",
"FFFFF5:37863;*%#XoXo.Xo+o-etssayy2%=;6we4.     ,",
"FFFFFF0;===;,*%++oXXXX.Xo=26eree;@+*4w9q4;  o. 1",
"FFFFFFFFFFFFFj;$#@O@@+ooX**-:33;%O#;wwq985=X@X k",
"FFFFFFFFFFFFFFFl<;O@@@O@o+***==&o#*4qe9qq855=o x",
"FFFFFFFFFFFFFFFFFFcj0,.%=oX####O+=29qw9qq864;O$x",
"FFFF,>lFFFFFFFFFFFFF>.  +$$ooOo@&=5ww8qqqq66=$$x",
"FFFFFFFFFFFFFFFFFFFF>   .o$+.Xo#$-268q9qqqq6$$>F",
"FFFFFFFFFFFFFFF1FFFFX     %O+o+#%*;48888qq8-@+$F",
"FFFFFFFFFFFFFFF1F1>>      .&#o+@#%=2467664-#@<vF",
"FFFFFFFFFFFFFFFFFl,>>$.    +$+o@#%*-246662@&@;vF",
"FFFFFFFFFFF<kFFF>F>l,FF,   X$$X##%%=;2446:@@@0FF",
"FFFFFFFFFFF>>kFFFF1FkFF,   .o+#o&%*&*==*%@@@@zFF",
"FFFFFFFFFFF111FF1FFFFFF,>$. .@#$#@#@@@@+$#<001FF",
"FFFFFFFFFFFFF$1FlFFFFFFFFFk   Xo...X+o@#.<cFbj>j",
"FFFFFFFFFFFFFljFFFFlFF1F1F0>,0j.jb> .101>,FFFFFF",
"FFFFFFFFFFFFFFFFFFFjkFFlFF1FbjDvFkbb>FFFFl,lFFFF",
"FFFFFFFFFFFFFFFFFFFFFFF>kFFFljFjFFFbbFFFFvkbFFFF",
"FFFFFFFFFFFFFFFFFFFFFFFFFFFFFFFFFFFFFFFFFFFFFFFF"
};
