/* XPM */
static char *magick[] = {
/* columns rows colors chars-per-pixel */
"56 46 21 1",
"  c Gray100",
". c #bebabe",
"X c #bec3be",
"o c #000010",
"O c #aeaaae",
"+ c #9e9a9e",
"@ c Gray0",
"# c #285d49",
"$ c #e7e7ef",
"% c #79869e",
"& c #c7bac7",
"* c #9696ae",
"= c #717986",
"- c #7992b6",
"; c #b6aeb6",
": c #bec3cf",
"> c #aeaeae",
", c #aeaeb6",
"< c #aea6ae",
"1 c #beb6be",
"2 c #8e8a8e",
/* pixels */
"                                                       .",
" .X.X.X.X.X.X.X.X.X.X.X.X.X.X.X.X.X.X.X.X.X.X.X.X.X.X.Xo",
" X.X.X.X.X.X.X.X.X.X.X.X.X.X.X.X.X.X.X.X.X.X.X.X.X.X.X.o",
" .X.O..OX.O..O..O..OX.O..O..O..OX.O..O..O..OX.O..O..O..o",
" O.X.OX..OX.XOX.XOX..OX.XOX.XOX..OX.XOX.XOX..OX.XOX.XOXo",
" XO.X.X.X..X.X..X...X..X.X..X...X..X.X..X...X..X.X..X..o",
" O.O.O.+.OXO.+XO.OX+.OXO.+.OXOX+.OXO.+.OXOX+.OXO.+XO.OXo",
" X.X.XOX.X..X.O.X.X.X.+..X.X..OX.X...XOX....X.+.X..XO.Oo",
" OXO.+.OXOOO.OXOOO.OXOXOXO.+.O.O.+XOXO.OOOXO.OXO.OXO.OXo",
" ..XO.X.O.X.OX..O.X.O...OX.XOO.XOX..O.X.OX.XOX..OX..OX.o",
" OX+.OXO.O.OXOOOXO.OXOXOOO.OXOXO.O.+XOOO.O.O.O.OXO.OXO.o",
" .O.X.OOOXOO..O.O.OX.OO.O.OX..O.OXOX..O.OXO.OXOOO.OO..Oo",
" OXO.O.O.O.O@@@@@@@@@@@@@@@@@@@@@@@@@@@@@@@@XO.OXOXOXO.o",
" .O.OXOXOXOX#.$X.$X..$.@@#$.X.$X..$.@@#$X.$.O.O.O.O.OXOo",
" OXO.O.O.O.OX$$$$$$$$$%@@.$$$$$$$$$%@@.$$$$$.OXOXO.O.O.o",
" OOXOOOOOOO..$%%%%%%%%#@@.$%%%%%%%%#@@.$%%%%OOO.OO+XOOOo",
" O.OOOXO.OXO.$%#####%%#@@.$%#####%%#@@.$%###.OXOOO.O.OXo",
" OOOOOOOOOOO.$%##%%%&%#@@.$%##%%%&%#@@.$%##%OOOOOOOOOOOo",
" OXO.O.OXO.O$$%#%*=-.%#@@$$%#%*=-.%#@@$$%#%%;O.O.OXO.O.o",
" OOOOOOOOOO+&$%#-=%%$%#@@&$%#-=%%&%#@@&$%#%%OOOOOOOOOOOo",
" OOOXOOO.OOO.$%#=*=&:%#@@.$%#=*=:$%#@@X$%#%%&>OOXOOOXOOo",
" OOOOOOOOOO,.$%%&::X.%#@@.$%%&::..%#@@&$%%&.>OOOOOOOOOOo",
" OOOOOOOOOOO$$%%%%=-%%#@@$$%%%%%%%%#@@$$%%%%,OOOOOOOOOOo",
" OOOOOOOOOO+&%#########@@&%#########@@.%####OOOOOOOOOOOo",
" +OOO+OOO+OO@@o@o@@@@@@@@@@o@@@@@@@@@@@o@o@@O+OOO+OOO+Oo",
" OOOOOOOOOOO@@@@@@@@@@@@@@@@@@@@@@@@@@@@@@@@OOOOOOOOOOOo",
" OO+O+O+OOO+.@@#.$..$.X.$.@@#.$.X$.X.$.@@#X$++O+OOO+O+Oo",
" OOOOOOOOOOO%@@.$$$$$$$$$%@@.$$$$$$$$$%@@.$$OOOOOOOOOOOo",
" +O+O+O+O+O+#@@$$%%%%%%%%#@@.$%%%%%%%%#@@.$%<+O+O+O+O+Oo",
" OOOOOOOOOOO#@@.$%#####%%#@@.$%#####%%#@@$$%OOOOOOOOOOOo",
" +O+O+O+O+O+#@@.$%##%%*1%#@@$$%##%%*1%#@@.$%;+O+O+O+O+Oo",
" O+OOO+OOO+O#@@.$%#*=-=:%#@@&$%#*=-=:%#@@&$%<O+OOO+OOO+o",
" +O+O+O+O+O+#@@.$%#=-=*1%#@@X$=#-=*=:%#@@.$%O+O+O+O+O+Oo",
" O+O+O+O+O+O#@@.$%#-%%.$%#@@&$-#=-=:$%#@@$$%+O+O+O+O+O+o",
" +O+O+O+O+O+#@@$$%=&&...%#@@X$=*:&:..%#@@.$%,+O+O+O+O+Oo",
" ++O+++O+++O#@@&$2-%%%%%%#@@$$-=%=%%%%#@@&$%+++O+++O+++o",
" +O+O+O+O+O+#@@X%#########@@&%#########@@.%#<+O+O+O+O+Oo",
" +++++++++++@@@@@o@@o@o@o@@@@@o@o@o@o@@@@@@@+++++++++++o",
" +O+O+O+O+O+@@@@@@@@@@@@@@@@@@@@@@@@@@@@@@@@O+O+O+O+O+Oo",
" ++++++++++++++++++++++++++++++++++++++++++++++++++++++o",
" +++O+++O+++O+++O+++O+++O+++O+++O+++O+++O+++O+++O+++O++o",
" ++++++++++++++++++++++++++++++++++++++++++++++++++++++o",
" +O+++++++O+++++++O+++++++O+++++++O+++++++O+++++++O++++o",
" ++++++++++++++++++++++++++++++++++++++++++++++++++++++o",
" ++++++++++++++++++++++++++++++++++++++++++++++++++++++o",
"Xooooooooooooooooooooooooooooooooooooooooooooooooooooooo"
};
