/* XPM */
static char *magick[] = {
/* columns rows colors chars-per-pixel */
"48 48 46 1",
"  c Gray0",
". c #202720",
"X c #2f2820",
"o c #2f282f",
"O c #4f372f",
"+ c #5f372f",
"@ c #60382f",
"# c #6f382f",
"$ c #60572f",
"% c #7f4030",
"& c #904f3f",
"* c #90573f",
"= c #8f772f",
"- c #a06040",
"; c #a0674f",
": c #af674f",
"> c #af684f",
", c #b07050",
"< c #b07750",
"1 c #af8f2f",
"2 c #c09f30",
"3 c #c0876f",
"4 c #c0886f",
"5 c #d09760",
"6 c #d0987f",
"7 c #efb74f",
"8 c #efb75f",
"9 c #efbf5f",
"0 c #e0b76f",
"q c #f0c73f",
"w c #efc040",
"e c #efc050",
"r c #f0c740",
"t c #ffd070",
"y c #dfa080",
"u c #e0af90",
"i c #efb78f",
"p c #efbf8f",
"a c #e0b090",
"s c #efb790",
"d c #f0c0af",
"f c #ffcfa0",
"g c #fff0bf",
"h c #ffdfcf",
"j c #ffe7d0",
"k c None",
/* pixels */
"kkkkkkkkkkkkkkkkkkkkkkkkkkkkkkkkkkkkkkkkkkkkkkkk",
"kkkkkkkkkkkkkkkkkkkkkkkkkkkkkkkkkkkkkkkkkkkkkkkk",
"kkkkkkkkkkkkkkkkkkkkkkkkkkkkkkkkkkkkkkkkkkkkkkkk",
"kkkkkkkkkkkkkkkkkkkkkkkkkkkkkkkkkkkkkkkkkkkkkkkk",
"kkkkkkkkkkkkkkkkkkkkkkkkkkkkkkkkkkkkkkkkkkkkkkkk",
"kkkkkkkkkkkkkkkkkkkkkkkkkkkkkkkkkkkkkkkkkkkkkkkk",
"kkkkkkkkkkkkkkkkkkkkkkkkkkkkkkkkkkkkkkkkkkkkkkkk",
"kkkkkkkkkkkkkkkkkkkkkkkkkkkkkkkkkkkkkkkkkkkkkkkk",
"kkkkkkkkkkkkkkkkkkkkkO&&&&kkkkkkkkkkkkkkkkkkkkkk",
"kkkkkkkkkkkkkkkkkkkk%%&:<<6;kkkkkkkkkkkkkkkkkkkk",
"kkkkkkkkkkkkkkkkkkk.&:--*-%<ykkkkkkkkkkkkkkkkkkk",
"kkkkkkkkkkkkkkkkkk##-%kkkk&+<kkkkkkkkkkkkkkkkkkk",
"kkkkkkkkkkkkkkkkkkO%%kkkkk-%-kkk&&-%4=i66kkkkkkk",
"kkkkkkkkkkkkkkkkkk@%%kkkkk--3&-:%*-,9=thdkkkkkkk",
"kkkkkkkkkkkkkkkkkk&&&;:--:-&3*%*%:,3fjyy<kkkkkkk",
"kkkkkkkkkkkkO%%%%*%%:;===12-33%%%@;<6&&&&;kkkkkk",
"kkkkkkkkk3&&%.%&*6*&-4gewqr*4:,&:**><&&&&&-kkkkk",
"kkkk%-;-=5y<%XO&:-%--;p0$6-@:y:&&:%-6,**%**3kkkk",
"kkkk%<38=7;&OO@::%&;y-%**&%o;:&%%%#%d4*&--;;3kkk",
"kk3@O&>,;&%%O+##<*@&*&o@%%@@oo#@OO@@,d,,36uddkkk",
"kk>&o@%%%@+OXXOO*<@@#@+oooo@@@+O@%&%%634ddhsskkk",
"kk-*&@.XOXX.....@:&XXXOOO@@+@@@%&*-;:;64ddu6ukkk",
"kk-%%%O.Oo.......&:+X+@@#%%%%%%&&:3<3*,3as43ykkk",
"kk&%%%#+.OOOO+@+.@:%#X@#%%%%%%:-;33,3*,,63<,3kkk",
"kk&%#@@@+@@@@@@@@@&:%X@%#%#%%-34uu33:@-,>>;;,kkk",
"kk%%@@@@@%*%%%&%%@%:&+%&&%&-,<333333%X%u;*:-,kkk",
"kk%#@@@+O#>;:-&%%@&:&%;,<33,--;;;;3,%O@3,*-->kkk",
"kk%%@@@OO.-,,,-&%@%-%:3uu,*&&&--*---@O%-<:::;kkk",
"kk%@@@+OO.%-;-*&#X%&&;---&%%%%&&&&&%@+-*-:*-:kkk",
"kk%@@+OOO.@%&&%%@X@-&&&%%%%%%%&%%&&%@@>:--*-*kkk",
"kk%@@@OOOoO@%&&%@oO&&#@@@#%%%%%%%%%%@@<;@&**&kkk",
"kk#@@+OOOooO@%%%@oX%%@@@@@#%%%%%%%%%%%>-%%*&%kkk",
"kk@@@@+OOoOO+@@@@oOoo@@@@@@#%%%%%%%%%-%--%&&&kkk",
"kk@@@@+OOOOO+OO@+O@@@@@@@@@@#%###%%%#-;:-%&&*kkk",
"kk@@#@+OOOOOOO+@+O&*@@@@@@@@@@@@@@#%@--%%&%&*kkk",
"kk@O@@+OOOOOO@+@+@-*@@@+++O++++@@@@@@%;6%%%&*kkk",
"kkOXOOOOoO@++O+@@%@%%@OOOOOOO++++@@@@@:;#@@%#kkk",
"kk@.oOOoXo+OOOO+#&%&&@OOOOOOO+++@@@@@@*-##kkkkkk",
"kkk@.OoOX@#@OOOO@@&@@+OOOOOOOOOOOOOX.X--kkkkkkkk",
"kkkk@.OOX@%%@OOO@#6-OOOOOOOOOOOOOOOOkkkkkkkkkkkk",
"kkkkk@XoO%%#@@O+Oo<-oXXXOOXXXXkkkkkkkkkkkkkkkkkk",
"kkkkkk.XO%%%@@++Oo-&XO...kkkkkkkkkkkkkkkkkkkkkkk",
"kkkkkkk.o%&%@OOOoo&%kkkkkkkkkkkkkkkkkkkkkkkkkkkk",
"kkkkkkkk.@%#@@@kkkkkkkkkkkkkkkkkkkkkkkkkkkkkkkkk",
"kkkkkkkkk@@@kkkkkkkkkkkkkkkkkkkkkkkkkkkkkkkkkkkk",
"kkkkkkkkkkkkkkkkkkkkkkkkkkkkkkkkkkkkkkkkkkkkkkkk",
"kkkkkkkkkkkkkkkkkkkkkkkkkkkkkkkkkkkkkkkkkkkkkkkk",
"kkkkkkkkkkkkkkkkkkkkkkkkkkkkkkkkkkkkkkkkkkkkkkkk"
};
