/* XPM */
static char *magick[] = {
/* columns rows colors chars-per-pixel */
"56 46 16 1",
"  c Gray100",
". c #bebabe",
"X c #000010",
"o c #beb6be",
"O c #aeaaae",
"+ c #aea6ae",
"@ c #c7bac7",
"# c Gray0",
"$ c Yellow",
"% c #be2020",
"& c #ff1441",
"* c #79869e",
"= c #9e9a9e",
"- c #000018",
"; c #ae5528",
": c #aeaeae",
/* pixels */
"                                                       .",
" ......................................................X",
" ......................................................X",
" ...o..o..o..o..o..o..o..o..o..o..o..o..o..o..o..o..o..X",
" O...O...+...O...O...+...O...O...+...O...O...+...O...O.X",
" ..o..@o...@o..@o.@o...@o..@o.@o...@o..@o.@o..@o.@o.@o.X",
" O.O.+.O.O.O.O.O.O.O.O.O.O.O.O.O.O.O.O.O.O.O.O.O.O.O.O.X",
" .....O...o...+.......+..######...o...+.......O.......OX",
" O.+.+.O.+.O.+.OoO.+.+.##O.O.O.##O.O.+.OoO.+.+.OoO.+.O.X",
" ...O...O...O...O...O##.O...O...O##.O...O...O...O...+..X",
" O.+.+.+.+.+.O.+.+.+#O.O.+.+.+.O.O.#.+.O.+.+.OoO.O.+.O.X",
" .O...O.O.O.o.O.O.O.#.O.$.$.$.$.O.O#..+.O.O...O.+.O...OX",
" O.+.O.+.O.O.O.+.O.#.O.$.$.$.$.$o$.O#O.O.+.O.+.O.O.+.+.X",
" .O.+.O.O.+.O.O.O.O#Oo$.$o$.$o$.$.$.#.O.O.+.O.O.+.O.O.OX",
" O.O.O.+.O.O.+.O.+#O.$.$.$$$$$$$.$.$.#.+.O.O.+.O.O.+.O.X",
" OO.OOO.OOO.OOO.OO#.$O$.$$$$$$$$$+$.O#O.OOO.OOO.OOO.OOOX",
" O.O.+.O.O.+.O.+.O#O.$.$$$$$$$$$$$.$.#.O.O.+.O.+.O.O.O.X",
" OOOOOOOOOOOOOOOOO#O$+$$%$&$&$&%$O$OO#OO+OOOOOOOOO+OOOOX",
" O.O.O.O.+.O.O.O.O#O.$.$#$$$$$$#$$.$.#.O.O.O.O.O.O.O.O.X",
" OOOOOOOOOOOOOOOOOO#OO$$#$$$$$$#$O$O#OOOOOOOOOOOOOOOOOOX",
" OOO.+OO.OOO.+OO.OO#.$O$$#$$$$#$.$OO#OOO.OOO.+OO.OOO.+OX",
" OOOOOOOOOOOOOOOOOOO#O$O$$#$$#$O$OO#OOOOOOOOOOOOOOOOOOOX",
" OOOOOOOOOOOOOOOOOOO#OO$O$#$$#O$OOO#OOOOOOOOOOOOOOOOOOOX",
" OOOOOOOOOOOOOOOOOOOO#OO$*#$$#*$OO#OOOOOOOOOOOOOOOOOOOOX",
" =OOO=OOO=OOO=OOO=OOO#OOO******OO=#OO=OOO=OOO=OOO=OOO=OX",
" OOOOOOOOOOOOOOOOOOOOO#OOO*.@*OOO#OOOOOOOOOOOOOOOOOOOOOX",
" OO=O=O=OOO=O=O=OOO=O=#=OO*@.*O=O#O=O=O=OOO=O=O=OOO=O=OX",
" OOOOOOOOOOOOOOOOOOOOOO#OO=..*OO#OOOOOOOOOOOOOOOOOOOOOOX",
" =O=O=O=O=O=O=O=O=O=O=O#O=*..=+=#=O=O=O=O=O=O=O=O=O=O=OX",
" OOOOOOOOOOOOOOOOOOOOOOO#@*o@*O#OOOOOOOOOOOOOOOOOOOOOOOX",
" =O=O=O=O=O=O=O=O=O=O=O=##X-XX##O=O=O=O=O=O=O=O=O=O=O=OX",
" O=OOO=OOO=OOO=OOO=OOO=O#;;;;;;#OO=OOO=OOO=OOO=OOO=OOO=X",
" =O=O=O=O=O=O=O=O=O=O=O#;;;;;;;;#=O=O=O=O=O=O=O=O=O=O=OX",
" O=O=O=O=O=O=O=O=O=O=O=O########=O=O=O=O=O=O=O=O=O=O=O=X",
" =O=O=O=O=O=O=O=O=O=O=O#;;;;;;;;#=O=O=O=O=O=O=O=O=O=O=OX",
" ==O===O===O===O===O===O########===O===O===O===O===O===X",
" =O=O=O=O=O=O=O=O=O=O=O#;;;;;;;;#=O=O=O=O=O=O=O=O=O=O=OX",
" =======================##;;;;##=======================X",
" =O=O=O=O=O=O=O=O=O=O=O=O=####:=O=O=O=O=O=O=O=O=O=O=O=OX",
" ======================================================X",
" ===O===O===O===O===O===O===:===O===O===O===O===O===O==X",
" ======================================================X",
" =O=======O=======O=======O=======O=======O=======O====X",
" ======================================================X",
" ======================================================X",
".XXXXXXXXXXXXXXXXXXXXXXXXXXXXXXXXXXXXXXXXXXXXXXXXXXXXXXX"
};
