/* XPM */
static char *magick[] = {
/* columns rows colors chars-per-pixel */
"56 46 11 1",
"  c Gray100",
". c #bebabe",
"X c #000010",
"o c #beb6be",
"O c #aeaaae",
"+ c #aea6ae",
"@ c #c7bac7",
"# c #9e9a9e",
"$ c Gray0",
"% c Yellow",
"& c #79869e",
/* pixels */
"                                                       .",
" ......................................................X",
" ......................................................X",
" ...o..o..o..o..o..o..o..o..o..o..o..o..o..o..o..o..o..X",
" O...O...+...O...O...+...O...O...+...O...O...+...O...O.X",
" ..o..@o...@o..@o.@o...@o..@o.@o...@o..@o.@o..@o.@o.@o.X",
" O.O.+.O.O.O.O.O.O.O.O.O.O.O.O.O.O.O.O.O.O.O.O.O.O.O.O.X",
" .....#..o...o#......o#...o...#..o...o#.......#.......OX",
" O.+.+.O.O.#.O.+.+.#.O.+.O.#oO.+.O.#.O.+.+.#oO.+.+.#oO.X",
" ...O...Oo..+...O...+...Oo..O...O...+...O...O...O...O..X",
" O.+.O.+.O.+.O.+.+.+.O.+.O.O.+$$$$$$$$$$$OoO.+.+.OoO.O.X",
" .O.o.O.O.O...O.O.O...O.O.+..$$%%%%%%%%%$.O...O.O.O...OX",
" O.O.O.+.O.+.+.O.+.O.+.O.O.O$$%%%%%%%%%$$O.O.+.O.+.OoO.X",
" .O.O.O.O.O.O.+.O.+.O.O.+.O$$%%%%%%%%%$$&.+.O.O.O.O.O.OX",
" O.+.+.O.+.O.O.O.O.O.+.O.O$$%%%%%%%%%$$&&O.O.+.+.O.O.O.X",
" OO.OOO.OO+.OO+.OO+.OOO.O$$%%%%%%%%%$$&&@O+.OOO.OO+.OOOX",
" O.O.O.+.O.O.O.O.O.O.O.+$$%%%%%%%%%$$&&..O.O.O.O.O.O.+.X",
" OOOOOOOOOOOOOOOOOOOOOO$$%%%%%%%%%$$&&.OOOOOOOOOOOOOOOOX",
" O.O.O.#.O.O.+.O.+.O.+$$%%%%%%%%%$$&&@...+.O.+.O.+.O.O.X",
" OOOO+OOOOOOOOOOOOOOO$$%%%%%%%%%$$$$$$$$OOOOOOOOOOOOOOOX",
" OOO.OOO.+OO.OOO.OOO$$%%%%%%%%%%%%%%%%%$.OOO.OOO.OOO.OOX",
" OOOOOOOOOOOOOOOOOOO$%%%%%%%%%%%%%%%%$$$OOOOOOOOOOOOOOOX",
" OOOOOOOOOOOOOOOOOOO$$$$$$%%%%%%%%%%$$&&.OOOOOOOOOOOOOOX",
" OOOOOOOOOOOOOOOOOOOOOO$$%%%%%%%%%$$$&&..OOOOOOOOOOOOOOX",
" #OOO#OOO#OOO#OOO#OOO#$$%%%%%%%%%$$&&@...#+OO#OOO#OOO#OX",
" OOOOOOOOOOOOOOOOOOOO$$%%%%%%%%%$$&&..+.+OOOOOOOOOOOOOOX",
" OO#O#O#OOO#O#O#OOO#$$%%%%%%%%$$$&&@.OO#OOO#O#O#OOO#O#OX",
" OOOOOOOOOOOOOOOOOO$$%%%%%%%%$$&&&...OOOOOOOOOOOOOOOOOOX",
" #O#O#O#O#O#O#O#O#O$%%%%%%%%$$&&@..+O#O#O#O#O#O#O#O#O#OX",
" OOOOOOOOOOOOOOOOOO$$$$%%%$$$&&....OOOOOOOOOOOOOOOOOOOOX",
" #O#O#O#O#O#O#O#O#O#$$%%%$$&&&@..#+#O#O#O#O#O#O#O#O#O#OX",
" O#OOO#OOO#OOO#OOO#$$%%%$$&&@...+O#OOO#OOO#OOO#OOO#OOO#X",
" #O#O#O#O#O#O#O#O#$$%%$$$&&@oO.#O#O#O#O#O#O#O#O#O#O#O#OX",
" O#O#O#O#O#O#O#O#$$%%$$&&..oOO#O#O#O#O#O#O#O#O#O#O#O#O#X",
" #O#O#O#O#O#O#O#$$%%$$&&@..OO#O#O#O#O#O#O#O#O#O#O#O#O#OX",
" ##O###O###O###$$%$$$&&..O#O###O###O###O###O###O###O###X",
" #O#O#O#O#O#O#O$%$$&&&@..#O#O#O#O#O#O#O#O#O#O#O#O#O#O#OX",
" ##############$$$&&...+###############################X",
" #O#O#O#O#O#O#O#&&&@.+.#O#O#O#O#O#O#O#O#O#O#O#O#O#O#O#OX",
" ###################O##################################X",
" ###O###O###O###O###O###O###O###O###O###O###O###O###O##X",
" ######################################################X",
" #O#######O#######O#######O#######O#######O#######O####X",
" ######################################################X",
" ######################################################X",
".XXXXXXXXXXXXXXXXXXXXXXXXXXXXXXXXXXXXXXXXXXXXXXXXXXXXXXX"
};
