/* XPM */
static char *magick[] = {
/* columns rows colors chars-per-pixel */
"48 48 134 2",
"   c Gray0",
".  c #000f0f",
"X  c #0f000f",
"o  c #0f0f00",
"O  c Gray6",
"+  c #00001f",
"@  c #0f0f1f",
"#  c #1f0f0f",
"$  c #1f0f1f",
"%  c #1f0f2f",
"&  c #0f200f",
"*  c #0f201f",
"=  c #1f200f",
"-  c #1f201f",
";  c #1f301f",
":  c #0f202f",
">  c #0f302f",
",  c #1f202f",
"<  c #1f302f",
"1  c #2f0f1f",
"2  c #2f201f",
"3  c #2f301f",
"4  c #2f202f",
"5  c #2f302f",
"6  c #1f2040",
"7  c #1f3040",
"8  c #2f2040",
"9  c #2f3040",
"0  c #2f3050",
"q  c #1f402f",
"w  c #2f401f",
"e  c #2f402f",
"r  c #1f4050",
"t  c #2f4040",
"y  c #2f4050",
"u  c #2f5050",
"i  c #2f4060",
"p  c #2f5070",
"a  c #2f6750",
"s  c #40201f",
"d  c #40301f",
"f  c #40302f",
"g  c #50302f",
"h  c #402040",
"j  c #403040",
"k  c #403050",
"l  c #503040",
"z  c #40402f",
"x  c #50402f",
"c  c Gray25",
"v  c #404050",
"b  c #405040",
"n  c #405050",
"m  c #504040",
"M  c #504050",
"N  c #505040",
"B  c #505050",
"V  c #404060",
"C  c #404070",
"Z  c #405060",
"A  c #405070",
"S  c #505060",
"D  c #505070",
"F  c #506750",
"G  c #406760",
"H  c #506760",
"J  c #506770",
"K  c #507770",
"L  c #604040",
"P  c #605040",
"I  c #605050",
"U  c #705050",
"Y  c #605060",
"T  c #605070",
"R  c #705070",
"E  c #606740",
"W  c #606750",
"Q  c #706740",
"!  c #706750",
"~  c #707750",
"^  c #606760",
"/  c #606770",
"(  c #607760",
")  c #607770",
"_  c #706760",
"`  c #706770",
"'  c #707760",
"]  c #707770",
"[  c #507780",
"{  c #607780",
"}  c #706780",
"|  c #707780",
" . c #708760",
".. c #708770",
"X. c #608780",
"o. c #708780",
"O. c #708790",
"+. c #709780",
"@. c #807750",
"#. c #806770",
"$. c #807760",
"%. c #807770",
"&. c #807780",
"*. c #808750",
"=. c #808760",
"-. c #808770",
";. c #809770",
":. c #908770",
">. c #909770",
",. c #a09770",
"<. c #a0a870",
"1. c #808780",
"2. c #808790",
"3. c #809780",
"4. c #809790",
"5. c #908780",
"6. c #909780",
"7. c #909790",
"8. c #9097a0",
"9. c #90a880",
"0. c #90a890",
"q. c #90a8a0",
"w. c #a08780",
"e. c #a0a890",
"r. c #a0b880",
"t. c #a0b890",
"y. c #b0a880",
"u. c #b0b880",
"i. c #b0b890",
"p. c #b0c8a0",
"a. c #cfb890",
"s. c #cfc890",
"d. c #cfc8b0",
"f. c Gray100",
/* pixels */
"f.f.f.f.f.f.f.f.f.f.f.f.f.f.f.f.f.f.f.f.f.f.f.f.f.f.f.f.f.f.f.f.f.f.f.f.f.f.f.f.f.f.f.f.f.f.f.  ",
"f.f.d.f.d.d.d.d.d.d.d.d.d.d.d.d.d.d.d.d.d.d.d.d.d.d.d.d.d.d.d.d.d.d.d.d.d.d.d.d.d.d.d.d.d.d.1.  ",
"f.f.q.q.q.q.q.q.q.q.8.8.q.8.7.0.7.7.0.7.4.4.4.4.4.4.4.2.2.2.2.2.2.2.2.1.1.1.1.1.1.1.o.1.1.o./   ",
"f.f.q.8.q.q.7.8.q.7.0.0.7.7.0.7.7.7.7.4.4.4.4.4.2.2.4.1.2.4.1.1.3.1.1.1.1.1.1.1.1.1.&.&.1.1./   ",
"f.f.q.q.q.8.q.8.8.0.8.8.7.7.8.0.4.4.4.4.4.4.4.4.4.4.2.2.2.2.2.2.2.1.1.1.1.1.1.1.1.1.1.o.&.o.^   ",
"f.d.q.q.q.q.q.8.8.0.8.7.0.7.7.4.4.4.4.4.4.4.4.4.4.2.2.4.2.1.2.2.1.1.1.1.1.1.1.o.1.1.o.o.1.o.^   ",
"f.d.q.7.q.q.B M M M M M M M M M M M M M M M M M M M M M M M M M M M M M M M M M M f.&.&.o.1./   ",
"f.d.8.q.8.8.B + . . . . + . . + + . + . . X @ . $ , 5 8 , $ % % , , 6 @ @ @ , @ @ f.o.o.1.o.S   ",
"f.d.q.q.8.8.B + X O O O O O O O O O O O O & < - f ^ &.&.t t t 9 m t c t < - 4 * , f.o.o.&.o.S   ",
"f.d.q.7.0.0.B + O O O O # O O # O O 1 5 < , 5 5 ' I -.S c v y ! +.5.Y 5 , 4 # $ < f.&.&.o.&.Y   ",
"f.d.8.0.8.8.B , 2 O O O O O @ @ - $ = < 5 B M m v B y 7 - 5 5 5 o.o.H S 4 4 l 9 - f.o.o.| | S   ",
"f.d.7.0.8.7.B 5 5 & O O O * , 7 < , z 9 M o./ v v 5 9 * - - 3 3 , 5 5 9 5 y N c , f.o.o.| o.S   ",
"f.d.0.7.7.7.B @ $ O O O # , * 7 3 j z $.%.m 5 - 2 5 t 9 - - 2 j 2 - 4 ^ T B k j 2 f.&.&.| &.Y   ",
"f.d.8.7.7.7.B . O O @ @ O - - ; c Z 9._ S 4 , 5 v t c , 4 , c B 4 5 - v y v t , < f.o.| | | S   ",
"f.d.7.0.7.7.B 7 < * * - - - - c / v ( ^ M 5 v F b e - 2 5 4 ; , $ - - - 7 < , * * f.o.o.| | S   ",
"f.d.7.7.4.4.B 6 j $ * , 5 - - y c m S c w Q ] H n c z 5 2 - - ; - - O 2 - $ # $ - f.&.| ] | Y   ",
"f.d.7.4.4.4.B : , O - 9 t 5 5 v V v c c c k ^ ( c c n L c < z B 4 O $ O @ @ - O - f.o.| | | S   ",
"f.d.7.4.4.4.B : j * , m v | c y v t u N F W ' _ =.~ F _ I ] t t 4 , * < & O * & - f.| | | { B   ",
"f.d.4.4.4.4.B % y @.2 4 j n B ] e z M M v #.$.=.1.-.6.' m ^ j t n 4 2 - 2 # O $ 1 f.| | ] | S   ",
"f.d.4.4.4.4.B : y 9 4 - < 9 S J c 9 t ' -.%.;.,.9.>.-.-.$.5 b B H B < - 4 2 @ @ O f.| | ] { B   ",
"f.d.4.4.4.4.B : 7 , * * e < / ) z c t W 6.=.i.a.i.e.3.1.-.) N Z / -.t 9 - 2 , & O f.) { | ) M   ",
"f.d.4.2.4.4.B % 9 , $ , $ , z S B z R -.6.w.a.s.s.e.9.<.=.c *.-.B n c z , 1 # $ O f.| | ) } B   ",
"f.d.4.2.4.2.B : y : - , O - N B c N M ' 6.,.a.s.u.6.;...$.( Y %.Y v 4 4 , - O , O f.{ ) ) ) v   ",
"f.d.4.4.2.2.B + 7 - , 7 - 4 S B 9 5 H ! 1.r.t.t.t.6.:.-.I n W ] S e - e * - @ O * f.) ) | ) v   ",
"f.d.2.1.2.4.B , y 4 - 4 8 9 D o.S 5 m _  .>.y.:.=.P W N x x -.] ^ G 9 - , - O # O f.| | ) ] M   ",
"f.d.2.2.2.2.B : t ; $ , 9 V Z M v c m B m ] -.c m B I n l P 1.| t V 5 , * - O # # f.) ) / / v   ",
"f.d.2.4.2.1.B % V O @ - t , , < y Z 0 5 f e c , z N x N ] +.1.I y t < $ < * $ $ O f.) ) } ) v   ",
"f.d.2.1.2.4.B % c $ O & $ - 3 %./ t B , s 5 2 f E d 2 j U | J y q 5 $ 5 $ - - 2 O f.] ] ) / v   ",
"f.d.2.1.2.2.B % W - $ O O # 2 y 0 , , < - , 4 - 5 , g M ^ / t 5 < - $ O O O O O O f./ / / / v   ",
"f.d.1.3.2.1.B @ j ' $ @ O O @ & : @ & & - d - 4 ; - 9  .( t > * 8 - * @ = @ , & O f.) ) / ) v   ",
"f.d.2.1.1.1.B @ 9 f 5 , - @ O 4 - - - < - m 5 | 9 c 6.O.1.5 - - = $ # x O O O O X f./ / / / v   ",
"f.d.2.1.1.1.B , c 7 y i i y , 4 5 4 9 y 5 7 9 M c B ..-.^ 5 - $ O O O O # O O O O f./ / / / c   ",
"f.d.1.1.1.1.B @ $ V 7 0 a Z ( ' v 2 y 7 j 5 v K 3.X.Z S i h - O @ O O $ & * @ * O f./ ) / J c   ",
"f.d.1.1.1.1.B @ O @ * 2 8 v | J W j 9 5 y v ..9.o.S j c 0 - $ # O O X O $ - O X O f./ / ^ T v   ",
"f.d.1.1.1.1.B + O @ , , 5 c Z / / Y < 9 ..o.{ B c 9 3 %.5 E @ O O X O O $ , O O O f./ / ^ / c   ",
"f.d.1.o.1.1.B + @ O & , ; 9 S E S / 9.1.4.[ { r 4 4 8 i @ - & O @ & O $ & O O O . f.J J / H t   ",
"f.d.1.&.1.1.B + O - , , 4 5 9 t v ..X./ H C Z t 0 - & - 5 k $ $ & - - 4 O # O O X f.T / ^ T c   ",
"f.d.1.1.1.1.B + O 4 $ $ - 5 9 , $ 5 t 9 v M Z A , - - - V V 5 9 @ X O O X O O O O f./ / ^ J t   ",
"f.d.1.o.1.1.B + $ * O * * * 6 < < 0 3./ O.p t 0 * * $ - < $ * * O O . O O . O O . f.H H / H t   ",
"f.d.1.&.1.o.B @ # # $ @ , - - t ^ ] p.-.^ 0 , @ $ - O $ $ * O O O X X o O O O X O f.T Y H T c   ",
"f.d.1.1.o.o.B @ @ @ @ - @ , B A p Z F t 9 , 8 @ $ - O O O O X O O X O , O O o O O f.J H H S t   ",
"f.d.1.o.&.&.f.f.f.f.f.f.f.f.f.f.f.f.f.f.f.f.f.f.f.f.f.f.f.f.f.f.f.f.f.f.f.f.f.f.f.f.H H T H t   ",
"f.d.o.&.o.o.&.| | &.| | &.| ] | | ] | ] ) } ] ) ` ) ) ` / / ` / / / / ^ T ^ ^ T ^ H T Y H Y 9   ",
"f.d.o.&.o.| &.| | | | | | | ] | | ] | ) ) | ) / | ) / / / / / / / / / ^ T H ^ T H H S S S S 9   ",
"f.d.1.o.| | o.| | | | | { | | ) ) | ) ) | ) ) } ) ) / ) ) / / / / J J / H H / H H T H H D H t   ",
"f.d.o.&.| | &.| | &.| ] | ] ] | ] ) } ] ) ` ) ) / / / / / ^ / / ^ T ^ ^ T Y H T S H S S S S 9   ",
"f.d.^ / ^ ^ / Y Y Y S S Y B S S B B S M M S M M v v v v v c v v c v c c j c c t t 9 9 9 9 9 ,   ",
"f.                                                                                              "
};
