/* XPM */
static char *magick[] = {
/* columns rows colors chars-per-pixel */
"56 46 19 1",
"  c Gray100",
". c #beb6be",
"X c #000011",
"o c #c7bac7",
"O c #aea6ae",
"+ c #b6aeb6",
"@ c #79869e",
"# c #010101",
"$ c Cyan",
"% c #aeb2cf",
"& c #aeaeb6",
"* c #202496",
"= c #6986be",
"- c #717986",
"; c #ae5528",
": c #9e9a9e",
"> c #a69ea6",
", c #9696ae",
"< c #a6798e",
/* pixels */
"                                                       .",
" ......................................................X",
" .o..o.o.o..o.o.o..o.o.o..o.o.o..o.o.o..o.o.o..o.o.o..oX",
" ..o......o......o......o......o......o......o......o..X",
" O...Oo..O..oO.o.O.o.O...Oo..O...Oo..O..oO.o.O.o.O...O.X",
" .o.o...o.o...........o.o...o.o.o...o.o..........o.o.o.X",
" O.O.O.O.O.OoO.OoOoO.O.O.O.O.O.O.O.O.O.OoO.OoO.O.O.O.O.X",
" ....oO..o....+......oO..o.o..Oo..o.o.O...o...Oo..o...OX",
" O.O.O.+.O.OoO.O.OoO.O.O.O.O.O.O.O.O.O.O.O.OoO.O.O.O.OoX",
" .o.Oo..O.o.O..oO.@######@..Oo..O.o.O..oO.o.O...+..oO..X",
" O.O.O.O.O.O.O.O.##@$@$@$##@.O.O.O.OoO.O.O.O.OoO.O.O.O.X",
" .O.o.OoO.O..oO.#@$@@@@@@$$#@oO.OoO...O.O.Oo..O.OoO..oOX",
" O.O.O.O.OoO.O.#@$@O%O  .O@$#@.O.O.+.OoO.+.O.O.O.O.OoO.X",
" .O.+.O.O.O.O.#@$@O.  $ O O@$#OoO.O.O.O.O.O.O.OoO.O.O.OX",
" OoO.OoO.OoO.O#$@O.$ $   O O@#@O.OoO.OoO.OoO.O.O.+.O.O.X",
" OO.OOO.OOO.OO#$OOO  OO.O O O@#.OOO.OOO.OOO.OOO.OOOoOOOX",
" O.O.O.OoO.OoO#$.O. .O.O@O@ .@#O.O.OoO.OoO.OoOoO.O.O.O.X",
" OOOOOOOOOOOOO#$ OOOOOOO&@*O&@#OOOOOOOOOOOOOOOOOOOOOOOOX",
" O.O.O.O.O.O.O#$ O.O.O.O.@*@.@#O.O.O.O.O.O.O.O.O.O.O.O.X",
" OOOO+OOOOOOOO#$$ OOOOOO@*=-&@#OOOOOOOOOOOOOOOOOOOOOOOOX",
" OOO.OOO.OOO.O##$$ O.OO@*@@&@#OO.OOO.OOO.OOO.OOOoOOOoOOX",
" OOOOOOOOOOOOO@##$O  OOOO&O@##OOOOOOOOOOOOOOOOOOOOOOOOOX",
" OOOOOOOOOOOOO@###@@   OO@@#;#OOOOOOOOOOOOOOOOOOOOOOOOOX",
" OOOOOOOOOOOOOO@###########;O#OOOOOOOOOOOOOOOOOOOOOOOOOX",
" :OOO:OOO:OOO:OO@##########@;:#OO:OOO:OOO:OOO:OOO:OOO:OX",
" OOOOOOOOOOOOOOOOOO@######O#@;O#OOOOOOOOOOOOOOOOOOOOOOOX",
" OO:O:O:OOO:O:O:OOO:O:O:OOO:#@;:#OO:O:O:OOO:O:O:OOO:O:OX",
" OOOOOOOOOOOOOOOOOOOOOOOOOOOO#@;O#OOOOOOOOOOOOOOOOOOOOOX",
" :O:O:O:O:O:O:O:O:O:O:O:O:O:O:#@;:#:O:O:O:O:O:O:O:O:O:OX",
" OOOOOOOOOOOOOOOOOOOOOOOOOOOOOO#@;O#OOOOOOOOOOOOOOOOOOOX",
" :O:O:O:O:O:O:O:O:O:O:O:O:O:O:O:#@;:#:O:O:O:O:O:O:O:O:OX",
" O:OOO:OOO:OO>:OO>:OO>:OO>:OOO:OO#@;O#:OOO:OOO:OOO:OOO:X",
" :O:O:O:O:O:O:O:O:O:O:O:O:O:O:O:O:#@;:#:O:O:O:O:O:O:O:OX",
" O:O:O:O:O:O:O:>:O:>:O:>:O:>:>:O:O:#@;:#:O:O:O:O:O:>:O:X",
" :O:O:>:>:O:O:O>>:O:O:O:O:O:O:>:O:O:#@;:#:O:>:>:O:O:O:OX",
" ::>:::O::>>:::>>:>O:::O:>:>>:>>:::O:#@;:#:>::>>:::O:::X",
" :O:>>>>>:>>>>>>>:>:O:O:>:O:>:O:O:>:O:#;@#O:O:>>>:>:>:OX",
" ::::::::::::::::::::,<:::::::::::>::::##:::::::::>::::X",
" :O:>>>:>>>>>:>>>>>>>:O,>>>>>>>:>:>:>:O:O:O:>>>:O<O:>>OX",
" :::><::><::><:::::::>::><::::::>:::>:::::::><:::,:::::X",
" :::>>,:>>::>>,:>:<,>:::O:,:>><,>:::>:::>::<O,::O::<O::X",
" ,<::::::::::::<>:>::><::::<::::>,<::,<::::,:::><::,:::X",
" :O::<,:<,>><,::::>:::,:::O>,:::::O>:::,:<O:::::,:O::::X",
" :::,::>:::,:::::::,<:::,<::::,<:::,<:::>:>::,<:::><:::X",
" ::::::::::::::<,:::>::<>:,::<>:>::::,:<,::::::::<,:>::X",
".XXXXXXXXXXXXXXXXXXXXXXXXXXXXXXXXXXXXXXXXXXXXXXXXXXXXXXX"
};
