/* XPM */
static char *magick[] = {
/* columns rows colors chars-per-pixel */
"48 48 37 1",
"  c #595759",
". c Gray0",
"X c Gray100",
"o c Gray53",
"O c #d3d3d3",
"+ c #777777",
"@ c Gray51",
"# c #8e8e8e",
"$ c Gray64",
"% c Gray68",
"& c #bebabe",
"* c #c0c0c0",
"= c Gray77",
"- c #5f5f5f",
"; c #555555",
": c #7c7c7c",
"> c #616561",
", c #484048",
"< c Gray22",
"1 c Gray20",
"2 c Gray30",
"3 c Gray46",
"4 c #282828",
"5 c #444444",
"6 c #666671",
"7 c #222222",
"8 c #4b4b4b",
"9 c Gray60",
"0 c #67636f",
"q c #cecece",
"w c Gray72",
"e c #707080",
"r c #ececec",
"t c #847b84",
"y c Gray50",
"u c #525a5a",
"i c #ce7352",
/* pixels */
"                                                ",
" ..............................................X",
" .ooooooooooooooooooooooooooooooooooooooooooooOX",
" .o+@@@@@@o@oooooo#o###$#####$o#$$#$$$$$$$%$%%OX",
" .o@@@@oooo#o###$##$#$###$#%#$$$$$$$$$$%$%%%%%OX",
" .o@@@@@o#o#o##oo$#####$##$#$$$$#$$$$$$$$%%%%%OX",
" .o@@@oooo#o##$%&&&*==%%$$##$#$$$$$$$$$%%%%%%%OX",
" .o@o@oo#o##%%%#+-;;;-:$%$$$$$$$$$$$%$%$%%%%%%OX",
" .o@oooo#o#%=#>,<11111123#%$#$$$$$$$$%$%%%%%%%OX",
" .o@oo#o##%%#,415;636>514;#%$$$$$$$$%%%%%%%%%%OX",
" .oo#o#o#%%#478>:o99%$#+57<#%$$$$$$%%%%%%%%%%&OX",
" .ooo#o#$&94703#&q=&%&w&%>71$$$$$$%$%%%%%%%%&%OX",
" .oo#o#$%$57e-&rrrO=####$%o.<$%$%%%%%%%%%%%w%&OX",
" .ooo##$%37569Orrr=#o@o@@#9;7;9%$$%%%%%%%%&%&%OX",
" .oo##o%9276t=rrO*o+33333+o#71:$%%%%%%%%%%w%&&OX",
" .oo###%@156$qOrq$36666666@9170#%%%%%%%%%%&w%wOX",
" .oo###&34;3$OOO=o63333+++:9;72#%%%%%%%%&%w%&wOX",
" .oo###&>7;etOOrwo3+@@@oooo$37,o%%%%%%%%&w%&&&OX",
" .oo$##w67;33=rOq$yo$$$$$$$%@7<o$%%%%&%&%%&&%&OX",
" .o####w67263=OOr&#%%%%&&%&&375+$%%%&%&%&w%*&*OX",
" .o#$##%+45>6&OrrO=%&====q=&545o%%%&%&%&%&&&*&OX",
" .o##$#%:57>6#Orrrrqqqqq=qO&74u:9%&%&%&w&&&&&*OX",
" .o####$#>7,3@=rrrOqqqqqqO&e71;o%%%&%w%&%*&&&*OX",
" .o#$###9:473t%OOOqqqqqqOO$1756#9%%&%&&w&&&*&=OX",
" .o##$####>7<#%qqqqqqqqOq%2.5;e#%%&%&ww&&&&&&=OX",
" .o##$#$@##27>9&qqqqOqO&$;.7;;o$$%w&w&&&&*&***OX",
" .o#$####@o#575@%%&=*%%317.1e6:9%%&w%&&&*&&==&OX",
" .o#$$$$##t@$5771-+#32174557$#6o%%&%=&&*&&=&==OX",
" .o####99##+t#6;17...118;u 5.%68t&&*&&&&==&===OX",
" .o#%$$$$$oo:@:+3>;u,2;666e6.-,$9iww&*&=*&====OX",
" .o$#$$$$$$o#@+@:::yo::+3:+6 71i%%3&&&=&*=====OX",
" .o$$$$$$$$$#oo@::@@ot@::@@3387,i%$i**&======qOX",
" .o#$#$$$$$$$$oo@@@::t@@#oo@++54,i%9y&**=====qOX",
" .o$$$$$$$$%%$$$####oo#$#$$$o@354,i&i9w*====qqOX",
" .o#$$$$$$$%$$%%%9$$$$$$%%%%$oyt871iOi9w====qqOX",
" .o$$$$$$%%$%%%%%%%%%%%%%&%%%$oy+27,iOio&=qq=qOX",
" .o$$$$$$$%%%%%%%%%%&%&%&&&&&%%#tt .1ii1>==qqqOX",
" .o$$$$%%%%%%%%%%%%&%&%&%&&w&%%$9@3-.<77>==qqqOX",
" .o$$$%$$%%%%%%%%%&%&%&&&&&&&&&%$9@:-7.<o*=qqqOX",
" .o$%$%%%%%%%%%%%&%&%&&ww&&&&*&&%$9o:8-3$*=qqOOX",
" .o$%$%%%%%%%%%%&%&%&ww&&&&&=***&&%9#:o#%*qqqOOX",
" .o$%$%%%%%%%%&%&%w%&w&&&&&*=&==*&&%9o#9%=qqqOOX",
" .o$%%%%%%%%%%&w%&&w&&&&&&*=&=====*ww$$%&qqOqOOX",
" .o%%%%%%%%%&w%&%%&&&*&&&*=&========&&&*qqqqOOOX",
" .o%%%%%%%%&%&%w&&&&*&&&==&========q=q=qqqqOOOOX",
" .%%%%%%%%&%w%&%&w&&&&**=&=======q=qqqqqqOOOOOOX",
" .OOOOOOOOOOOOOOOOOOOOOOOOOOOOOOOOOOOOOOOOOOOOOX",
" XXXXXXXXXXXXXXXXXXXXXXXXXXXXXXXXXXXXXXXXXXXXXXX"
};
