/* XPM */
static char *magick[] = {
/* columns rows colors chars-per-pixel */
"56 46 39 1",
"  c #fffbff",
". c #b6aeb6",
"X c #080408",
"o c #9e9a9e",
"O c #8e8a8e",
"+ c #386da6",
"@ c #beb6be",
"# c #000018",
"$ c #a6798e",
"% c #79869e",
"& c #a6a2a6",
"* c #aeaeb6",
"= c #000808",
"- c #000010",
"; c #8e8679",
": c #a69ea6",
"> c #717986",
", c #ae9e59",
"< c #aeb2cf",
"1 c #9696ae",
"2 c #51718e",
"3 c #fff3ff",
"4 c #c7bac7",
"5 c #cfc7cf",
"6 c #eff3f7",
"7 c #696971",
"8 c Gray100",
"9 c #aea671",
"0 c #ae6161",
"q c #aea6ae",
"w c #717571",
"e c #51a249",
"r c #867986",
"t c #bec3cf",
"y c #6986be",
"u c Gray65",
"i c Gray59",
"p c #f7b2ae",
"a c #5155ff",
/* pixels */
"                                                       .",
" ......................................................X",
" ...............oOO+O+O+O+OOoo.........................X",
" ........@....OO++++++++++X+X++o...@....@....@....@....X",
" o@..o@..o.@O++XoOo+#+#+@$%+OXXX+&...o@..o@..o..@o...o@X",
" ...@.*....O=+X+X+X.O-+=;%$OX+XXXXo*@....*...*@....*@..X",
" o.o.o@o@o+X+X+:oX+$+++$++.>,#+X+XXo.o@o@o@o@o.o@o@o.o.X",
" @*@..o.*+X+#+o.O@<*@+$*$*,1>$X+X+XXo.o*...*..o.*.*...oX",
" o.o.o@o+X+X++@2++O@.*<%@%1%-+>X+-+XXo@o@o@o@1.o@o@o@o@X",
" @..:*.+X+-+-++++$%..<..O<>,OO#+X+X+XX1.o*..o...o...o*.X",
" o.o.oOX+X+++++$%. .3..O.O.24O+XXXOX+X+o<o.1.o.o.1@1.o.X",
" .o.@.X+-+-+-++@  .......*1$O+X+OX++XXX+o.o...o.o.o...oX",
" o.o.++X++++$56@ . . ..O.O.7<X+XOXX+OXXX.:.o@1.o<o.o@1.X",
"3@1.o+#+-++O*     . ......O@O%$+X+-+X+XX+.o.o.:.o.o<o.oX",
" o.1OX+o:O+$3. . . . ....O<;.O+X+X+X+-+XXo.1.o.o.o.o.o.X",
"3oo.++Xo:*5+  8   . ......>9>$X+X+-+X+X+X+o.:o:.o:o.:ooX",
" o@%OX+O++3* .8@8. . ..O.O.%.-+-+-+-+-XXX+.o.o.o.o.:.o.X",
" o10O.X+<++ .8.8. .....@..O.O+-+X+X+X+X+XXoo:oo1oooooooX",
" o.+OOqX+q3+ .8.8.8.8.@O.O.O.X+X+-+-+XXOXX.1.o.o.1.o.1.X",
" oo%%*O.X@*@...*......*...%$O+X+X+-+XX XOXoo:oo:ooo1oooX",
" oq+;O@OO-+$%.. . .....O.O@w<O+-+X+-X   XOoo.e+r<o:o4ooX",
"3oo+O1O..OX+X+=........<$eOOOOo+-+XX     -%>++3#e$:ooooX",
" o:+>:.O.X+X+-+X+O.O.O.O.$<O0+2+o+X   .   X+4  @+*:ooo:X",
" :o+2,ooO+X+X+X+=+@..@O%$;O12o+;+X   . . ..     #e1:$:oX",
" O1+:O>o:X+-+X+-+X$X.O.O*>O+O+>+X   . ...    .  t+1o1e1X",
"3oo+O$O%:+X+-+-+X+X+=+%$OO1>,1+X   . ..    ..    #eo::oX",
" oo0+%+;$%+-+X+-+-+X+X++%+,+2+#   ...    ..  ..  @+$oeqX",
"3ooy+;1>%O++X+-+X+X+X+#>9>+$+X   ..    ..  ..     ->::oX",
" eqe$+$+%$>O+X+X+-+-+XO++++++@@..@................@.O0<X",
" ::q1=0%>,O>u+X+X+X+X+O#36 3 3   888                +>iX",
" $oOo+++O+2+OX+-+-+-++$X  .. . .  888          upu  X+:X",
" o%ooo#++>+O>+-+X+XoO%+X  . . .                ;u,  -,OX",
" ,O%o%;+++$+O-+-+-o+$+>X                       +pp  X+oX",
" :>o;:$+#++O++X+X++>+++X                       ppp  ->OX",
" %1Oo%oO++++$#+Xu+;+$++#           O%...            X+:X",
" >,o$OOo$+#+++-++++++++X                            XOOX",
" O1Oo%o%qO+++++-++++++-X           O;.O..O...       X+1X",
" ;$e%;$,2$$++-+++++a+++X                            XOOX",
" $1$*%OO:%o1q++-+-+X+-+-           $%..O.O;@8       X+oX",
" %O%O21O%%Oi2$$+-+-+-+-X                88 8        X$OX",
" ;,>o,$O1%>O:O%;&++X+X+X                 88 8       X+>-",
"6%$%%>%O>,O0OO%$>O>$$OOX                88 8        X2,X",
" %o%$%OO%$:%%,>%1,1%;>OO++=X=XX=X=XX=XXXXXXXXX=XX=XXX+>-",
" i;$e%$%>O%;12OO%$;%1>92$O+O+O+O+O+O+O+O+O+O+O+O+O+O+OOX",
" $>9$>OOe$>OO01O%%$>,2>1;$>OO$>,>O$>,>O$>,2OO$>,>O$>9>1X",
".XXX--XX#--X-XXXXXXXX--XXX-X-X-X--X-X--X-X-X-X-X--X-XXXX"
};
