/* XPM */
static char * image_name[] = {
"56 46 30 1",
" 	c #FFFFFFFFFFFF",
".	c #BEFBBAEABEFB",
"X	c #000000001040",
"o	c #BEFBB6DABEFB",
"O	c #AEBAAAAAAEBA",
"+	c #AEBAA699AEBA",
"@	c #C71BBAEAC71B",
"#	c #8E388A288E38",
"$	c #79E786179E79",
"%	c #9E799A699E79",
"&	c #AEBAAEBAB6DA",
"*	c #082004100820",
"=	c #000008200820",
"-	c #000000000000",
";	c #BEFBC30BCF3C",
":	c #D75CD34CD75C",
">	c #D75CDF7DE79D",
",	c #AEBAB2CACF3C",
"<	c #000000001861",
"1	c #96589658AEBA",
"2	c #BEFBC30BBEFB",
"3	c #A699A289A699",
"4	c #AEBAAEBAAEBA",
"5	c #5965A289D75C",
"6	c #79E79248B6DA",
"7	c #EFBEF3CEF7DE",
"8	c #186120812081",
"9	c #000030C20820",
"0	c #965896589658",
"q	c #A699A699A699",
"                                                       .",
" ......................................................X",
" ......................................................X",
" ...o..o..o..o..o..o..o..o..o..o..o..o..o..o..o..o..o..X",
" O...O...+...O...O...+...O...O...+...O...O...+...O...O.X",
" ..o..@o...@o..@o.@o...@o..@o.@o...@o..@o.@o..@o.@o.@o.X",
" O.O.+.O.O.O.O.O.O.O.O.O.O.O.O.O.O.O.O.O.O.O.O.O.O.O.O.X",
" .....O...o...+.......+...o...O...o...+.......O.......OX",
" O.+.+.O.+.O.+.OoO.+.+.O.+.O.+.###$##$##$#oO.+.OoO.+.O.X",
" ...O...O...O...O...O...O...+..#$$##$#$#$#..O...O...+..X",
" O.+.+.+.+.+.O.+.+.+.OoO.+.O.+.$##$$#$#$#$%O.+.+.O.+.O.X",
" .O...O.O.O.o.O.O.O...O.O.+...&#$**=#-=$##%...O.O.O...OX",
" O.+.O.+.O.O.O.+.O.+.O.O.O.O.+.#$#*-*#*-#$%O.+.O.+.+.+.X",
" .O.+.O.O.+.O.O.O.O.O.+.+.O.+.&#$#-*#$-*$#%.O.+.O.O.O.OX",
" O.O.O.+.O.O.+.O.+.O.+.O.O.+.O.#$#*-#$--#$%O.O.O.+.O.O.X",
" OO.OOO.OOO.O&;:;;>;;>;;>;;:;+&#$#--$#--$#%.OO+.OOO.OOOX",
" O.O.+.O.O.+.O;>;>,>;;>;;>;>;&.$#=*##*-##$%O.O.O.O.+.O.X",
" OOOOOOOOOOO&&>;X=XX=XX=XX<;;%O$#-*#$-=#$#%OOOOOOOOOOOOX",
" O.O.O.O.+.O.+;;>*--;>;>;>=>;12#$*-$#*-*#$%O.O.O.+.O.O.X",
" OOOOOOOOOOO3,;>;;-=<;;;;;;;>1O$#$##$#$#$#%OOOOOOOOOOOOX",
" OOO.+OO.OOO.4;;>;>-==>;>;>;;1&#$#$#$##$#$%O.OOO.OOO.OOX",
" OOOOOOOOO+4&&>,>;;;-=<>;;;;>%4$#$##$#$#$#%OOOOOOOOOOOOX",
" OOOOOOOOOO+4&;>,>;>;=-=;>;>,1&4&%%1%%%%3%%OOOOOOOOOOOOX",
" OOOOOOOOOOO&1>,>;;;>;=<;>5>;34444&4&O&O&+&OOOOOOOOOOOOX",
" %OOO%OOO%OO&1;>,>;>,<=>;>>;>647777777777%OOO%OOO%OOO%OX",
" OOOOOOOOOO44&>5>;;;==>,>,>;;%47777777777OOOOOOOOOOOOOOX",
" 4O%O%O%O4+%&%>>;>,8=:;>,>5>>647777777777%O%O%O%OOO%O%OX",
" OOOOOOOOOO44,,>;;9<;>,>;>9>;%477---7--77%OOOOOOOOOOOOOX",
" %O%O%O%O%O%40;>,8X===<=<==;;14777--7--77%O%O%O%O%O%O%OX",
" OOOOOOOOOO44,;>==---=====X>;q&777---7-77%OOOOOOOOOOOOOX",
" %O%O%O%O%O%40;;>;;>;;:;;:;;>64777--77777%O%O%O%O%O%O%OX",
" O%OOO%4OO%44,;>,>;;>;>;>;>;;%%777--77777%%OOO%OOO%OOO%X",
" %O%O%O%O%O%40,61611611611631%477--777777%O%O%O%O%O%O%OX",
" O%O%O%O%O%&%404q4q4%4%4%4%&%4%77--777777%%O%O%O%O%O%O%X",
" %O%O%O%+%4%4%4%404%4%4%4%4%4%477--777777%O%O%O%O%O%O%OX",
" %%O%%%O%%%4%%%4%%%4%%%4%%%4%%%7777777777%%O%%%O%%%O%%%X",
" %4%O%O%O%O%O%4%4%4%4%4%4%4%4%47777777777%O%O%O%O%O%O%OX",
" %%%%%%%%%%%%%%%%%%%%%%%%%%%%%%7777777777%%%%%%%%%%%%%%X",
" %O%O%O%O%O%4%&%4%4%4%4%4%4%&%4%4%%%%%%%%%O%O%O%O%O%O%OX",
" %%%%%%%%%%%%%%%%%%%%%%%%%%%%%%%%%%%%%%%%%%%%%%%%%%%%%%X",
" %%%O%%%O%%%O%%%4%%%&%%%4%%%4%%%4%%%4%%%O%%%O%%%O%%%O%%X",
" %%%%%%%%%%%%%%%%%%%%%%%%%%%%%%%%%%%%%%%%%%%%%%%%%%%%%%X",
" %O%%%%%%%O%%%%%%%4%%%%%%%4%%%%%%%4%%%%%%%O%%%%%%%O%%%%X",
" %%%%%%%%%%%%%%%%%%%%%%%%%%%%%%%%%%%%%%%%%%%%%%%%%%%%%%X",
" %%%%%%%%%%%%%%%%%%%%%%%%%%%%%%%%%%%%%%%%%%%%%%%%%%%%%%X",
".XXXXXXXXXXXXXXXXXXXXXXXXXXXXXXXXXXXXXXXXXXXXXXXXXXXXXXX"};
