/* XPM */
static char *magick[] = {
/* columns rows colors chars-per-pixel */
"56 46 24 1",
"  c Gray100",
". c #bebabe",
"X c #000010",
"o c #beb6be",
"O c #aeaaae",
"+ c #aea6ae",
"@ c #c7bac7",
"# c #79869e",
"$ c #7992b6",
"% c #717986",
"& c #9696ae",
"* c #867986",
"= c #8e8a8e",
"- c #aeb2cf",
"; c #aeaeb6",
": c #b6aeb6",
"> c #bec3cf",
", c Gray0",
"< c #ff1441",
"1 c #ff0c49",
"2 c #9e9a9e",
"3 c #6986be",
"4 c #51718e",
"5 c #000018",
/* pixels */
"                                                       .",
" ......................................................X",
" ......................................................X",
" ...o..o..o..o..o..o..o..o..o..o..o..o..o..o..o..o..o..X",
" O...O...+...O...O...+...O...O...+...O...O...+...O...O.X",
" ..o..@o...@o..@o.@o...@o..@o.@o...@o..@o.@o..@o.@o.@o.X",
" O.O.+.O.O.O.O.O.O.O.O.O.O.O.O.O.O.O.O.O.O.O.O.O.O.O.O.X",
" .....O...o...+.......+...o...O...o...+.......O.......OX",
" O.+.+.O.+.O.+###########################+.+.+.OoO.+.O.X",
" ...O...O...+#$%&%$%&%$*$%&%$%&%=##=##=###..O...O...+..X",
" O.+.+.+.+.O.#%&-+@+o;@+.;@+@+-:>+@;@;@%$%XO.+.O.+.O.O.X",
" .O...O.O.Ooo&#o+.O...+.Oo+..@Oo+.+ooo+>#=,...+.O.Oo..OX",
" O.+.O.+.O.O.%$+.+.+.+.O.O.,.+.O.;,;.;.+#$,O.O.O.O.O.+.X",
" .O.+.O.O.O@;##oO.O.O.O.,.O,+.,.O,,.Oo;@%#,.+.O.+.O.O.OX",
" O.O.O.+.O.+.#=;.+.O.O.O,O.,.+,O.,,O.O.O$%XO.O.+.O.+.O.X",
" OO.OOO.OO+.+$%.+OO,OO,.OOO.OOO.,,O<OO+.#=,.OOO.OOO.OOOX",
" O.O.+.O.O.Oo##:oO.O,O.O.O.O.O.O,,<O.O.+##XO.O.+.O.+.O.X",
" OOOOOOOOOO+;=#;OOOOOOOOOOOOOOO,,OOOOO+:##,OOOOOOOOOOOOX",
" O.O.O.O.O.O.%$+.O,O.O.+.O.O.O.,,O.O<O.+##,O.O.O.O.O.O.X",
" OOOOOOO+OO+:##,OOOOOOOOOOOOOO,,OOOOOOO1##,OOOOOOOOOOOOX",
" OOO.OOO.OO;.##:,OOO.OOO.OOO.O,,.OOO.O<O##XO.+OO.+OO.OOX",
" OOOOOOOOOO+;##+OOOOOOOOOOOOO,,OOOOOO+++&#,OOOOOOOOOOOOX",
" OOOOOOOOOO++###########################%#XOOOOOOOOOOOOX",
" OOOOOOOOOO;+&%&%$%&%$%&%$%&%$%&%$%&####$#,OOOOOOOOOOOOX",
" 2OOO2OOO2O++#%$%&%$%&%$%&%$%&%$%&%$%&%$%&,OO2OOO2OOO2OX",
" OOOOOOOOOO+-%&%$%&%$%$%$%$%=3%&%$%$%$%&%#,OOOOOOOOOOOOX",
" OO2O2O2OOO2+#$%$%%$*$*$*$+&$*$%$%&%$%$%$%X2O2O2OOO2O2OX",
" OOOOOOOOOO+:%$%&%&%$%&%$%++&%$%&%%$*$*$%&,OOOOOOOOOOOOX",
" 2O2O2O2O2O2;#*3%3&%$%%$*$%$%$%&%3&%$%&%$%X2O2O2O2O2O2OX",
" OOOOOOOOOO;:%$&%&%%&%&%$%&%&*3%%&%%&%%&%#,OOOOOOOOOOOOX",
" 2O2O2O2O2O2+$%%3&%3%3&%$%$%%$&%3&%3%3&%3&,2O2O2O2O2O2OX",
" O2OOO2OOO2+:%&*$%&%&$*3*$*$$*3*$%&%&$%&%#,OOO2OOO2OOO2X",
" 2O2O2O2O2O2;#$%$%%3*%$*$%&%%&%&%3%&%%3%&%X2O2O2O2O2O2OX",
" O2O2O2O2O2+2$%$*$$&3*$%&3%&3%&4&%&3%&*$%$,O2O2O2O2O2O2X",
" 2O2O2O2O2O2+%&%$%*%&$%&%%&%%&%&%3*$%3&%$%X2O2O2O2O2O2OX",
" 22O222O222O2$*3%&%&3*3%%&3%&3%3%&%&%&%$%&,O222O222O222X",
" 2O2O2O2O2O2+2$*$%3%&%&3&%%&%3&%&4&4&%%&%5,2O2O2O2O2O2OX",
" 22222222222222XX5XXX5,XX5555XX555555555X,2222222222222X",
" 2O2O2O2O2O2O2+2O2O2O2O2O2O2O2O2O2:2O2;2O2O2O2O2O2O2O2OX",
" 222222222222222222222222222222222222222222222222222222X",
" 222O222O222O222O222O222O222O222O222O222O222O222O222O22X",
" 222222222222222222222222222222222222222222222222222222X",
" 2O2222222O2222222O2222222O2222222O2222222O2222222O2222X",
" 222222222222222222222222222222222222222222222222222222X",
" 222222222222222222222222222222222222222222222222222222X",
".XXXXXXXXXXXXXXXXXXXXXXXXXXXXXXXXXXXXXXXXXXXXXXXXXXXXXXX"
};
