/* XPM */
static char *magick[] = {
/* columns rows colors chars-per-pixel */
"48 48 117 2",
"   c Gray0",
".  c #000022",
"X  c #000033",
"o  c #001133",
"O  c #110033",
"+  c #111133",
"@  c #112233",
"#  c #111144",
"$  c #111155",
"%  c #002244",
"&  c #112244",
"*  c #112255",
"=  c #113355",
"-  c #221144",
";  c #222244",
":  c #222255",
">  c #2a2a54",
",  c #223344",
"<  c #223355",
"1  c #332255",
"2  c #382a54",
"3  c #333344",
"4  c #333355",
"5  c #222266",
"6  c #223366",
"7  c #223377",
"8  c #333366",
"9  c #383862",
"0  c #334455",
"q  c #224466",
"w  c #224477",
"e  c #225566",
"r  c #334466",
"t  c #334477",
"y  c #335566",
"u  c #335577",
"i  c #226666",
"p  c #226677",
"a  c #336666",
"s  c #336677",
"d  c #443366",
"f  c #444466",
"g  c #444477",
"h  c #445566",
"j  c #554477",
"k  c #555566",
"l  c #545476",
"z  c #555577",
"x  c #546076",
"c  c #556677",
"v  c #665577",
"b  c #606076",
"n  c #666677",
"m  c #444488",
"M  c #445588",
"N  c #555588",
"B  c #446688",
"V  c #556688",
"C  c #556699",
"Z  c #665588",
"A  c #666688",
"S  c #666699",
"D  c #667788",
"F  c #667799",
"G  c #776688",
"H  c #717f8d",
"J  c #777799",
"K  c #7f7f90",
"L  c #7f7f98",
"P  c #668899",
"I  c #768298",
"U  c LightSlateGray",
"Y  c #7f8798",
"T  c #7788bb",
"R  c #887799",
"E  c #828d98",
"W  c #8787a1",
"Q  c #8888aa",
"!  c #8d8da9",
"~  c #8888bb",
"^  c #8899aa",
"/  c #8899bb",
"(  c #9988bb",
")  c #9999aa",
"_  c #9999bb",
"`  c #99aabb",
"'  c #aa99bb",
"]  c #aaaabb",
"[  c #baafba",
"{  c #99aacc",
"}  c #aaaacc",
"|  c #a9b8c6",
" . c #aabbcc",
".. c #aabbdd",
"X. c #bbaacc",
"o. c #bbbbcc",
"O. c #bbbbdd",
"+. c #b8c6d4",
"@. c #bbccdd",
"#. c #c6b8d4",
"$. c #ccbbdd",
"%. c #ccbbee",
"&. c #c6c6d4",
"*. c #ccccdd",
"=. c #ccccee",
"-. c #ccddee",
";. c #ddccee",
":. c #ddddee",
">. c #ddddff",
",. c #ddeeff",
"<. c #eeddff",
"1. c #e2e2e2",
"2. c #eeeeff",
"3. c #eeffff",
"4. c #ffeeff",
"5. c Gray100",
"6. c None",
/* pixels */
"6.6.6.6.6.6.6.6.6.6.6.6.6.6.6.6.6.6.6.6.6.6.6.6.6.6.6.6.6.6.6.6.6.6.6.6.6.6.6.6.6.6.6.6.6.6.6.6.",
"6.6.6.6.6.6.6.6.6.6.6.6.6.6.6.6.6.6.6.6.6.&.+.6.3.>.` 8 Y 6.6.6.6.6.6.6.6.6.6.6.6.6.6.6.6.6.6.6.",
"6.6.6.6.6.6.6.6.6.6.6.6.6.6.6.6.6.6.6.6.#.3.;._ O._ v 4 X 4 6.6.6.6.6.6.6.6.6.6.6.6.6.6.6.6.6.6.",
"6.6.6.6.6.6.6.6.6.6.6.6.6.6.6.6.6.6.6.&.3.>.^ Q . X X A & 8 b 6.6.6.6.6.6.6.6.6.6.6.6.6.6.6.6.6.",
"6.6.6.6.6.6.6.6.6.6.6.6.6.6.6.6.6.6.6.| O.n O.o.Z o.j 4 - n 2 6.6.6.6.6.6.6.6.6.6.6.6.6.6.6.6.6.",
"6.6.6.6.                              A 3.5.c A X X . A X X .                         5.6.6.6.6.",
"6.6.6.6.  i u i s i u i s i u i s i u 5.A c O.o.A o.Z . X c X i s i u i s i u i s i u 5.6.6.6.6.",
"6.6.6.6.  s p s i s p s i s p s i s p A 3.5.c A . X X A . X X s i s p s i s p s i s p 5.6.6.6.6.",
"6.6.6.6.  i s i u i s i u i s i u i s 5.Z n O.o.Z o.A . X n X i u i s i u i s i u i s 5.6.6.6.6.",
"6.6.6.6.  s p s p s p s p s p s p s p A 3.5.c A X X . A X X . s p s p s p s p s p s p 5.6.6.6.6.",
"6.6.6.6.  i u i s i u i s i u i s i u 5.A c O.o.A o.Z . X c X i s i u i s i u i s i u 5.6.6.6.6.",
"6.6.6.6.  s p s i s p s i s p s i s p A 3.5.c A . X X A . X X s i s p s i s p s i s p 5.6.6.6.6.",
"6.6.6.6.  i s i u i s i u i s i u i s 5.Z n O.o.Z o.A . X n X i u i s i u i s i u i s 5.6.6.6.6.",
"6.6.6.6.  s p s p s p s p s p s p s p A 3.5.c A X X . A X X . s p s p s p s p s p s p 5.6.6.6.6.",
"6.6.6.6.  i u i s i u i s i u 5.X i u 5.A c O.o.A o.Z . X c X i A . u i s i u i s i u 5.6.6.6.6.",
"6.6.6.6.  s p s i s p s i s p 5.. s p A 3.5.c A . X X A . X X s c X p s i s p s i s p 5.6.6.6.6.",
"6.6.6.6.  i s i u i s i u i s 5.X . X 5.Z n O.o.Z o.A . X . X . X . s i u i s i u i s 5.6.6.6.6.",
"6.6.6.6.  s p s p s p s p s p 5.X s p 5.3.5.c A X X , # X X . s V X p s p s p s p s p 5.6.6.6.6.",
"6.6.6.6.  i u i u i u i u i u 5.X i u 5.4.:.} A A 0 - o X . X i A . u i u i u i u i u 5.6.6.6.6.",
"6.6.6.6.  u p s i u p s i u p 5.. u p 5.3.>. .Q c z < # . X X s c X p s i s p s i s p 5.6.6.6.6.",
"6.6.6.6.  a u i u a u i u a u 5.X a u 5.4.2.O.^ Z k 4 @ X . X i Z . u i u a u i u a u 5.6.6.6.6.",
"6.6.6.6.  u i u p u i u p u i 5.X u i 5.3.<.@.( V z 4 # X X . u V X i u p u i u p u i 5.6.6.6.6.",
"6.6.6.6.  i u y u i u y u i u 5.X i u 5.2.2.$.) A h 4 + X . X y A . u y u i u y u i u 5.6.6.6.6.",
"6.6.6.6.  u i u i u i u i u i 5.. u i 5.3.>.@._ c z 0 # . X X u D X i u i u i u i u i 5.6.6.6.6.",
"6.6.6.6.  y u y u y u y u y u 5.X y u 5.<.2.O.^ Z k 4 @ X . X y R . u y u y u y u y u 5.6.6.6.6.",
"6.6.6.6.  u e u p u e u p u e 5.X u e 5.,.>.@.Q c z , # X X % u Q X e u p u e u p u e 5.6.6.6.6.",
"6.6.6.6.  y u y u y u y u y u 5.X q u / %.-.X.J z 0 1 + X . : y ( . u y u y u y u y u 5.6.6.6.6.",
"6.6.6.6.  u e u e u e u e u e 5.. 7 e M P O.U A r : & X . * q u  .X e u e u e u e u e 5.6.6.6.6.",
"6.6.6.6.  y u y t y u y t y u @.; & u y m n z 0 ; + # . X 6 u y O.o u y t y u y t y u 5.6.6.6.6.",
"6.6.6.6.  u e u y u e u y u e T ^ # e u y w = # X X % 5 w u e C c # e u u u e u u u e 5.6.6.6.6.",
"6.6.6.6.  y t y t y t y t y t B =.. 6 y t y t y t y t y t y t } 4 & t y t y t y t y t 5.6.6.6.6.",
"6.6.6.6.  t y u e t y u e t y u  .A X u e t y u e t e u e t ..g & 7 e u e t e u e t e 5.6.6.6.6.",
"6.6.6.6.  y t y t y t y t y t y S o.Z . t y t y t y t y ( ..f o 6 y t y t y : . X . X 5.6.6.6.6.",
"6.6.6.6.  t e t y t e t y t e t y S  .A f 6 e t y t F ....< o 7 y t e t = * = t y t e 5.6.6.6.6.",
"6.6.6.6.  y t r t y t r t y t r t y S 6 f c R _ O.` G h O & 5 r t y t r # y t r t y t 5.6.6.6.6.",
"6.6.6.6.  t y t e t y t e t y t e t y t w 7 = # . X X # = 7 y t e t y t . 6 y t e t y 5.6.6.6.6.",
"6.6.6.6.  r t r r r t r r r t r r r t r r r t o.' & t r r r t r r r t r : & t r r r t 5.6.6.6.6.",
"6.6.6.6.  t r t r t r t r t r t r t r t r t r =.^ : r t r t r t r t r t r X r t y t r 5.6.6.6.6.",
"6.6.6.6.  r 8 r t r 8 r t r 8 r t r 8 r t r N *.( , 8 r t r 8 r t r 8 r t * 8 r t r 8 5.6.6.6.6.",
"6.6.6.6.  t r t r t r t r t r t r t r t M } 3.5.U 8 X 5 r t r t r t 6 $ . t r t r t r 5.6.6.6.6.",
"6.6.6.6.  r 8 r d r 8 r d r 8 r d r 8 N *.5.>.` J ; X + X . X . X # : 6 d r r r d r r 5.6.6.6.6.",
"6.6.6.6.  t r t r t r t r t r t r t { 5.3.>. .~ c 4 o X X $ 6 t r t r t r t r t r t r 5.6.6.6.6.",
"6.6.6.6.5.5.5.5.5.5.5.5.5.5.5.5.5. .4.2.>.o.} U z 3 ; + X o X 5.5.5.5.5.5.5.5.5.5.5.5.5.6.6.6.6.",
"6.6.6.6.6.6.6.6.6.6.6.6.6.6.6.6.E  .1.>. ...^ J h f , ; o X > X 6.6.6.6.6.6.6.6.6.6.6.6.6.6.6.6.",
"6.6.6.6.6.6.6.6.6.6.6.6.6.6.6.6.6.6.[ ,.=._ J c z h 4 ; + . z K 6.6.6.6.6.6.6.6.6.6.6.6.6.6.6.6.",
"6.6.6.6.6.6.6.6.6.6.6.6.6.6.6.6.6.6.6.W I ! H f < # + 9 x L ] 6.6.6.6.6.6.6.6.6.6.6.6.6.6.6.6.6.",
"6.6.6.6.6.6.6.6.6.6.6.6.6.6.6.6.6.6.6.6.6.6.6.6.6.6.6.6.6.6.6.6.6.6.6.6.6.6.6.6.6.6.6.6.6.6.6.6.",
"6.6.6.6.6.6.6.6.6.6.6.6.6.6.6.6.6.6.6.6.6.6.6.6.6.6.6.6.6.6.6.6.6.6.6.6.6.6.6.6.6.6.6.6.6.6.6.6."
};
