/* XPM */
static char *magick[] = {
/* columns rows colors chars-per-pixel */
"56 46 23 1",
"  c Gray100",
". c #bebabe",
"X c #000010",
"o c #beb6be",
"O c #aeaaae",
"+ c #aea6ae",
"@ c #c7bac7",
"# c #202496",
"$ c Cyan",
"% c #5155ff",
"& c #188651",
"* c #080408",
"= c #51a249",
"- c Gray0",
"; c #9e9a9e",
": c #a69ea6",
"> c #9696ae",
", c #aeaeb6",
"< c #fffbff",
"1 c #fff3ff",
"2 c Gray59",
"3 c #a6798e",
"4 c #000018",
/* pixels */
"                                                       .",
" ......................................................X",
" ......................................................X",
" ...o..o..o..o..o..o..o..o..o..o..o..o..o..o..o..o..o..X",
" O...O...+...O...O...+...O...O...+...O...O...+...O...O.X",
" ..o..@o...@o..@o.@o...@o..@o.@o...@o..@o.@o..@o.@o.@o.X",
" O.O.+.O.O.O.O.O.O.O.O.O.O.O.O.O.O.O.O.O.O.O.O.O.O.O.O.X",
" .....O...o...+.......+...o...O...o...+.......O.......OX",
" O.+.+.O.+.O.+.OoO.+.+.O.+.O.+.+.O.O.+###+.+.+.OoO.+.O.X",
" ...O...O...O...O.#####################$##..O...O...+..X",
" O.+.+.+.+.+.O.+.##%%%%%%%%%%%%%%%%%%%%$%#.+.OoO.O.+.O.X",
" .O...O.O.O.o.O.#%%%###################%%#O...O.+.O...OX",
" O.+.O.+.O.O.O.#%%##.O.O.O.O.O.O.O.O.O###O.+.O.O.O.+.+.X",
" .O.+.O.O.O.O.O%%#O.O.O.O.O.O.O.O.O.O.O.O.O.+.O.+.O.O.OX",
" O.O.O.+.+.+.O#%#O.O.O.O.O.O.O.O.O.O.O.O.O.O.O.O.O.+.O.X",
" OO.OOO.OOO.OO#%#OO.OO+.O#&#&##.OO+.OO+.OO+.OO+.OOO.OOOX",
" O.O.+.O.O.O.O##.O.O.O.#&*&=--###O.O.O.O.O.O.O.O.+.O.O.X",
" OOOOOOOOOOOOO##OOOOOO#&&=&&##%###OOOOOOOOOOOOOOOOOOOOOX",
" O.O.O.O.+.O.O##.O.O.##=&&=&&*#-%-#O.+.O.+.O.+.O.O.O.O.X",
" OOOOOOOOOOOOO###O+OO###=&&&##--#-#OOOOOOOOOOOOOOOOO+OOX",
" OOO.+OO.OOO.+O##OOO.-##&&=#*&*&*%##.OOO.OOO.OOO.+OO.OOX",
" OOOOOOOOOOOOOOO##OO#######%#=&=&&##OOOOOOOOOOOOOOOOOOOX",
" OOOOOOOOOOOOOOOO##O#########&&&=###OOOOOOOOOOOOOOOOOOOX",
" OOOOOOOOOOOOOOOOOOO##%##%#%%&=&&#%#O##OOOOOOOOOOOOOOOOX",
" ;OOO;+OO;+OO;OOO;OO##########&&=&##O;##O;+OO;+OO;OOO;OX",
" OOOOOOOOOOOOOOOO+OOO##%##%#%##=&&#OOO+##OOOOOOOO+OOOOOX",
" OO;+;O;+OO;+;+;OOO;O##########&&##:O;O###O;+;O;OOO;+;+X",
" OOOOO+OOOOOOOOOOOOOOO##%%##%###=#OOO+OO##+OOOO+OOOOOOOX",
" ;O;+;O;+;+;+;+;+;+;+;O######%###>O;+;O;##O;+;+;O;+;+;OX",
" O+OO+OOOOOOOOOOOOOOOOOO###%####OO++OOO+##OOOOOOO+OOOOOX",
" ;O;O;+;+;+;+;+;+;+;O;O;O;####,;O;O;O;+###O;+;+;+;O;+;+X",
" +;+O+;OO+;OO+;OO+;+O+;OOO;OOO;OO+;OO+;#%#;OO+;OO+;OO+;X",
" ;O;+;+;O;+;O;+;O;+;O;+;+;O;O;+;+;+;O;#%%;+;+;+;+;+;+;OX",
" +;+;+;+;+;+;+;###;+;+;+;+;+;+;+;+;+;##%#+;+;+;+;+;+;+;X",
" ;+;+;+;+;+;+;##%####################%%#O;+;+;+;+;+;+;+X",
" ;;+;;;+;;;+;;#%$%%%%%%%%%%%%%%%%%%%%%#+;;;+;;;+;;;+;;;X",
" ;+;+;+;+;+;+;#%$%####################O;+;+;+;+;+;+;+;+X",
"<;;;;;;;;;;;;;;###;;;;;;;;;;;;;;;;;;;;;;;;;;;;;;;;;;;;;X",
" ;+;+;+;+;+;+;+;+;+;+;+;+;+;+;+;+;+;+;+;+;+;+;+;+;+;+;+X",
"1;;;;;2;2;2;2;;;;;;;;;;;;;;;;;;;;;;;;;;;;;2;2;2;2;2;;;;X",
" ;;2+;;;+;;;+;;2+;2;+;2;+;2;+;;2+;;2+;2;+;;;+;;;+;;;:;;X",
"12;;;;;;>3;;>3;;;;;;;;;;;;;;;;;;;;;;;;;;;>3;;>3;;;;;;;;X",
" ;+;3>;;;:+;;;>;3>+;3>;3>;:;3>;3>;:;3>;3;;+;;;>;;3+;;;24",
"1;;>;;>3;;;;;;;;;;;;>;;;;;:>;;;;;;;;:;;>;;;;;;;;;>;;;;;X",
" ;;;;;:;;;3>;3;;;;;;;;;;;3;;;;;;;3>;;;;;;;;3>;3;;;;3>;;X",
".XXXXXXXX44X444X4XXXXXXX44XXXX4X44XXXXXX4X44X444X444XXXX"
};
