/* XPM */
static char *magick[] = {
/* columns rows colors chars-per-pixel */
"56 46 17 1",
"  c Gray100",
". c #bebabe",
"X c Gray0",
"o c #aeaaae",
"O c #aea6ae",
"+ c #beb6be",
"@ c #6986be",
"# c #9e9a9e",
"$ c #080408",
"% c #7992b6",
"& c #000018",
"* c #717986",
"= c #a69ea6",
"- c #b6aeb6",
"; c #59a2d7",
": c #5155ff",
"> c #000010",
/* pixels */
"                                                       .",
" ......................................................X",
" ......................................................X",
" ......................................................X",
" o...O...O...O...O...O...O...O...O...O...O...O...O...O.X",
" ..........+.......+...+.......+...+.......+...+.......X",
" o.O.O.O.O.O.O.O.O.O.O.O.O.O.O.O.O.O.O.O.O.O.O.O.O.O.O.X",
" .....OXXXXXXXXXXXXXXXXXXXXXXXXXXXXXXXXXXXXXXXXX......oX",
" o.O.O.XXXXXXXXXXXXXXXXXXXXXXXXXXXXXXXXXXXXXXXXX.O.O.O.X",
" ...O..XX@@#XXXXXXXXXXXXXXXXXXXXXXXXXXXXXXX@@#XX#...O..X",
" o.O.o.XX@@#XX@X@X@X@X@X@X@X. . . . . . #XX@@#XX@O.O.o.X",
" .O...oXX###XXX@X@X@X@X@X@XX . . . . . . XX###XX@.o...oX",
" o.o.O.XXXXXXX@X@X@X@X@X@X@X.   . . . . .XXXXXXX@o.O.O.X",
" .o.o.oXXXXXXXX@X@X@X@X@XXXXX@#. . . . . XXXXXXX@.o.o.oX",
" o.O.o.XX@@#XX@X@$@$@$XXX@@@ .@X# . . . .XX@@#XX@o.O.o.X",
" oo.oooXX@@#XXX@$@X@XXX#@#@@   .X# . . . XX@@#XX@oo.oooX",
" o.o.o.XX###XX@X@$@$XX#@#@@@     X# . . .XX###XX@o.o.o.X",
" ooooooXXXXXXXX@$@XXX#@#@$$X@#    X# . . XXXXXXX@ooooooX",
" o.o.O.XXXXXXX@X@$@X#@#@$XXX@@@   .X. . .XXXXXXX@o.O.o.X",
" ooooooXX@@#XX$@$@X$@#@$XX@@ @@#   @@  . XX@@#XX@ooooooX",
" ooo.ooXX@@#XX@X@XX@#@#@#@#@ @@@   .X . .XX@@#XX@ooo.ooX",
" ooooooXX###XXX@$@$#@#@#@#@@ @X#    X. . XX###X$@ooooooX",
" ooooooXXXXXXX@X@$X@#%#@#@$XXX@     X . .XXXXXXX@ooooooX",
" ooooooXXXXXXXXXXXX@&*$@$@XXXXX@X@X@X@@@@XXXXXXX@ooooooX",
" #ooo#oXX@@#XX@X@XX@=@=@#@#@.XXX....XooooXX@@#XX@#ooo#oX",
" ooooooXX@@#XXX@$@X@@=@#@#@@@XXX...#XooooXX@@#X$@ooooooX",
" oo#o#oXX###XX@$@$XX#@#X$$#@#XX@...X@ooooXX###XX@oo#o#oX",
" ooooooXXXXXXXX@X@XX@#@#XX$$XXX#..#XoooooXXXXXX$@ooooooX",
" #o#o#oXXXXXXX@$@X@XX@#@#XXXXX@@.#X@oooooXXXXXXX@#o#o#oX",
" ooooooXX@@#XXX@$@$@X$@#@#@@@#@#@X@ooooooXX@@#XX@ooooooX",
" #o#o#oXX@@#XX@$@X@$@X$@#@#$#@#@$@oooooooXX@@#XX@#o#o#oX",
" o#ooo#XX###XXX@$@$@X@X$$@@@@#$$@@@ooooooXX###X$@o#ooo#X",
" #o#o#oXXXXXXX@X@$@X@$@X@$$$$X@@@%*@-ooooXXXXXXX@#o#o#oX",
" o#o#o#XXXXXXX$@X@$@$@$@$@X$@@@@@@@@@ooooXXXXXX$@o#o#o#X",
" #o#o#oXX@@#XX@X@$@X@X@$@X@X@@%*;*:%@@oooXX@@#XX@#o#o#oX",
" ##o###XX@@#XX$@$@$@$@X@$@X$@%:;*@%@@@@o#XX@@#X$@##o###X",
" #o#o#oXX###XXXXXXXXXXXXXXXXX$$$&>XX$XXXXXX###XX@#o#o#oX",
" ######XXXXXXXXXXXXXXXXXXXXXXXX$$XXXXXXXXXXXXXX$@######X",
" #o#o#oXXXXXXXXXXXXXXXXXXXXXXXXXXXXXXXXXXXXXXXXX@#o#o#oX",
" ########@@@@@@@@@@@@@@@@@@@@@@@@@@@@@@@@@@@@@@@@######X",
" ######################################################X",
" ######################################################X",
" ######################################################X",
" ######################################################X",
" ######################################################X",
".XXXXXXXXXXXXXXX$XX$X$X$X$X$X$X$X$X$X$XX$XX$X$X$XXXXXXXX"
};
