/* XPM */
static char *magick[] = {
/* columns rows colors chars-per-pixel */
"56 46 30 1",
"  c #fffbff",
". c #beb6be",
"X c #bebabe",
"o c Gray0",
"O c #c7bac7",
"+ c #f7b2ae",
"@ c #6986be",
"# c #aea6ae",
"$ c #080408",
"% c Gray65",
"& c #fff3ff",
"* c #000018",
"= c #717986",
"- c #000010",
"; c #dfba8e",
": c #9e9a9e",
"> c #a69ea6",
", c Gray100",
"< c #b6aeb6",
"1 c #a6a2a6",
"2 c #aeaeae",
"3 c #aeaaae",
"4 c #000808",
"5 c #bec3cf",
"6 c #51718e",
"7 c #cfc7cf",
"8 c #eff3f7",
"9 c #a6798e",
"0 c Gray59",
"q c #9696ae",
/* pixels */
"                                                       .",
" ...X..X...X..X...X..X...X..X...X..X...X..X...X..X...X.o",
" XO.O.O.O.O.O.O.O.O.O.O.O.O.O.O.O.O.O+    .O.O.O.O.O.O.o",
" ................................+    .@@oo.X..........o",
" #O.O#XO.#O.O#XO.#O.O#XO.#O.O+    .@@ooooo$.O#XO.#O.O#X$",
" .......X..X....X..X.....+    .@@ooooooo@X$%....X..X...o",
" #X#O#.#O#.#.#O#.#O#.+    .@@oooooo$o@X  .$%X#.#O#.#.#Oo",
" .O...#...O.O.#.O+ &  .@@ooooo$oXo@   .@*=$%O.#...O.O.#o",
" #.#.#O#.#.#.#+& &.@@oooooooo@. .$..@oooo@-%.#O#.#.#.#.o",
" ..O#...#O..#& .@oooooo$o@X    .@oo$oo$o$Xo;#...#O..#.Oo",
" #.#.#O#.#.#. oooooo.$@.   .@ooo@$ooo@@%% o%.#.#.#.#O#.o",
" .#.O.#.#.#O. ooo@X  oX.@ooooo$o@*=%%;:;% $%.O#.#.#...#o",
" #.#.#.#O>O>. o@   .@o$ooo$o@@%%,o<%%%#;.,$%.#.#O#.#O>Oo",
" . &&&&&& &   o@.@oo@o@@.    ,,, o,,,,,   $  & &&&&&&##o",
" #.oooooooooo oo$oo$@o$o$ooooooo oooooooo oooooooooooo#o",
" #1;%%%%%%%%% oo$@=% $%%%%%:;%%% $;%%%%%% $%%;:;%%%%%%%o",
" #.#%<;%;%;%; o@%<<%,o%;;%;:;2%; o%;<;%X; o%%;:;#%;%;;:$",
" ###%#3%###<1,4%:;%%,-<1##:<#### $%>>##%# $<##########<o",
" #&      &    o,,,,,,o        &  o,,  &&  $       & &##$",
" ##oooooooooo o-oooo ooooooooooo ooooo.5=ooooooooooooo#o",
" ##%%;%%;%%%% o%%;:; o%%;%%;%%   o%%%,.o*oo@%%;:;%%#%%;$",
" ###;:<%:;%;% $%;%%% $3;:<%% &.@=$%;,.oooo*=;%%X:;%%3;%o",
" #####%#<###%,$#%<<# o%3%#%  =*-*-=< =*oooo@#<%#<><%%##o",
" #&       &   o     ,$,,    @*oo-*6  @ooo*=    &    &##o",
" :#ooooooo..>=*ooooo oooooo.ooooo$@@67@$o@@*oooooooooo#o",
" ##%%%;%% Xoo**=;%%% $%;%%%.@ooo*=<<.%3%%%<%%;:;%%%;%%%o",
" ##%%;:%,,ooooo@#%%;,o%%;3%%X@@@@<%%%<;%%;%;:%%3%;%%;3%$",
"&##<##<# =o$oo-@%<%#,$%###%<1;%%%%;<#####%<><<####<##%<$",
" :&&     @-ooo@   ,  $        ,,,,8,    &        & & #<$",
" ##ooooo..$oo@@ooooo oooooooooo-oo$ooooo-oooooooooooo$#o",
" :#%%;:;%..O.%%%%;%%,o%%%;%%%%%;%%;%%%;:;%%%;%%%;%%;%%%$",
"&#:<%%#%%%;%%;%;%%;%,$%;%%;%%;%;%%%%;%3%%%;%%%3;%%<:;:;$",
" :#>%%#%#>#>1:#>>:3>&$%%#>#>#     ..#%#%;>#>%>#9<%%%#>>o",
" >:#:%>#:>:#:#      ,-&&:#:#> =-=-=&.>:<&&&<%#>#0#:#:#:o",
" :#:#:#:#:#:#:#ooooooooo#:#:& ------$..&=*o=O:>>#:>:>>#o",
"&::>:::>::>>:::% .ooo*=%:::&&=oooooo$$ @*o-*.:>>::>>>::o",
" :#:#:>>>:>:>:# ,o$o$o@<%:#.@@*o@o@@o@ oo@ $%>#:>:>:>:>$",
"&:::>9::::::::> =ooo$-6;:>::%.o@ o @o@ oo @o;::::::::::o",
" :>:>>#:>>>>>:>O@*ooo@<:>:>># o@ o @o%,ooooo:>>:>>>:>:#$",
"&::::::>9:>9:::.%@@@=%%>>:::: $%5=%@oX ooo*=%::::>9::::o",
" :::>>9:#:::#::::%%<<%%:#:0:>:%%%<%%; =*o%%<;::9#:>:#::$",
"&0>9::q:::::::::>:>:%::::::::>:;%%;:. -$$%%:q::>::0>9::o",
" ::::::::9q:9:::0:::::::9::::::00:::.=*o@%>:::9:::::q::$",
"&::::::9:::>q::9:::0::::::>9::::::::5@-6;%::::q::q9::::o",
" ::9q::q:::0::::::9>:9::::0:::::0::::#%<#>0:::::9>::0::$",
".$o-$$$$$$$$$$$$$$$o$$$$$$$$$$$$$$$o$$$$$$$$$$$$$$$$$$$o"
};
