/* XPM */
static char *magick[] = {
/* columns rows colors chars-per-pixel */
"56 46 8 1",
"  c Gray100",
". c #bebabe",
"X c Gray0",
"o c #aeaaae",
"O c #aea6ae",
"+ c #beb6be",
"@ c #6986be",
"# c #9e9a9e",
/* pixels */
"                                                       .",
" ......................................................X",
" ......................................................X",
" ......................................................X",
" o...O...O...O...O...O...O...O...O...O...O...O...O...O.X",
" ..........+.......+...+.......+...+.......+...+.......X",
" o.O.O.O.O.O.O.O.O.O.O.O.O.O.O.O.O.O.O.O.O.O.O.O.O.O.O.X",
" .....O@XXXXXXXXXXXXXXXXXXXXXXXXXXXXXXXXXXXXXXXX@.....oX",
" o.O.O.X    X#XXXX.   X#XXXX.   @    X#XXXX.    X..O.O.X",
" ...O..X    XoXXXX.   XoXXXX.   X    XoXXXX.    XO..O..X",
" o.O.o.X    X.XXXX.   X.XXXX.   X    X.XXXX.    XooO.o.X",
" .O...oX    XoXXXX.   XoXXXX.   X    XoXXXX.    X##...oX",
" o.o.O.X    X.XXXX.   X.XXXX.   X    X.XXXX.    X##o.O.X",
" .o.o.oX    X.XXXX.   X.XXXX.   X    X.XXXX.    X##.o.oX",
" o.O.o.X    X.XXXX.   X.XXXX.   X    X.XXXX.    X##o.O.X",
" oo.oooX    X.XXXX.   X.XXXX.   X    X.XXXX.    X##.oooX",
" o.o.o.X    X.XXXX.   X.XXXX.   X    X.XXXX.    X@#o.o.X",
" ooooooX    X.XXXX.   X.XXXX.   X    X.XXXX.    X##ooooX",
" o.o.o.X    X.XXXX.   X.XXXX.   X    X.XXXX.    X@#o.o.X",
" ooooooX    X.XXXX.   X.XXXX.   X    X.XXXX.    X##ooooX",
" ooo.ooX    X.@XXX.   X.@XXX.   X    X.@XXX.    X@#o.ooX",
" ooooooX    X.##@X.   X.##@X.   X    X.##@X.    X#@ooooX",
" ooooooX    X.   @.   X.   @.   X    X.   @.    X@#ooooX",
" ooooooX    X.@X@o.   X.@X@o.   X    X.@X@o.    X#@ooooX",
" #ooo#oX    X@XXX@.   X@XXX@.   X    X@XXX@.    X@#oo#oX",
" ooooooX       @        @       X       @       X#@ooooX",
" oo#o#oX       X        X       X       X       X@##o#oX",
" ooooooX       X        X       X       X       X#@ooooX",
" #o#o#oX       X        X       X       X       XX##o#oX",
" ooooooX       X        X       X       X       X#@ooooX",
" #o#o#oX       X        X       X       X       XX##o#oX",
" o#ooo#X       X        X       X       X       X#@ooo#X",
" #o#o#oX       X        X       X       X       XX##o#oX",
" o#o#o#X       X        X       X       X       X#@o#o#X",
" #o#o#oX       X        X       X       X       XX##o#oX",
" ##o###X       X        X       X       X       X#@o###X",
" #o#o#oX.     .X.      .X.     .X.     .X.     .XX##o#oX",
" ######@XXXXXXX@XXXXXXXX@XXXXXXX@XXXXXXX@XXXXXXXX#@####X",
" #o#o#o####@#X#X#X#X#X#X#X#X#X#X#X#X#X#X#X#X#X#X#@##o#oX",
" ###########@#@#@#@#@#@#@#@#@#@#@#@#@#@#@#@#@#@#@#@####X",
" ######################################################X",
" ######################################################X",
" ######################################################X",
" ######################################################X",
" ######################################################X",
".XXXXXXXXXXXXXXXXXXXXXXXXXXXXXXXXXXXXXXXXXXXXXXXXXXXXXXX"
};
