/* XPM */
static char *magick[] = {
/* columns rows colors chars-per-pixel */
"47 46 66 1",
"  c Gray0",
". c #000008",
"X c #000818",
"o c #002028",
"O c #182028",
"+ c #001841",
"@ c #004141",
"# c #084149",
"$ c #005959",
"% c #104951",
"& c #184951",
"* c #105159",
"= c #185961",
"- c #006161",
"; c #086969",
": c #086971",
"> c #007179",
", c #007979",
"< c #106169",
"1 c #107179",
"2 c #187179",
"3 c #204149",
"4 c #305151",
"5 c #206169",
"6 c #5a5a5a",
"7 c #496169",
"8 c #187986",
"9 c #287186",
"0 c #287986",
"q c #387986",
"w c #497986",
"e c #008286",
"r c #088286",
"t c #10828e",
"y c #18828e",
"u c #188a8e",
"i c #18b2b6",
"p c #28828e",
"a c #208a96",
"s c #308296",
"d c #30929e",
"f c #498a96",
"g c #49929e",
"h c #59a2ae",
"j c #798286",
"k c #71929e",
"l c #59bac7",
"z c #61d3df",
"x c #86a2ae",
"c c #96a2a6",
"v c #96b2b6",
"b c #a6a2a6",
"n c #b6b2b6",
"m c #aebac7",
"M c #8ecbd7",
"N c #aecbcf",
"B c #b6cbd7",
"V c #a6e3e7",
"C c #bee3e7",
"Z c #d7cbcf",
"A c #dfdbdf",
"S c #d7f3f7",
"D c #efebef",
"F c #fff3ff",
"G c #fffbff",
"H c Gray100",
/* pixels */
"6666666666666666666666666666666666666666666666D",
"6                                             D",
"6 +*++*+*#*@o*=#oo%#o+3#%@%=<==#+3#3#3#o3=3oo3D",
"6 =+*=+*@%+--=@%==@o3@%=#3==#3#3=====#$:=#3#3#G",
"6 o*=@*@%@*<@%=@*@3=#3#3==33====#333#3=#3=33#3D",
"6 +*=+*=+*+*=====@*=#*==<=@3<=<======#3==#3===H",
"6 =+*==@3==@3@*=======<=====<=#3==33===#3===#3H",
"6 o*+*@3==@%===@*=@*====3*======<==-:===#333=#H",
"6 $=$=*=<======*=<*=<==<*==<=<======::::$==$==H",
"6 ===><==:-=<::===#*=-;:::-::::=::3-::::::>>:=H",
"6 ><;<><;:;-::;<;<--::=>,,,:::::;:--;:::::>:::H",
"6 <;:::::-;>;::>-;:::0ahckwt:::::::::::;::::::H",
"6 >-;:::;;><>:::::;:0xvZzVcf2<;:::::;:;:::;:;;H",
"6 <;:>;>-::::::;:::=svzziiVc7::::;:;:::;:::;::H",
"6 >::::<>,,,,,,,,,,>kCVhyaVbOo-,,,,,,,,,,,,:::H",
"6 <;,>,,,eeeeeeeeee:fCZh;-ilO.o-eeeeeeeeeee,,,H",
"6 >,e,ee,ee,e,e,e,e-jAZh=-hxOXo-ee,e,e,e,ee,eeH",
"6 ,eee,e,e,e,e,e,e,1gCMg=-MbO.+-,e,e,ee,e,e,e,H",
"6 eueeeue,eur,eur,eadVBh=aMcOXo2r,etr,etreetreH",
"6 et,urteurreurreurrdmAh*gmjOoo-rttrrttrrttrrtG",
"6 ,urteurteurteurrrusvAx*xZ7oo#2rrrttrrttrrttrH",
"6 eteurteurteurtrurrtgCl=vNO.o$rrttrrttrrttrrtH",
"6 aarteyrteyrteurrrurkCB5bmO.o$trtrtrtrttrrttrH",
"6 aa,urteyrtrtrtrtrtrxAN5vZ7Xo-trtrtrtrtrttrrtH",
"6 a2ptaratarauaraueudNDl=iMw+#2tuuatuuatuuatuuH",
"6 v5<ayauauaterauaaizmDl*gCc77qadduauauauauaugH",
"6 Dj&5puauaueaadhvBVSDDlsxAAZnbkggduauuuaurealH",
"6 GnOo<pueraahBCADAxwww5*7fjjkBACmkfdurauetilZH",
"6 ZAjOosdahNVAAMhww43#3+##*==5whhmZmkwaddaahVDH",
"6 7ZAj77wxmDAMj53%#333#333*<<<5;2qhmZmkfggkNDNF",
"6 *7AAnj7bAmw53+##3#3#3#3#*5s05;<=pghBmkjkmDN7D",
"6 k5wzCZZnvw3#+#33333333$**00s08159ppgmmnmVz7=D",
"6 Ag*iNDNj5333333#333**<50505550820s08ahBVi;=hF",
"6 nNg0jMf$+##3#3#33#$<=0925<95<0ssa998,yhhu5fmD",
"6 7nBxg9%+#333333**$<9wg00wwa928ag0558trp88hNxG",
"6 okDZw#o@33#3#3*2fjkxbbfhBmxkfaadas0aa818yhNjH",
"6 7cZx&o@3#333$2wkckknZmfzCnkkkxkgadgaqs82;avkH",
"6 cnv2@@3333*<gxcj4O7cAlazNj4O7jbvgda0p092>yvnH",
"6 Amq#@3#3%=<hBnjO..3cAlszCn3.X3jmNh82s90p;1fmH",
"6 Ak#@3#5*250VGZjO..7nBh0iMm7.X4jZGNa8sadp528hH",
"6 v5#33*91awgMVCm7Oo7mzi9iMn3o4bACVvgdgdp0088sH",
"6 9%3#*<58gNvfizVCk37czl0sBc47cASziahlha80s880H",
"6 @3#%-<0kmAAf*0izB7&kAlpiVj3kADzigiMAmgdssas0F",
"6 *#33-82cbkZlq0diCn7jZlszMjjnDmkadzMbbhdiiaapG",
"6 @3#<<2gv73jmv59kVBbjZlsNZ7jASg00gBb7jmxiiapsG",
"HGHHHHHHHHHHHHHHHHHHHHHHHHHHHHHHHHHHHHHHHHHHHHG"
};
