/* XPM */
static char * image_name[] = {
"56 46 21 1",
" 	c #FFFFFFFFFFFF",
".	c #BEFBB6DABEFB",
"X	c #B6DAAEBAB6DA",
"o	c #A699A289A699",
"O	c #000000001040",
"+	c #AEBAAEBAAEBA",
"@	c #BEFBC30BBEFB",
"#	c #A699A699A699",
"$	c #AEBAAEBAB6DA",
"%	c #965896589658",
"&	c #8E388A288E38",
"*	c #082004100820",
"=	c #79E786179E79",
"-	c #000008200820",
";	c #000000000000",
":	c #EFBEF3CEF7DE",
">	c #9E799A699E79",
",	c #71C679E78617",
"<	c #A6999E79A699",
"1	c #FFFFFBEEFFFF",
"2	c #000000001861",
"                                                       .",
" X.o.o.o.o.o.o.o.o.o.o.o.o.o.o.o.o.o.o.o.o.o.o.o.o.o.o.O",
" o.+.+.+.+.+.+.+.+.+.+.+.+.+.+.+.+.+.+.+.+.+.+.+.+.+.+.O",
" +@+@.@+@.@+@.@+@.@+@.@+@.@+@.@+@.@+@.@+@.@+@.@+@.@+@..O",
" oX.+#$@+#$@+#$@+#$@+#$@+#$@+#$@+#$@+#$@+#$@+#$@+#$@+#+O",
" o@+.@+@+..+@+@+@+@+X@+@+..+@+@+@+@+X@+@+..+@+@+@+@+...O",
" oX##o.%.##o.%Xooo.%.#oo.%@#ooX%Xooo@&.#oo@%XoooX%.#$%@*",
" +@$.$#+@$@+.$#@+@+.+.o+@+$+.X++@+@+.$#@+@++.X#@+@.+@+oO",
" %.#$#@#+o.#. X#X  o.#$#.#@#$#.#.o.#.#$o.#.o@#$#.#++.#XO",
" @+.++.$++@$#  =o  $#+@.o$#.++.$o+#.o+@+o$o+o+@+o.o$#$.O",
" o.#++#o.##o$  +.  o@$  +++  o@+@o$@++.=  @o.ooo.#$#@#.O",
" +o#@$#.o$o+.   =  .X #X .o .$#-;-;-;;-+#X +.$#.o+++.$#O",
" %.o$o.o++.o.  =:  #      X=;-;X..+.==;=Xo.#.#$#$+.#.#$O",
" .o$#.#$#.#$#  +.  $  o$#.o;X    +@$==;X  =$#$#.#@o$#.oO",
" o.#.#$#@o++$  o=  o. Xo +@;     .+o=*=o$  o@#@o+o##$o.O",
" o#$o##$oo#.o  X#X +.+@..o;X    +@+==;=  +=.>o#$oo>@oooO",
" %.#$+$#oo$o++Xo.#.o-;O;.+-     ..#=;oXoXo.#$o$#@o.#$o@*",
" oo#o#+ooooooo#o#oo;.+==;-.    +.+==;oooooo##oooo#oooooO",
" o$o.o$o.o@#.#$o$o-   X==;    ..@>=*XoXo.#$o@ooo$o$o.#XO",
" oooooo##o>#oooooo;   $=,=    @$+==;ooo#o#oooooooooo#ooO",
" %oo.#oo$ooo$ooo@#o;   $=$    +@#=;oXooo$o#o$ooo@#oo$ooO",
" oo#oooo+oooooo#ooo;    X    ..$,=;o#o#ooooooooo#ooooooO",
" ooooooo#ooooooooooo;        +@==OoooooooooooooooooooooO",
" ooooooooooooooooooo;       +@$,=;oooooooooooooooooooooO",
" %ooo%ooo%ooo%ooo%ooo;      .++=O%ooo%ooo%ooo%ooo%ooo%oO",
" oooooooooooooooooooo;      ..+=;ooooooooooooooooooooooO",
" %o%o%o%ooo%o%o%ooo%;        +@=,;o%o%o%ooo%o%o%ooo%o%oO",
" ooooooooooooooooooo;        .X$=;oooooooooooooo#ooooooO",
" %o%>%o%o&o%o%o&o%o;          +@=,*%o%o%o%o%o&o%o%o&o%oO",
" oooooooooooooooooo;    X      X$=;o>ooooooooooooooooooO",
" %o%o%o%o%o%o%o%o%;    .=+     X.==;o%o%>%o%o%o%o%o%o%oO",
" o&ooo&ooo%ooo&ooo;    +==     @$+=;oo&ooo%ooo&ooo%oo<%O",
" %o%o%o%o&o&o%o%<;    .==;X     +@&=;%o%o%o&o%o%o&o%<%oO",
" <%o&o%<%o%o%<%o%;;; +==;.;     ..X=;<%o&o%o%o%<%o%o%<%O",
" %%%<%<%<%<%o%<%<%o%;;*;o%;.     +.==;o%o%<%<%<%<%<%o&oO",
" %%<%%%<%%%<%%%o%&%<%%%o&%%;+    +.$,;%<%%%<%%%o%&%<%%%O",
" %<%<%<&o%<%<%<%<%o%<%<%o%o;;;X   ..==;%<%<%<&o%<%o%<%<O",
" %&%%%%%%%%&%%&%%%%%%&%%%&%%%%;;.X $+=;%%&%%%%%%%%%%%%%O",
" %<%<%<%<%<%<%<%<%<%<%<%<%<%<%o%;;;-O;;%<%<%<%<&<%<&<%<O",
"1%%%&%&%%&%%%%%%%&%&%%%%%%%&%%%%%%%%o%%&%%%&%&%%%&%%%%%O",
" %&%<%%%<%%%<&%%<%%%<&%&<%%%<%&%<%&%o%%%<%%%<%%%<%%%<&%O",
"1%%%%%&%%%%&%%&%%%&%%%%%%%%&%%%%%%%%%%&%%%&%%%&%%%&%%%%O",
" %%&%%%%&%<%%%%%&%<%%&%&%&<%%&%&%&<%&%%%&%<%%%%%&%<%&%%O",
" &%%%%&%%%&%%%&%%%%%%%%>%%%%%%%%%%%%>&%%%%%%&%&%%%%%%%%O",
" %%%&%%%&>%&%&>&%&%&%%&%&>&%%%&%%&%&%%%&%&%%%%%%&%&%%&%O",
".OOO2OO2OOOO2OO2O2O2O2O2OO2OOO2OO2O2OO2O2O2OOOOO2O2OOOOO"};
