/* XPM */
static char *magick[] = {
/* columns rows colors chars-per-pixel */
"48 48 225 2",
"   c #585858",
".  c #f8f8f8",
"X  c #f8f0e8",
"o  c #f8e8e0",
"O  c #f8e0d8",
"+  c Gray100",
"@  c #f0e0d8",
"#  c #f0d8d0",
"$  c #f0e0d0",
"%  c #f8f0f0",
"&  c #e8d8c8",
"*  c #f8e0e0",
"=  c #e8d8d0",
"-  c #f0e8e0",
";  c #e8e0d0",
":  c #e0c0a8",
">  c #e0c8b8",
",  c #f8e8e8",
"<  c #f0f0e8",
"1  c #e0d0c0",
"2  c #a88070",
"3  c #987858",
"4  c #b08870",
"5  c #e0c8b0",
"6  c #e0c8c0",
"7  c #806058",
"8  c #987868",
"9  c #e8c8c0",
"0  c #e0d0c8",
"q  c #e0d8d0",
"w  c #f8e0d0",
"e  c #f0e8e8",
"r  c #d8c8c0",
"t  c #e8e0d8",
"y  c #e8d8d8",
"u  c #e0d8c8",
"i  c #d8c0b8",
"p  c #c0c0b8",
"a  c #c8c8c8",
"s  c #a89080",
"d  c #d0b8a8",
"f  c #d8d0c0",
"g  c #c8c0c0",
"h  c #f8f8f0",
"j  c #d0c8c0",
"k  c #988878",
"l  c #b8a098",
"z  c #d8d0d0",
"x  c #c0b8b8",
"c  c #e0d8d8",
"v  c #988078",
"b  c #887870",
"n  c #c0b0a8",
"m  c #d8d0c8",
"M  c #c8b8a8",
"N  c #e8d0c0",
"B  c Gray94",
"V  c #a8a0a0",
"C  c #c8b0a8",
"Z  c #a89888",
"A  c #c0b0a0",
"S  c #b8a8a0",
"D  c #683820",
"F  c #905028",
"G  c #987060",
"H  c #d8c0b0",
"J  c #c8c0b8",
"K  c #b0a8a8",
"L  c #d0c8c8",
"P  c #807060",
"I  c #988070",
"U  c #d0b8b0",
"Y  c #b8a898",
"T  c #c8b8b0",
"R  c #a08878",
"E  c #382010",
"W  c #482828",
"Q  c #b89880",
"!  c #b0a0a0",
"~  c Gray72",
"^  c #d0c0b8",
"/  c #807070",
"(  c #605048",
")  c #987870",
"_  c #c8b0a0",
"`  c #d8c8b8",
"'  c #a89088",
"]  c #684840",
"[  c #281810",
"{  c #584840",
"}  c #e8d8c0",
"|  c #d0b098",
" . c #d8c8b0",
".. c #988888",
"X. c #887068",
"o. c #907870",
"O. c #a09080",
"+. c #d0b0a8",
"@. c #b09888",
"#. c #b8a090",
"$. c #482820",
"%. c #a08070",
"&. c #b89888",
"*. c #685848",
"=. c #786858",
"-. c #706050",
";. c #e8d0c8",
":. c #c0b8b0",
">. c #d0b0a0",
",. c #503020",
"<. c #c0a090",
"1. c Gray88",
"2. c #b09890",
"3. c #d0c0c0",
"4. c #c09878",
"5. c #903810",
"6. c #804010",
"7. c #805030",
"8. c #805848",
"9. c #705850",
"0. c #604030",
"q. c #402820",
"w. c #c0a8a0",
"e. c Gray91",
"r. c #a09088",
"t. c #786860",
"y. c #908078",
"u. c #a8a098",
"i. c #c09880",
"p. c #a88870",
"a. c #503030",
"s. c #685048",
"d. c #907060",
"f. c #e0e0d8",
"g. c #787068",
"h. c #807068",
"j. c #b09898",
"k. c #c8a898",
"l. c #c0a898",
"z. c #584038",
"x. c #503828",
"c. c #886050",
"v. c #a09890",
"b. c #d0c0b0",
"n. c #c0a088",
"m. c #b09080",
"M. c #685040",
"N. c #886048",
"B. c #a07060",
"V. c #806860",
"C. c #907868",
"Z. c #d8b8b0",
"A. c #381808",
"S. c #905848",
"D. c #a08078",
"F. c #d8c0a8",
"G. c #e8e8e0",
"H. c #b0a090",
"J. c #a88878",
"K. c #705848",
"L. c #886858",
"P. c #684030",
"I. c #c8a8a0",
"U. c #e0d0b8",
"Y. c #c8a888",
"T. c #d0d0c8",
"R. c #583830",
"E. c #d8b898",
"W. c #b09078",
"Q. c #c0a098",
"!. c #806050",
"~. c #c0a080",
"^. c #c0b0b0",
"/. c #706058",
"(. c #b0a098",
"). c #b89080",
"_. c #d8b8a8",
"`. c #d8d8d0",
"'. c #d0b090",
"]. c #302020",
"[. c #786058",
"{. c #a09898",
"}. c #986858",
"|. c #a09888",
" X c #382018",
".X c #f0d8d8",
"XX c #a87860",
"oX c #c8a890",
"OX c #887860",
"+X c #584030",
"@X c #d8d8d8",
"#X c #908080",
"$X c #988880",
"%X c #501808",
"&X c #886860",
"*X c #483028",
"=X c #e8e0e0",
"-X c #a0a098",
";X c #685850",
":X c #d8b8b8",
">X c #e0d8e0",
",X c #d0d0d0",
"<X c #a89890",
"1X c #e8e0e8",
"2X c #786868",
"3X c #887060",
"4X c #908870",
"5X c #989090",
"6X c #908070",
"7X c #a08880",
"8X c #b0b0a8",
"9X c #504038",
"0X c #686058",
"qX c #503830",
"wX c #c8c8c0",
"eX c #584838",
"rX c #c8b8b8",
"tX c #887868",
"yX c #b0a8a0",
"uX c #908878",
"iX c #908880",
"pX c #807870",
"aX c Gray66",
"sX c #888078",
"dX c #989088",
/* pixels */
"                                                                                                ",
"  . . . . . . . . . . . . . . . . . . . X o O . . . . . . . . . . . . . . . . . . . . . . . . + ",
"  . . . . . . . . . . . . . . . . . . @ # # $ X . . . . . . . . . . . . . . . . . . . . . . . + ",
"  . . . . . . . . . . . . . . . % % @ # # & # * . . . . . . . . . . . . . . . . . . . . . . . + ",
"  . . . . . . . . . . . . . . o # # & & # & = # - ; : > , . . . . . . . . . . . . . . . . . . + ",
"  . . . . . . . . . . . . < @ @ # # & 1 & & & $ 1 2 3 4 5 o X . . . . . . . . . . . . . . . . + ",
"  . . . . . . . . . . . o # # # # # $ & & & & & $ 6 7 8 9 O @ X . . . . . . . . . . . . . . . + ",
"  . . . . . . . . % o O O # $ $ @ # @ # & 1 1 0 0 q & w # # @ e . . . . . . . . . . . . . . . + ",
"  . . . . . . . X O # $ $ @ # $ # @ @ # & 0 1 r 1 0 & & # # @ @ . . . . . . . . . . . . . . . + ",
"  . . . . . X O $ # $ # $ $ # # t y # @ u 1 6 0 & & & & = # # @ X . . . . . . . . . . . . . . + ",
"  . . . e i 1 # # # $ # # # q 0 p a = & = & & & & 1 & 1 & = # # @ . . . . . . . . . . . . . . + ",
"  . . . r s d & # # y 0 # f g q 0 = # @ # = 1 1 & 1 & 1 1 & # & O h . . . . . . . . . . . . . + ",
"  . . . j k l i z j p x & & # $ # # # @ @ = & 1 & 1 1 1 1 1 & & # % . . . . . . . . . . . . . + ",
"  . . . c v b n g m = # & = l M $ # # $ 0 2 d = m r N 1 1 1 & & & @ . . . . . . . . . . . . . + ",
"  . . . B V b C 6 & # # $ # & Z A l @ # S D F G H 0 J K 6 > & & & ; . . . . . . . . . . . . . + ",
"  . . . . L P I I U $ 6 U Z d s Y T & # R E W C Q ! ~ ^ 6 1 1 & & & % . . . . . . . . . . . . + ",
"  . . . . e / ( R Y C ) C R _ I ` ' & = v ] [ { } |  .1 6 1 1 1 = & - . . . . . . . . . . . . + ",
"  . . . . . ..{ X.o.U O.+.@.C d y u L a X.U #.$.%.& &.r r 1 1 6 & 1 @ . . . . . . . . . . . . + ",
"  . . . . . x *.=.-.U l N ;.m J :.x ^ U &.- @ >.,.C d <.0 ` & & & & ;.. . . . . . . . . . . . + ",
"  . . . . . 1.=.P 2.i r r x ^ m 3.1 4.5.6.7.8.9.0.q.w.<.T i & & & & 0 e.. . . . . . . . . . . + ",
"  . . . . . B r.t.y.u.x r ;.& & & ;.1 i.p.Q 6 ^ l a.s.d.i i 6 & & & ;.f.. . . . . . . . . . . + ",
"  . . . . . . L g.h.j.H ;.1 i i i ` > ;._ k.Q d i l.z.x.c.w.U 6 6 6 N = . . . . . . . . . . . + ",
"  . . . . . . % v.P s w.+.b.> } > U 6 l b.R H > n.%.m.M.N.B.H H > 6 1 r e . . . . . . . . . . + ",
"  . . . . . . . x V.C.#.U 6 U 6 2.' b.H # U s Z.M @.O.o.A.S.D.F.6 > 1 1 q . . . . . . . . . . + ",
"  . . . . . . . G.y.t.2.H.2.' H _ i 6 ` U w.R R J.R k K.L.P.Z.%.5 & 1 1 r h . . . . . . . . . + ",
"  . . . . . . . h u.-.o.l I.` & 1 C H C #.U d 1 U.H +.L.&.z.b > Y.} N 1 U < . . . . . . . . . + ",
"  . . . . . . . . T.t.X.l ` +.l H.w.M ` 1 6 6 i i N _ d.v ' R.M 5 E.N 1 6 m . . . . . . . . . + ",
"  . . . . . . . . e y.=.X.w.Z l I.& 6 i i b.U U i 6 w.W.T Q.!.,.i ~.N & & J % . . . . . . . . + ",
"  . . . . . . . . . ^./.-.(.i 1 i C i U H H U U U ` w.n.` H ).s.z._._.= & 0 < . . . . . . . . + ",
"  . . . . . . . . . `.g.P Z w.C C C U U U Z.H i U i _ >.'.l.k.C ].[.' # $ & e . . . . . . . . + ",
"  . . . . . . . . . B {.-.o.2.C C d M U H H U i 1 0 > #.E.}.<.> |. X9.@ .X# @ . . . . . . . . + ",
"  . . . . . . . . . . x /.V.' S M _ H i b.1 & 1 6 i 6 l.&.XX4 oXOX X+Xo @ $ @ . . . . . . . . + ",
"  . . . . . . . B B < @X#X[.$X(.M C C i > ` i i Z.i i 6 J.%XL.%.&X*X[.O @ # # % . . . . . . . + ",
"  . . . . . B e.e.=X=Xc -X;Xo.' w.b.1 & i d U 6 :Xi U 1 l.!.Q.2.I [.w.@ @ # # @ . . . . . . . + ",
"  . . . . B e.>Xc ,X,X,X~ /.o.$X<XM i 1 ` U > i H i ` N i M 1 1 1 1 r u # # # i e.. . . . . . + ",
"  . . . . B 1X@X,XT.T.T.a 2X3X4X2.C U i b.d U Z.b.1 1 1 N i 6 6 ` 1 i 6 = @ # 6 m . . . . . . + ",
"  . . . . . e.c ,X,XT.T.T.5Xs.6X7X(.C M b.d i Z.i ` 1 1 = ` ` > 1 i i ` 0 .X# $ q . . . . . . + ",
"  . . . . . B G.>X,XT.a T.8X9XP v ' l.T U ` U T i r ` 1 # & i 1 ` i i ` ` = = # @ . . . . . . + ",
"  . . . . . . B G.c ,XT.T.a 0X;X6X' H.n C b.d H r 6 > 6 & & ` 1 ` i r i 1 & # # 1 . . . . . . + ",
"  . . . . . . . B G.@X,XT.T.5XqXC.v 7Xw.C b.C i ` 1 i 6 6 # 6 ` 1 i i i 1 1 u 6 m . . . . . . + ",
"  . . . . . . . . B G.c ,XT.wXeX[.C.7X2.n U b.:Xi ` i r f ;.= b.i i 6 U <Xl T.. . . . . . . . + ",
"  . . . . . . . . . B G.c ,XT.y.z.o.$X' l.C i H ` 6 r 6 1 0 # > i i (.k rXz B . . . . . . . . + ",
"  . . . . . . . . . . B G.c ,Xp z.tXk y.' _ i i ` r 6 r H ` & r Z yXV a ,X>XG.B . . . . . . . + ",
"  . . . . . . . . . . . B 1.@X,Xt.*.o.uX7Xl.H 6 :Xi i U C (.$XiX8XT.T.a ,X@X>X< . . . . . . . + ",
"  . . . . . . . . . . . . < >X@XyX9XC.7X7X2.C 1 C _ w.v 2Xv.p ,XT.,X,X,X,Xc 1.e.B . . . . . . + ",
"  . . . . . . . . . . . . . < 1.a 9X/.k 7X7X|.7Xb /.pXaX,Xz @X@Xc c @X1.=Xe.e.B . . . . . . . + ",
"  . . . . . . . . . . . . . . B G.sXeX/.( ;XdXK z @X>X>X=X1.G.e.e.< B . B B . . . . . . . . . + ",
"  + + + + + + + + + + + + + + + + + + + + + + + + + + + + + + + + + + + + + + + + + + + + + + + "
};
