/* XPM */
static char *magick[] = {
/* columns rows colors chars-per-pixel */
"56 46 21 1",
"  c Gray100",
". c #b6aeb6",
"X c #a6a2a6",
"o c #beb6be",
"O c #000010",
"+ c #aeaeb6",
"@ c #aeaeae",
"# c #bec3be",
"$ c Gray65",
"% c #bebabe",
"& c #000808",
"* c Gray0",
"= c Gray59",
"- c #ff1441",
"; c #8e8a8e",
": c #a69ea6",
"> c #9e9a9e",
", c #ef1028",
"< c #fffbff",
"1 c #a6798e",
"2 c #000018",
/* pixels */
"                                                       .",
" ...Xo..X...Xo..X...Xo..X...Xo..X...Xo..X...Xo..X...X..O",
" Xo....o.o.o+o..o.o...o.o.o....o.o.o+o..o.o...o.o.o.o.oO",
" o@o+o+o@o@o@o+o@o@o+o@o@o@o@#@o@o@o@o+o@o@o+o@o@o@o@o+O",
" Xo@#$@%.Xo+%$@%.Xo+#$.oo$o.o$.oo$o@%$@%.Xo+#$.oo$oo@@.O",
" @oo@%@o+o@%@.%@o@%@o@o@o@o@o+o@o@o@o+%@o@%@o@o@o@o@o@oO",
" X.$.Xo$@@@@.$.@@@@@.$.Xo$+@@@@@.XoXo$.Xo$.$.Xo$+@@@+@.O",
" o.o@oX@oo.o@oX@o.o@..X&*&******o@o@o+$o@o.o@oX@o..o@.XO",
" =+Xo$+@.$@Xo$.Xo$.@*&*---------*&*Xo$+Xo$@Xo$+@@@@@.XoO",
" @o.$.o+$.ooX@o.$o+*---------------*$o@oX+o.$o@oX.o@@@.O",
" Xo$+X@@.$.$.Xo$+**-----------------**o$.@@Xo$o$+Xo$.XoO",
" .X@o.@@X.X+o+$.*---------------------*@@@Xo.+X+$oX@o.XO",
" XoXo$+@.Xo$.Xo*-----------------------*.Xo$+@.Xo$+@@XoO",
" .X+$.X@@@$oX.X*-----------------------*X.X@@@X+$.X.@+$O",
" =.XoXoX.X.$+X&-------------------------*XoX.Xo$.Xo$.X.O",
" XX.X$$oXXX@@*---------------------------*$oXXX.XX$+XXXO",
" Xo$+X+$+XoX.*---------------------------*+X@@@@+X.Xo$+O",
" X$XXXXXXXXXX*---------------------------*X@XXXXXXX$XXXO",
" X+Xo$.Xo$.X&-----------------------------*X.X.Xo$+X.X.O",
" XXXXXXXXXXX*-----------------------------*XXXX$X$@XXXXO",
" =XX+XXX.XXX*--                         --*X.XXX+X$X.XXO",
" XX$@XXXXXXX*--                         --*XXXXXXXXXXXXO",
" XXX$XXXXXXX*--                         --*XXXXXXXXXXXXO",
" XXXXXXXXXXX*--                         --*XXXXXXXXXXXXO",
" =XXX=X$X=XX*--                         --*XX=XXX=XXX=XO",
" XXXXXXXXXXX*-----------------------------*XXXXXXXXXXXXO",
" =X=X;X=XXX=*-----------------------------*=X=X;XXX=X=XO",
" XXXXXXXXXXXX*---------------------------*XXXXXXXXXXXXXO",
" =X=X=X=X=X=X*---------------------------*X=X=X=X=X=X=XO",
" XXXXXXXXXXXX*---------------------------*XXXXXXXXXXXXXO",
" =X=X=X=X=X=X=*-------------------------*=X=X=X=X=:=:;XO",
" X=X:>=X:>=XXX=*-----------------------*XX=XX:=$::=XXX=O",
" =>=:=X=X=X;X=X*-----------------------*X=>=X=>=X=:=X=XO",
" :=X=X=:=X=:=X=X*--------,----,-------*X=:=:;X=X=:=:=X=O",
" =:=X=:=:=X=X;:=X**-----------------**X=X=:=X=:=X=:=:=XO",
" ==X=;=X=;=:===X===*---------------*===X;==:===:==;:===O",
" =:=:=:=:=:=:=:=:=X=***---------***=X=:=:=X=:=:=:=X=:=:O",
" ;==;===;===;==;==;====*********====;=;====;==;==;=====O",
" ===:=:=:=:=:=:=:=:=:=X=X=:=X=X=X;:=:=:=:=:=:=:=:=:=:;:O",
" =;================;==;=;======;========;==========;===O",
" ===:=;=:=;=:=;=:===:===:=;=:=;=:=;=:===:=;=:=;=:===:==O",
"<==;=;===;==;==;==;===;=====;========;=;=====;====;==;=O",
" =:====;==:=======:=;==;=;:===;=;=:======;:====;;=:====O",
"<=;>;======;>;=;>;========>;=======;>;>;=====;======;==O",
" =====1==;>=;>==;>;>;>;>;=========;>;=;>==1=======;===;O",
".OOOO2O2OOOOOOOOOOOOOOOO2OOOOOOO2OOOOOOOOO2OOOOOOOOOOOOO"
};
