/* XPM */
static char *magick[] = {
/* columns rows colors chars-per-pixel */
"48 48 96 2",
"   c Gray0",
".  c #00071f",
"X  c #0f171f",
"o  c #101710",
"O  c #00072f",
"+  c #000f30",
"@  c #000f3f",
"#  c #0f172f",
"$  c #101720",
"%  c #1f272f",
"&  c #1f273f",
"*  c #20272f",
"=  c #30373f",
"-  c #000f40",
";  c #00174f",
":  c #001f50",
">  c #0f1f50",
",  c #0f275f",
"<  c #10275f",
"1  c #102f60",
"2  c #1f376f",
"3  c #202f40",
"4  c #20375f",
"5  c #2f3750",
"6  c #20376f",
"7  c #2f3f60",
"8  c #2f3f6f",
"9  c #2f3f70",
"0  c #2f477f",
"q  c #30476f",
"w  c #304770",
"e  c #30477f",
"r  c #3f4f70",
"t  c #400000",
"y  c #700f0f",
"u  c #7f1f1f",
"i  c #40474f",
"p  c #4f5750",
"a  c #505750",
"s  c #5f5f5f",
"d  c #5f677f",
"f  c #606760",
"g  c #60676f",
"h  c #6f6f6f",
"j  c #707770",
"k  c Gray50",
"l  c #3f4f80",
"z  c #3f578f",
"x  c #40578f",
"c  c #4f5f8f",
"v  c #4f5f90",
"b  c #50679f",
"n  c #5f6f90",
"m  c #5f6fa0",
"M  c #5f77af",
"N  c #6f778f",
"B  c #6f779f",
"V  c #707780",
"C  c #607fb0",
"Z  c #6f7fb0",
"A  c #7f879f",
"S  c #7087bf",
"D  c #708fc0",
"F  c #7f8fc0",
"G  c #7f8fcf",
"H  c #8f5f5f",
"J  c #a06f6f",
"K  c #cf6760",
"L  c Gray56",
"P  c #909790",
"I  c #90979f",
"U  c #8f97af",
"Y  c #8097bf",
"T  c #8f9fb0",
"R  c #9f9fa0",
"E  c #9fa7b0",
"W  c #a0a7a0",
"Q  c #afafaf",
"!  c #a0a7b0",
"~  c #b0b7b0",
"^  c Gray75",
"/  c #8097d0",
"(  c #8f9fd0",
")  c #90a7e0",
"_  c #9fafef",
"`  c #a0b7f0",
"'  c #b0c7f0",
"]  c #bfcff0",
"[  c #d08780",
"{  c #d09f9f",
"}  c Gray81",
"|  c #c0cfdf",
" . c #d0d7d0",
".. c #e0e7e0",
"X. c #efefef",
"o. c None",
/* pixels */
"o.o.o.o.o.o.o.o.o.o.o.o.o.o.o.o.o.o.o.o.o.o.o.o.o.o.o.o.o.o.o.~ } } } } j o.o.o.o.o.o.o.o.o.o.o.",
"o.o.o.o.o.o.o.o.o.o.o.o.o.o.o.o.o.o.o.o.o.o.) G ) _ ) ] | o.Q  .....X. .R j o.o.o.o.o.o.o.o.o.o.",
"o.o.o.o.o.o.o.o.o.o.o.o.o.o.o.o.o.o.o.o.v ` C m D F ) D ) ' Q ^  ...X... .~ j o.o.o.o.o.o.o.o.o.",
"o.o.o.o.o.o.o.o.o.o.o.o.o.o.o.o.o.o.o.v ( x m C m D m v x b h P Q } ....f * * o.o.o.o.o.o.o.o.o.",
"o.o.o.o.o.o.o.o.o.o.o.o.o.o.o.o.o.o.v ` 0 0 m C M - ; > ~ Q i a f L R L o i = o.o.o.o.o.o.o.o.o.",
"o.o.o.o.o.o.o.o.o.o.o.o.o.o.o.o.o.v G D D v z m ; # , a }  .^ f i i f f % = * F Z S o.o.o.o.o.o.",
"o.o.o.o.o.o.o.o.o.o.o.o.o.o.o.o.v m C D D S C > , # # h ^  . .^ Q f a f * % $ Y C C o.o.o.o.o.o.",
"o.o.o.o.o.o.o.o.o.o.o.o.o.o.o.v l l C D D D C 0 1 f } f L  . . .} ~ h V 3 3 F b m v o.o.o.o.o.o.",
"o.o.o.o.o.o.o.o.o.o.o.o.o.o.v v C C 0 l C Z S C 1 f P ~ j s L  .Q ~ g $ & v D x l b o.o.o.o.o.o.",
"o.o.o.o.o.o.o.o.o.o.o.o.o.v v Z Z D D l 9 v C   # # a P ~  .f a k h $ # z C C 0 C D C o.o.o.o.o.",
"o.o.o.o.o.o.o.o.o.o.o.o.o.v m C D D Z m x 0 l , # # # # s ~ } P s X # 0 b m M m Z C D C o.o.o.o.",
"o.o.o.o.o.o.o.o.o.o.o.o.v m C G D Z C m m v C m v , ; # # p R # # : , 9 0 z m m v 0 m Z C o.o.o.",
"o.o.o.o.o.o.o.o.o.o.o.o.v Z D M M C m m m C m m v v 0 # # # - 5 1 1 2 1 1 0 l 2 : l C C C C o.o.",
"o.o.o.o.o.o.o.o.o.o.o.v v D M m m m / D m v b v b z l l , ; b v x x z 0 2 0 2 m v C C C C C C o.",
"o.o.o.o.o.o.o.o.o.o.o.x / C m m D D D v m v v v v v z 0 2 : 1 v b v v x v 2 P  .| / C b m m C o.",
"o.o.o.o.o.o.o.o.o.o.v x D C C D D x x v v v v v v x v l 0 ; : : l b m m 1 1 Q  .Q T M m m m m o.",
"o.o.o.o.o.o.o.o.o.o.l v b C m x x v v v v v v v v x x x l 9 2 : : , b 0 9 0 W  .L P m b v m C o.",
"o.o.o.o.o.o.o.o.o.v 0 v v v z z x x x v v v v x x x z l z 0 9 0 1 > , 0 v v V Q k L m v v m Z o.",
"o.o.o.o.o.o.o.o.o.z x v v z x x x x 9 9 v v v x x z l z z z 0 2 0 0 0 z v b z N Q A v x v m C o.",
"o.o.o.o.o.o.o.o.v v C m x l z x z z x v 2 x v x x x z l l z x 0 9 0 l v v v m v x v x v b b m o.",
"o.o.o.o.o.o.o.o.x C m x 0 1 1 2 0 z l v l ; ; x x z l l z x x x 0 m D m z m v x v l v b m m S o.",
"o.o.o.o.o.o.o.x m m v R Q R l < > 9 0 0 x z   ; x l l 0 l z x x l C D v x m v v v x b m m Z v o.",
"o.o.o.o.o.o.z C m l R ^ K K Q n r 4 1 0 l z x l z 0 0 l l z z z v C m 0 v v v x x v m m C Z 0 o.",
"o.o.o.o.o.0 M b x Q ^ K y t ~  .} n q 4 0 z z l 0 0 0 0 l z x v v C l x v v x x v v m C m v o.o.",
"o.o.o.o.l b v 0 R ^ K y t R  ... . . .n q 5 l l 0 0 0 0 l 0 l v C v 0 v x v v v x v m m v 0 o.o.",
"o.o.o.x v v 4 P ^ K y t Q  ...P s  . . . .n q > 0 0 0 0 0 l l m Z l x v l x v x x v m v 0 o.o.o.",
"o.o.v z v 9 Q ^ K y t Q  ...P s ..P s .... . .n q < 0 0 0 0 l v b 0 v x l x x x v m v 0 o.o.o.o.",
"o.v - 1 1 l !  .y t ~  ...j f ..P s ..P f .... . .n q > 9 0 , m x x v x x x x v v v 0 o.o.o.o.o.",
"o.0 - > , 2 x E ~ ~  ...j f ..P f ..P h ..P f .. . .7 > 9 1 9 b l x x x x v x v v 0 o.o.o.o.o.o.",
"o.2 @ ; ; > 1 x E  . .^ f ..P s ..P h ..P j ..P f ^ 9 1 1 ; 0 x x x l x x x v v 0 o.o.o.o.o.o.o.",
"o.2 @ - . ; : : l A ~  . .f h ..P h ..P f ..P f ^ d 9 2 2 l x 0 x x l x v l v 0 o.o.o.o.o.o.o.o.",
"o., @ - O @ @ ; : 1 x U  . .P j f ..P f { H f ^ V 0 0 9 l Z x l x l x v x v 0 o.o.o.o.o.o.o.o.o.",
"o.; @ - @ + @ @ @ : > 0 B  . .Q j f f [ u t ~ V 0 l 0 x F b 9 x l l x x v 0 o.o.o.o.o.o.o.o.o.o.",
"o., + - + + + @ @ @ ; , 2 v T  .} L [ u t Q N x 0 z x / D 0 l l e x x v 0 o.o.o.o.o.o.o.o.o.o.o.",
"o.1 - + - ; @ + + + + + , 1 0 m ^  .J t I N v 0 x v / G 0 0 e 0 9 x v 0 o.o.o.o.o.o.o.o.o.o.o.o.",
"o.9 - ; - - ; - + + + + + ; 1 2 x B ! ! B x 9 x v G ( l l q 0 e l m 0 o.o.o.o.o.o.o.o.o.o.o.o.o.",
"o.o.: + ; ; ; ; ; - @ . + + + > 1 0 x c l 9 0 v F ( x 0 q q 9 l m 0 o.o.o.o.o.o.o.o.o.o.o.o.o.o.",
"o.o.o.: @ ; ; ; - ; ; - + + ; ; ; , 2 2 2 0 x D _ v 0 9 9 6 0 x 0 o.o.o.o.o.o.o.o.o.o.o.o.o.o.o.",
"o.o.o.o.: ; - ; ; ; ; ; ; ; ; ; ;   : 2 0 z C ( m 0 9 9 6 9 l 0 o.o.o.o.o.o.o.o.o.o.o.o.o.o.o.o.",
"o.o.o.o.o.: - - ; ; ; ; ; ; ; ; ; ; @ ; x D C m e 9 0 7 w l 0 o.o.o.o.o.o.o.o.o.o.o.o.o.o.o.o.o.",
"o.o.o.o.o.o.: ; ; ; : ; ; ; ; ; ; ; ; ; 1 x l 9 e 6 q q 0 0 o.o.o.o.o.o.o.o.o.o.o.o.o.o.o.o.o.o.",
"o.o.o.o.o.o.o.o.: ; ; ; ; ; ; ; ; ; ; ; ; 1 9 6 6 6 q x 0 o.o.o.o.o.o.o.o.o.o.o.o.o.o.o.o.o.o.o.",
"o.o.o.o.o.o.o.o.o.: ; ; : : ; ; ; ; ; ; > 2 6 9 q q 9 0 o.o.o.o.o.o.o.o.o.o.o.o.o.o.o.o.o.o.o.o.",
"o.o.o.o.o.o.o.o.o.o.o.: ; : ; : : ; ; ; , 9 0 9 7 e 0 o.o.o.o.o.o.o.o.o.o.o.o.o.o.o.o.o.o.o.o.o.",
"o.o.o.o.o.o.o.o.o.o.o.o.o.: > ; > : ; ; , 6 9 8 9 0 o.o.o.o.o.o.o.o.o.o.o.o.o.o.o.o.o.o.o.o.o.o.",
"o.o.o.o.o.o.o.o.o.o.o.o.o.o.; ; ; ; ; ; 1 l w 9 0 o.o.o.o.o.o.o.o.o.o.o.o.o.o.o.o.o.o.o.o.o.o.o.",
"o.o.o.o.o.o.o.o.o.o.o.o.o.o.o.o.; ; ; ; 2 x l 0 o.o.o.o.o.o.o.o.o.o.o.o.o.o.o.o.o.o.o.o.o.o.o.o.",
"o.o.o.o.o.o.o.o.o.o.o.o.o.o.o.o.o.o.; ; 9 x 0 o.o.o.o.o.o.o.o.o.o.o.o.o.o.o.o.o.o.o.o.o.o.o.o.o."
};
