/* XPM */
static char *magick[] = {
/* columns rows colors chars-per-pixel */
"56 46 23 1",
"  c Gray100",
". c #bebabe",
"X c #000010",
"o c #beb6be",
"O c #aeaaae",
"+ c #aea6ae",
"@ c #c7bac7",
"# c #79869e",
"$ c Gray0",
"% c #ae5528",
"& c Yellow",
"* c Magenta",
"= c #be2020",
"- c #080408",
"; c #28ff20",
": c #188651",
"> c #51a249",
", c #ff1441",
"< c #000018",
"1 c #9e9a9e",
"2 c #5155ff",
"3 c Cyan",
"4 c #202496",
/* pixels */
"                                                       .",
" ......................................................X",
" ......................................................X",
" ...o..o..o..o..o..o..o..o..o..o..o..o..o..o..o..o..o..X",
" O...O...+...O...O...+...O...O...+...O...O...+...O...O.X",
" ..o..@o...@o..@o.@o...@o..@o.@o...@o..@o.@o..@o.@o.@o.X",
" O.O.+.O.O.O.O.O.O.O.O.O.O.O.O.O.O.O.O.O.O.O.O.O.O.O.O.X",
" .....O...o...+.......+...o...O...o...+.......O.......OX",
" O.+.+.O.+.O.+.OoO.#$$$$$$$O.+.+.O.O.+.OoO.+.+.OoO.+.O.X",
" ...O...O...O...O#$%%&&&&&%$$...O.o.O...O#..O...O...+..X",
" O.+.+.+.+.+.O.+$$%&&&&&&&&&#$.+.O.O.+.O.$#+.OoO.O.+.O.X",
" .O...O.O.O...O$$%&&&&&&&&&&&#$.O.+...+.O#$#..O.+.O...OX",
" O.+.O.+.O.+.+$$%&&&&****=&&&&#$.O.O.+.O.#-$.O.O.O.+.+.X",
" .O.+.O.O.O.O.$%&&&&&**.O**=&&&$O.+.O.O.O$$$+.O.+.O.O.OX",
" O.O.O.+.+.O.$$&&&&&&=***O**=&&#$O.O.+.O#-.$.O.O.O.+.O.X",
" OO.OOO.OOO.O$%&&&&&&=******=$&&$OO.OOO.$O$$OO+.OOO.OOOX",
" O.O.+.O.O.+#$&&&&&&&&===*===$&&#$.+.O.#$$$$.O.O.+.O.O.X",
" OOOOOOOOOOO$%&&&&&&&&$$====$$&&&#$OOOO$$$$OOOOOOOOOOOOX",
" O.O.O.O.O.O$%&&&;;::&&&$$$$$&&&&&#$.O$O$#.O.O.+.O.O.O.X",
" OOOOOOO+OOO$%&&;@;;;:&&&&&&&&&&&&&#$$O$OOOOOOOOOOO+OOOX",
" OOO.+OO.OOO$%&:@;;;;>:-&&&&&&&&&&&-,O$$.OOO.OOO.OOO.OOX",
" OOOOOOOOOOO$%&>;;;;>::$&&&&&&&$$$$,,=$#$OOOOOOOOOOOOOOX",
" OOOOOOOOOOO$%&::>#::<-&&&&&&&$$$$,,=$&&#$OOOOOOOOOOOOOX",
" OOOOOOOOOOO$%&<>:::--&&&&&&&$$O$,,=$&&&&$OOOOOOOOOOOOOX",
" 1OOO1OOO1OO$%&&X---&&&&&&&&&$$$,,=$$&&&&#$OO1OOO1OOO1OX",
" OOOOOOOOOOO##&&&&&&&&&&&&&&&$$,,=$O$&&&&&$OOOOOOOOOOOOX",
" OO1O1O1OOO1#-&&&&&,,,,=&&&&&&$$=$O$&&&&&&$$O1O1OOO1O1OX",
" OOOOOOOOOOOO-%&&&,,OO,=$&&&&&&$$$$&&&&&&&#$OOOOOOOOOOOX",
" 1O1O1O1O1O1O$#&&&,1,,,,=&&&&&&&&&&&&&&&&&#-O1O1O1O1O1OX",
" OOOOOOOOOOOO.-%&&=,,,,==$&&&&&&&&&&&&&&&&#$OOOOOOOOOOOX",
" 1O1O1O1O1O1O1$#&&=======$&&&222&&&&&&&&&&#-O1O1O1O1O1OX",
" O1OOO1OOO1OOO.-%&&$===$$&&2233222&&&&&&&%$$OO1OOO1OOO1X",
" 1O1O1O1O1O1O1O$#%&&$$$&&&233322244&&&&&&#-#O1O1O1O1O1OX",
" O1O1O1O1O1O1O1O-#%&&&&&&&222222244&&&&&%$$#1O1O1O1O1O1X",
" 1O1O1O1O1O1O1O1.$#%%&&&&&24222444&&&&&%#-#1O1O1O1O1O1OX",
" 11O111O111O111OO.-#%%%&&&&44444&&&&&%%#$$1O111O111O111X",
" 1O1O1O1O1O1O1O1O1#-$#%%%%&%&%&%&%&%%#-$$1O1O1O1O1O1O1OX",
" 111111111111111111$$$$$#%%%%%%%%%%#$$$#111111111111111X",
" 1O1O1O1O1O1O1O1O1$$O#$$$$$$$$$$$$$$$##1O1O1O1O1O1O1O1OX",
" 111111111111111111111111111111111111111111111111111111X",
" 111O111O111O111O111O111O111O111O111O111O111O111O111O11X",
" 111111111111111111111111111111111111111111111111111111X",
" 1O1111111O1111111O1111111O1111111O1111111O1111111O1111X",
" 111111111111111111111111111111111111111111111111111111X",
" 111111111111111111111111111111111111111111111111111111X",
".XXXXXXXXXXXXXXXXXXXXXXXXXXXXXXXXXXXXX<XX<XXXXXXXXXXXXXX"
};
