/* XPM */
static char *magick[] = {
/* columns rows colors chars-per-pixel */
"48 48 22 1",
"  c Gray0",
". c #101010",
"X c #201010",
"o c #202020",
"O c #202030",
"+ c #203020",
"@ c #000040",
"# c #001040",
"$ c #607070",
"% c #706070",
"& c #707060",
"* c Gray44",
"= c #0050c0",
"- c #0060c0",
"; c #a06000",
": c #807080",
"> c #808070",
", c #d0c020",
"< c #b2c0dc",
"1 c #c0d0c0",
"2 c Gray94",
"3 c None",
/* pixels */
"333333333333333333333333333333333333333333333333",
"333333333333333333333333333333333333333333333333",
"3333333333333333333333333333333333333333:$--$-:3",
"333333333333333333333333333333333333333<$#=O#=-3",
"33333333333333333333333333333333333333<@#=#==O$<",
"3333333333333333333333333333333333333:$==#=#=$:3",
"333333333333333333333333333333333333<$#=##==O$=3",
"33333333333333333333333333333333333:O==@==@$=$$<",
"3333333333333333333333333333333333:$=##=##=%$%:3",
"33333333333333333333333333333333<==O==#==O::O<33",
"333333333333333333333333333333<-=$=##=##$:$:<333",
"33333333333333333333333333333<==##=#@#=$=:::3333",
"33333333333333333333333333333==#==OO.#O=:O333333",
"333333333333333333333333333<==#=#$$:&$:$:<333333",
"333333333333333333333333333==O#=O$<1:::$:3333333",
"33333333333333333333333333-=#OOO:<:<<$$<33333333",
"33333333333333333333333333:$@&::<<::*:<333333333",
"33333333333333333333333333:$o:22::1:O<3333333333",
"3333333333333333333333333>11121<<:$*333333333333",
"333333333333333333333333>:<12<1:::*3333333333333",
"33333333333333333333333&11O&21:<:O33333333333333",
"3333333333333333333333>1>&:1:1:%:333333333333333",
"333333333333333333333<:2:&11:::$3333333333333333",
"33333333333333333333:12221::<%$33333333333333333",
"3333333333333333333<:::211<:::333333333333333333",
"333333333333333333::2&&11:::&3333333333333333333",
"33333333333333333:11O:1:<::$33333333333333333333",
"3333333333333333<:1:&11::::333333333333333333333",
"333333333333333:11O&2::<:O3333333333333333333333",
"33333333333333<1121:11:::33333333333333333333333",
"3333333333333::222<1:::$333333333333333333333333",
"333333333333:12222:1<%$3333333333333333333333333",
"33333333333<112211<:%%33333333333333333333333333",
"3333333333>>22221:::O333333333333333333333333333",
"333333333-::22<:1:%%3333333333333333333333333333",
"33333333$=$:211<::$33333333333333333333333333333",
"3333333:O#=-21:<%O333333333333333333333333333333",
"333333:$#=O$<::%:<333333333333333333333333333333",
"33333:&O$=#=:<:$:3333333333333333333333333333333",
"3333>;;,;&$=1%&<33333333333333333333333333333333",
"3333&>;,;+%:%::333333333333333333333333333333333",
"3333&,,;+O::$<3333333333333333333333333333333333",
"3333&;&1&O&$<33333333333333333333333333333333333",
"3333O&;%%%$:333333333333333333333333333333333333",
"333:+XOo:333333333333333333333333333333333333333",
"3333oooo3333333333333333333333333333333333333333",
"3333&:333333333333333333333333333333333333333333",
"333<33333333333333333333333333333333333333333333"
};
