/* XPM */
static char * image_name[] = {
"56 46 41 1",
" 	c #FFFFFBEEFFFF",
".	c #BEFBB6DABEFB",
"X	c #BEFBBAEABEFB",
"o	c #000000001040",
"O	c #C71BBAEAC71B",
"+	c #AEBAA699AEBA",
"@	c #000000000000",
"#	c #082004100820",
"$	c #CF3C555528A2",
"%	c #000008200820",
"&	c #B6DA45145965",
"*	c #AEBA61856185",
"=	c #B6DAAEBAB6DA",
"-	c #FFFFFFFFD75C",
";	c #CF3CC71BCF3C",
":	c #000000001861",
">	c #A699A699A699",
",	c #9E799A699E79",
"<	c #A6999E79A699",
"1	c #AEBAAEBAB6DA",
"2	c #DF7DBAEA8E38",
"3	c #0000FFFFFFFF",
"4	c #EFBE28A25144",
"5	c #FFFFE79DBEFB",
"6	c #FFFFF3CEFFFF",
"7	c #E79DD75C9E79",
"8	c #965896589658",
"9	c #FFFF14514103",
"0	c #A69979E78E38",
"q	c #F7DEB2CAAEBA",
"w	c #AEBAAEBAAEBA",
"e	c #FFFF6185FFFF",
"r	c #AEBAB2CACF3C",
"t	c #96589658AEBA",
"y	c #69A68617BEFB",
"u	c #51445555FFFF",
"i	c #79E786179E79",
"p	c #8E38861779E7",
"a	c #5965A289D75C",
"s	c #AEBAA69971C6",
"d	c #79E79248B6DA",
"                                                       .",
" ..X...X...X...X...X...X...X...X...X...X...X...X...X...o",
" .O.O.O.O.O.O.O.O.O.O.O.O.O.O.O.O.O.O.O.O.O.O.O.O.O.O.Oo",
" X.....................................................o",
" +XO.+O.O+XO.+O.O+XO.+O.O+XO.+O.O+XO.+O.O+XO.+O.O+XO.+Xo",
" O...X.X.....X.X.....X.X.....X.X.....X.X.....X.X.....O.o",
" +.+O+.+.+O+.+.+O+.+O+.+.+O+.+.+O+.+O+.+.+O+.+.+.+O+.+.o",
" .O...+.O....O+...O...+.O....O+..O.X@@#.O....O+.O....X+o",
" +.+.+O+.+O+.+.+O+.+.+O+.+O+.+.+.+.#@$@oX+O+.+.+.+O+.+.o",
" ..O+...+...+.O.+..O+...+...+..O+.#o%&$@#...+..O+...+.Oo",
" +X+.+O+.+O+.+.+.+.+.+O+.+O+.+O+.###X%$*#=O+.+O+.+O+.+.o",
" .+.O.+.+.+.O.+O+.+.O.+.+.+.O.+.@@-#o;#:#.+.O.+.+.+.OX+o",
" +.+.+.+O+.+.+.+.+O+.+.+O+.+.+.#@---#o##;=.+.+.+.+.+.+.o",
" O+.+O+.+.+.+.+.+.+.+.+.+.+.+.#@---@-o#O+O+.+O+.+O+.+.+o",
" +.+.+.+.+O+.+O+.+.+O+.+O+.+O@#---@-@@;=.+.+.+.+.+.+O+Xo",
" ++.+++O+++.+++.+++.+++.+++X@@---@-@#=>.+++.+++O+++.+++o",
" +X+.+.+.+.+O+.+O+.+.+O+.+.##---@-@@.+.+O+.+O+.+.+O+.+.o",
" +++++++++++++++++++++++++#@---@-@@++++++++++++++++++++o",
" +.+O+.+.+O+.+.+.+O+.+.+.##---@-@@X+X+.+.+.+.+.+.+.+X+Xo",
" +++++++++++++++++++++++#@---@-@@++++++++++++++++++++++o",
" +++.+++.+++.+++O+++.++#@---@-@@.+++.+++.+++O+++O+++.++o",
" +++++++++++++++++++++#@---@-@@++++++++++++++++++++++++o",
" +++++++++++++++++++++#---@-@@+++++++++++++++++++++++++o",
" ++++++++++++++++++++@@--@-@@++++++++++++++++++++++++++o",
" ,+++,+++,+++,+++,+++#@@@-@@+,+++,+++><++><++>+++,+++,+o",
" ++++++++++++++++++++@-+@@@++++++++++++++++++++++++++++o",
" ++,+,+,+++,+,+,+++,#@+-@@+,+,+,+++,+,+,++$>+,+,+++,+,+o",
" +++++++++++++++++++@@@@@++++++++12&$$$.$.$=+++++++++++o",
" ,+,+,+,+,+,+,+,+,33@@@,+,+,+,+$$4$$5<.<=$;$.,+,+,+,+,+o",
"6+++++++++++++++333$$++++++O$$&$=;.O<+>O$.$==<+++++++++o",
" ,+,+,+,+,+,+,33--$&7++,+,+$&7O>=,<,=,=8=>9>+<+,+,+,+,+o",
"6+,++<,++<,++33+-.$==<,+12&$2+,-+10qwe,++=>++<,++<,+++,o",
" ,+,+,+,+,+,<3+-+<$&$>+$$&$71-+-+-rte,=,=,+,+<+,+,+,+,+o",
"6+,+,+,+,+,+,3,-,=+7&$$4>O++t+-+-+,etq,+,+,+,+,+,+,<,+,o",
" ,+,+,<<<<<<<3+,--+>O2=>.---<-+-+-+,<<<,3,+3<<<,+,+,+,+o",
"6,,<,,,+,,,+,3,<,,--8----,,+,,,-,,,+<t<<,33+<,,<,,<<,,,o",
" ,+,<<<<<,<<+33,<,+,-,+,+,<,+,<,+,+O>,+33,<3<,<<<,+,<,+o",
"6,,,,,,,,,,,,,33,,,,,,33333,yu,,<i;pO,,,,33,,,,,<0,,,,,o",
" ,<<<,<,<<<,<<<3333333+,<,+,yayy=,>7as+,3,<3+,<,+,+,<<<:",
"6,<0,<<0,,<0,,,,,,,,8,,,,,,,t,y<,8dw8<,<0,<,,,,,,,,,,,,o",
" ,8t+,,<+,,<+,0<<,0t+,,,<,,,1,,,=,88>,<,<<,0+,0<<<0t+,,o",
"6,,,,,8,t0,8,,t,,,,,,t0,,,,,,,,8,,,,,,,,,,,,,,<,,,,,,,,o",
" ,+,0t,,,<+,0t,,,,<,,,,,,0+,,,,,,<+,<,8,,,<<,,0t,,<<,0,:",
"6,,,<,,t0,,,<,8<0,,<0,,,,<t,8,,,<,,<,,,,8<0,,t,,0,,,,,,o",
" ,,8,,0<,t,8,,,,t,,,t,0t,,,,0t,,8,8,,0,,0t,,,,,<t,,0t,,o",
".oo:o::oooo:o:oooo:oo::oooo::oooooooo::::oo:oooooo::oooo"};
