/* XPM */
static char *magick[] = {
/* columns rows colors chars-per-pixel */
"48 48 127 2",
"   c Gray0",
".  c #001100",
"X  c #110000",
"o  c #110011",
"O  c #111100",
"+  c #111111",
"@  c #111122",
"#  c #112222",
"$  c #221100",
"%  c #221111",
"&  c #331111",
"*  c #221122",
"=  c #331122",
"-  c #222211",
";  c #332211",
":  c #222222",
">  c #222233",
",  c #223333",
"<  c #332222",
"1  c #332233",
"2  c #333322",
"3  c Gray20",
"4  c #333344",
"5  c #334444",
"6  c #441111",
"7  c #550011",
"8  c #551100",
"9  c #551111",
"0  c #441122",
"q  c #551122",
"w  c #443311",
"e  c #552211",
"r  c #442222",
"t  c #442233",
"y  c #443322",
"u  c #552222",
"i  c #553322",
"p  c #553333",
"a  c #771100",
"s  c #771111",
"d  c #771122",
"f  c #662222",
"g  c #663322",
"h  c #663333",
"j  c #773333",
"k  c #443344",
"l  c #553344",
"z  c #663344",
"x  c #554433",
"c  c #664422",
"v  c #664433",
"b  c #444444",
"n  c #444455",
"m  c #554455",
"M  c #555544",
"N  c #555555",
"B  c #554466",
"V  c #664444",
"C  c #775544",
"Z  c #775555",
"A  c #665577",
"S  c #666677",
"D  c #777766",
"F  c #666688",
"G  c #667788",
"H  c #776699",
"J  c #778888",
"K  c LightSlateGray",
"L  c #7788aa",
"P  c #880011",
"I  c #993322",
"U  c #993333",
"Y  c #993344",
"T  c #884433",
"R  c #885522",
"E  c #885533",
"W  c #995522",
"Q  c #995533",
"!  c #886633",
"~  c #996622",
"^  c #996633",
"/  c #884455",
"(  c #885544",
")  c #885555",
"_  c #995555",
"`  c #996666",
"'  c #aa5544",
"]  c #aa5555",
"[  c #bb5555",
"{  c #aa6666",
"}  c #aa7766",
"|  c #bb6666",
" . c #bb6677",
".. c #cc5566",
"X. c #dd5566",
"o. c #dd6655",
"O. c #ee5566",
"+. c #887799",
"@. c #dd7788",
"#. c #cc8877",
"$. c #dd8866",
"%. c #ff8844",
"&. c #ff8855",
"*. c #ff9944",
"=. c #ee8877",
"-. c #888899",
";. c #889999",
":. c #8888aa",
">. c #99aabb",
",. c #aaaaaa",
"<. c #9999cc",
"1. c #dd9988",
"2. c #dd9999",
"3. c #ddbb88",
"4. c #ee8888",
"5. c #ee8899",
"6. c #ee9988",
"7. c #ee9999",
"8. c #eebb99",
"9. c #ffbb99",
"0. c #ffaaaa",
"q. c #ffbbaa",
"w. c #ccbbcc",
"e. c #eecc88",
"r. c #ffcc99",
"t. c Gray100",
"y. c None",
/* pixels */
"y.y.y.y.y.y.y.y.y.y.y.y.y.y.y.y.y.y.y.y.Q *.&.*.Q W Q ~ Q W r ; r y.y.y.y.y.y.y.y.y.y.y.y.y.y.y.",
"y.y.y.y.y.y.y.y.y.y.y.y.y.y.y.y.y.y.y.Q %.%.%.Q W Q W Q W 6 ; r ; y.y.y.y.y.y.y.y.y.y.y.y.y.y.y.",
"y.y.y.y.y.y.y.y.y.y.y.y.y.y.y.y.y.y.Q %.&.*.Q W Q Q Q W r ; r ; r y.y.y.y.y.y.y.y.h j y.y.y.y.y.",
"y.y.y.y.y.y.y.y.y.y.y.y.y.y.y.y.y.Q %.%.%.Q W Q W Q W 0 ; r ; 0 % y.y.y.y.y.y.y.f [ =.Y y.y.y.y.",
"y.y.y.y.y.y.y.y.y.y.y.y.y.y.y.y.Q *.&.*.Q W Q ~ Q W r ; r ; r - T y.y.y.y.y.y.g ] 4...I 9 y.y.y.",
"y.y.y.y.y.y.y.y.y.y.y.y.y.y.y.Q %.%.%.Q W Q W Q W 6 ; r ; 6 % T y.y.y.y.y.+.3 [ =.X.I s 8 j y.y.",
"y.y.y.y.y.y.y.y.y.y.y.y.y.y.Q %.&.*.Q W Q Q Q W r ; r ; r - T y.y.y.y.y.n 5 t.-...U d 6 9 y.y.y.",
"y.y.y.y.y.y.y.y.y.y.y.y.y.Q %.%.%.Q W Q W Q W 0 ; r ; 0 % T y.y.y.y.y.+.4 n -.w.J d 6 7 y.y.y.y.",
"y.y.y.y.y.y.y.y.y.y.y.y.Q *.&.*.Q W Q ~ Q W r ; r ; r - T y.y.y.y.y.n 5 t.K F K :.5 9 y.y.y.y.y.",
"y.y.y.y.y.y.y.y.y.y.y.Q %.%.%.Q W Q W Q W 6 ; r ; 6 % T y.y.y.y.y.+.3 A -.w.-.n b m b y.y.y.y.y.",
"y.y.y.y.y.y.y.y.y.y.Q %.&.*.Q W Q Q Q W r ; r ; r - T y.y.y.y.y.y., t.-.S ;.:.5 > 5 y.y.y.y.y.y.",
"y.y.y.y.y.y.y.y.y.| 9.0.%.Q W Q W Q W 0 ; r ; 0 % T y.y.y.y.y.y.Q Q -.w.-.k b k b y.y.v =...q y.",
"y.y.y.y.y.y.y.y. .q.q.q.Q W Q ~ Q W r ; r ; r - T y.y.y.y.y.y.Q &.&.n ;.:.5 > 5 y.y.y.f =.U 6 y.",
"y.y.y.y.y.y.y.y.{ 0.q.q.6.4.4.Q W 6 ; r ; 6 % T y.y.y.y.y.y.Q &.&.Q Q k b : b y.y.y.@ 3 -.d 7 y.",
"y.y.y.y.y.y.y.} q.q.q.2.5.4. .` r ; r ; r - T y.y.y.y.y.y.Q &.&.Q Q Q r r 5 y.y.y.y.4 y.-.b > y.",
"y.y.y.y.y.y.y.| q.0.6.7.4.| v h ; r ; 0 % T y.y.y.y.y.y.Q &.&.Q Q Q r r E y.y.y.y.y.4 -.b > @ y.",
"y.y.y.y.y.y. .q.q.2.4.1. .V t 2 r y r - T y.y.y.y.y.y.Q &.&.Q Q Q r r ! y.y.y.y.y.* t.-.b > y.y.",
"y.y.y.y.y.y.| q.6.4.4.| v r < r y h % T y.y.y.y.y.y.Q &.&.Q Q Q r r Q y.y.y.y.y.y.4 n k b : y.y.",
"y.y.y.y.y.} q.q.5.4. .x t 2 t p l Z { y.y.y.y.y.y.Q &.&.Q Q Q r r ^ y.y.y.y.y.y.& Q &.Q : + y.y.",
"y.y.y.y.y.| 9.@.4.| x r < z p / ( @.y.y.y.y.y.y.Q &.&.Q Q Q r r E y.y.y.y.y.y.y.c &.&.Q r y.y.y.",
"y.y.y.y. .2.@.} ) x 1 2 h Z ) #.y.y.y.y.y.y.y.Q &.&.Q Q Q r r E y.y.y.y.y.y.y.y.Q &.Q Q & y.y.y.",
"y.y.y.,.{ @.| ) p r p / C @.y.y.y.y.y.y.y.y.Q &.&.Q Q Q r r Q y.y.y.y.y.y.y.y.& Q &.Q r + y.y.y.",
"y.y.y.y. .Z h < t x ) #.y.y.y.y.y.y.y.y.y.Q &.&.Q Q Q r r E y.y.y.y.y.y.y.y.y.g &.&.Q r y.y.y.y.",
"y.y.N y.y.r < h ( @.y.y.y.y.y.y.y.y.y.y.Q &.&.Q Q Q r r E y.y.y.y.y.y.y.y.y.y.Q &.Q Q = y.y.y.y.",
"y.y.y.y.% y.l ` y.y.y.y.y.y.y.y.y.y.y.Q &.&.Q Q Q r r ^ y.y.y.y.y.y.y.y.y.y.& Q &.Q r O y.y.y.y.",
"y.N y.y.y.N ,.y.y.y.y.y.y.y.y.y.y.y.Q &.&.Q Q Q r r Q y.y.y.y.y.y.y.y.y.y.y.c &.&.Q r y.y.y.y.y.",
"y.y.y.N y.y.y.y.y.y.y.y.y.y.y.y.y.Q &.&.Q Q Q r r E y.y.y.y.y.y.y.y.y.y.y.y.Q &.Q Q & y.y.y.y.y.",
"N y.N y.y.y.y.y.y.y.y.y.y.y.y.y.Q &.&.Q Q Q r r Q y.y.y.y.y.y.y.y.y.y.y.y.; Q &.Q r + y.y.y.y.y.",
"y.y.y.y.y.y.y.y.y.y.y.y.y.y.y.Q &.&.Q Q Q r r E y.y.y.y.y.y.y.y.y.y.y.y.y.g &.&.Q r y.y.y.y.y.y.",
"y.y.y.y.y.y.y.y.y.y.y.y.y.y.Q &.&.Q Q Q r r E y.y.y.y.y.y.y.y.y.y.y.y.y.y.Q &.Q Q = y.y.y.y.y.y.",
"y.y.y.y.y.y.y.y.y.y.y.y.y.Q &.&.Q Q Q r r ! y.y.y.y.y.y.y.y.y.y.y.y.y.y.& Q &.Q r O y.y.y.y.y.y.",
"y.y.y.y.y.y.y.y.y.y.y.y.Q &.&.Q Q Q r r Q y.y.y.y.y.y.y.y.y.y.y.y.y.y.y.c &.&.Q r y.y.y.y.y.y.y.",
"y.y.y.y.y.y.y.y.y.y.y.Q &.&.Q Q Q r r E y.y.y.y.y.y.y.y.y.y.y.y.y.y.y.y.Q &.Q Q & y.y.y.y.y.y.y.",
"y.y.y.y.y.y.y.y.y.y.Q &.&.Q Q Q r r Q y.y.y.y.y.y.y.y.y.y.y.y.y.y.y.y.& Q &.Q r + y.y.y.y.y.y.y.",
"y.y.y.y.y.y.y.y.y.Q &.&.Q Q Q r r ^ y.y.y.y.y.y.y.y.y.y.y.y.y.y.y.y.y.g &.&.Q r y.y.y.y.y.y.y.y.",
"y.y.y.y.y.y.y.y.Q &.&.Q Q Q r r E y.y.y.y.y.y.y.y.y.y.y.y.y.y.y.y.y.y.Q &.Q Q = y.y.y.y.y.y.y.y.",
"y.y.y.y.y.y.y.Q &.&.Q Q Q r r E y.y.y.y.y.y.y.y.y.y.y.y.y.y.y.y.y.y.y. .q. .r O y.y.y.y.y.y.y.y.",
"y.y.y.y.y.y.Q &.&.Q Q Q r r E y.y.y.y.y.y.y.y.y.y.y.y.y.y.y.y.y.y.y.y.q.4.t l y.y.y.y.y.y.y.y.y.",
"y.y.y.y.y. .q.&.Q Q Q r r E y.y.y.y.y.y.y.y.y.y.y.y.y.y.y.y.y.y.y.y.y.q.) t y.y.y.y.y.y.y.y.y.y.",
"y.y.y.y.y.q.q.5. .Q r r E y.y.y.y.y.y.y.y.y.y.y.y.y.y.y.y.y.y.y.y.y.y.y.t y.y.y.y.y.y.y.y.y.y.y.",
"y.y.y.y. .q.4. .t r r ^ y.y.y.y.y.y.y.y.y.y.y.y.y.y.y.y.y.y.y.y.y.y.y.y.y.y.y.y.y.y.y.y.y.y.y.y.",
"y.y.y.y.q.5. .t t l R y.y.y.y.y.y.y.y.y.y.y.y.y.y.y.y.y.y.y.y.y.y.y.y.y.y.y.y.y.y.y.y.y.y.y.y.y.",
"y.y.y. .@.) 1 h ) y.y.y.y.y.y.y.y.y.y.y.y.y.y.y.y.y.y.y.y.y.y.y.y.y.y.y.y.y.y.y.y.y.y.y.y.y.y.y.",
"y.y.y. .h t ) y.y.y.y.y.y.y.y.y.y.y.y.y.y.y.y.y.y.y.y.y.y.y.y.y.y.y.y.y.y.y.y.y.y.y.y.y.y.y.y.y.",
"y.y.y.% l y.y.y.y.y.< M D #.8.q.3.$.e.r.e.r.e.r.e.r.e.r.e.r.e.r.e.r.e.r.e.r.G <.L F >.O.o.O._ y.",
"y.y.y.y.y.y.y.y.S 5 < $ & ; e i T ' Q E Q E Q E Q E Q E Q E Q E Q E Q E Q E B G A n H a P s f y.",
"y.y.y.y.y.y.y.y.y.y.% y V V i u w % - o . o . o . o - % - % . o . o . o . o # 4 . y., o O X ; y.",
"y.y.y.y.y.y.y.y.y.y.y.y.y.y.y.y.y.y.y.y.y.y.y.y.y.y.y.y.y.y.y.y.y.y.y.y.y.y.y.y.y.y.y.y.y.y.y.y."
};
