/* XPM */
static char *magick[] = {
/* columns rows colors chars-per-pixel */
"48 48 33 1",
"  c Gray0",
". c #060305",
"X c #15151c",
"o c #3d1814",
"O c #2b2829",
"+ c #373637",
"@ c #4a2818",
"# c #50372a",
"$ c #745215",
"% c #4a4546",
"& c #5a5668",
"* c #716672",
"= c #717681",
"- c #976719",
"; c #9d7418",
": c #b07c0b",
"> c #8a768d",
", c #af8931",
"< c #c58e12",
"1 c #d69a10",
"2 c #d5a81d",
"3 c #d9bb1d",
"4 c #f0ba12",
"5 c #f0c717",
"6 c #868e9c",
"7 c #9d95a9",
"8 c #a6aeae",
"9 c #c1b7b5",
"0 c #cacfcb",
"q c #dfdcdb",
"w c #e8eeee",
"e c #f9f9f6",
"r c None",
/* pixels */
"rrrrrrrrrrrrrrrrrrrrrrr........rrrrrrrrrrrrrrrrr",
"rwweeeeeeeeeeeeeeeeeee.......%&XeeeeeeeeeeeeeeXr",
"rwwwewwewwwewwwewwwew.........&O.wewewwwewewe*Xr",
"rewwwwwwwwwwwwwwwwww..............wwwwwwwwwww&Xr",
"rewwwwwwwwwwwwwwwwww..............wwwwwwwwew9*Xr",
"rewwwwwwwwwwwwwwwwww..XO...........wwwwwwww88*Xr",
"rewwww...............X8=X..*80%X.........&888&.r",
"rewwww.*=*=*=*=>==6>.wwee.Xwee8....6=6>6=e688*Or",
"rewwww.=*=*=*>>6>6>6.0.+eXOe.6wO...+%.o**e899*Xr",
"rewwww.*=*=>6>667677.0.O*XXe.>q%...%.o%+*e808*Xr",
"rewwww.=*=>6>6>77777.+&,4555.*e......O#%*e988*Xr",
"rewwww.*=>6677778787.X:35555533.....++%&*e098*Xr",
"rewwww.=>6>667789898.:155555531X...@+%&**e988*Xr",
"rewwww.>666777677677.#255555;21..X.+%%&*=e988*Xr",
"rewwww.=>67779>77677O*-,55;22,9O..*.%&=**e888*Xr",
"rewwww.>=67788778778+69;21:790w0....X*=*=e888&Xr",
"rewwww.=>66777777677.=q96,899eweX....**=*e888&Xr",
"rewwww.>66777777777O.we9099qeeeew.....===e888&Xr",
"rewwww.=>667776776O.8eee00eewewee.....*=*e877&Xr",
"rewwww.=6667677676.Xeeweweweeeeee8.....*=e888&Xr",
"rewwww.=>6>667679..6eeeeeeeeeeweew......*e787&.r",
"rewwww.*=>666677...70weeqweewq909wO.....Oe878&Xr",
"rewwww.=*=>>>676..X0ewewweeeeeew09e.OX...e777&.r",
"rewwww.*==6>6>6...9eeeeeweeeeeweew0.......876&Xr",
"rewwww.>*=*=>>>.O.eeeeeeeeeweeeeeewq......777&Xr",
"rewwww.*=*=*=>=X.>weeeeeweeeeweeeeeeX.....686&.r",
"rewwww.=*=*=*=.O.eeweeeweeeeeeeweeeeX......66&.r",
"rewwww.*=*=*=*..&eeeeeeqeeeeeeeeewee&......76&Xr",
"rewwqw.=*=*=*.X.9eweeeeqeeeeweeeeewe6......86&.r",
"rewwwq.*=*=*=.X.weeeeeeqeeweeeeeeeee8.......6%.r",
"reqwqq.=*=*=..O.weeeeeeqeeeweeeeewee9.......6&.r",
"rewqwq.*>*=*..X.wweeeeeweeeeeeeeeeeww.......6%.r",
"reqwqq8eeeee.2*Oeeeeweeqeeweeweweeee=O......>+.r",
"reqq0qq0q000254;%eeeeeeqeweeeeeeewq3,......66%.r",
"reqqqq0q00022454-Xweeweqeeeweeewee253.....23>%.r",
"reqqq000q09144445..weeeeweeeeweeew25<....$556%.r",
"re8===*=,<12454443..qeeeeeeeeeeee923<:##;244++.r",
"r=.....42444444545#..%weeeweeweew0<2211<14445..r",
"rrrrrrr454444544453...wweeeeeeeee9;22422445445rr",
"rrrrrrr245444544444<..weeweeweeee9;144444454543r",
"rrrrrrr14445455444459eeeeeeeeeew8.-2444444454455",
"rrrrrrr14454455545441wweeeeewewO..;245455544454r",
"rrrrrrr24444445444542$eeeeeee>...X:14444444544rr",
"rrrrrrr12244445544441-...........o<254544442rrrr",
"rrrrrrr;<<<1<2244442<-...........o;1444421;rrrrr",
"rrrrrrrr...-;::<211<-$X..........o$:<11<;rrrrrrr",
"rrrrrrrrrrrrrr$--:--$#rrrrrrrrrrrr$-:::-rrrrrrrr",
"rrrrrrrrrrrrrrrrr#$#$rrrrrrrrrrrrrr@$$#rrrrrrrrr"
};
