/* XPM */
static char *magick[] = {
/* columns rows colors chars-per-pixel */
"48 48 62 1",
"  c Gray0",
". c #080c10",
"X c #101818",
"o c #181818",
"O c #182020",
"+ c #202020",
"@ c #202820",
"# c #202828",
"$ c #282828",
"% c #202830",
"& c #283030",
"* c #303838",
"= c #303c38",
"- c #304141",
"; c #304149",
": c #384141",
"> c #384949",
", c #384951",
"< c #414949",
"1 c #414d49",
"2 c #415151",
"3 c #415159",
"4 c #495151",
"5 c #495959",
"6 c #515559",
"7 c #495961",
"8 c #496161",
"9 c #516161",
"0 c #516169",
"q c #516969",
"w c #516971",
"e c #596971",
"r c #517171",
"t c #597171",
"y c #597179",
"u c #616961",
"i c #617179",
"p c #617979",
"a c #717171",
"s c #717979",
"d c #617986",
"f c #618286",
"g c #698a8e",
"h c #798286",
"j c #71929e",
"k c #79969e",
"l c #79a2a6",
"z c #868286",
"x c #86828e",
"c c #8e8a8e",
"v c #8e969e",
"b c #86a6ae",
"n c #86aab6",
"m c #8eb2b6",
"M c #a69aa6",
"N c #a6a2a6",
"B c #96bac7",
"V c #96c3cf",
"C c #a6cbd7",
"Z c #a6d3df",
"A c #aedbe7",
"S c None",
/* pixels */
"SSSSSSSSSSSSSSSSSSSSSSSSSSSSSSSSSSSSSSSSSSSSSSSS",
"SSSSSSSSSSSSSSSSSSSSSSSSSSSSSSSSSSSSSSSSSSSSSSSS",
"SSSSSSSSSSSSSSSSSSSSSSSSSSSSSSSSSSSSSSSSSSSSSSSS",
"SSSSSSSSSSSSSSSSSSSSSSSSSSSSSSSSSSSSSSSSSSSSSSvS",
"SSSSSSSSSSSSSSSSSSSSSSSSSSSSSSSSSSSSSSSSSSSSSv*u",
"SSSSSSSSSSSSSSSSSSSSSSSSSSSSSSSSSSSSSSSSSSSSN:$M",
"SSSSSSSSSSSSSSSSSSSSSSSSSNsaaaaasvSSSSSSSSSS6XMS",
"SSSSSSSSSSSSSSSSSSSSSSSSS450rrrrj5SSSSSSSvSuOcSS",
"SSSSSSSSSSSSSSSSSSSSSSSS48nAApqnB7hSSSSSSu<+zSSS",
"SSSSSSSSSSSSSSSSSSSSSSS40nV33&nBdt6SSSSSh*oaSSSS",
"SSSSSSSSSSSSSSSSSSSSSN60nV-;&jCgff>vSSSx*+6SSSSS",
"SSSSSSSSSSSSSSSSSSSSN68nn,-&jZffff8aSSv:#<SSSSSS",
"SSSSSSSSSSSSSSSSSSSSu0qt7--fAfffffw6SN<&&SSSSSSS",
"SSSSSSSSSSSSSSSSSSS47f,;;;fZgdfffff:v4&@MSSSSSSS",
"SSSSSSSSSSSSSSSSSSupBBBmBBVvfdfffff16*ocSSSSSSSS",
"SSSSSSSSSSSSSSSSSS.*22222qZgfffffff5OXsSSSSSSSSS",
"SSSSSSSSSSSSSSSSSS.OfXf8&.ggfffffffqXuSSSSSSSSSS",
"SSSSSSSSSSSSSSSSSsXX#>#>&.jkffffffd2&SSSSSSSSSSS",
"SSSSSSSSSSSSSSSSSuO&==##%Objfffffd<l&SSSSSSSSSSS",
"SSSSSSSSSSSSSSSSS=&******:jjffffd<bg#NSSSSSSSSSS",
"SSSSSSSSSSSSSSSS<#ie7g:k=fVfffff<bgd+xSSSSSSSSSS",
"SSSSSSSSSSSSSSSuO*f&y>88dVfffff2vgf2+uSSSSSSSSSS",
"SSSSSSSSSSSSSSaoie7g:k:fVfffff2gjf29$cSSSSSSSSSS",
"SSSSSSSSSSSSSz.*f&y>88dVfffff7fjf83ocSSSSSSSSSSS",
"SSSSSSSSSSSScOte7g:k:fVfffff0pjf03#aSSSSSSSSSSSS",
"SSSSSSSSSSSNO&f&y>880Afffff0qbfq2&uSSSSSSSSSSSSS",
"SSSSSSSSSSN@we7g:k:7Zgffffq0bft1-<SSSSSSSSSSSSSS",
"SSSSSSSSSN&&f&y>88qZgfffft9lft12=SSSSSSSSSSSSSSS",
"SSSSSSSSN<#******7Zffffft2mfd<3$MSSSSSSSSSSSSSSS",
"SSSSSSSS11m;B2bp7Zgffffy2mfd<7+MSSSSSSSSSSSSSSSS",
"SSSSSvcuo>-->*23Cfffffd2bff<8+cSSSSSSSSSSSSSSSSS",
"SSSSh15778g+#*>Afffffd<mff25OcSSSSSSSSSSSSSSSSSS",
"SSSh3gBffVm3O&Zyfffff>bgf57#aSSSSSSSSSSSSSSSSSSS",
"SSh5jn&dZbffdVffffff2vgf03&uSSSSSSSSSSSSSSSSSSSS",
"Sa1fg*rVmffffffffff2vgf03-<SSSSSSSSSSSSSSSSSSSSS",
"h>dfffnZdfffffffff5gjft>>=SSSSSSSSSSSSSSSSSSSSSS",
"fBZABZAAjffffffff0pjft15$MSSSSSSSSSSSSSSSSSSSSSS",
"2dfffffgZjffffff0pjfd:7+MSSSSSSSSSSSSSSSSSSSSSSS",
"s3ffffffgAfffff0tvfd<8OcSSSSSSSSSSSSSSSSSSSSSSSS",
"S6qffffffgZffft9lfd<qXcSSSSSSSSSSSSSSSSSSSSSSSSS",
"SSu7ffffffvZdt9lff27OaSSSSSSSSSSSSSSSSSSSSSSSSSS",
"SSS47eeeeeqkj5bff28%uSSSSSSSSSSSSSSSSSSSSSSSSSSS",
"SSSN:>777777tlff83-<SSSSSSSSSSSSSSSSSSSSSSSSSSSS",
"SSSSc-rfffffyBn03-=SSSSSSSSSSSSSSSSSSSSSSSSSSSSS",
"SSSSSh*&##O#*>Bt7$MSSSSSSSSSSSSSSSSSSSSSSSSSSSSS",
"SSSSSSh*&-;;;;**#MSSSSSSSSSSSSSSSSSSSSSSSSSSSSSS",
"SSSSSSSvzzzzzzzcSSSSSSSSSSSSSSSSSSSSSSSSSSSSSSSS",
"SSSSSSSSSSSSSSSSSSSSSSSSSSSSSSSSSSSSSSSSSSSSSSSS"
};
