/* XPM */
static char *magick[] = {
/* columns rows colors chars-per-pixel */
"56 46 33 1",
"  c Gray100",
". c #bebabe",
"X c #bec3be",
"o c #000010",
"O c #aeaaae",
"+ c #9e9a9e",
"@ c #ae9e59",
"# c #ae5528",
"$ c #ff8e08",
"% c Yellow",
"& c #c7bac7",
"* c #285d49",
"= c #79869e",
"- c Gray0",
"; c #6986be",
": c #aeb2cf",
"> c #dfba8e",
", c #aeaeae",
"< c #cfc7cf",
"1 c #beb6be",
"2 c #cf5528",
"3 c #9696ae",
"4 c #aea6ae",
"5 c #717986",
"6 c #7992b6",
"7 c #000808",
"8 c #aeaeb6",
"9 c #867986",
"0 c #b6aeb6",
"q c #307159",
"w c #bec3cf",
"e c #000018",
"r c #8e8a8e",
/* pixels */
"                                                       .",
" .X.X.X.X.X.X.X.X.X.X.X.X.X.X.X.X.X.X.X.X.X.X.X.X.X.X.Xo",
" X.X.X.X.X.X.X.X.X.X.X.X.X.X.X.X.X.X.X.X.X.X.X.X.X.X.X.o",
" X..X...X...X...X...X...X...X...X...X...X...X...X...X..o",
" O.X.OX..OX..OX..OX..OX..OX..OX..OX..OX..OX..OX..OX..OXo",
" .X..X.X.X.X.X.X.X.X.X.X.X.X.X.X.X.X.X.X.X.X.X.X.X.X.X.o",
" O.+XO.+XO.+XO.+XO.+XO.+XO.+XO.+XO.+XO.+XO.+XO.+XO.+XO.o",
" X.X..O..X.X..O..X.X..O..X.X..O...@#..O..X.X..O..X.X..Oo",
" OXO.OXO.O.OXOXO.O.OXOXO.O.OXOXO.$%##OXO.O.OXOXO.O.OXOXo",
" X..OX.XO.X.O..XO.X.O..XO.X.O..&@%###X.XO.X.O..XO.X.O..o",
" O.OXO.OXO.OXO.OXO.OXO.X.X.OXO.$%###.O.OXO.OXO.OXO.OXOXo",
" XOX..O.O.OX.XO.O.OX..OX**=..&@%###..XO.O.OX.XO.O.OX..Oo",
" O.OXOXOXO.O.OXOXO.OXO.*-**=X$%###.OXO.OXO.O.OXOXO.OXO.o",
" XO.O.O.O.OXO.O.OXO.OXO=*-**;%###.O.O.O:>@#XO.O.OXO.O.Oo",
" O.OXO.OX+.O.OXO.O.O.O.==*-**=##.OXOXOXO@%##.OXO.O.OXOXo",
" OOXOOO.OOOXOO+.OOO.,<====*-**=.OOO.O,12%###OOO.+OO.OOOo",
" O.O.OXOXO.O.OXOXOXO.===3=**-**=XO.O.O@%###4.OXOXOXO.O.o",
" OOOOOOOOOOOOOOOOOO.==565==**7**=OO88$%###OOOOOOOOOOOOOo",
" OXO.O.O.OXO.O.O.O.==35653==**-**=.O@%###O.O.O.O.O.OXO.o",
" OOOOOOOOOOOOOOO,&==656965===**7**;$%###OOOOOOOOOOOOOOOo",
" OOOXOOOXOOOXOOOX===53565356==**-**;###O.OOOXOOOXOOO.OOo",
" OOOOOOOOOOOOOOO4=696535656====**-**=#OOOOOOOOOOOOOOOOOo",
" OOOOOOOOOOOOOOOO===65653565356=**-**=OOOOOOOOOOOOOOOOOo",
" OOOOOOOOOOOOOOO0535535656965====*#-===OOOOOOOOOOOOOOOOo",
" +OOO+OOO+OOO+OOO6565;9653569653**#*-**-O+OOO+OOO+OOO+Oo",
" OOOOOOOOOOOOOO485353539;55356=**X==----OOOOOOOOOOOOOOOo",
" OO+O+O+OOO+O+O+865;9;6535;965**.=.*7---OOO+O+O+OOO+O+Oo",
" OOOOOOOOOOOOOO4465353***q*q***w=X*----OOOOOOOOOOOOOOOOo",
" +O+O+O+O+O+O+O+4535;&.w&:&&.w.+.*e-O+O+O+O+O+O+O+O+O+Oo",
" OOOOOOOOOOOOOOO&656&==+==+==+=.*--OOOOOOOOOOOOOOOOOOOOo",
" +O+O+O+O+O+O+O.===&+....&.....*o-.+O+O+O+O+O+O+O+O+O+Oo",
" O+OOO+OOO+OOO.===.=.**********o-O+OOO+OOO+OOO+OOO+OOO+o",
" +O+O+O+O+O+OX==31+.*eoooooeoo--X+O+O+O+O+O+O+O+O+O+O+Oo",
" O+O+O+O+O+O.=r31=X*o----------O+O+O+O+O+O+O+O+O+O+O+O+o",
" +O+O+O+O+O+*==.=.*e-OOOOOOOOOO+O+O+O+O+O+O+O+O+O+O+O+Oo",
" ++O+++O+++OO*w=X*o-+++O+++O+++O+++O+++O+++O+++O+++O+++o",
" +O+O+O+O+O+O+*.*e-OO+O+O+O+O+O+O+O+O+O+O+O+O+O+O+O+O+Oo",
" +++++++++++++O*o-+++++++++++++++++++++++++++++++++++++o",
" +O+O+O+O+O+O+OOOOO+O+O+O+O+O+O+O+O+O+O+O+O+O+O+O+O+O+Oo",
" ++++++++++++++++++++++++++++++++++++++++++++++++++++++o",
" +++O+++O+++O+++O+++O+++O+++O+++O+++O+++O+++O+++O+++O++o",
" ++++++++++++++++++++++++++++++++++++++++++++++++++++++o",
" +O+++++++O+++++++O+++++++O+++++++O+++++++O+++++++O++++o",
" ++++++++++++++++++++++++++++++++++++++++++++++++++++++o",
" ++++++++++++++++++++++++++++++++++++++++++++++++++++++o",
"Xoooooooooooooooooooo-oo-oo-oo-ooooooooooooooooooooooooo"
};
