/* XPM */
static char *magick[] = {
/* columns rows colors chars-per-pixel */
"56 46 16 1",
"  c Gray100",
". c #bebabe",
"X c #000010",
"o c #beb6be",
"O c #aeaaae",
"+ c #aea6ae",
"@ c #c7bac7",
"# c Gray0",
"$ c #188651",
"% c #080408",
"& c #51a249",
"* c Cyan",
"= c Yellow",
"- c #ae5528",
"; c #9e9a9e",
": c #79869e",
/* pixels */
"                                                       .",
" ......................................................X",
" ......................................................X",
" ...o..o..o..o..o..o..o..o..o..o..o..o..o..o..o..o..o..X",
" O...O...+...O...O...+...O...O...+...O...O...+...O...O.X",
" ..o..@o...@o..@o.@o...@o..@o.@o...@o..@o.@o..@o.@o.@o.X",
" O.O.+.O.O.O.O.O.O.O.O.O.O.O.O.O.O.O.O.O.O.O.O.O.O.O.O.X",
" .....O...o...+.......+...o...O..#####+.......O.......OX",
" O.+.+.O.+.O.+.OoO.+.+.O.+.O.+.+#$$$$$%O.+.+.+.OoO.+.O.X",
" ...O...O...O...O...O...O...O..%$&$&$&$#O...O...O...+..X",
" O.+.+.+.+.+.O.+.+.+.OoO.+.+.O.#*$$$&$$%.O.+.OoO.O.+.O.X",
" .O...O.O.O.o.O.O.O...O.##O...O%$*****$%O.+...O.+.O...OX",
" O.+.O.+.O.O.O.+.O.+.O.#.=##.+.O%&$$$&#O.O.O.+.O.O.+.+.X",
" .O.+.O.O.+.O.O.O.O.+.O#=.=.##O.+#%%%#O.O.+.O.O.+.O.O.OX",
" O.O.O.+.O.O.+.O.+.O.O#=.=.=.=####$&$%#O.O.O.O.O.O.+.O.X",
" OO.OOO.OOO.OO+.OOO.OO#.=+=.=O=%$%*$$%$#OO+.OO+.OOO.OOOX",
" O.O.+.O.O.+.O.O.O.+.#.=.=.=.=#*$%*$&#$$%O.O.O.O.+.O.O.X",
" OOOOOOOOOOOOOOOOOOOO#=O=O=+=O#*&$%%%$$&%OOOOOOOOOOOOOOX",
" O.O.O.O.+.O.O.O.+.O#=.=.=.=.=#$*$&$$&*$#O.O.+.O.O.O.O.X",
" OOOOOOOOOOOOOOOOOOO#O=O=O=O=O#&$*****$$##OOOOOOOOO+OOOX",
" OOO.+OO.OOO.+OO.OO#.=O=.=O=.=O#$$$&$$&%.-##.OOO.OOO.OOX",
" OOOOOOOOOOOOOOOOOO#=O=O=O=O=O=O%%%#%%#.---#OOOOOOOOOOOX",
" OOOOOOOOOOOOOOOOO#=O=O=O=O=O=O=O=O#.-.-.-#OOOOOOOOOOOOX",
" OOOOOOOOOOOOOOOOO#O=O=O=O=O=O=O=O=#-.-.--#OOOOOOOOOOOOX",
" ;OOO;OOO;OOO;OOO#O=O=O=O=O=O=O=O=O-.-.--XOOO;OOO;OOO;OX",
" OOOOOOOOOOOOOOOO#=O=O=O=O=O=O=O=O=.-.---#OOOOOOOOOOOOOX",
" OO;O;O;OOO;O;O;#=O=O=O=O=O=O=O=O=O=.=.-#.O;O;O;OOO;O;OX",
" OOOOOOOOOOOOOO#=O=O=O=O=O=O=O=O=O=O=O--#OOOOOOOOOOOOOOX",
" ;O;O;O;O;O;###=O=O=O=O=O=O=O=O=O=O=O=-#O;O;O;O;O;O;O;OX",
" OOOOOOOOOOO#O=O=O=O=O=O=O=O=O=O=O=O=--#OOOOOOOOOOOOOOOX",
" ;O;O;O;O;O;O#O=O=O=O=O=O=O=O=O=O=O=O-#;O;O;O;O;O;O;O;OX",
" O;OOO;OOO;OOO#:=O=O=O=O=O=O=O=O=O=O--#OOO;OOO;OOO;OOO;X",
" ;O;O;O;O;O;O;O##=O=O=O=O=O=O=O=O=O=-#O;O;O;O;O;O;O;O;OX",
" O;O;O;O;O;O;O;O;##O=O=O=O=O=O=O=O=-##;O;O;O;O;O;O;O;O;X",
" ;O;O;O;O;O;O;O;O;O##=O=O=O=O=O=O.:##;O;O;O;O;O;O;O;O;OX",
" ;;O;;;O;;;O;;;O;;;O;##O=;=O=#######;;;O;;;O;;;O;;;O;;;X",
" ;O;O;O;O;O;O;O;O;O;O;O##=O=.#O;=:#;O;O;O;O;O;O;O;O;O;OX",
" ;;;;;;;;;;;;;;;;;;;;;;;;####:=:##;;;;;;;;;;;;;;;;;;;;;X",
" ;O;O;O;O;O;O;O;O;O;O;O;O;O#####O;O;O;O;O;O;O;O;O;O;O;OX",
" ;;;;;;;;;;;;;;;;;;;;;;;;;;;;;;;;;;;;;;;;;;;;;;;;;;;;;;X",
" ;;;O;;;O;;;O;;;O;;;O;;;O;;;O;;;O;;;O;;;O;;;O;;;O;;;O;;X",
" ;;;;;;;;;;;;;;;;;;;;;;;;;;;;;;;;;;;;;;;;;;;;;;;;;;;;;;X",
" ;O;;;;;;;O;;;;;;;O;;;;;;;O;;;;;;;O;;;;;;;O;;;;;;;O;;;;X",
" ;;;;;;;;;;;;;;;;;;;;;;;;;;;;;;;;;;;;;;;;;;;;;;;;;;;;;;X",
" ;;;;;;;;;;;;;;;;;;;;;;;;;;;;;;;;;;;;;;;;;;;;;;;;;;;;;;X",
".XXXXXXXXXXXXXXXXXXXXXXXXXXXXXXXXXXXXXXXXXXXXXXXXXXXXXXX"
};
