/* XPM */
static char *magick[] = {
/* columns rows colors chars-per-pixel */
"56 46 17 1",
"  c Gray100",
". c #bebabe",
"X c #bec3be",
"o c #000010",
"O c #aeaaae",
"+ c #9e9a9e",
"@ c Gray0",
"# c #79869e",
"$ c #bec3cf",
"% c #8e8a8e",
"& c #080408",
"* c #c7bac7",
"= c #9696ae",
"- c #717986",
"; c #7992b6",
": c #000018",
"> c #867986",
/* pixels */
"                                                       .",
" .X.X.X.X.X.X.X.X.X.X.X.X.X.X.X.X.X.X.X.X.X.X.X.X.X.X.Xo",
" X.X.X.X.X.X.X.X.X.X.X.X.X.X.X.X.X.X.X.X.X.X.X.X.X.X.X.o",
" .O..OX.O..O..O..OX.O..O..O..OX.O..O..O..OX.O..O..O..O.o",
" OX.XO..XOX.XOX.XO..XOX.XOX.XO..XOX.XOX.XO..XOX.XOX.XOXo",
" X..X..X.X..X..X...X.X..X..X...X.X..X..X..X.X..X.X..X..o",
" OX+.OOO.+XOOOX+.OOO.+XOOOX+.OOO.+XOOOX+.OOO.+XOOO.+.OXo",
" ..X.XO.X..X..OX.XX.X.O.X...XXO.X..X..O.X.X.X.O..X.XX.Oo",
" OXO.OXO.OXO.O.O.O.O.OXO.OXO.O.OXO.OXO.O.O.OXO.OXO.O.OXo",
" X..O.OXO.O.OXO.OX@@@@.OOX.OOXO.OXO.O.OXOXO.OOX.OO.XOO.o",
" O.+XO.O.OXO.OXO.@.OXO@@.O.O.OXO.O.OXO.O.OXO.O.OXO.O.OXo",
" XO.X.OXO.OXO.OXO@OX..OX@@O.X.OXO.OXO.OXO.OX.XO.OXO.X.Oo",
" OXO.OXOOO.O.O.O.@.X.X..XO@O.O.OOO@@.OXO.O.OOO.OOO.OXO.o",
" .O.OOO.OXOXOXOXO@o.X..X..O@OXO.O@OX@.O.OOO.OXO.OXOOO.Oo",
" OXOXO.O.O.O.O.O.@@X X.X.X.O@O.O@O..oOXOXOXO.OXO.O.OXOXo",
" OO.OOOXOOOXOOOXO@.@..X. X.XO@O@@@o@OOO.OOO.OOOXOOO.OOOo",
" O.O.O.O.O.+.O.O.@X@.X .X..X.O@@XOXOXO.OXO.OXO.O.OXO.O.o",
" OOOOOOOOOOOOOOOO@.Xo..X.X .X@@@OOOOOOOOOOOOOO+OOOOOOOOo",
" OXOOOXOXOXOXOXOXO@.@@X..X.Xo@.O@O.O.OXO.OXO.O.OXO.OXO.o",
" OOOOOOO+OOOOOOOO.oX.@o.X..@@.X.O@OOOOOOOO+OOOOOOOOOOOOo",
" OOO.OOO.OOO.OOO.O@. #@@ X@@.X.X.X@O.OOO.OOO.OOO.OOO.OOo",
" OOOOOOOOOOOOOOOOO.@X##@@@o.X. X..O@OOOOOOOOOOOOOOOOOOOo",
" OOOOOOOOOOOOOOOOOO@.###@@.X .X.X.XO@OOOOOOOOOOOOOOOOOOo",
" OOOOOOOOOOOOOOOOOO@.$%##@@.X.X. X..O@OOOOOOOOOOOOOOOOOo",
" +OOO+OOO+OOO+OOO+OO@.####&@.X..X.X.X@OOO+OOO+OOO+OOO+Oo",
" OOOOOOOOOOOOOOOOO@@@*#####@@ X.X..X.O@OOOOOOOOOOOOOOOOo",
" OO+O+O+OOO+O+O+O@X#@@##=-;#@@.X .X .XO@OOO+O+O+OOO+O+Oo",
" OOOOOOOOOOOOOOOO@X##&:--=-##@@..X..X.O@OOOOOOOOOOOOOOOo",
" +O+O+O+O+O+O+O+O@.X##&o;-;>;#@@X.X.X.X+@+O+O+O+O+O+O+Oo",
" OOOOOOOOOOOOOOOO.o*###@&o######@@. X..O@OOOOOOOOOOOOOOo",
" +O+O+O+O+O+O+O+O+O@X+###&&&&#####@@.X.+@+O+O+O+O+O+O+Oo",
" O+OOO+OOO+OOO+OOO+.o**###@O.&&&&@@@o@@@OO+OOO+OOO+OOO+o",
" +O+O+O+O+O+O+O+O+O+O@X*X##&O+.+.+.+OOO+O+O+O+O+O+O+O+Oo",
" O+O+O+O+O+O+O+O+O+O+.@ .*X.@O+O+O+O+O+O+O+O+O+O+O+O+O+o",
" +O+O+O+O+O+O+O+O+O+O+O@X...X@O+O+O+O+O+O+O+O+O+O+O+O+Oo",
" ++O+++O+++O+++O+++@@@@@@@oo@@@@@@@@+++O+++O+++O+++O+++o",
" +O+O+O+O+O+O+O+O+@X.X.X. X..X..X.X.@+O+O+O+O+O+O+O+O+Oo",
" ++++++++++++++++@.X#########+#######@+++++++++++++++++o",
" +O+O+O+O+O+O+O+O+@o@&@&@&&@&@:@&:@@@+O+O+O+O+O+O+O+O+Oo",
" +++++++++++++++++++O+O+O++O+O+O+O+O+++++++++++++++++++o",
" +++O+++O+++O+++O+++O+++O+++O+++O+++O+++O+++O+++O+++O++o",
" ++++++++++++++++++++++++++++++++++++++++++++++++++++++o",
" +O+++++++O+++++++O+++++++O+++++++O+++++++O+++++++O++++o",
" ++++++++++++++++++++++++++++++++++++++++++++++++++++++o",
" ++++++++++++++++++++++++++++++++++++++++++++++++++++++o",
"Xoooooooooooooooooooo@o@o@oo@o@o@o@ooooooooooooooooooooo"
};
