/* XPM */
static char *magick[] = {
/* columns rows colors chars-per-pixel */
"56 46 33 1",
"  c Gray100",
". c #bebabe",
"X c Gray0",
"o c #beb6be",
"O c #aeaaae",
"+ c #9e9a9e",
"@ c #c7bac7",
"# c #aea6ae",
"$ c #6986be",
"% c Gray65",
"& c #dfba8e",
"* c #a6a2a6",
"= c #717986",
"- c #aeaeae",
"; c #7992b6",
": c #000010",
"> c #000018",
", c #aeaeb6",
"< c #aeb2cf",
"1 c #9696ae",
"2 c #386da6",
"3 c #fffbff",
"4 c #080408",
"5 c #5155ff",
"6 c #a69ea6",
"7 c #f7b2ae",
"8 c #867986",
"9 c #b6aeb6",
"0 c #000808",
"q c #bec3be",
"w c Gray59",
"e c #59a2d7",
"r c #51718e",
/* pixels */
"                                                       .",
" ......................................................X",
" ......................................................X",
" ..o.o.o.o.o.o.o.o.o.o.o.o.o.o.o.o.o.o.o.o.o.o.o.o.o.o.X",
" O...O...O...O...O...OO+++++++++OO...O...O...O...O...O.X",
" .o.o.o@o.o.o@o.o.O#++OO.+.+O+O++++#.o@o.o.o@o.o.o@o.o.X",
" O.O@O.O.O.O.O..O++OO.#.#.+.+.++++$+$O.O.O.O.O.O.O.O.O.X",
" ...o.O...o....O+Oo@o..O.#.+o+O++++++$+o@o....O@o.....OX",
" O.O.O.#.O.Oo.#+..%%%&+.O.O.%%%&+%&*$+$+.O.#.#.O.OoOoO.X",
" .o.O...O.o..O+..%O$==-%...%;:=X$>==%$+$$...O.o.O...O..X",
" O.O.#.#.O..#+.o%-=,$<=,%o.&X$:$:=>>:%;+$$oO.O.O.#.O.#.X",
" .O.o.O.Oo.#%..%,=1=<21=3..o=4$>$>$:$4%$$=$.o.O.O.Oo..OX",
" O.O.O.#.O.+O..+=5;,16<17 .%:$:=>4:4444%8$>$.O.#.O.O.#.X",
" .#.OoO.O.O+.o&2;%1++++6 ..o=4$>4$4$X44:@$$$#.9.#.#.O.OX",
" O.O.O.9.#+O..6=$,.@+9++7 .%:$:$44X4XX4X$%8>$O.O.O.OoO.X",
" OO.OO#.OO+..-$>,. 7+##+ ..%$4$>=&%OO$X44o$$$O#.OOO.OOOX",
" O.#.O.O.+#.o+:6o3 7+OO+7 .&:=>4$o-+$++XX$+$4$.OoO.#.O.X",
" OOOOOOO#+.o.,=.   7++++ ..%$>$>=%+O++++44%$$4OOOOOOOOOX",
" O.O.O.OO+...+1 . .%*+++% .%4$4::9-+$+$%=:%=:$+O.O.O.O.X",
" OOOOO#O+O.#..@. o%,=,=% .o&$4$>=%++,=,=,4$#$4$OOOO#OOOX",
" OOO.OOO+.#.#.. . %=12<%. .%0=>4:%9+=1$,14X%4$4O.#OO.OOX",
" OOOOOOO++.+..oq%%$$12= ...%$:X>=&+1,1<=%X4+$4$OOOOOOOOX",
" OOOOOOO+.+oO..%%;$$$$@@o..&:$4$>o++=12,+44%4=>OOOOOOOOX",
" OOOOOOO++.+@o.9=$>$>@...o.9=44X0%+w<$1=%44-$:4OOOOOOOOX",
" +OOO+OO+#+.+.+%$>$4$4%.-.O%::$4=.=1=<2<644%4$4OO+OOO+OX",
" OOOOOOO++O+O+oO&%4$>=0%...%$4XX4992O58=%XX,=44OOOOOOOOX",
" OO+O+O++++O+.+9+.%4$>:=9o+&XX$X=9$6$%$e644%:$4+OOO+O+OX",
" OOOOOOO++++O+-+.+o=4$4>9+O&X4X4>%6$$$$=+X4+$4XOOOOOOOOX",
" +O+O+O++$+++%*.+.+944$4%.*+XXXX$&=,$$$,504%44$+O+O+O+OX",
" OOOOOOO++++9=%+++%%4$44%+O&XXX>=,<=$$1;0X;+44$OOOOOOOOX",
" +O+O+O+O+=,%=>%%.+%44$4%-+%4XX4$9%999=>X4+$4XO+O+O+O+OX",
" O+OOO+O#61+*@44%++&4$X4&+%%XXX444X444>X4$$X4$+OOO+OOO+X",
" +O+O+O+#+=<=9=>4%%=:4XX%+=94XXXXXXX44XXX+$4X+O+O+O+O+OX",
" O+O+O+O1,,$2$94444:44>=%6%%4XXXXXXXXXXX+$X4$O+O+O+O+O+X",
" +O+O+O+#+#6$6$%4444XX:9*+=944XX4X4XXXX+$44XO+O+O+O+O+OX",
" ++O+++O+++9$$$8%44XX4$%,$=%4XXXXXXXX$+$4XXO+++O+++O+++X",
" +O+O+O+#+#+9$$,=9=>4$%%=,$o4XXXXX4$$+$4XXO+O+O+O+O+O+OX",
" ++++++++++++#$$$=,&%9$=;5=O++++++++$444X++++++++++++++X",
" +O+O+O+O+#+#+9$>$$==$$$$;0$4=>$4$4$4$XXO+O+O+O+O+O+O+OX",
" ++++++++++++++,$$>$$$$$$$$$$>$4$4$4X4X++++++++++++++++X",
" +++O+++O+++#+++#<r$>$>;>$:$4$4$4$4$X$++O+++O+++O+++O++X",
" ++++++++++++++++6#<$>$:$4$4$4$4$X4$+++++++++++++++++++X",
" +O+++++++O+++++++#+6+$$4=>$4$4$$$O+++++++O+++++++O++++X",
" ++++++++++++++++++++++++,+++++++++++++++++++++++++++++X",
" ++++++++++++++++++++++++++++++++++++++++++++++++++++++X",
".XXXXXXXXXX4X4X4XXXX44444X4444444444X4XXXXXXXXXXXXXXXXXX"
};
