/* XPM */
static char *magick[] = {
/* columns rows colors chars-per-pixel */
"48 48 250 2",
"   c Gray0",
".  c #0b0a0b",
"X  c Gray6",
"o  c #101111",
"O  c #111011",
"+  c #111112",
"@  c #121312",
"#  c #131412",
"$  c #131414",
"%  c #141312",
"&  c #141413",
"*  c Gray8",
"=  c #141515",
"-  c #151415",
";  c #151515",
":  c #151516",
">  c #161616",
",  c #161617",
"<  c #181716",
"1  c #191919",
"2  c #181a18",
"3  c #1a1b1a",
"4  c #1b1a1b",
"5  c #1c1b1c",
"6  c #1d1d1d",
"7  c #1e1e1e",
"8  c #1e1f1f",
"9  c #212122",
"0  c #232323",
"q  c Gray14",
"w  c #242425",
"e  c Gray15",
"r  c #292828",
"t  c #2b2c2c",
"y  c #2c2c2c",
"u  c Gray18",
"i  c #2f2f2f",
"p  c #2f3130",
"a  c #313031",
"s  c #323233",
"d  c #323333",
"f  c #343433",
"g  c #353435",
"h  c Gray21",
"j  c #393738",
"k  c #39393a",
"l  c #3b3c3b",
"z  c Gray24",
"x  c #3e3e3e",
"c  c #3f3f3f",
"v  c #3f403f",
"b  c #403f40",
"n  c #414040",
"m  c #414241",
"M  c #424342",
"N  c #434242",
"B  c #444344",
"V  c #444443",
"C  c Gray27",
"Z  c #464646",
"A  c #474748",
"S  c #484849",
"D  c #484949",
"F  c #49494a",
"G  c #494b4a",
"H  c #4a4b4c",
"J  c #4b4b4d",
"K  c #4e4b4d",
"L  c #4d4e4d",
"P  c #4e4e4e",
"I  c #504f4f",
"U  c #515150",
"Y  c #515251",
"T  c #515352",
"R  c #535352",
"E  c #525452",
"W  c #535454",
"Q  c #545554",
"!  c #555555",
"~  c #575556",
"^  c #565656",
"/  c Gray34",
"(  c #595758",
")  c Gray35",
"_  c #5a5a59",
"`  c #5a5b59",
"'  c #5a5c5d",
"]  c #5c5b5c",
"[  c #5c5c5f",
"{  c #5c5e5d",
"}  c #5e5c5f",
"|  c #5f5d5f",
" . c #5e5e5f",
".. c #5f5f5f",
"X. c #605f5f",
"o. c #616060",
"O. c #626261",
"+. c #626361",
"@. c #626463",
"#. c #636463",
"$. c #646464",
"%. c #656565",
"&. c #656666",
"*. c #676667",
"=. c #686767",
"-. c #696767",
";. c #696868",
":. c #6a6a69",
">. c #6a6b6b",
",. c #6b6c6b",
"<. c #6b6d6d",
"1. c #6d6b6b",
"2. c #6d6c6d",
"3. c #6e6f6f",
"4. c #706f70",
"5. c #716f70",
"6. c #707171",
"7. c #717172",
"8. c #727171",
"9. c #727273",
"0. c #737473",
"q. c #747574",
"w. c #757674",
"e. c #777675",
"r. c #777777",
"t. c Gray47",
"y. c #797979",
"u. c #797a79",
"i. c #7a7a7b",
"p. c #7a7b7b",
"a. c #7b7a7a",
"s. c #7c7e7d",
"d. c Gray",
"f. c #807e7f",
"g. c #808081",
"h. c #818181",
"j. c #828181",
"k. c Gray51",
"l. c #838383",
"z. c #848282",
"x. c #858484",
"c. c #858584",
"v. c #848685",
"b. c #858686",
"n. c #878687",
"m. c #888787",
"M. c #888887",
"N. c #8a8889",
"B. c Gray54",
"V. c #8b8c8b",
"C. c #8c8a8a",
"Z. c #8c8d8d",
"A. c #8d8d8d",
"S. c #8d8e8f",
"D. c #8e8e8d",
"F. c #8e8f91",
"G. c #8f8f91",
"H. c Gray57",
"J. c #929092",
"K. c #939292",
"L. c #949393",
"P. c #949595",
"I. c #959694",
"U. c #969796",
"Y. c #979797",
"T. c #979898",
"R. c #999898",
"E. c #9a999a",
"W. c #9a9a99",
"Q. c #9b9a9a",
"!. c #9b9b9b",
"~. c #9d9c9d",
"^. c #9d9d9d",
"/. c #9d9f9d",
"(. c #9e9f9f",
"). c #9f9f9e",
"_. c #9fa0a2",
"`. c #a0a0a2",
"'. c #a1a0a2",
"]. c #a2a2a3",
"[. c #a4a4a4",
"{. c #a5a5a5",
"}. c Gray65",
"|. c #a7a7a7",
" X c #a8a8a7",
".X c #a8a9a7",
"XX c #a8a9a9",
"oX c #aaa9a9",
"OX c #abaaaa",
"+X c #acacab",
"@X c #acacac",
"#X c Gray68",
"$X c #aeaead",
"%X c #afafaf",
"&X c #afb0b0",
"*X c #afb1b1",
"=X c #b1b2b3",
"-X c #b3b1b3",
";X c #b4b4b4",
":X c #b5b4b5",
">X c Gray71",
",X c #b6b6b6",
"<X c #b7b7b6",
"1X c #b8b9b8",
"2X c #b9bab9",
"3X c #bbbaba",
"4X c #bbbbbb",
"5X c #bdbcbc",
"6X c Gray74",
"7X c #bfbdbe",
"8X c #bfbfbe",
"9X c #bfbfc0",
"0X c #bfc0c0",
"qX c #c0bfbe",
"wX c #c0c1c1",
"eX c #c1c2c2",
"rX c Gray76",
"tX c #c5c3c4",
"yX c #c5c5c5",
"uX c #c6c5c5",
"iX c #c6c6c5",
"pX c #c8c7c7",
"aX c Gray79",
"sX c #cacaca",
"dX c #cacbcb",
"fX c #cdcccd",
"gX c #cdcdce",
"hX c #cfcdcd",
"jX c Gray81",
"kX c #d0d1cf",
"lX c Gray82",
"zX c #d2d3d4",
"xX c #d3d2d4",
"cX c #d5d5d5",
"vX c #d8d8d8",
"bX c #dadbda",
"nX c #dedddd",
"mX c #dedfdf",
"MX c #e1e1e1",
"NX c #e2e2e2",
"BX c #e5e6e6",
"VX c #e9e9e9",
"CX c #ececed",
"ZX c Gray95",
"AX c Gray96",
"SX c #f7f8f8",
"DX c #f9fafa",
"FX c #fbfcfc",
"GX c Gray100",
"HX c None",
/* pixels */
"HXHXHXHXHXHXHXHXHXHXHXHXHXHXHXHXHXHXHXHXHXHXHXHXHXHXHXHXHXHXHXHXHXHXHXHXHXHXHXHXHXHXHXHXHXHXHXHX",
"HXHXHXHXHXHXHXHXHXHXHXHXHXHXHXHXHXHXA.{ e V.HX].*.x k j j ^ c.HXHXHXHXHXHXHXHXHXHXHXHXHXHXHXHXHX",
"HXHXHXHXHXHXHXHXHXHXHXHXHXHXHXHX8.J * & $ j 4.e * % $ * $ $ * 8 G U.HXHXHXHXHXHXHXHXHXHXHXHXHXHX",
"HXHXHXHXHXHXHXHXHXHXHXHXHXHXy.e * * * * 3 8 $ * * * * * * * * < 8 { HXHXHXHXHXHXHXHXHXHXHXHXHXHX",
"HXHXHXHXHXHXHXHXHXHXHX8Xl.e $ $ * * 0 ^ 3 * * * * * * * * * 8 5 * ] HXHXHXHXHXHXHXHXHXHXHXHXHXHX",
"HXHXHXHXHXHXHXHXHXsXAXFXc.* * * * * B.GXzX1.* * * * * * 8 8 * * * 4.HXHXHXHXHXHXHXHXHXHXHXHXHXHX",
"HXHXHXHXHXHXHX8XVXFXSXVXhXa * * * * MXCXVXDXZXR.I * 3 8 * * * * % c.HXHXHXHXHXHXHXHXHXHXHXHXHXHX",
"HXHXHXHXHXHXmXGXDXCXVXBXMX8.* * * n GXMXkXhXbXCXFX4.3 * * * * * # 3 e.HXHXHXHXHXHXHXHXHXHXHXHXHX",
"HXHXHXHXHXHXzX9XVXBXMXMXmXm.* * * y.GXlXhXsXpXyXhX*.* * * * * * * $ 5 e.HXe.a e R.HXHXHXHXHXHXHX",
"HXHXHXHXHXHX].{ BXMXmXmXbXbXc.l.m.0XBXsXpXyXeXeXqXf * * * * * * * * $ u B 3 $ @ V ~.HXHXHXHXHXHX",
"HXHXHXHXHXHXy.p A.mXmXbXbXcXzXkXhXhXsXpXyXeXeX8XoX8 * * * * * * * * 5 8 * * * * 3 4.HXHXHXHXHXHX",
"HXHXHXHXA.h @ @ {.MXbXcXzXlXhXhXsXpXyXeXeX8X8X3XR.8 * * * * * * 3 8 * * * * * * & e R.HXHXHXHXHX",
"HXHX>X9Xl.a * ,.AXbXzXlXkXhXhXsXpXyXeXqX8X1X1X>X>Xc.e * * 0 y.^ 4 * * * * * * * * * k HXHXHXHXHX",
"HXHXVXDXSXMX1.DXbXzXkXhXhXsXpXyXeXeX8X8X1X1X>X=X&X#XK.n a yXDXL.4 * * * * * * * * * * 3.HXHXHXHX",
"HXHXGXmXbXAXGXMXlXkXhXsXsXyXeXeX8X8X1X1X>X>X&X#X#XoX{.{.&XDX&X~.C * * * * * * * * * 3 X.HXHXHXHX",
"HX8XFXcXbXcXMXkXhXhXsXpXyXeX0X8X1X1X>X>X=X#X#X+XoX{.].].~.~.R.T.A.u * * * * * * * e ) HXHXHXHXHX",
"HXhXCXzXzXlXhXhXsXsXyXeXeXqX8X1X1X>X>X&X#X#X#X.X{.]._._.R.R.Y.L.K.y.5 * * * * 3 t c.HXHXHXHXHXHX",
"HXVXMXlXlXhXsXsXyXtXeXqX8X1X1X>X>X&X#X#XoX.X{.].].~.~.R.Y.U.K.K.A.V.E 3 * * 8 8 % y.HXHXHXHXHXHX",
"HX8X{.hXhXsXpXyXeX0XqX4X1X<X>X=X&X#X+XoX{.].].~.~.R.R.U.L.F.F.A.B.M.c.K 8 8 * * # v HXHXHXHXHXHX",
"HXy.* ) >XyXtXeX0X8X1X1X>X>X&X#X~.>.W T l.].~.~.R.T.L.K.F.F.V.B.m.c.l.) 3 * * * * 5 ~.HXHXHXHXHX",
"HXHXy.a * eX9X8X1X1X<X>X=X#X#XU.x h y w a ^ U.R.U.L.F.F.A.B.M.c.l.3.f * * * * * * # 8.HXHXHXHXHX",
"HXHXHXHXC 8X8X1X1X>X>X&X#X+X+XK f 3 * * * f ,.L.K.F.A.C.M.c.c.l.d.a * * * * * * * & @ X % y.HXHX",
"HXHXHXHXC 1X1X>X>X&X&X#XoXoXK.h e * * * * * 8.~.A.V.B.M.c.l.f.d.y.u * * * * * * * * * * # { HXHX",
"HXHXHXHXK.sX>X=X&X#X#XoX{.{.c.h 8 * * * * * n >XV.M.c.l.l.d.d.y.y.V $ * * * * * * * * * * { HXHX",
"HXHX>XBXAXeX&X#X#X#X.X{.].`.e.h 8 * 1XR.@ % * R.>Xc.l.g.s.y.y.e.e.^ @ * * * * * * * * 3 r { HXHX",
"HX>XAXCX1X&X#XoX.X{.{.].~.~.l.h 8 I B.u 8 . * n ZXl.d.y.y.e.e.8.4.3.* * * * * * * * 0 h L { HXHX",
"HX8XDX&X#X#XoX{.{.]._.~.~.R.K.l b * &Xa u X * * GXA.y.y.e.0.6.4.<.>.] u e 8 * * < e l J E { HXHX",
"HX>XGX8XoX.X{.].].(.~.R.T.U.K.^ ^ * +.{.8 . * * yX>Xe.e.8.4.<.,.>.*.#.+.{ ) u 0 t n I T G { HXHX",
"HXHXAXhX.X[.`.~.~.!.R.Y.L.K.F.y.{ a * r X . * * B.{.8.4.3.,.>.=.*.+.+.{ ] ) a j G E L J e A.HXHX",
"HXHXbXmX].].~.R.R.U.L.K.F.A.V.M.R.y.* * * * * * 1X#X4.1.>.*.*.+.| { ] ) ^ ^ h n T L A e 8.HXHXHX",
"HXHX8XZX{.~.R.T.U.K.K.F.A.B.m.c.L.zXa * * * * T AXl.,.>.*.+.+.X.{ ' ( ^ W T h G G B e 8.HXHXHXHX",
"HXHXHXGX~.R.U.U.K.F.A.V.M.m.c.l.f.{.MX{ * * { mXbX>.=.*.@.+.{ ] ) ^ ^ E T L u G b 0 A.HXHXHXHXHX",
"HXHXHX>Xa * * * G V.B.M.c.l.l.s.y.y.=XSXGXGXGX8X8.*.@.o.{ { ) ( ^ W T J G G t j & b HXHXHXHXHXHX",
"HXHXHX].c.c.c.y.e y.c.z.l.d.s.y.t.e.0.4.K.K.y.*.*.+.X.{ { ( ^ ^ E I A x b x w % $ @ G HXHXHXHXHX",
"HXHXHXHXHXHXHXHX=.L l.f.d.y.y.e.e.8.4.1.,.>.*.@.+.{ { ) ( ^ T T I G x f e e 3 $ * & X HXHXHXHXHX",
"HXHXHXHXHXHXHXHXHXn 0.d.y.e.0.8.4.3.>.-.*.*.o.{ { ) ( ^ W T I L G n a 3 * * * * @ % 8.HXHXHXHXHX",
"HXHXHXHXHXHXHXHXyXbXe.y.e.q.4.4.<.>.=.*.+.+.{ ' ) ( ^ E T L J G V h 3 * * * * O @ 8.HXHXHXHXHXHX",
"HXHXHXHXHXHXHXHXCX1Xe.e.8.4.<.>.-.*.+.+.{ { ) ( ^ T T I K G C B n u 3 * * * O @ 8.HXHXHXHXHXHXHX",
"HXHXHXHXHXHXHXHXAX0.8.4.3.,.>.=.*.+.X.{ ) ( ^ ^ T I L J G C B n x h e 3 @ @ @ 8.HXHXHXHXHXHXHXHX",
"HXHXHXHXHXHXHXHX1XB { <.>.=.*.@.+.| { ) ( ^ W T I J G C B n b x l j a 0 < @ 8.HXHXHXHXHXHXHXHXHX",
"HXHXHXHXHXHXHXHXHXl.u v *.@.) x ^ ) ) ^ W T I K G A C V n b x k j h a u 8 U.HXHXHXHXHXHXHXHXHXHX",
"HXHXHXHXHXHXHXHXHXHXA.J 0 I e e B 8 v E T L J G C B v h u x k h f p u 0 A.HXHXHXHXHXHXHXHXHXHXHX",
"HXHXHXHXHXHXHXHXHXHXHX{.e.u 8 y.HXU.k V K G A C n h 8 3 * 8 k a p e 8 A.HXHXHXHXHXHXHXHXHXHXHXHX",
"HXHXHXHXHXHXHXHXHXHXHXHXHXHXHXHXHXHXX.x A C B n b n * * * * < u u B ].HXHXHXHXHXHXHXHXHXHXHXHXHX",
"HXHXHXHXHXHXHXHXHXHXHXHXHXHXHXHXHXHXX.u B n b x x b * * * * * e c.HXHXHXHXHXHXHXHXHXHXHXHXHXHXHX",
"HXHXHXHXHXHXHXHXHXHXHXHXHXHXHXHXHXHX>.e k l l k l b 8 8 * B c.HXHXHXHXHXHXHXHXHXHXHXHXHXHXHXHXHX",
"HXHXHXHXHXHXHXHXHXHXHXHXHXHXHXHXHXHXHXB j j j r 8 u =.HXHXHXHXHXHXHXHXHXHXHXHXHXHXHXHXHXHXHXHXHX",
"HXHXHXHXHXHXHXHXHXHXHXHXHXHXHXHXHXHXHXHXHXHXHXHXHXHXHXHXHXHXHXHXHXHXHXHXHXHXHXHXHXHXHXHXHXHXHXHX"
};
