/* XPM */
static char *magick[] = {
/* columns rows colors chars-per-pixel */
"48 48 36 1",
"  c Gray0",
". c #000c00",
"X c #101000",
"o c #101c00",
"O c #003400",
"+ c #183820",
"@ c #281c10",
"# c #085d08",
"$ c #206128",
"% c #206d30",
"& c #287d38",
"* c #516179",
"= c #10a220",
"- c #18b228",
"; c #289628",
": c #30ae28",
"> c #10fb18",
", c #28c330",
"< c #20fb30",
"1 c #30c741",
"2 c #518651",
"3 c #59a261",
"4 c #59b261",
"5 c #49cb51",
"6 c #59d361",
"7 c #61e379",
"8 c #79e7a6",
"9 c #8e8e96",
"0 c #86b68e",
"q c #9ebe9e",
"w c #8ed3ae",
"e c #86ffa6",
"r c #9ee3ae",
"t c #a6ffa6",
"y c #aefbbe",
"u c None",
/* pixels */
"uuuuuuuuuuuuuuuuuuuuuuuuu####OOooOuuuuuuuuuuuuuu",
"uuuuuuuuuuuuuuuurrrrrrrr1,;..+++##@Ouuuuuuuuuuuu",
"uuuuuuuuuuuuuu8rrrrryr77-:.+++#####$Ouuuuuuuuuuu",
"uuuuuuuuuuuuu7rrrtr87664:.+#+#####$%%Ouuuuuuuuuu",
"uuuuuuuuuuuuurrr8rw7061,.+++####%%%%;Ouuuuuuuuuu",
"uuuuuuuuuuuurtr87q6411,;.++###$#%%%&&;@uuu#O#uuu",
"uuuuuuuuuuu%rr77064,4,--&o####%%%&&&;=Ou#oOO#uuu",
"uuuuuuuuuuuw7664544::;;$uO+##%%&%&&;&;&O@;##uuuu",
"uuuuuuuuuuu7064,1,--2-;.uuO#%%%&;&;===;--=Ouuuuu",
"uuuuuuuuu#6013,::2-;=;# uu@##%%&&;&;;-:-&Ouuuuuu",
"uuuuuuuuu#451,--;-=-==.&uuuO#%;&;=-:---:##uuuuuu",
"uuuuuuuu#:44,:-;-;;;;#.uuuuO#%&;&;;-:11;@uuuuuuu",
"uuuuuuuuu#O%:-;-=====.*uuuuuo&;=-:-,111ouuuuuuuu",
"uuuuuuuuuuu#O%;;;&;&#.uuuuuOO;;-;-:,11##uuuuuuuu",
"uuuuuuuuuuuuu#o&=;==O&uu#oO%;=-:-:11,%Ouuuuuuuuu",
"uuuuuuuuuuuuuuu#O%;;Ouuu@OOO@OOO@OOO@Ouuu##Ouuuu",
"uuuuuuuuuuuuuuuuu#OO*uuuuuuuuuuuuuuuuuu##%;ouuuu",
"O3rrrrrrrr867.%uuuu#uuuuuuuuuuuuuuuuu##&&;&&Ouuu",
"uOX1rrrrrr777<ouuuuuuuuuuuuuuuuuuuu##%==;===Ouuu",
"uu&XXr888w7766##uuuuuuu:;&%%uuuuu##&&;&;&;;;%Ouu",
"uuu9$r787776651Ouuuuuu:5<:%#%uuu#%;===;==;=;-Ouu",
"uuuu7776765651,2Ouuuuu-yy-%#Ouuu#;&;&;&;;-;:;:@u",
"uuu%770665551,--##uuuu:<>=&#Ouuuu#==;=-;--,-,:OO",
"uuu60<>11,,,--:-:&Ouuu%%&##o#uuuuu#=:;--,1,115,o",
"uuu05544,-:;-;-@-;##uu%###@O%uuuuu#&-:-,14545,:O",
"uuu551,,--:-:-o#OO%Ouuu%Oo#%uuuuuuu#--,11551,2-O",
"uuu%4:,--;::-#OuuuOOuuuuuuuuuuOuuuu#%441441,2:$O",
"uuu#-,--:-:-:.%uuuuuuuuuuuuuuuOuuuuu#-,111,-=%Ou",
"uuuu&-:--;-;#.uuuuuuuuuuuuuuut uuuuu#&:-::;=&&@u",
"uuuu#---:-:-.%uuuuuuuuuuuuuuur.uuuuuu#-2-===%ouu",
"uuuuu%::-;:$.uuuuuuuuuuuuuuu7t.uuuuuu#$&&&#O@Ouu",
"uuuuuu:-:-:.XoOOooO#####uuuuyyOoo#O#####oOO#ouuu",
"uuuuuu&;-;# ++#$%%&&;&;@uuu8ytrrr765:-;&$###Ouuu",
"uuuuuuu-:-.O+##%%%&==;=Ouu%ytrrr8754-=;&%##Ouuuu",
"uuuuuuu3-#.+###%&%&&;;:Ou#7trr87051:;;&&$##Ouuuu",
"uuuuuuu#:.X+##$%%&&;=-,Ouuerer7064,--=%%##Ouuuuu",
"uuuuuuu#&.++#$$%&&;;-:,@#8rrr86644:-;&%##+@uuuuu",
"uuuuuuuu#.+##%%%&;=--11Ou8er87<651-=;&%#+ouuuuuu",
"uuuuuuuu#X+##$%%&&;;,55Ouurrw761::;;%%$#+Ouuuuuu",
"uuuuuuuuuo+##%%&&=:-1<6Xuu877053:;=&&$%+ouuuuuuu",
"uuuuuuuuuuO##$&&;&:4568.uu#qq63:;;&&$$+Ouuuuuuuu",
"uuuuuuuuuuuOO%&==-:<687Ouu#604---&&%#oOuuuuuuuuu",
"uuuuuuuuuuuuu@OOO@OOO@OOuuuu6:......@uuuuuuuuuuu",
"uuuuuuuuuuuuuuuuuuuuuuuuuuu#0:.uuuuuuuuuuuuuuuuu",
"uuuuuuuuuuuuuuuuuuuuuuuuuuuuu- uuuuuuuuuuuuuuuuu",
"uuuuuuuuuuuuuuuuuuuuuuuuuuuuu3.uuuuuuuuuuuuuuuuu",
"uuuuuuuuuuuuuuuuuuuuuuuuuuuuuuOuuuuuuuuuuuuuuuuu",
"uuuuuuuuuuuuuuuuuuuuuuuuuuuuuuOuuuuuuuuuuuuuuuuu"
};
