/* XPM */
static char *magick[] = {
/* columns rows colors chars-per-pixel */
"56 46 20 1",
"  c Gray100",
". c #b6aeb6",
"X c #a6a2a6",
"o c #000010",
"O c #beb6be",
"+ c #aeaeae",
"@ c #bec3be",
"# c Gray65",
"$ c #aeaeb6",
"% c #000808",
"& c Gray59",
"* c Gray0",
"= c #9e9a9e",
"- c #5155ff",
"; c #79869e",
": c #717986",
"> c #a69ea6",
", c #8e8a8e",
"< c #fffbff",
"1 c #000018",
/* pixels */
"                                                       .",
" ..X..X.X..X.X..X.X..X.X..X.X..X.X..X.X..X.X..X.X..X.X.o",
" XO.O..O.O..O.O..O.O..O.O..O.O..O.O..O.O..O.O..O.O..O.Oo",
" O+O+OO+O+OO+O+OO+O+OO+O+OO+O+OO+O+OO+O+OO+O+OO+O+@+O..o",
" XO.O#$OO#$OO#O+OXOO+XOOO#+OO#$OO#O+OXOO+XOOO#+O.X.O+XO%",
" +O+O+O+O+OO+O$O+O.+@+O+O$O+O+OO+O+OO+O+OO+O+$OO+OO+OO.o",
" XOXO#.XO#+XO#.#O#$++XO#++.XO#$#.XO#+++++XO#O#.#O#+++X.o",
" .O+O$#O$.O+O$#O+.O+O.#O.O+O.++$O+O$.OX+OO$.+OX+O$O.O.Xo",
" &.XO#.#O#O#$++XOXO#.#$X++.#OX.#O#.XO#.++XO#O#$++++XO#.o",
" +O.X+O$#O+.++O$#O$.X$O.++O$X+O$#O+O#$..++O$X$O.X..OX$.o",
" X.#O#$++XOX.XO#.#O#O#.#$  XOXO#$XO#$++++XO#.++++++XO#Oo",
" O#O+OX.X.X+O$#OX$X+O$X  ** O.X++$#O+OX.XOX+O.X.XOXO+.Xo",
" X$X.XO#$+.++++X.XOXO  ** * +++XO#.#O#.X.#.XO#$++X.XO#.o",
" .+$#OX++$#.X.XOX.#  **   * #OXOX.X$X$+++++$#.#OX++$#.Xo",
" &.X.#$+++.X.X.#$X **  X. * .X.#$+.XO#.X.X.X.#$XOXO#.#$o",
" X#OXXX.X=+$###OX *  XX.X * XXX.XX#.#XX.XX#OXXX.#X#.XXXo",
" X$X.X.+.X.X.X$X. * .X.XO * .X.X.%*****%*X.#$++X.#$XO#Oo",
" XX######XXXXX+XX * XXXXX * XXXX** X X X**#XXXXXXXX#XXXo",
" X.X$X$X.X.XO#$XO * .X.   * .XO%*        **X.XOX.XOX$X.o",
" XXXXXXXX####XXX# * XX **** ##X*   ****  X*XX###X##XXXXo",
" &XXOXXXOXXX$XXX. * . *  -* .X**  ******  *XOXXX$XXX.XXo",
" XXXXXXXXXXXXXXXX * X * --* XX*X **X;;**X XXXXXXXX#XXXXo",
" XXXXXX#XXXXXXXXX * X *---* XX*X *X X:**XXXXXXXXXXXXXXXo",
" XXXXXXXXXXXXXX   * XX *** XXX*X *   X**XXXXXXXXXXXXXXXo",
" &XXX&XXX&XXX& **** X&X   XXX&*X   ****XX&XXX&XXX&XXX&Xo",
" XXXXXXXXXXXX *  -* XXXXXXXXXX*X  *X   XXXXXXXXXXXXXXXXo",
" &X&X&X&XXX&X * --* X&X&XXX&X&*&  *&   &XXX&X&X&XXX&X&Xo",
" XXXXXXXXXXXX *---* XXXXXXXXXX*X  *;X  XXXXXXXXXXXXXXXXo",
" &X&=&X&X&X&X& *** &X&=&X&=&X&*;X  *;&X;=&X&=&X&X&X&X&Xo",
" X=XXXXXXXX=XXX   XXXX*******=X*;X  *;:**XXXXXXXXXXXX=Xo",
" &X&X&=&=&X&X&X&X&X&>&X       X**;X  ***  X&X&=&=&=&X&Xo",
" >&XX>&XX>&XX=&XX=&XX>&XXX&XXX&X**;X      &=X>&XXX&XX>&o",
" &X&>&X&X&>&X&>&X***********X&>&X**;X    &X&X&>&X&>&X&>o",
" >&>&>&>&X&>&X&>&X           X&>&X**;X&X&;*>&X&>&>&>&X&o",
" &X&>&X&>&=&>&>&>&X&X&X&X&X&X&=&X&>**;:;:*X&>&>&X&>&>&>o",
" &&=&&&>&&&>&&&>&&&>&************&&X*****&&>&&&>&&&>&&&o",
" &&&>&>&>&>&>&>&>&>&=&            X&X&X&>&X&=&>&=&>&=&>o",
" ,&,&&&,&&&&&&&&&&&&&&&&&&&&&&&&&&&&&,&&&&,&&&&&&&&&&&&o",
" &>&>&>&>&>,>&>,>&>&>&>&=&>&>&=&>&>&>&>&>&>&>,>&>,>&>&>o",
" &&&&,&&&,&&&,&&&&&,&&,&&&&,&&&&&,&,&&,&&,&&&&&,&&&&,&&o",
" &,&>&&,>&&&>&&,>&,&>&&&>&,&>&,&>&&&>&&&>&&&>&&&>&&&>&&o",
"<&&&&&&&&&,&&&&&&&&&&&&,&&&&&&&&&&&&&&,&&&&,&&,&&&,&&,&o",
" &>&,&&&&&>&,&,&,&>&,&&&,&>&,&,&,&>,&&&&,&>&&&&&,&>&&&&o",
"<&,&&&,&,&&&&&&&&&&&&=,&&=,&&&&&&&,=,=,&&&,=,&,&&&&&,&&o",
" &&&,&&&&,&,&&,&&,&,&,&&,&&&,=,&,=&&&,=,=,=,=,=,&&,=&&,o",
".ooo1o1oo1o1oo1o1o1o1o1o1oo1o1o11ooo1oo1o1ooo1o1o1oooooo"
};
