/* XPM */
static char *magick[] = {
/* columns rows colors chars-per-pixel */
"48 48 62 1",
"  c Gray0",
". c #000800",
"X c #100c08",
"o c #180000",
"O c #101810",
"+ c #183408",
"@ c #280000",
"# c #280800",
"$ c #281c18",
"% c #300000",
"& c #282420",
"* c #303028",
"= c #184d00",
"- c #285110",
"; c #384d38",
": c #490000",
"> c #490808",
", c #590000",
"< c #592408",
"1 c #512018",
"2 c #513028",
"3 c #690000",
"4 c #690400",
"5 c #712008",
"6 c #713400",
"7 c #692020",
"8 c #594941",
"9 c #595951",
"0 c #794949",
"q c #617171",
"w c #697179",
"e c #717569",
"r c #717986",
"t c #598649",
"y c #69a259",
"u c #860000",
"i c #8e1800",
"p c #9e1c10",
"a c #862420",
"s c #be7518",
"d c #9e7171",
"f c #a64d49",
"g c #be5141",
"h c #d71810",
"j c #cf4928",
"k c #d75151",
"l c #d76149",
"z c #d77549",
"x c #e77171",
"c c #ef7579",
"v c #8e9251",
"b c #f7a649",
"n c #868a86",
"m c #969a86",
"M c #bebebe",
"N c #d78686",
"B c #cfaa9e",
"V c #cfc3cf",
"C c #d7d7d7",
"Z c #dff3cf",
"A c #efefe7",
"S c None",
/* pixels */
"SSSSSSSSSSSSSSSSSSSSSSSSSSSSSSSSSSSSSSSSSSSSSSSS",
"SSSSSSSSSSSSSSSSSSSSSSSSSSSSSSSSSSSSSSSSSSSSSSSS",
"SSSSSSSSSSSSSS                   SSSSSSSSSSSSSSS",
"SSSSSSSSSSSSSS,llzlzjlgjggkkkjgg3SSSSSSSSSSSSSSS",
"SSSSSSSSSSSSSS,gdddki3,,:,ikjggf4SSSSSSSSSSSSSSS",
"SSSSSSSSSSSSSS3NNNf,4pppu4o ldck3SSSSSSSSSSSSSSS",
"SSSS  X#@@%@::3Nff:5hhhpui@@%lkh43,,,,::## SSSSS",
"SSSS $22<1<1>73Nffuhhhphii::o@khu44477<<77OSSSSS",
"SSSSS$88227257,x5,phhhhpi44,@oig44aa7a227aSSSSSS",
"SSSSSS &v007aa3c4,phhhphui::  ij44pppp6f1SSSSSSS",
"SSSSSSS&7000ff3z5,pphhhpi35:X aj34ffff05SSSSSSSS",
"SSSSSSSS#8gdgg3c7:uiuuiu35@%  ij44jggg7SSSSSSSSS",
"SSSSSSSSS@7ddz3d7%4uu4u443@o  aku4gjgaSSSSSSSSSS",
"SSSSSSSSSS#7dg3xiu X:7:4%% @o%ak34kgaSSSSSSSSSSS",
"SSSSSSSSSSSiid,zlx X::,:%o@oodkk43gpSSSSSSSSSSSS",
"SSSSSSSSSSSS:,3Nccl:@% o  %%klxl,33SSSSSSSSSSSSS",
"SSSSSSSSSSSSS,,Nccll1@    5gjkxx33SSSSSSSSSSSSSS",
"SSSSSSSSSSSSS%3Ncxxxzlljklkkccxc33SSSSSSSSSSSSSS",
"SSSSSSSSSSSSS%,NNNkkjpappajkjxcx33SSSSSSSSSSSSSS",
"SSSSSSSSSSSSS:%BBNziijjjjp33kNcl,,SSSSSSSSSSSSSS",
"SSSS  X$##oo%:%BNNagzzzjjjai3zdl,:%%%%:#OX SSSSS",
"SSSS.&&*&2&&>1%B746bzblbllaa3a7x%%>><121**OSSSSS",
"SSSSS.88282177:B>asbbbbsligaa,ax%%17722288$SSSSS",
"SSSSSS.&e99888oB<5sbsbsbsl57::<B@%00009e& SSSSSS",
"SSSSSSS.;w9eedoB<5ssbsbssig71:>N@@dv0de2OSSSSSSS",
"SSSSSSSS.8nnNN B&2ssssss6s55%%1N@@Ndmm;OSSSSSSSS",
"SSSSSSSSS.8mNB M&o6zz6s6s55%%%>B%%NBm9.SSSSSSSSS",
"SSSSSSSSSS.;nn VvN 16v<v<5X<@1dM  mm;.SSSSSSSSSS",
"SSSSSSSSSSS..n CNN 166<<<o<X@ddV .n;$SSSSSSSSSSS",
"SSSSSSSSSSSS.. CAA2  1 *  X ;AAM  . SSSSSSSSSSSS",
"SSSSSSSSSSSSS. CZACCv     vZZAAC   SSSSSSSSSSSSS",
"SSSSSSSSSSSSSS AAAAAB;;t;;BAAAAC .SSSSSSSSSSSSSS",
"SSSSSSSSSSSSSS CAAMVn+++=+mMMACV  SSSSSSSSSSSSSS",
"SSSSSSSSSSSSSS CMV++=tvtt=XX$BMV  SSSSSSSSSSSSSS",
"SSSSSSSSSSSSSS CVV=vZZZttt=- BMM  SSSSSSSSSSSSSS",
"SSSS  OXX.     C+-=ZZZyZvy=-.+*B     ...$..SSSSS",
"SSSS &&*&*$&$$ M+;vBBZZvy=y-- OM  $O*&****.SSSSS",
"SSSSS&8;8;*;+* M+-mZyByZyy=+  XB  *;;;;;8.SSSSSS",
"SSSSSS *e98999 M+-vvZyZtv=t=+ OM  99999e*SSSSSSS",
"SSSSSSSS8eeeen.V+-yvvvvv-v-= .$V .neeer;SSSSSSSS",
"SSSSSSSSS;nnmm C+.=yv=y-v==. .OV  mmmn;SSSSSSSSS",
"SSSSSSSSSS9mmm VBn.-=y=y== + +eV  mBm9SSSSSSSSSS",
"SSSSSSSSSSS8nm VZZ.-=-===.+ .AAZ  mn8SSSSSSSSSSS",
"SSSSSSSSSSSS;n CZCm .+ *    qAAC  m8SSSSSSSSSSSS",
"SSSSSSSSSSSSSX mCVCCn.    nCCAZC   SSSSSSSSSSSSS",
"SSSSSSSSSSSSSS             .      SSSSSSSSSSSSSS",
"SSSSSSSSSSSSSSSSSSSSSSSSSSSSSSSSSSSSSSSSSSSSSSSS",
"SSSSSSSSSSSSSSSSSSSSSSSSSSSSSSSSSSSSSSSSSSSSSSSS"
};
