/* XPM */
static char *magick[] = {
/* columns rows colors chars-per-pixel */
"56 46 34 1",
"  c Gray100",
". c #bebabe",
"X c #000010",
"o c #beb6be",
"O c #aeaaae",
"+ c #aea6ae",
"@ c #c7bac7",
"# c #28ff20",
"$ c #b6aeb6",
"% c #cfc7cf",
"& c #202020",
"* c #aeaeae",
"= c #bec3be",
"- c #080408",
"; c #a6798e",
": c #bec3cf",
"> c #000018",
", c Gray0",
"< c #000808",
"1 c #aea671",
"2 c #182020",
"3 c #aeaeb6",
"4 c #9696ae",
"5 c #188651",
"6 c #003008",
"7 c #d7d3d7",
"8 c Gray59",
"9 c #285d49",
"0 c #51a249",
"q c #79869e",
"w c #9e9a9e",
"e c #8e8a8e",
"r c #515549",
"t c #494951",
/* pixels */
"                                                       .",
" ......................................................X",
" ......................................................X",
" ...o..o..o..o..o..o..o..o..o..o..o..o..o..o..o..o..o..X",
" O...O...+...O...O...+...O...O...+...O...O...+...O...O.X",
" ..o..@o...@o..@o.@o...@o..@o.@o...@o..@o.@o..@o.@o.@o.X",
" O.O.+.O.O.O.O.O.O.O.O.O.O.O.O.O.O.O.O.O.O.O.O.O.O.O.O.X",
" .....O...o...+.......+..@##..O...o...+.......O.......OX",
" O.+.+.O.+.O.+.OoO.+.+.O.####$.+.+.O.+.OoO.+.+.OoO.+.O.X",
" ...O...O...O...O...O.@@######o.O...O...O...O...O...+..X",
" O.+.+.+.+.+.O.+.+.+.O.########@o+%%.O.+.+.+.OoO.O.+.O.X",
" .O...O.O.O.o.O.O.O..@###&&&&###*%%=%.O.O.O...O.+.O...OX",
" O.+.O.+.O.O.O.+.O.+.###&----&#;%:=%%=.O.O.+.O.O.O.+.+.X",
" .O.+.O.O.+.O.O.O.O@###X--O@-->:%%%%=%%.O.O.+.O.+.O.O.OX",
" O.O.O.+.O.O.+.O.+@####&-+,,.-%%=<<<<%=%.O.O.O.O.O.+.O.X",
" OO.OOO.OOO.OO+.+o#####--O,,*%=%<<<<<<=%%OO.OO+.OOO.OOOX",
" O.O.+.O.O.+.O.O.####1#X-,.O%=%<<,.*,<<%=%.O.O.O.+.O.O.X",
" OOOOOOOOOOOOO+o########,,<%=%%<,O,,O<<=%=%OOOOOOOOOOOOX",
" O.O.O.O.+.O.O.###12>####-%%%%=<,*,,.,,%%%=%.O.O.O.O.O.X",
" OOOOOOOOOOO+o####<3$&##4%%=%=%<,,OO,<<%=%%5*OOOOOOO+OOX",
" OOO.+OO.OOO.####&$,-+>4@%%%=%%=<,,,,,%=%=5<=+OO.+OO.OOX",
" OOOOOOOOO++$4###-+,,$-%%%=<6%=%%,,,<=%=758<O*OOOOOOOOOX",
" OOOOOOOOOO++9&#02,OO,%%%=<**<%=%%%<%%%=58<**OOOOOOOOOOX",
" OOOOOOOOOO+$-9&##,,<%=%=<*,,*<%%=<=%==0q<*OOOOOOOOOOOOX",
" wOOOwOOOwOOOw-9-##-,q%=%<*<,w<=%<%%=75q<w*OOwOOOwOOOwOX",
" OOOOOOOOOOOOO+-9>##q95%%<,OO<<%<=%=%5q<**OOOOOOOOOOOOOX",
" *OwOwOwOOOwOwOw-9-#4,e5%=<,,,<<%%=758<w**OwOwOwOOOwOwOX",
" OOOOOOOOOOOOOO---rX#q<85%%,,<=%==75q<***OOOOOOOOOOOOOOX",
" wOwOwOwOwOwOwO,##X9-#4,q5%=%%%%=758<w*w*wOwOwOwOwOwOwOX",
" OOOOOOOOOOOOOO-X##-9-,9<85%%%==75q<***OOOOOOOOOOOOOOOOX",
" wOwOwOwOwOwOwO-9-##-99,,<q5%=7=0q<w*w*wOwOwOwOwOwOwOwOX",
" OwOOOwOOOwOOOw+-9&##,,-##<q0=%5q<w***wOOOwOOOwOOOwOOOwX",
" wOwOwOwOwOwOwOw+-9-#######<q50q<w*w*wOwOwOwOwOwOwOwOwOX",
" OwOwOwOwOwOwOw+w+-9&######<<qq<w*w*wOwOwOwOwOwOwOwOwOwX",
" wOwOwOwOwOwOwOwOwO-9>####&9,<<w*w*wOwOwOwOwOwOwOwOwOwOX",
" wwOwwwOwwwOwwwOwww+-t61#&9,www*www*wwwOwwwOwwwOwwwOwwwX",
" wOwOwOwOwOwOwOwOwOwO-9<<9-wOw*w*w*wOwOwOwOwOwOwOwOwOwOX",
" wwwwwwwwwwwwwwwwwwwww<99-wwwwwwwwwwwwwwwwwwwwwwwwwwwwwX",
" wOwOwOwOwOwOwOwOwOw*w*<,wOwOwOwOwOwOwOwOwOwOwOwOwOwOwOX",
" wwwwwwwwwwwwwwwwwwwwwwwwwwwwwwwwwwwwwwwwwwwwwwwwwwwwwwX",
" wwwOwwwOwwwOwwwOwwwOwwwOwwwOwwwOwwwOwwwOwwwOwwwOwwwOwwX",
" wwwwwwwwwwwwwwwwwwwwwwwwwwwwwwwwwwwwwwwwwwwwwwwwwwwwwwX",
" w*wwwwwwwOwwwwwwwOwwwwwwwOwwwwwwwOwwwwwwwOwwwwwwwOwwwwX",
" wwwwwwwwwwwwwwwwwwwwwwwwwwwwwwwwwwwwwwwwwwwwwwwwwwwwwwX",
" wwwwwwwwwwwwwwwwwwwwwwwwwwwwwwwwwwwwwwwwwwwwwwwwwwwwwwX",
".XXXXXXXXXXXXXXXXXXXXXXXXXXXXXXXXXXXXXXXXXXXXXXXXXXXXXXX"
};
