/* XPM */
static char * image_name[] = {
"56 46 23 1",
" 	c #FFFFFFFFFFFF",
".	c #BEFBB6DABEFB",
"X	c #BEFBBAEABEFB",
"o	c #000000001040",
"O	c #C71BBAEAC71B",
"+	c #965896589658",
"@	c #AEBAA699AEBA",
"#	c #B6DAAEBAB6DA",
"$	c #208124929658",
"%	c #208128A25144",
"&	c #0000FFFFFFFF",
"*	c #FFFFFFFF0000",
"=	c #AEBAAAAAAEBA",
"-	c #FFFFFBEEFFFF",
";	c #51445555FFFF",
":	c #A6999E79A699",
">	c #A699A699A699",
",	c #8E388A288E38",
"<	c #9E799A699E79",
"1	c #96589658AEBA",
"2	c #AEBAAEBAAEBA",
"3	c #A699A289A699",
"4	c #082004100820",
"                                                       .",
" ..X.X.X..X.X.X..X.X.X..X.X.X..X.X.X..X.X.X..X.X.X..X.Xo",
" XO..O.O.O..O.O.O..O.O.O..O.O.O..O.O.O..O.O.O..O.O.O..Oo",
" ..O......O......O......O......O......O......O......O..o",
" +...@O..+..O@.O.+.O.@...+O..@...+O..@..O+...@.O.+...@.o",
" O..O..O..O...........O.O...O.O.O...O.O....O.O...O.O.O.o",
" @.@.@.@.@.@O@.@O@.@O@.@.@.@.@.@.@.@.@.@O@.@.@.@.@.@.@.o",
" .X.O.@O..O...#...O...@.$$$$$$$$$$$$$$$$$$.O..@O.O..X.@o",
" @.@.@.@.@.@.@.@.@.@O@.@$%&$%$$%$$%$$%$$% .@.@.@.@.@O@.o",
" .O.@.O.@X.O@.O.@OX.@.X.$$$$$$$$*$$$*$$$  ..@OX.@O..@O.o",
" @.@.@.@.@.@.@.@.@.@.@O@$$$$$$$$$$$$$$$   X@.@.@.@.@.@.o",
" .@O.O@.@O@.O.@O@.@.O.@.$$%$**$%$$%$$%    @.O.@.@.@O..@o",
" =.@.@.#.@.@.@.@.@O@.@.@$$$**$$*$$$$$-    .@.@O@.#.@.@Oo",
" .@.@.@.@.@.@X@.@.@.@.@O%$$**$$$$$$$      @.@.@.@.@.@.@o",
" +X@O@.@O@.@O@.@O@.@O@.@$$$**$%$$%$-      X@O@.@O@.@O@.o",
" @@.@@@.@@@.@@@.@@@.@@@O$%$$**$$$$&       @.@@@.@@@.@@@o",
" @.@.@.@.@O@.@O@.@.@.@.@$$$$$$$$%&&&      .@.@.@.@.@.@.o",
" @@@@@@@@@@@@@@@@@@@@@@@$$*%$$%$&$&&$     @@@@@@@@#@@@@o",
" =.@O@.#.@.@.@.@.@X@O@.@$$$$$$$&&&$&&$    X@.#.@O@.@.@Xo",
" @@@@@@@@@@@@@@@@@@@@@@@$%$$$$&&&;%$&&$   @@@@@@@@@@@@@o",
" @@@.@@@.@@@O@@@O@@@.@@@$$$%$&&&&$$$$&&   @@.@@@.@@@.@@o",
" @@@@@@@@@@@@@@@@@@@@@@:$$$$&&&;$$$$$%&$  @@@@@@@@@@@@@o",
" =@@@@@@@@@@@@@@$$@@@@@@$$$&&&;$%$$%$$$&$$@@@@@@@@@@@@@o",
" @@@@@@@@@@@@@@$%$@@@@@@$%&&&;$$$$$$$;&$%$@@@@@@@@@@@@@o",
" +@@@+@@@+@@@+$$$+@@@+@$$&&&;$%$$$$$;&$$$$@@@+@@@+@@@+@o",
" @@@@@@@@@@@@>$$$@@@@@>$&&&;$$$$$$%;&$%$$$@@@@@@@@@@@@@o",
" +@+@+@+@@@+@+@$%$@+@+@$&&;$%$$$%$;&$$$$%$@+@+@+@@@+@+@o",
" =@@@@@@@@@@@@@@$$$@@@$&$;$$$$$$$;&$$$$$$$@@@@@@@@@@@@@o",
" +@+@+@+@+@+@+@+@$$$>$&&%$$$$%$$;&$%$$%$$&@+@+@+@+@+@+@o",
" @@@@@@@@@@@@@@@@@$%$&&;$$$%$$$;&$$$$$$$$$@@@@@@@@@@@@@o",
" +@+=+@+@+@+@+@+@+@$&&;$$$$$$$;&$%$$$$$$%$@+@+@+@+@+=+@o",
" @+@@@+@@@+@@@+@@@$&&;$%$$%$$;&$$@+:::,@@@+@@@+@@@+@@@+o",
" +=+@+@+@+@+@+$$@+$&;$$$$$;&$%$$:,@+@+@+@+@+@+@+@+@+@+@o",
" @+@+@+@+@+@+@$%$>$;$%$$$;&$$@,:+@+@+@+@+@+@+@+@+@+@+@+o",
" +@+@+@+@+@+@+@$$$$$$$$$;&$$:+@<@+@+@+@+@+@+@+@+@+@+@+@o",
" ++@+++@+++@+++@$&$$%$$;&%$:+++@+++@+++@+++@+++@+++@+++o",
" +@+@+@+@+@+@+@$&%$$$;;&$$:+@+@+@+@+@+@+@+@+@+@+@+@+@+@o",
" +++++++++++++$&$$$$$$%$$++++++++++++++++++++++++++++++o",
" +=+@+@+@+@+@$&$%$$$$$:,@,@+@+@+@+@+@+@+@+@+@+@+=+@+=+@o",
" +++++++++++++++1+,+,,<++++++++++++++++++++++++++++++++o",
" +++=+++2+++3+++@+++@+++@+++@+++@+++@+++@+++@+++@+++@++o",
" ++++++++++++++++++++++++++++++++++++++++++++++++++++++o",
" +=+++++++@+++++++@+++++++@+++++++@+++++++@+++++++2++++o",
" ++++++++++++++++++++++++++++++++++++++++++++++++++++++o",
" ++++++++++++++++++++++++++++++++++++++++++++++++++++++o",
".oooooo4ooo4oo4oo4oooooooooooooooooooooooooooooo4ooooooo"};
