/* XPM */
static char * image_name[] = {
"56 46 21 1",
" 	c #FFFFFFFFFFFF",
".	c #BEFBB6DABEFB",
"X	c #BEFBBAEABEFB",
"o	c #000000001040",
"O	c #C71BBAEAC71B",
"+	c #AEBAA699AEBA",
"@	c #0000FFFFFFFF",
"#	c #51445555FFFF",
"$	c #208124929658",
"%	c #000000000000",
"&	c #082004100820",
"*	c #AEBAAAAAAEBA",
"=	c #FFFF14514103",
"-	c #9E799A699E79",
";	c #FFFFFBEEFFFF",
":	c #A6999E79A699",
">	c #965896589658",
",	c #A69979E78E38",
"<	c #FFFFF3CEFFFF",
"1	c #96589658AEBA",
"2	c #000000001861",
"                                                       .",
" ..X.X.X..X.X.X..X.X.X..X.X.X..X.X.X..X.X.X..X.X.X..X.Xo",
" XO..O.O.O..O.O.O..O.O.O..O.O.O..O.O.O..O.O.O..O.O.O..Oo",
" ..O......O......O......O......O......O......O......O..o",
" +...+O..+..O+.O.+.O.+...+O..+...+O..+..O+.O.+.O.+...+.o",
" .O.O...O.O...........O.O...O.O.O...O.O..........O.O.O.o",
" +.+.+.+.+.+O+.+O+O+.+.+.+.+.+.+.+.+.+.+O+.+O+.+.+.+.+.o",
" X..O.+O..O...+..@.#O$+..O.O..+O..O.O.+$.#.@..+O..O.X.+o",
" +.+.+.+.+.+O+X+@+#+$+.+X+.+.+.+.+.+.+$+#+@+.+.+.+.+.+Oo",
" .OX+.O.+.X.+..@+#X$+.O.+%%%&&.X+.O.+$X#+@X#+O.O+..O+..o",
" +.+.+.+O+.+.+@+#+$+.+.+.&   %.+.+.+$+#+@+#+.+.+.+O+.+.o",
" .+..O+.+.+.O@+#+$+..X+.+%   &+.+O+$.#+@+#+$O.+X+.+..O+o",
" *O+.+.+X+O+@+#+$+.+O+.+O%%%%%.+.+$+#+@+#+$+.+.+O+.+.+.o",
" .+.+.+.+.+.+#+$+O+.+.+.+%   %+O+$+#+@+#+$+.+O+.+.+O+.+o",
" +.+O+O+.+.+#+$+.+%&&%.+.%   %.+$+#+@+#+$+X+.+.+.+.+.+Oo",
" ++.+++.+++X+$+.+%%%%%+O+%   %+$+#+@+#+$+++.+++O+++X+++o",
" *.+.+.+O+.+$+X+.&%+.+.+.%%%%%$+$+@+#+$+X+.+O+.+.+.+.+.o",
" ++++++++++++++++%%++++++%   %+$+@+#+$+++++++++++++++++o",
" +.+O+.+.+O+.+.+.&%+.+X+.%   %$+@+#+$+X+.+O+.+.+O+.+O+.o",
" ++++++++++++++++%%++++++%   %+@+#+$+++++++++++++++++++o",
" *++.+++.+++.+++.&%%%%++.%%%%%@+#+$+X+++.+++.+++.+++.++o",
" +++++++++++++++++%%%%+++%===%+#+$+++++++++++++++++++++o",
" +++++++++++++++++++++++$%===%#*$++++++++++++++++++++++o",
" ++++++++++++++++++++++$+%===%+$+++%%&%&+++++++++++++++o",
" -+++-+++-+++-+++-+++-$+#%%%%%$++-+%%%%%+-+++-+++-+++-+o",
" ++++++++++++++++++++$+#+%===%+++++%%++++++++++++++++++o",
" ++-+-+-+++-+-+-+++-$-#-@%===%+-+++%%%%-+++-+-+-+++-+-+o",
" ++++++++++++++++++$+#+@+%===%+++++%%%%++++++++++++++++o",
" -+-+-+-+-+-+-+-+-$-#-@-#%%%%%+-+-+%%-+-+-+-+-+-+-+-+-+o",
" ++++++++++++++++$+#+@+#+%===%+++++%%++++++$+++++++++++o",
" -+-+-+-+-+-+-+-$-#-@-#-$%===%+-+-+%%-+-+-$-+-+-+-+-+-+o",
" +-+++-+++-+++-$+#-@+#-$+%===%-+++-+++-++$-#++-+++-+++-o",
" -+-+-+-+-+-+-$-#-@-#-$-+%%%%%+-+-+-+-+-$-#-+-+-+-+-+-+o",
";+-+-+-:-+-:-$-#-@-#-$-+%=====%+-:-+-:-$-#-@-:-:-:-+-+-o",
" -:-:-+-+-+-$-#-@-#-$-:-%=====%-+-+-+-$-#-@-+-+:+-+-:-+o",
";--+---+---+-#-@-#>$---+%=====&:---:-$-#-@-:---:---+---o",
" -+-+-+-:::-#-@,#-$-:-+-+%%%%%+-+-+-$-#-@-::::::+-+-+-+o",
"<-----:,--:,-@-#-$,----------------$-#-@,---------1,---o",
" -+-:-::+-::@-#-$-+1:::-:-+-+-:-+-$-#-@-+1+-:::::-+-+-+o",
";-1,---------->----:-------------1,--,----:,--1,-------o",
" --1+-,1+-,1:--,+--,+---+-->::--::-1::->+---+---+-,::--o",
"<-----1---1----1---1--:,-1,:--,----------,--:,----1----o",
" -::------::-,:---:----1--+---1--,+---,1-1+--1--,::----o",
"<---1,-1,---1--1,----1,----1,----1----1---------1------o",
" --------:,-----1--,1-------1--,1--,1----,1-,1-----,1--o",
".oooooo2oo22oooooo22ooo2oooooo22oo22oooo22oo2ooooo22oooo"};
