/* XPM */
static char *magick[] = {
/* columns rows colors chars-per-pixel */
"56 46 22 1",
"  c Gray100",
". c #bebabe",
"X c #000010",
"o c #beb6be",
"O c #aeaaae",
"+ c #aea6ae",
"@ c #c7bac7",
"# c #ff1441",
"$ c #79869e",
"% c #aeaeb6",
"& c #a6a2a6",
"* c #9e9a9e",
"= c Gray59",
"- c #9696ae",
"; c #aeaeae",
": c #ff0c49",
"> c #fffbff",
", c #717986",
"< c #fff3ff",
"1 c #a69ea6",
"2 c #a6798e",
"3 c #000018",
/* pixels */
"                                                       .",
" ......................................................X",
" ......................................................X",
" ...o..o..o..o..o..o..o..o..o..o..o..o..o..o..o..o..o..X",
" O...O...+...O...O...+...O...O...+...O...O...+...O...O.X",
" ..o..@o...@o..@o.@o...@o..@o.@o...@o..@o.@o..@o.@o.@o.X",
" O.O.+.O.O.O.O.O.O.O.O.O.O.O.O.O.O.O.O.O.O.O.O.O.O.O.O.X",
" .....O...o...+.......+...o...O...o...+.......O.......OX",
" O.+.+.O.+.O.+.OoO.+.+.O.+.O.+.+.O.O.+.OoO.+.+.OoO.+.O.X",
" ...O...O...O...O...O...O...+...O.o.O...O...O...O...+..X",
" O.+.+.+.+.+.O.+.+.+.OoO.+.O.O.+#O.O.+.O.+.+.OoO.O.+.O.X",
" .O...O.O.O.o.O.O.O...O.O.Oo..O.##+...+.O.O...O.+.O...OX",
" O.+.O.+.O.O.O.+.O.+.O.O.O.O.+.###.O.+.O.+.O.+.O.O.+.+.X",
" .O.+.O.O.+.O.O.O.O.O.+.+.O.O.O####.O.O.O.+.O.O.+.O.O.OX",
" O.O.O.+.O.O.+.O.+.O.+.O.O.+.O######oO.O.O.O.+.O.O.+.O.X",
" OO.OOO.OOO.OO+.OO+.OOO.OOO.O+########+.OO+.OOO.OOO.OOOX",
" O.O.+.O.O.+.O.O.O.O.O.+.O.O.##########O.O.O.O.+.O.O.O.X",
" OOOOOOOOOOOOOOOOOOOOOOOOOO+#########OOOOOOOOOOOOO+OOOOX",
" O.O.O.O.+.O.O.O.O.+.O.O.O.O########.$$$oO.O.+.O.O.O.O.X",
" OOOOOOOOOOOOOO+OOOOOOOOOOO#######O+$$+%OOOOOOOOOOOOOOOX",
" OOO.+OO.OOO.OOO.OOO.OOO.+O######+$$$%+O.OOO.OOO.OOO.OOX",
" OOOOOOOOOOOOOOOOOOOOOOOOOO#####+$$%%OOOOOOOOOOOOOOOOOOX",
" OOOOOOOOOOOOOOOOOOOOOOOOOO####O$$&%&OOOOOOOOOOOOOOOOOOX",
" OOOOOOOOOOOOOOOOOOOOOOOOO#####$$O%OOOOOOOOOOOOOOOOOOOOX",
" *OOO*+OO*+OO*+OO*+O#*+OO*####+$%=+OO*OOO*+OO*+OO*+OO*+X",
" OOOOOOOOOOOOOOOOOOO##OOO+###&$$+%OOO+OOOOOOOOOOOOOOOOOX",
" OO*+*O*+OO*+*O*+OO*+##*+####$$-++O*O*O*+OO*+*+*+OO*+*OX",
" OOOOO+OOOOOOO+OOOOOO###O###%$&+;OOOOO+OOOOOOOOOOOOOOOOX",
" *O*+*O*+*+*+*O*+*+*$*##O###$$%*O*O*+*O*+*+*+*+*O*+*+*OX",
" O+OOO+OOOOOOO+OOOO+$$#####+$%OOOOO+OO+OOOOOOOOO+OOOOOOX",
" *O*+*O*+*+*O*O*+*O*$$:####$$=+*+*+*O*O*+*+*+*O*O*+*+*+X",
" +*OO+*OO+*+O+*OO+*+%$=####$%+*OO+*OO+*OO+*OO+*+O+*OO+*X",
" *+*+*+*+*O*+*+*+*+*+$$###+$&-O*+*+*+*+*+*+*+*+*+*+*+*OX",
" +*+*+*+*+*+*+*+*+*+=%$O##$$*O*+*+*+*+*+*+*+*+*+*+*+*+*X",
" *O*+*+*+*+*+*+*+*+*+-$$#=$-+*+*+*+*+*+*+*+*+*+*+*+*+*+X",
" **+***+***+***+***+**=$-$$+***+***+***+***+***+***+***X",
" *+*+*+*+*+*+*+*+*+*+*+$$$%=+*+*+*+*+*+*+*+*+*+*+*+*+*+X",
">********************=--,-=-***************************X",
" *+*+*+*+*+*+*+*+*+*+*+*%*+*+*+*+*+*+*+*+*+*+*+*+*+*+*+X",
"<****=*=*=*=*=*=**=************=*=*=*=*=*=*=*=*=**=****X",
" **=+***+1**+1**+***1**=+*=*1***+***+***+***+***+***1**X",
"<=***12**-2**-2**-2**************-2**-2**-2*****-2*****X",
" *+***-***+*******+-**2-**+*2-*2-*+-**1***+-*2-**1+***=3",
"<**-2*********-2******1*-2**-**1******************-2***X",
" ***1*2-*2-*2-*1**2-***************2-*2-*21***2****-***X",
".XXXX33XX3XX3XXXX33XXXXXXX33XXXXXX33XX3X33X3X333XXXXXXXX"
};
