/* XPM */
static char *magick[] = {
/* columns rows colors chars-per-pixel */
"56 46 23 1",
"  c Gray100",
". c #beb6be",
"X c #bebabe",
"o c #000010",
"O c #c7bac7",
"+ c #9e9a9e",
"@ c #aea6ae",
"# c #aeaaae",
"$ c #be2020",
"% c Gray0",
"& c #79869e",
"* c #aeaeb6",
"= c #a6a2a6",
"- c #6986be",
"; c #a69ea6",
": c #9696ae",
"> c #eff3f7",
", c #717986",
"< c #fffbff",
"1 c #000018",
"2 c #fff3ff",
"3 c #a6798e",
"4 c Gray59",
/* pixels */
"                                                       .",
" ..X.X.X..X.X.X..X.X.X..X.X.X..X.X.X..X.X.X..X.X.X..X.Xo",
" XO..O.O.O..O.O.O..O.O.O..O.O.O..O.O.O..O.O.O..O.O.O..Oo",
" ..O......O......O......O......O......O......O......O..o",
" +...+O..+..O+.O.+.O.+...+O..+...+O..+..O+.O.+.O.+...@.o",
" .O.O...O.O...........O.O...O.O.O...O.O..........O.O.O.o",
" @.@.@.@.@.@O@.@O@O@.@.@.@.@.@.@.@.@.@.@O@.@O@.@.@.@.@.o",
" ....O@.O....O@......O@..O.O..@O..O.O.@...O...@.O..O..@o",
" #O@.@.@.@O@.@.@O@.@O@.@.@.@.@.@.@.@.@.@O@.@O@.@.@.@.@Oo",
" ...@.O.@...@.O.@.O.@..O@.O.@.O.@.O.@.O.@...@..O@..O@..o",
" @.@O@.@O@.@.@.@.@.@.@.@.@.@O@.@.@.@.@.@.@O@.@O@.@.@.@Xo",
" O@...@.@.@.O.@.@.@..O@.@.@...@.@O@.O.@O@.@.O.@.@O@.O.@o",
" +.@O@.@.@O@.@O@$$$$$$$$$$$$$$$$$$$$$$$$$@.@.@.@.@.@.@.o",
" .@.@.@O@.@.@.@.$$$$$$$$$$$$$$$$$$$$$$$$$O@.@.@.@X@.@O@o",
" @.@.@.@.@O@.@O@.@O%%@&&      X@ &&@%%.@.@.@O@O@.@O@.@.o",
" @@O@@@X@@@.@@@.@@@%%@&&      @. &&.%%@.@@@.@@@.@@@.@@@o",
" #.@.@O@.@.@O@X@.@.%%@&&      .@ &&*%%.@X@.@.@.@O@.@.@.o",
" @@@@@@@@@@@@@@@@@@%%*&&      #@ &&@%%@@@@@@@@@@@@@@@@@o",
" @.@.@.@.@X@X@.@.@.%%@&&      .@ &&*%%.@O@.@O@.@.@.@O@.o",
" @@@@@@@@@@@@@@@@@@%%=-&      #  -&@%%@@@@@@@@@@@@@@@@@o",
" #@@O@@@O@@@.@@@O@@%%@=&& $$$$$ &&=@%%@@.@@@.@@@X@@@.@@o",
" @@@@@@@@@@@@@@@@@@%%@*&& $$$$$ &&@@%%@@@@@@@@@@@@@@@@@o",
" +@@@@@@@@@@@@@@@@@%%@@=&& $$$ &&=@@%%@@@@@@@@@@@@@@@@@o",
" @@@@@@@@@@@@@@@@@@%%@@**&& $ &&**@@%%@@@@@@@@@@@@@@@@@o",
" +@@@+@@@+@@@+@@@+@%%+@;@:&&$&&:@+@@%%@@@+@@@+@@@+@@@+@o",
" @@@@@@@@@@@@@@@@@@%%@@*=&& $>&&@@@@%%@@@@@@@@@@@@@@@@@o",
" @@+@+@+@@@+@+@+@@@%%+@+&&>    &&*@+%%@+@@@+@+@+@@@+@+@o",
" @@@@@@@@@@@@@@@@@@%%@@&&   $ = -,@@%%@@@@@@@@@@@@@@@@@o",
" +@+@+@+@+@+@+@+@+@%%+@,-   $ # &&*+%%@+@+@+@+@+@+@+@+@o",
" @@@@@@@@@@@@@@@@@@%%@&&   $$$ = &&@%%@@@@@@@@@@@@@@@@@o",
" +@+@+@+@+@+@+@+@+@%%+&&  $$$$$  &&:%%@+@+@+@+@+@+@+@+@o",
" @+@@;+@@@+@@@+@@@+%%=-&$$$$$$$$$&&@%%+@@@+@@@+@@@+@@@+o",
" +@+@+@+@+;+@+;+@+@%%+&&$$$$$$$$$&&:%%@+@+@+@+@+@+@+@+@o",
"<@+@+@+;+@;;+@+@+@+%%=&&$$$$$$$$$-&@%%+;+@+;+;+@+;+;+@+o",
" +;+@+@+@+;;@+;+@+;%%+%%%%%%%%%%%%%+%%@+@+@+@+@+@+@+@+@o",
"<++@+++@++;;+++@$$$$$$$$$$$$$$$$$$$$$$$$$++@+++@+++@+++o",
" +@+;+@+;+@+@+@+$$$$$$$$$$$$$$$$$$$$$$$$$+@+@+;;;;;+@+;1",
"2++++;3+++++;3+++++++++++++++++++++++++++++;3+;3+++++++o",
" +@+;;@;;+;+@:@+@+@+@+@+@+@+@+@+@+;+;+@+;+;+@:@;@+;;;+@o",
"2++++++:3;+++++:3++++++++++++++++++++++++++++++4+;3++++o",
" ++3@+++@+3:@+++@;3:;++4;++4@+4+;+++@+3:@+3:@+++;;:+@++o",
"2+:+:++++:+++;3++:+++:3+++++:3+++:3+++;+++;+++:3+++++++o",
" ++++3:+++@++4;+++;+++;:+3@++;++++@;+3:++3@++3;:++;+3;+o",
"2+++++;3+4;3++:3+++++++++:+++4+:3++4:++++:++:+++++++:++o",
" ++++++++++:++++++3;4+3;+++3:+++;++++++3:+++++++3;+++++o",
".oooooo1o1ooooo1o11o111ooo11o1oooo1ooo11ooooooo11ooooooo"
};
