/* XPM */
static char *magick[] = {
/* columns rows colors chars-per-pixel */
"48 48 95 2",
"   c Gray0",
".  c #112222",
"X  c #221122",
"o  c #222211",
"O  c #222222",
"+  c #222233",
"@  c #223322",
"#  c #223333",
"$  c #332222",
"%  c #332233",
"&  c #333322",
"*  c Gray20",
"=  c #333344",
"-  c #334433",
";  c #334444",
":  c #443333",
">  c #443344",
",  c #444433",
"<  c #444444",
"1  c #444455",
"2  c #445544",
"3  c #445555",
"4  c #554444",
"5  c #554455",
"6  c #555544",
"7  c #555555",
"8  c #555566",
"9  c #556655",
"0  c #556666",
"q  c #665555",
"w  c #665566",
"e  c #666655",
"r  c Gray40",
"t  c #666677",
"y  c #667766",
"u  c #667777",
"i  c #776666",
"p  c #776677",
"a  c #777766",
"s  c #777777",
"d  c #777788",
"f  c #778877",
"g  c #778888",
"h  c #887777",
"j  c #887788",
"k  c #888877",
"l  c #888888",
"z  c #888899",
"x  c #889988",
"c  c #889999",
"v  c #998888",
"b  c #998899",
"n  c #999988",
"m  c Gray60",
"M  c #9999aa",
"N  c #99aa99",
"B  c #99aaaa",
"V  c #aa9999",
"C  c #aa99aa",
"Z  c #aaaa99",
"A  c #aaaaaa",
"S  c #aaaabb",
"D  c #aabbaa",
"F  c #aabbbb",
"G  c #bbaaaa",
"H  c #bbaabb",
"J  c #bbbbaa",
"K  c #bbbbbb",
"L  c #bbbbcc",
"P  c #bbccbb",
"I  c #bbcccc",
"U  c #ccbbbb",
"Y  c #ccbbcc",
"T  c #ccccbb",
"R  c Gray80",
"E  c #ccccdd",
"W  c #ccddcc",
"Q  c #ccdddd",
"!  c #ddccdd",
"~  c #ddddcc",
"^  c #dddddd",
"/  c #ddddee",
"(  c #ddeedd",
")  c #ddeeee",
"_  c #eedddd",
"`  c #eeddee",
"'  c #eeeedd",
"]  c #eeeeee",
"[  c #eeffee",
"{  c #eeffff",
"}  c #ffeeee",
"|  c #ffeeff",
" . c #ffffee",
".. c Gray100",
"X. c None",
/* pixels */
"X.X.X.X.X.X.X.X.X.X.X.X.X.X.X.X.X.X.X.X.X.X.X.X.X.X.X.X.X.X.X.X.X.X.X.X.X.X.X.X.X.X.X.X.X.X.X.X.",
"X.X.X.X.X.X.X.X.X.X.X.X.X.X.X.X.X.X.X.X.X.X.X.X.X.X.X.X.X.X.X.X.X.X.X.X.X.X.X.X.X.X.X.X.X.X.X.X.",
"X.X.X.X.X.X.X.X.X.X.X.X.X.X.X.X.X.X.X.X.X.X.X.X.X.X.X.X.X.X.X.X.X.X.X.X.X.X.X.X.X.X.X.X.X.X.X.X.",
"X.X.X.X.X.X.X.X.X.X.X.X.X.X.X.X.X.X.m m m m m m m m m m m X.X.X.X.X.X.X.X.X.X.X.X.X.X.X.X.X.X.X.",
"X.X.X.X.X.X.X.X.X.X.X.X.X.X.X.m m ........................m m m X.X.X.X.X.X.X.X.X.X.X.X.X.X.X.X.",
"X.X.X.X.X.X.X.X.X.X.X.X.X.m m ........` K / { ..{ ..............m m X.X.X.X.X.X.X.X.X.X.X.X.X.X.",
"X.X.X.X.X.X.X.X.X.X.X.X.m ............[ b 7 h W ! ....] ` A ^  ...m m X.X.X.X.X.X.X.X.X.X.X.X.X.",
"X.X.X.X.X.X.X.X.X.X.X.m ..................E f r D / ....P L y l ( ....m X.X.X.X.X.X.X.X.X.X.X.X.",
"X.X.X.X.X.X.X.X.X.X.m ........................' ` ........ .] J G  .....m X.X.X.X.X.X.X.X.X.X.X.",
"X.X.X.X.X.X.X.X.X.m { | ( R R ` { ........................................m X.X.X.X.X.X.X.X.X.X.",
"X.X.X.X.X.X.X.X.X.( Y A p * : a K ( | ......................................m X.X.X.X.X.X.X.X.X.",
"X.X.X.X.X.X.X.X.W S m s @ O O O 9 A Q ] ..............] D ^ { ..........Q / ..m X.X.X.X.X.X.X.X.",
"X.X.X.X.X.X.X.J V x l y O O O o > s C P } ............[ V 7 h W _ ........9 l ^ m X.X.X.X.X.X.X.",
"X.X.X.X.X.X.a b x l m l O O O O - p l M P | ............{ R f 8 K ` ......^ l r R m X.X.X.X.X.X.",
"X.X.X.X.X.X.b k v n C T * O O O < 9 p l b D ] ..............| ^ ! ....] .. .| ' ] ..m X.X.X.X.X.",
"X.X.X.X.X.a s j f j x Y g + @ * 3 r y p y d F ] ......................................m X.X.X.X.",
"X.X.X.X.X.e j k h r w s H A h a p a r 7 4 * < m | ....................................m X.X.X.X.",
"X.X.X.X.< s x l y = @ * r m x d u p r < @ O O % I ......................................m X.X.X.",
"X.X.X.X.w y l l 5 O X O * y h s j f j , O O X O r ] ....................................m X.X.X.",
"X.X.X.< 9 j x b - O O O @ 8 u s g z N 7 . O O O - ! ............................{ ......m X.X.X.",
"X.X.X.< i s v m > O O o $ 7 p y s l Y y O O O o : K ........................} P V l C W m X.X.X.",
"X.X.X.t r j x A 9 O O O @ w f j l l R S O O O O < A { ..................{ Y s 5 2 5 9 z l X.X.X.",
"X.X.r r w s j m b @ X O 4 r j k j a C ] p O X O w A | ................' l < > * > - 4 r j X.X.X.",
"X.X.r r 9 p y l F K f j f j f j 0 > < m ) S 0 s x H [ ..............^ p - = ; > ; 5 ; r g X.X.X.",
"X.X.r y q 6 % & p K U N v l l s : O O O s P A x v K ] ............W w * : * > > > * O y j X.X.X.",
"X.X.r t 9 * O O # s x z l d f t O O O O # p g z x H ] ..........W 7 * * < < < < # O @ C X.X.X.X.",
"X.X.r s j & X O O < h k j s l r O O O O O 2 p s l D } ......| ~ 5 * * < < < < < $ O 7 X.X.X.X.X.",
"X.X.r m l * O O . > u j f l x l . O O O O < y j x K [ ......( t & < < < < < < < O 1 N X.X.X.X.X.",
"X.X.X.m j , O o O * i f j f v l O O O O $ , w f b K | ....] j < < < < < < 7 7 7 q f X.X.X.X.X.X.",
"X.X.X.< 0 l O O # 7 0 s s s s b - O O O * 5 r j c L { ..{ A < < < 7 7 7 7 7 r r r A X.X.X.X.X.X.",
"X.X.X.X.p k h 6 s s j a p 9 q a s - * < w r p l m P | ..R 9 > < 7 7 r r r r r f b X.X.X.X.X.X.X.",
"X.X.X.X.< 5 f b x l l s 9 > - < y m B b f d g z N Y ( E f 7 2 7 r r r r r s s s X.X.X.X.X.X.X.X.",
"X.X.X.X.< r 7 y h k j s : O O O > r s f h k j x V K G s 5 7 r r r r r s s s s s X.X.X.X.X.X.X.X.",
"X.X.X.X.X.< < 8 y d s d * O O O O 5 r t y s s z m m l t 7 7 s s s s s s s s N X.X.X.X.X.X.X.X.X.",
"X.X.X.X.X.< < , 7 y j Z : O O O O - w r r r p x l s p r s s s s s s s s s l l X.X.X.X.X.X.X.X.X.",
"X.X.X.X.X.X.< 8 ; w f R 7 O O O . = 9 r y t y s 9 t u t 7 < 9 r r s s l l l X.X.X.X.X.X.X.X.X.X.",
"X.X.X.X.X.X.X.< 7 < r K v O O O O * 7 7 w r q , 4 r p 2 $ O 5 9 s s s l l X.X.X.X.X.X.X.X.X.X.X.",
"X.X.X.X.X.X.X.X.< r - d W 7 O O # < 3 8 7 5 - > 2 t 3 O O = s s s l l l X.X.X.X.X.X.X.X.X.X.X.X.",
"X.X.X.X.X.X.X.X.X.s j < s K j 7 4 < 4 < > * : , w 9 $ O % 9 s s l l l X.X.X.X.X.X.X.X.X.X.X.X.X.",
"X.X.X.X.X.X.X.X.X.X.s < 3 1 9 < - * * * @ = - < 9 = O O 7 s l c c K X.X.X.X.X.X.X.X.X.X.X.X.X.X.",
"X.X.X.X.X.X.X.X.X.X.X.X.s < 7 & $ O $ @ $ & > 6 w * * 9 s a l n G X.X.X.X.X.X.X.X.X.X.X.X.X.X.X.",
"X.X.X.X.X.X.X.X.X.X.X.X.X.X.s < y = # = @ = < r y p f j g l m X.X.X.X.X.X.X.X.X.X.X.X.X.X.X.X.X.",
"X.X.X.X.X.X.X.X.X.X.X.X.X.X.X.X.s < 8 * * * w s j s j f l N X.X.X.X.X.X.X.X.X.X.X.X.X.X.X.X.X.X.",
"X.X.X.X.X.X.X.X.X.X.X.X.X.X.X.X.X.X.X.X.s s s s s X.X.X.X.X.X.X.X.X.X.X.X.X.X.X.X.X.X.X.X.X.X.X.",
"X.X.X.X.X.X.X.X.X.X.X.X.X.X.X.X.X.X.X.X.X.X.X.X.X.X.X.X.X.X.X.X.X.X.X.X.X.X.X.X.X.X.X.X.X.X.X.X.",
"X.X.X.X.X.X.X.X.X.X.X.X.X.X.X.X.X.X.X.X.X.X.X.X.X.X.X.X.X.X.X.X.X.X.X.X.X.X.X.X.X.X.X.X.X.X.X.X.",
"X.X.X.X.X.X.X.X.X.X.X.X.X.X.X.X.X.X.X.X.X.X.X.X.X.X.X.X.X.X.X.X.X.X.X.X.X.X.X.X.X.X.X.X.X.X.X.X.",
"X.X.X.X.X.X.X.X.X.X.X.X.X.X.X.X.X.X.X.X.X.X.X.X.X.X.X.X.X.X.X.X.X.X.X.X.X.X.X.X.X.X.X.X.X.X.X.X."
};
