/* XPM */
static char *magick[] = {
/* columns rows colors chars-per-pixel */
"56 46 30 1",
"  c #fffbff",
". c #beb6be",
"X c #bebabe",
"o c Gray0",
"O c #c7bac7",
"+ c #080408",
"@ c #aea6ae",
"# c Gray65",
"$ c #f7b2ae",
"% c #9e9a9e",
"& c #a69ea6",
"* c #6986be",
"= c #b6aeb6",
"- c #aeaeae",
"; c #9696ae",
": c #717986",
"> c #000010",
", c #aeaeb6",
"< c #dfba8e",
"1 c #000018",
"2 c #386da6",
"3 c Gray100",
"4 c #7992b6",
"5 c #aeaaae",
"6 c Gray59",
"7 c #51718e",
"8 c #aeb2cf",
"9 c #fff3ff",
"0 c #bec3cf",
"q c #a6798e",
/* pixels */
"                                                       .",
" ..X..X..X..X..X..X..X..X..X..X..X..X..X..X..X..X..X..Xo",
" XO.O.O.O.O.O.O.O.O.O.O.O.O.O.O.O.O.O.O.O.O.O.O.O.O.O..+",
" ....................................................O.o",
" @.O.@O.O@.O.@O.O@.O.@O.O@.O.@O.O@.O.@O.O@.O.@O.O@.O.@.+",
" O..O.......O.......O.......O.......O.......O..........o",
" @.@.@X@O@X@.@X@O@X@.@X@O@X@.@X@O@X@.@X@O@X@.@X@O@X@O@.+",
" ...O.@.....O.@.....O.@.....O.@.....O.@.....O.@...O...@o",
" @O@.@.@O@.@.@O@.@O@.@.@O@.@.@O@.@O@.@.@O@.@.@.@O@.@.@Oo",
" X..@.O.@..O@...@...@.O.@..O@...@...@.O.@.O.@.O.@..O@..o",
" @.@.@.@.@.@.@O@.@O@.@.@.@.@.@O@.@O@.@.@.@.@O@.@.@.@.@Oo",
" .@O.O@.@O@.O.@.@.@XX#.O$$ $ $$$$...O.@O@.@...@.@.@.O.@o",
" @.@.@.@.@.@.@.@O@.X.$$$$ $ $ $$O$O$.#X@.@O@.@O@.@O@.@.o",
" .@.@.@O@X@.@O@.@.O$$$$$ $   $O$$%$X$X##@.@.@.@.@.@.@.@o",
" @O@.@.@.@O@.@.@..$$O$O$$ $ $X&$*%.$*#$X#=X@X@X@O@.@.@Oo",
" @@.@@@.@@@.@@@O$$$O$X$#&%X%.%%**#-;:$%#$#@O@@@.@@@O@@@o",
" @.@O@.@O@.@.@.$$$O$.#:>+>oo+>oo>+:*,&:$.$##X@O@.@.@.@.o",
" @@@@@@@@@@@=#$$OX<**>>%###*oooooo>1+12O&$O#@@@@@@@@@@@o",
" @.@.@.@.@.@#$$X#:1oo:*&%33#*oooo4***+++:O:$#@.@.@.@.@.+",
" @@@@@@@@@5#$$X#*1>+***%%333*oo*o*@6***>11*&&%@@@@@@@@@o",
" @@@.@@@X@#$$<:*;+o*;*>oo$ $*oo*+*@@;**.*o++++%@O@@@O@@o",
" @@@@@@@@#$$X2*&%o*%6*ooo**:>oo*o*%%@** .@*+**7%@@@@@@@o",
" @@@@@@@@$$<:8@O.%*#%%*ooo>1oo#*o*#.%**   .@*>**%@@@@@@o",
" @@@@@@@X$O2;.9 90:.X#*oooooo%.1:%%#6**     .%*+o*@@@@@o",
" %@@@%@O$#:8O9   .*=%%#*ooo*%*o*;O#&%70     .%**#%@@@%@o",
" @@@@@.$ :;.9     *7#.&%*oo+oo*%%#.#%*     $O;:##@@@@@@o",
" @@%@%$ *;&9      O*O%%#%%#%@%%..%##:0    $X%*=#=@@%@%@o",
" @@@@@$.%&%        0:%#.%.#%#%&#O#&:;    $O;:##5@@@@@@@o",
" %@%@%$O...         0:=%%#=%@#%&#&%&9   $X;:8@=%@%@%@%@o",
"9@@@@@%.$$O. $ $    90:%###%.#%&::%    $O;:;#&@&@@@@@@@o",
" %@%@%#%%%%*%.X $ $ $90.:&:&::2*O$9   X@%*,&=&@&@%@%@%@o",
"9@%@@@%<###&;:*%@X X . O9O9$9$ $   $.@%*&##=@=%@@@%@@@%o",
" %@%@%@%@&@<@=%**%@.. . O . O 0 $O@%**%###@%&&&&@%&%@%@o",
"9@%@%@%@%@%@&;<##%**:%@...O....@%**6&###&@%@%&%&%@%@%@%o",
" %@%&%&%&%&&&%@%@#@#;:*****7****%%&####&@%&%@%@%@%&%@%@+",
"9%%@%%&&%&%&%%%@&%&@===###&.=#@###=#&%%&%%%@%%%&%%&&%%%o",
" %@%&&&&&%@%@%@%&&&%@%@&&#=%@#@#@&@%@%@%@%@%@%@&&&&%@%@+",
"9%%%%%%%%%%%%%6&%%6%%%%%&%6%%%%%6%%%%%%%%%%q%&q%%%%%%%%o",
" %&%&&&%&%&%&&&%&%@%@%&%@%@%&%@%&%&%@q@%&&&&@%@%&%&&&%@+",
"9%%&%%&q%%&&q%%%&%%%%%%%%%%%&%%%%%%%%%%%%%%%%%%%%%&q%%%o",
" %%q@%%&@%q%@&%q@%q;@%%%&%q%&%q%&%%q@%%q@%q%&%q&&&%%@%%+",
"9%%;%%q%%%;%%%%;%&%%6&q%%%%%%%%%%%%%&%%&%%&%%%&%%%q%%%%o",
" %@%%%;%%%&%%q%%%6@%%%%%%%@%%%%%q&&&6%q%%%&%%%6%%%@;%q%+",
"9%%%q%%&q%%%&%;%q%%;q%%;q%;q%&q&%%%%%%;%%%%%;q%;q%%%;%%o",
" %%%;%%6;%%q;%%%%;%%&%%%&%%%%%;%%%q&%q&%q;%%%&%%&%%%%%%+",
".oo+++++++++++++++++oo+ooo+++o+o+++o++o++++++o++oo++++oo"
};
