/* XPM */
static char * image_name[] = {
"56 46 24 1",
" 	c #FFFFFFFFFFFF",
".	c #BEFBB6DABEFB",
"X	c #BEFBBAEABEFB",
"o	c #000000001040",
"O	c #C71BBAEAC71B",
"+	c #AEBAA699AEBA",
"@	c #B6DAAEBAB6DA",
"#	c #000000000000",
"$	c #082004100820",
"%	c #79E786179E79",
"&	c #AEBAB2CACF3C",
"*	c #69A68617BEFB",
"=	c #A699A289A699",
"-	c #AEBAAEBAB6DA",
";	c #AEBAAAAAAEBA",
":	c #9E799A699E79",
">	c #96589658AEBA",
",	c #A6999E79A699",
"<	c #965896589658",
"1	c #FFFFFBEEFFFF",
"2	c #FFFFF3CEFFFF",
"3	c #71C679E78617",
"4	c #A69979E78E38",
"5	c #000000001861",
"                                                       .",
" ..X.X.X..X.X.X..X.X.X..X.X.X..X.X.X..X.X.X..X.X.X..X.Xo",
" XO..O.O.O..O.O.O..O.O.O..O.O.O..O.O.O..O.O.O..O.O.O..Oo",
" ..O......O......O......O......O......O......O......O..o",
" +...+O..+..O+.O.+.O.+...+O..+...+O..+..O+.O.+.O.+...+.o",
" .O.O...O.O...........O.O...O.O.O...O.O..........O.O.O.o",
" +.+.+.+.+.+O+.+O+O+.+.+.+.+.+.+.+.+.+.+O+.+O+.+.+.+.+.o",
" .X..O+..O....@....##$#####O..+O..O.O.+...O...+O..O.X.+o",
" +.+.+.@.+.+O+.+.$#%######%##+.+.+.+.+X+.+.+O+.+.+.+.+Oo",
" .O.+O..+O..+.O.#%##%%%%%%##%$.X+.O.+..O+.O.+...@..O+..o",
" +.+.+.+.+.+.+.###%%%%%%%%%%###+.+.+O+.+.+.+X+O+.+.+.+.o",
" X+.O.+.+.+.O.###%%%%&+&+&%%%%##+O+...+.+.+O..+.+O+..O+o",
" +.+.+O+.@.+.$%#%%*=  .+.+.-%%#%#+.+O+.@.+.+.+.+.+.+O+.o",
" .+O+.+.+.+.+##%%.= +.;  .+.-.+##.+.+.+.+.+O+.+O+.+.+.+o",
" ;.+.+X+O+.+$%#%&;X+.+ +X+.+.+.#%#O+.+O+.+.+.+.+.@.+.+.o",
" ++.+++.+++.##%%+++  ++.+++.+++X##+.+++.+++O+++.+++O+++o",
" +.+O+.+.+O+##%-.+ +X+  X+.+.+.+##%+X+.+O+.+.+O+.+.+.+Xo",
" +++++++++++##%++++++ ++++++++++##%++++++++++++++++++++o",
" ;.+.+.+.+.+##%+.+.+.+.+X+.+O+O+##%+X+.+.+.+X+.+.+.+.+.o",
" +++++++++++##%+++++++++++++++++##%++++++++++++++++++++o",
" +++O+++O+++##%-.+++O+++X+++.+++##%-.+++.+++O+++O+++O++o",
" +++++++++++#%#++++++++++++%+++#%#%++++++++++++++++++++o",
" ;+++++++++++##++++++++++++++++##%%++++++++++++++++++++o",
" ++++++++++++#%#+++++++++%++++#%$%+++++++++++++++++++++o",
" :+++:+++:+++:##+:+++:+%+>+++###%%-++:+++:+++:+++:+++:+o",
" +++++++++++++%###++++++++++#####-+++++++++++++++++++++o",
" ++:+:+:+++:+:+%#%##+:+:++##%##: #+:+:+:+++:+:+:+++:+:+o",
" ++++++++++++++-%##%######%##%#%+###+++++++++++++++++++o",
" :+:+:+:+:+:+:+:+%%########%%%%$#  :#:+:+:+:+:+:+:+:+:+o",
" +++++++++++++++++-%%%%%%%%%%*%%#%+ +#+++++++++++++++++o",
" :+:+:+:+:+:+:+:+>,>+%%%*%%>=<%%##%: :#:+:+:+:+:+:+:+:+o",
" +:+++:+++:++,:+++:+++>+=+<+++>%%##%+1:#++:+++:+++:+++:o",
" :+:+:+:+:+:+:+:+:+:+<+:+:+>+:+>%%##%:1:#:+:+:,:+:+:+:+o",
"1+:+:,:+:,:,:+:,:+:+:+:+<+:+:+<+>%%##%:1:$:,:+:+:,:,:+:o",
" :+:,,,:+:+,,,+:+:+:,:+:+:+:+:+:+<%%$#%:1:#:+:+:+:+:+:+o",
"2::+:::+:::+:<,,:::+:::+:::+:::+::>%%#o3:1:$:::+:::+:::o",
" :+:+:+:,,,,,,,,,:,,,,,:+:,:,:+:+:+>%%#$%:1#+:,:+:+:,:+o",
"2::::>4::::::::::::::::>:::::::::::<>%%##%%#:::::,4::::o",
" :,:+:+,,:,:,,,:,,,:,,,:,,,,,:,:,:+:+<%%$##:+:,,,:+,,:+o",
"2:::::::,4,::::::::::::::::::::::::::>:>::::::,4:::::::o",
" :::,:::,>:4+:4,,:4>+:4,,:4>+:4,,:::,:::+:::,::>+:4>+::o",
"2:>4:,4::::>:,>:::,:::>:::,:::>::>4::::::::::::::>:::::o",
" :+,:>:>::+:::::4>+:::::4>+:::::::+,:4:::4+>:4,:::+::4:5",
"2::::::::4:::>4:,:::,4::::::,4:,4:::::>::>:::><:,4::>::o",
" :::4>:::,:4:::>::4>:>::::4>:>::>::4>:::4:::4::::>:::::o",
".ooo5ooooo5555ooo55oooo5o55ooooooo55ooo555o5555ooooooooo"};
