/* XPM */
static char * image_name[] = {
"56 46 10 1",
" 	c #FFFFFFFFFFFF",
".	c #BEFBBAEABEFB",
"X	c #000000001040",
"o	c #BEFBB6DABEFB",
"O	c #AEBAAAAAAEBA",
"+	c #AEBAA699AEBA",
"@	c #C71BBAEAC71B",
"#	c #000000000000",
"$	c #FFFF14514103",
"%	c #9E799A699E79",
"                                                       .",
" ......................................................X",
" ......................................................X",
" ...o..o..o..o..o..o..o..o..o..o..o..o..o..o..o..o..o..X",
" O...O...+...O...O...+...O...O...+...O...O...+...O...O.X",
" ..o..@o...@o..@o.@o...@o..@o.@o...@o..@o.@o..@o.@o.@o.X",
" O.O.+.O.O.O.O.O.O.O.O.O.O.O.O.O.O.O.O.O.O.O.O.O.O.O.O.X",
" .....O...o...+.......+...o...O...o...+.......O.......OX",
" O.+.+.O.+.O.+.OoO.+.+.O##########.O.+.OoO.+.+.OoO.+.O.X",
" ...O...O...O...O...O.###$$$$$$$$###O...O...O...O...+..X",
" O.+.+.+.+.+.O.+.+.+.##$$$$$$$$$$$$##O.+.+.+.OoO.O.+.O.X",
" .O...O.O.O.o.O.O.O..#$$$$$$$$$$$$$$#.O.O.O...O.+.O...OX",
" O.+.O.+.O.O.O.+.O.O.#$$$$$$$$$$$$$$#O.O.O.+.O.O.O.+.+.X",
" .O.+.O.O.+.O.O.O.+.O#$$$$$$$$$$$$$$#.+.+.O.+.O.+.O.O.OX",
" O.O.O.+.O.O.+.O.O.O.#$$$$$$$$$$$$$$#O.O.O.O.O.O.O.+.O.X",
" OO.OOO.OOO.OO+.OO+.O#$$$$$$$$$$$$$$#OO.OO+.OO+.OOO.OOOX",
" O.O.+.O.O.+.O.O.O.O.O#$$$$$$$$$$$$#.O.+.O.O.O.O.+.O.O.X",
" OOOOOOOOOOOOOOOOOOOOO##$$$$$$$$$$##OOOOOOOOOOOOOOOOOOOX",
" O.O.O.O.+.O.O.O.+.O.O.#$$$$$$$$$$#O.O.O.O.+.O.+.O.O.O.X",
" OOOOOOOOOOOOOOOOOOOOOO##$$$$$$$$##OOOOOOOOOOOOOOOO+OOOX",
" OOO.+OO.OOO.+OO.OOO.OOO#$$$$$$$$#OO.OOO.+OO.OOO.OOO.OOX",
" OOOOOOOOOOOOOOOOOOOOOOO##$$$$$$##OOOOOOOOOOOOOOOOOOOOOX",
" OOOOOOOOOOOOOOOOOOOOOOOO#$$$$$$#OOOOOOOOOOOOOOOOOOOOOOX",
" OOOOOOOOOOOOOOOOOOOOOOOO#$$$$$$#OOOOOOOOOOOOOOOOOOOOOOX",
" %OOO%OOO%OOO%OOO%OOO%OOO##$$$$##%OOO%OOO%OOO%OOO%OOO%OX",
" OOOOOOOOOOOOOOOOOOOOOOOOO#$$$$#OOOOOOOOOOOOOOOOOOOOOOOX",
" OO%O%O%OOO%O%O%OOO%O%O%OO#$$$$#OOO%O%O%OOO%O%O%OOO%O%OX",
" OOOOOOOOOOOOOOOOOOOOOOOOO##$$##OOOOOOOOOOOOOOOOOOOOOOOX",
" %O%O%O%O%O%O%O%O%O%O%O%O%O####%O%O%O%O%O%O%O%O%O%O%O%OX",
" OOOOOOOOOOOOOOOOOOOOOOOOOOOOOOOOOOOOOOOOOOOOOOOOOOOOOOX",
" %O%O%O%O%O%O%O%O%O%O%O%O%O####%O%O%O%O%O%O%O%O%O%O%O%OX",
" O%OOO%OOO%OOO%OOO%OOO%OOO#$$$$#OO%OOO%OOO%OOO%OOO%OOO%X",
" %O%O%O%O%O%O%O%O%O%O%O%O#$$$$$$#%O%O%O%O%O%O%O%O%O%O%OX",
" O%O%O%O%O%O%O%O%O%O%O%O%#$$$$$$#O%O%O%O%O%O%O%O%O%O%O%X",
" %O%O%O%O%O%O%O%O%O%O%O%O#$$$$$$#%O%O%O%O%O%O%O%O%O%O%OX",
" %%O%%%O%%%O%%%O%%%O%%%O%%#$$$$#%%%O%%%O%%%O%%%O%%%O%%%X",
" %O%O%O%O%O%O%O%O%O%O%O%O%O####%O%O%O%O%O%O%O%O%O%O%O%OX",
" %%%%%%%%%%%%%%%%%%%%%%%%%%%%%%%%%%%%%%%%%%%%%%%%%%%%%%X",
" %O%O%O%O%O%O%O%O%O%O%O%O%O%O%O%O%O%O%O%O%O%O%O%O%O%O%OX",
" %%%%%%%%%%%%%%%%%%%%%%%%%%%%%%%%%%%%%%%%%%%%%%%%%%%%%%X",
" %%%O%%%O%%%O%%%O%%%O%%%O%%%O%%%O%%%O%%%O%%%O%%%O%%%O%%X",
" %%%%%%%%%%%%%%%%%%%%%%%%%%%%%%%%%%%%%%%%%%%%%%%%%%%%%%X",
" %O%%%%%%%O%%%%%%%O%%%%%%%O%%%%%%%O%%%%%%%O%%%%%%%O%%%%X",
" %%%%%%%%%%%%%%%%%%%%%%%%%%%%%%%%%%%%%%%%%%%%%%%%%%%%%%X",
" %%%%%%%%%%%%%%%%%%%%%%%%%%%%%%%%%%%%%%%%%%%%%%%%%%%%%%X",
".XXXXXXXXXXXXXXXXXXXXXXXXXXXXXXXXXXXXXXXXXXXXXXXXXXXXXXX"};
