/* XPM */
static char *magick[] = {
/* columns rows colors chars-per-pixel */
"56 46 32 1",
"  c #fffbff",
". c #b6aeb6",
"X c Gray0",
"o c #beb6be",
"O c #9e9a9e",
"+ c #8e8a8e",
"@ c #8e8679",
"# c #a6798e",
"$ c #79869e",
"% c #aeaeb6",
"& c Gray100",
"* c Gray59",
"= c #080408",
"- c #386da6",
"; c #9696ae",
": c #a69ea6",
"> c #ae9e59",
", c #eff3f7",
"< c #000010",
"1 c #fff3ff",
"2 c #717986",
"3 c #aea6ae",
"4 c Gray65",
"5 c #51a249",
"6 c #51718e",
"7 c #867986",
"8 c #f7b2ae",
"9 c #ae6161",
"0 c #aea671",
"q c #000018",
"w c #000808",
"e c #717571",
/* pixels */
"                                                       .",
" ......................................................X",
" ......................................................X",
" ....o....o....o....o....o....o....o....o....o....o....X",
" O...O.+++@#$++++#$+++++#$++++@+++++++#$+++++@#$oO%..OoX",
" ..o.%o@&&&&& &&   &&   &&       &&&   &&  &&& X....o.%X",
" Oo*.Oo$ &  &&&&&   &    &         &&& &&& &  &X+OoO%O.=",
" %..o.*#& &     &                &   && & & &  X-....oOX",
" Oo;.O.$ &  &  & &                &            X-:%OoO.=",
" ...O.%>&       &                   &  & &     X-...O..X",
" O.O.;.$,  &  &  &                    &        X-:.O.O.=",
" .O...O+        &                   &          <-.O...OX",
" O.Oo;.+    & %-%.-..-.         ....-%.        X-:.O.;.X",
" .O.O.O$                                       <-.O.OoOX",
" O.;.Oo+                                       X-:.O.O.=",
"1;O.OO;2      ...-..-..-.--.-.-...-.-..        X-O;.O;OX",
" O.O.O.+                                       X-3.O.:.X",
"1OO;OOO$      --..o-o--.%o-..o-.-..o-.-        <-OOOOOOX",
" O.O.O.>,         &&&&    &&&&&&&&&&&          X-:.O.;.=",
"1OOO3O;2      -..-%.%-..-..-.%-%-.%-...        X-OOO:OOX",
" O:O.OO>                                       X-:OO.:O=",
"1OOO:O;2,     -.-..-.-..-..-.-..        +-XXXXX<-OO:OOOX",
" O:OO:O2                             +-XX-  4, 4-X-O:OOX",
"1:;#:OO>                            XX4 ,4  >  @  =-OOOX",
" 5:;O536      --...-..-..--.-.-...XXo @  >  4-XXXX.=-5;=",
" ;OO:;:+                        -Xo4  4  4XX=X ,4 ,:=::X",
" OO532:2      -..-...-..-..-.--<4  @  OXXX:  4>  XX-:>O=",
"1:;:::;>                     <. @  4 X=4  4@ 14X-Oo:OOOX",
" 5:##$O2      --..--o.-o..--<4  4  XX  >41 4=X-<-X:-O7:X",
" ::O;OO+           &&&&&&  X.>   XX >4  @XX-. oXXOXO=OOX",
" #O>O2;>,     -..-o%.-%.-.<4 4 XX4   4=X-+ . ..XXXOXO=OX",
"1:2OO:+2                 <>  OX4 ,4XX-. . + + .XXOXOX:-X",
" $O$:2;$      -..--.-..-<4 4-: .XX-o . # # @ ..X-X:XO-OX",
" O$+>;*@             -<. .X=--X-+ . + # 2 . .O+XXO-O+O+X",
" +O$O2:>,           <. -X-     8 9 + @,+&-OOO+-=-+O#O2;=",
"12>;#>$#,          XX--       . + $ 2 $&.2>O$#=<-#5O$0+X",
" +;+O$++,     -.-o--         . 9 2&>&# % -6++-XX++;#O2;=",
",>+$6>+2         &          . $ +&#,$ . o-;2-XX-;2+$+++X",
" 2:+:2;$                   . + + $&%   .X++-=XX+++O$O>;=",
" >$$2>++                 8. + + . 8  .+X--=qX=>2#+2>62$X",
" 2;>+#$>O-<XXXXXX<XXXXXXXXXXXXwXXXXXXX=X=XXX-#6;5#+#:+>X",
" 6##2;62$#-+------------X------------------#++#@#+2$+$2X",
" >2$06;+>2++++#$++#$+#--#$++#2+#$+++#2+#$+#$+++2;7;+#+;X",
" 6+2+#2#2;6#;2>$#+2+2-2+$+202;22>2##+++2>$2>+e+$$#$$#5+X",
" *>6;+;5#;>22;6++*$#++#$#$+#$>#;6;@$2;@#6$062;@+2>2++##X",
".=qqX=XqqX=<<==wXX==wX=w=======X=X===X===q==<XX<===X=<XX"
};
