/* XPM */
static char *magick[] = {
/* columns rows colors chars-per-pixel */
"56 46 18 1",
"  c Gray100",
". c #bebabe",
"X c #000010",
"o c #beb6be",
"O c #aeaaae",
"+ c #aea6ae",
"@ c #c7bac7",
"# c #ffe7be",
"$ c #ff1441",
"% c #ffae00",
"& c Gray0",
"* c #9e9a9e",
"= c #79869e",
"- c #e7e7ef",
"; c #285d49",
": c #080408",
"> c #ae5528",
", c #aeaeae",
/* pixels */
"                                                       .",
" ......................................................X",
" ......................................................X",
" ...o..o..o..o..o..o..o..o..o..o..o..o..o..o..o..o..o..X",
" O...O...+...O...O...+...O...O...+...O...O...+...O...O.X",
" ..o..@o...@o..@o.@o...@o..@o.@o...@o..@o.@o..@o.@o.@o.X",
" O.O.+.O.O.O.O.O.O.O.O.O.O.O.O.O.O.O.O.O.O.O.O.O.O.O.O.X",
" .....O...o...+.......+...o...O...o...+.......O.......OX",
" O.+.+.O.+.O.+.O#$$$$$$$#O.OoO.+.O#$$$#OoO.+.+.OoO.+.O.X",
" ...O...O...O...+#$$$$$$$#..O...O#$$$#..O...O...O...+..X",
" O.+.+.+.+.+.O.+.O#$$$$$$%oO.+.+#$$$#+.+.OoO.+.O.+.O.O.X",
" .O...O.O.O.o.O.O.+#$$$$$$#...O#$$$#..O.O.O...+.O.Oo..OX",
" O.+.O.+.O.O.O.+.O.+%$$$$$$#.+#$$$#+.O.+.O.+.O.O.O.O.+.X",
" .O.+.O.O.+.O.O.O.O.#$$$$$$$##$$$#O.+.O.O.O.O.O.+.O.O.OX",
" O.O.O.+.O.O.+.O.+.O.#$$$$$$#$$$#O.O.O.+.+.O.+.O.O.+.O.X",
" OO.OOO.OOO.OO+.OO+.O+#$$$$#$$$$$#+.OOO.OOO.OOO.O+O.OOOX",
" O.O.+.O.O.+.O.O.O.O.O#$$$#$$$$$$$#O.O.O.O.+.O.+.O.O.O.X",
" OOOOOOOOOOOOOOOOOOO+#$$$#+#$$$$$$%OOOO+OOOOOOOOOOOOOOOX",
" O.O.O.O.+.O.O.O.O.O#$$$#+.O#$$$$$$#.+.O.O.O.O.O.O.+.O.X",
" OOOOOOOOOOOOOOO+OO#$$$#OOOO+%$$$$$$#OOOOO+OOOOOOOOOOOOX",
" OOO.+OO.OOO.OOO.O#$$$#+.OOO.#$$$$$$$#OO.OOO.+OO.OOO.OOX",
" OOOOOOOOOOOOOOOO#$$$#OOOOOOOO#$$$$$$$#OOOOOOOOOOOOOOOOX",
" OOOOOOOOOOOOOOOOOOOOOOOOOOOOOO+OO+OOOOOOOOOOOOOOOOOOOOX",
" OOOOOOOOOOO&&&&&&&&&&&&&&&&&&&&&&&&&&&&&&&&OOOOOOOOOOOX",
" *OOO*OOO*OOO=---.-..-..-====;;;;;;;;&&&&&&OO*OOO*OOO*OX",
" OOOOOOOOOOOOO&&&&&&&&&&&&:&&&&&&&&&&&&&&&OOOOOOOOOOOOOX",
" OO*O*O*OOO*O*O*OOO>%%>%>%>*O*O*O>%>O*O*OOO*O*O*OOO*O*OX",
" OOOOOOOOOOOOOOOOOOO>%>%>%>OOOOOO>%>OOOOOOOOOOOOOOOOOOOX",
" *O*O*O*O*O*O*O*O*O*>%>%>%%>O*O*O>%>O*O*O*O*O*O*O*O*O*OX",
" OOOOOOOOOOOOOOOOOOOO>>%%>%%%>O>>>%>OOOOOOOOOOOOOOOOOOOX",
" *O*O*O*O*O*O*O*O*O*O*>%%%>%%%>>%>>%>*O*O*O*O*O*O*O*O*OX",
" O*OOO*OOO*OOO*OOO*OOO*>>%%>%%%%>%>%>O*OOO*OOO*OOO*OOO*X",
" *O*O*O*O*O*O*O*O*O*O*O*>>%%%%%%%>%%>*O*O*O*O*O*O*O*O*OX",
" O*O*O*O*O*O*O*O*O*O*O*O*,>>%%%%%%>%>O*O*O*O*O*O*O*O*O*X",
" *O*O*O*O*O*O*O*O*O*O*O*O*O*>>%%%%%%>*O*O*O*O*O*O*O*O*OX",
" **O***O***O***O***O***O***,**>%%%%>***O***O***O***O***X",
" *O*O*O*O*O*O*O*O*O*O*O*O*O*O*>%%%%>,*O*O*O*O*O*O*O*O*OX",
" ****************************;&&&&&&&******************X",
" *O*O*O*O*O*O*O*O*O*O*O*O*O*,;&&&&&&&*O*O*O*O*O*O*O*O*OX",
" ******************************************************X",
" ***O***O***O***O***O***O***O***,***O***O***O***O***O**X",
" ******************************************************X",
" *O*******O*******O*******O*******O*******O*******O****X",
" ******************************************************X",
" ******************************************************X",
".XXXXXXXXXXXXXXXXXXXXXXXXXXXXXXXXXXXXXXXXXXXXXXXXXXXXXXX"
};
