/* XPM */
static char *magick[] = {
/* columns rows colors chars-per-pixel */
"56 46 31 1",
"  c Gray100",
". c #b6aeb6",
"X c #a6a2a6",
"o c Gray0",
"O c #beb6be",
"+ c #000808",
"@ c #386da6",
"# c #717986",
"$ c #6986be",
"% c #aeaeae",
"& c #aeaeb6",
"* c #51718e",
"= c Gray65",
"- c #bebabe",
"; c #eff3f7",
": c #000010",
"> c #000018",
", c Gray59",
"< c #8e8a8e",
"1 c #a69ea6",
"2 c #aea671",
"3 c #7992b6",
"4 c #f7b2ae",
"5 c #dfba8e",
"6 c #717571",
"7 c #ffffd7",
"8 c #fffbff",
"9 c #79869e",
"0 c #5155ff",
"q c #696971",
"w c #080408",
/* pixels */
"                                                       .",
" X.X.X.X.X.X.X.X.X.X.X.X.X.X.X.X.X.X.X.X.X.X.X.X.X.X.X.o",
" .X    .O.O..O.O..O..O.O..O..O.O..O..O.O..O..O.O..O..O.+",
" . @#$$+%O%O.+ O%OO%O.+ &O&O%O.+ O%OO%O.+ &O&O%O.+ %O..o",
" . $$*$oO.O%X+ %%%OO=%+ =O%-=&O+ .O%XO%O+ O%%%O=    .O%+",
" X $$#$+O%O.Oo O.O&.&Oo %O.O%O.o O&OO&O.o %O.OO;$$$$+%Oo",
" XXo:>:oX.X&X+ %XO=O=.+ XO=%%%X+ %XO=%XO+ XO=%X $*#$oOXo",
" X..o .=O&OO.o OO%O%.Xo O%..OX.o OO&.=O.o O%.%% $$*$oX.o",
" .XOo X.=.==    %OXOX.+ XOXO=.X+ %=O=.=&+ =O=.XXoo::o.X+",
" X..o .O%O& #$$$+O&=O.o O%.=&..o O.X%O.Xo &XO%OX.o =O..o",
" XX.+ X.XO= @$$*+.=.=&+ =O=&XOX+ .=OXO=.+ X.XO=.Xo .X.X+",
" X.Xo .X&=. $$$$+X&O.Xo .X&OO=.o X%O&X&Xo %O&=.X.o ..X.o",
" XX.+ XO=.=Xooooo.XO=.+ X.X&=.X+ .XO=.X    O=.=&%o .XO=o",
" X.Xo .X&=OX.o XOX.=&Xo .=O=OX.o =OX&= $$$$+&=OX.o X&=.o",
" ,X.+ X.X.=&X+ .=&XOXOo X&X.=&X+ .=&%% $*$*+X.=&X+ OX.X+",
" XXXo XX&=OXXo XXX.X=Xo X=OXXX.o X.XXX $$#$oXXOXXo =XX.o",
" XX.+ XOX.=&Xo .X.XOX&+ X.=&XO=+ .X.X.=oo>ooX.=.Xo .X.X+",
" XXXo X=XXXXXo X====XXo XXXXXXXo XXXXXXXo XXXXXXXo XXXXo",
" ,X.+ X.X.XOXo .X&X&X.+ X.X.XX    .O=.X.o X.XOX.X+ .X.X+",
" XXXo XXXXXXXo XXXXXXXo X==== #$$$+X=XXXo XXXX=XXo XXXXo",
" XXXo XXXXX.X+ .XXXOX    &X&X @$$*+.XXX.+ X.XXX&Xo .XXXo",
" XXXo XXXXXXXo XXXX= $$$$+XXX $$$$oXXXXXo XXXXXXXo XXXXo",
" ,XXo XXXXXXXo XXXXX $*$$oXXXXoooooXXXXXo XXXXXXXo XXXXo",
" XXXo XXXXXXXo XXXXX $#*$oXXXXXo XXXXXXXo XXXXXXXo XXXXo",
" X,Xo XXX,XXXo X,XXXXo>:ooXXXXXo XXX,XXXo XXXXXX,o X,XXo",
" XXXo XXXXXXXo XXXXXXXo XXXXXXXo XXXXXXXo XXXXXXXo XXXXo",
" ,XXo XX,X,XXo XXX,X,Xo XX,XXX,o X,X,X,Xo ,XXX,X,o X,X,o",
" ,XXo ,XXXXX,o XXXXXXXo XXXX,XXo XXXXXXXo XX,XXXXo XXXXo",
" X,Xo XX,X,XXo X,X,X<Xo ,X,XXX,o X,X<X,Xo ,XXX,X,o X,X,o",
" <XXo ,XXXXX,o XXXXXXXo XXXX<XXo XXXXXXXo XX,XXXXo XXXXo",
" ,,1o ,X<X<X,o X,X<X,Xo ,X,X,X,o X,X,X,Xo ,X<X,X<o X,X<o",
" ===2==2==32==2==2==2==2==2=3=2==2==2==2==2==2==2===2==o",
" 2 4 4 4 2#4 4 4 4 4 4 4 5 #*3 4 4 5 4 4 4 464 4 474 42+",
" 42 = 2 =$$ = 2 = 2 = 2 = @$$$# 2 =8# = %6=;$ 2 = &6= =o",
" = =7= =90$2 = =7= =7= = 23#@$@-#. =qX 2 # =$= =7##$$24o",
" =2 = 6$*9$9= 2 # 2 = =7= $$$#$ * 2 $ = =$q$9 2 %@$*$ =o",
" = =9#$$$**$ $ =9= =7= = 2$$$*$=$$ =9=7$ $$$$$$6 $$$$,2+",
" 4%q$$$q$9$$$$q$*$$6$#69$$$*$#3$*$$ q$$$*$$$$q$$$$*$$ 4o",
" =+:+:w:+::ooo::+:o:+::+oo:+>>::+ooo:ooo+oooo:oooo+ooo=+",
" 2=$*$$$*$$$*$# $9$$@$$*$$$$*$$$*$$ $$$$$$@$#9=$$$*$$ =o",
" = =,$*$$$*$ = =9= = = = =$$$$*$$= =9,9=9#$$@$ = $$$*=5w",
" 42 = =$$$$ = 2 = 2 = 2 = *#$$=$$ =7= #;=$.$#9=7=$*$# =o",
" = =7= $;$#= = =7= =7= =7= $@$ $;2 = 2 . = =$& = = $ =2:",
" =2 = 2 =;$ 2 2 = 2 = 2 = .#=32 = 2 = = 2 2 $ = 2 =9= 4o",
" 24=5=4=24#&=4=24=4=24=5=24$24=24=42424==4=24242=42=5=2+",
".++wwwo++o:o+o++++o+++www+oooo++o++o++o++++++o+:++++w+oo"
};
