/* XPM */
static char *magick[] = {
/* columns rows colors chars-per-pixel */
"48 48 60 1",
"  c Gray0",
". c Gray100",
"X c #7d7de1",
"o c #7a7add",
"O c #b46ed0",
"+ c #7777da",
"@ c #7070d2",
"# c #6d6dce",
"$ c #6a6aca",
"% c #a964c4",
"& c #6767c7",
"* c #6363c3",
"= c #5d5dbb",
"- c #6060bf",
"; c #9d5ab8",
": c #5757b4",
"> c #5353b0",
", c #9250ac",
"< c #5050ac",
"1 c #7373d6",
"2 c #4d4da8",
"3 c #9696ff",
"4 c #8d8df4",
"5 c #bf78dc",
"6 c gainsboro",
"7 c #ffd519",
"8 c #703289",
"9 c #8746a1",
"0 c #ffd000",
"q c #5a5ab8",
"w c #7b3c95",
"e c #44449d",
"r c #8a8af0",
"t c #4a4aa5",
"y c #9393fc",
"u c #4747a1",
"i c #cb82e8",
"p c Red",
"a c #9090f8",
"s c #591e71",
"d c #8080e5",
"f c #d68cf4",
"g c #3a3a92",
"h c #8383e9",
"j c #8787ed",
"k c #65287d",
"l c #4e1465",
"z c #242477",
"x c #404099",
"c c #3d3d95",
"v c #27277b",
"b c #e196ff",
"n c #37378e",
"m c #34348a",
"M c #303086",
"N c #430a59",
"B c #2a2a7f",
"V c #1d1d70",
"C c #37004d",
"Z c #2d2d83",
/* pixels */
"                                                ",
"                                               .",
"  XoO+@+@@#+$#O#O##%&*&&=&--;#;-;=;::=:::::>,<<.",
"  +o++@1@@1$@#$##$#&*#***--&*-&=-:=:=>->::<:<>,.",
"  o+@++#O@#O$@$#-$*#&--;#*-;-:=-:::-=:,=><><>2<.",
"  11+@O@#1O#@$$#$$$--#;$--;*:====:==,:=>,>,<>2<.",
"  1111#O@;1##-#-#*$$-;@-;*&=&===:=::-,:<><<<<2<.",
"  111$1@#1#####$;$*****-*--->-:$o;3+>>,:><<<<<<.",
"  1#O@##$@#*##%$456O$=*---#%6;;67776><>%6O$8=9<.",
"  @O#@##1&#$$;1%6777&--&+%6706677777#q3707w>92e.",
"  @1##$$$#*$$*X60776&--r677766777776-;7776w<<q9.",
"  @#####O#$-#&177777+*%60776*6777706867777X2t<e.",
"  @###O-$%$O*#&607769670776q<,67777o67777y8u2tu.",
"  ####$O#-#-+qwi7706677776$&:607706#67706;$tuuu.",
"  @##-#$%#-$-$@7p7p7i0p7a#qq,60p77o&O0p76669tue.",
"  @*O#$&#-#$$*,57p097p0ioq:t60p70O1sO77p0577==w.",
"  #O-@-$&#-*#od7p7ppp0;;->:,6p7pf%8>6%p7p0prg<2.",
"  -#O-$#**-*-w9ipppppOO->=u6pppp6s@t6pp7pihe:8t.",
"  #*##*&--#-*=j7ppp7O5k=-=6pppp6l<297p6%6l<tuu<.",
"  -#&-#;#;-$@@69pppp68&w8%5pppp622u6ppO&z>-eee2.",
"  #**#;$-$,,*6pppppf8@8:67ppppOs<<6Opi8sqk-xeuc.",
"  -$---#;-&@6pppppp7@8q6Oppppp6q29;pp6k2:<seucx.",
"  +&*--*--+6pppppppO8#6Oppppp,7*-6pp;eq2euuxcu:.",
"  -*%-*--q6pppppppp766%pp;ppp7o&6pp%6uueeex2s2:.",
"  -%**-*-45pppf7pppw6ppp57ppp866ppp;veeeuex:>lx.",
"  -*---:$6ppp76Oppppppp;65pppp7ppp6$eueuexexl=s.",
"  ------5pppO,@fppppppO5s6pppppppO8tt<k<exuxxcu.",
"  ----;:6pp7%&:jppppp6,s89Oppppp6922k2es2>scgcc.",
"  *-----j%p,%>:k69ppi;kq<@6ppppO9>e<qs2e>k2ccgc.",
"  ----1wwbw7w:q<t5O6w>8#qlkf;p6wueee2<ktxgucgcn.",
"  ---q=**s,=&q*$ws<u<<u>tu2s,@k8eesuucucxgcxtl=.",
"  -;,-:=qqq--&kq>8@82>ut2tusqk2t=k&xxxcxxgultec.",
"  ==;>q=<->::8$*qqk@t2>ttutuq-kt>s-ecxcgxxmtsec.",
"  =<78*<q>q<><::<7wt<tttuuuuul>=uxMM7c7ggmcggtl.",
"  q&7&$99wq80<88e77us8w8-777<ksskctk0k0gkt8NsMn.",
"  -t777090@87k70k0l77778sx77l07l0s0777s7770s7xm.",
"  =,0u7w0>k607g777g77B0t>7s07lB70l7V77s0Ms77zvM.",
"  >w70tk7><C7c77M7s70>7ug777N7l77M70C7N77V7kZmx.",
"  ==t:27*u*0>c*-2<x:tZgeexxegeggmMgxnMgmmBs7gZ<.",
"  #w12:ue:n:xq:g<g-=teuxtgecucxcmqcgmngZBnlxBcm.",
"  *-8:2:2*eq$-uxtt>gqet=sxxqmxxnggcgcteemneBc:l.",
"  qt>>>&>c:*8<uttuguge->tueguxgggcgmulecve>vmMm.",
"  >>t2:2*&k22<txxtteents-tcgugggggngmgusxMZMZmZ.",
"  <>>-#>c:*8<uttuguge->tueguxgggcgmulecve>NmMZZ.",
"  :2>2:*&k22<txxtteents-tcgugggggngmgusxMZcZMZZ.",
"  2:::2><2tttt:&&exueugxuggccttkgmccnMcmMMMMnxl.",
"  =k#tu:tt2ttk:es<<-egegcxgcstcuxxsmmnMMMMMNgZm.",
" ..............................................."
};
