/* XPM */
static char *magick[] = {
/* columns rows colors chars-per-pixel */
"56 46 71 1",
"  c Gray100",
". c #cfc7cf",
"X c Gray0",
"o c #d7d3d7",
"O c #eff3f7",
"+ c #a69ea6",
"@ c #aeb2cf",
"# c #e7e7ef",
"$ c #d7dfe7",
"% c Gray59",
"& c #bec3cf",
"* c #aeaaae",
"= c #9696ae",
"- c #bec3be",
"; c #fff3ff",
": c #59a2d7",
"> c #5155ff",
", c #a6798e",
"< c #aea6ae",
"1 c #ffffc7",
"2 c #e7d79e",
"3 c #aeaeae",
"4 c #dfba8e",
"5 c #ae9e59",
"6 c #ff8e08",
"7 c #cf5528",
"8 c #ae6161",
"9 c #282c30",
"0 c #fffbff",
"q c #aeb228",
"w c #dfae69",
"e c #595128",
"r c #aea671",
"t c Gray38",
"y c #202020",
"u c #303430",
"i c #6986be",
"p c #690808",
"a c #494951",
"s c Gray65",
"d c #beb6be",
"f c #182020",
"g c #ae5528",
"h c #c7bac7",
"j c #080408",
"k c #bebabe",
"l c #515549",
"z c #9e9a9e",
"x c #51718e",
"c c #202496",
"v c #867986",
"b c #284d96",
"n c #be2020",
"m c #ef2851",
"M c #386da6",
"N c #a6a2a6",
"B c #961408",
"V c #413841",
"C c #000010",
"Z c #f7b2ae",
"A c #b64559",
"S c #b6aeb6",
"D c #aeaeb6",
"F c #8e8a8e",
"G c #7992b6",
"H c #001c8e",
"J c #8e8679",
"K c #000018",
"L c #79869e",
"P c #202851",
"I c #000808",
/* pixels */
"                                                      .X",
"  oooooooooooooooooooo..ooooooooooo..oo.oo.o.oo..o.ooOXX",
"  +@@@..............o#O##........o##O##O##O#$O#O##O#$.XX",
"  %@$&&$$$$$$$#o$$$$#  # O$$o$$$$#   # # # #   #  #  .XX",
"  *@@&&o$&o#@$ &Oo&$$O #$$&$&$O                      .XX",
"  =$@@&o&o$$#    $$#$#O$#$&$O#                       .XX",
"  %@@@&$@o$$O     O# #$$-o$$                         .XX",
" ;=@:@&&&o#$          ##$$$                          .XX",
"  =@>@@@&&&O           #O                            .XX",
"  ,>@@@&&$$                                          oXX",
"  +@>$$$$O                                         #O.XX",
"  <   OO                             12.2      ##o&&&.XX",
"  3             444$          #444#144565#    #44&&o&&XX",
"  +           57548%    # #;5658982544445#  0#q365=@@.XX",
" #3   #  # ## 644w8%#  # 245w489e844r44w7O  $7ww5w  $.XX",
" O3 # #  # #O;544358 # 1445w4tyuet844444q$ #44w442  O.XX",
"  3     #  1##q44w8i #O454w4p9t.ya5444s7O0#55w444$&@>dXX",
"  *      ## # 744458O24ws45uf=#2tg4ws4441 t4444s4@:@:hXX",
"  3          #44s48i$454489f*  O14444w5o %yw4444&@&@@@jX",
"  %>>:@@@@$k$.54447q44w4tpfoO 1O#g4s442O ae44ws4444r#oXX",
"  %>>>>>>>>>>@744444444tflO ##O1544w44.# Xpu4444445s@hXX",
" 0z>>>>>>>>>>>rw4s44447et>:>>>>4w4444:@>>9u844s447w>>@XX",
"  +@@i>>>>>>>>44444s48ft>>>>>>.5444gz>>>>>e4444453#&&.XX",
"  ,>>>>>>>>>>>q444w4tux>iyyc>>w44rw@@@.;;94459982    oXX",
"  v>>c>>>b>c>4444s48unmmmmmMzq44444$00   g4s58N #$&&okXX",
" 0>c>>>>>>>,z4444w5et888mnf84444w52  # 02444# OOO#O#$oXX",
"  +>>>>b>c>4544s448l8mBV9f54444444#    l74g4# # #&>>lNCX",
" 0zo;#$$@z4444w4445M&&ZAe4ws44ws44.o@@.44w3:>>>>>>>>cSXX",
"  %>@@i@@74444s4r48i$&&444444s44rD>>>>55w4>>>>c>>>c>>kXX",
"  F>>>>,44s44e4444q4>>=4444e4w444@>@855w51#$@@>>>>>>>hXX",
"  <@>>474445fy4444445q24spt4444484>s54q4G&>:>Hc>>>>c>hXX",
" ;,>>J744489ex4ws4444448tt@F4s444754ww,:c@vm,pnM>>H@..XX",
"  F>x444s89uM>444444444tM>>>q44444w44qhun mmmmmmmtjMv@XX",
"  +oD544tuu#O$544ws4g89io@@&544r44w54.;8mmmmm8mmmnyx@hXX",
"  ,>>vw4ly>>>>>4g4qgtl>>>>>>f844444F>>>>MvnKmmmmnfXM>hXX",
"  F>>>>5gyM>>>>>D+zLG>>>>>>>>lVw54:@&#@@>>M>uj9>>uXM>@XX",
"  ,>>>>>-i>>c>c>>>>>>>>:>>@v@@@=@x:>>>>>>>>>>>>>>>@>>hXX",
"  %CXy9fc9PcccPccccccuyyyfKKKfKfVuy9cccHcccccfyffyHcc<XX",
"  ,CyycPcccc9c9uyyP9uuuyjCyKyKuy9uuccPccPccPc9ccc9cyy<XX",
"  %XCCucccccccuu9uuuuyyyyyKyuyKuuuucccccccccccPcyyjCj*XX",
"  ,CyyyuyuPfcucucccccuuucyccCucuyccP9ccccycccccc9cuuy@XX",
" #%yccyuycfcyuucuCCjCjCjyjyCCyCCCyyKyCjy9ucPcyccuujyKDXX",
"  8CyuuuuCyyXuucucuyccyccucyucyccuccuycuuuuKKXjjccccc@jX",
"  %cMttlttMt>lxMMlMMtluuuuluuuuuuuuu9txMMMtMMMMtluulthXX",
"#tllllllllllllalelllltlttllttltltttttalaeallllltltltatXX",
"uXXXXXXXXXXXXXXXXXXXXXXXXCXXXXXXXXXXXXXXXXXXXXXXXXXXIXXX"
};
