/* XPM */
static char *magick[] = {
/* columns rows colors chars-per-pixel */
"83 79 7 1",
"  c #1f425a",
". c #2c4a5f",
"X c #2a4c69",
"o c #344b7f",
"O c #355674",
"+ c #294c86",
"@ c #214494",
/* pixels */
"o+++X@o+o+oX+++o++@+++++@O@++++X@.++++++o@o@o++o@X+++++o+@.+@++@o+++++X+Xo@++++++X+",
"@+X@o++X++X@o@+X@oXo+++.+++Xo++o++++++o@X+X++.@X++++o+X+++++O@oX+++.@o@o@++O@o++o@X",
".++o+++@o@+O+Xo@O@++++++++o@+@.++++o++++o@+++++o+.++++o@O++++++++o+++X+X+o@X++X@.++",
"++++++.++.+++@++++Xo++o+++++O+++++++.@o++X+o++++++@o+X@++++++.@oX@++++o++X++O@o++++",
"++o@X+++++++oX+o@X@+@O@+o@.+@+++o+++++X@o@O@X+++++++@oXo@o+++++++oX+++@o@o@++++++o+",
"o+++o++++++X@o@X++o+.+++X+++++o+X@o++@o+X++++o@O@o+XoX@++X@o+++O@X@o@o+X+X+O@Xo+++.",
"X@.+@+o++o+++X+o@O@++++o++++oX++++X+oX+++o@O@X+++X@o@+oX++o +o@++o+X+X@o@o@++o@X+++",
"++++O++++X@o@o+++++++++X@+o+++@o@o++++@oX@X+o++O@o+X++X@o+@o+@o++X@o@o++X++.++X@o++",
"++++++@.+@O+X@Xo@O++o+o@O+@X+oX+X@o@.++++o+@X+@++++o@O@oX++++X++o@O+X++o@+++++o+++o",
"++o++o+++++++o@X++++X@X+++++.@+@o+X++++o+@Xo++o++.@+++++@O@o++.@X++++.@+X+o+++X@+X@",
"O@X+@X+o++o@X++o@.++o++o@O++++oX+++++++X@O+@Xo@X+++O@O++++X++++++++++++o++++o@o+o@X",
"@O@o+o+++X@O@o++++++@o@X+++++++@+.@o+O@o++@o++++o+++++@O@o+++o+++.@o++++++.@++X@X++",
"+++X@++o@o++X+@O+++oX++o@.++o++o+++++@X++.++++o@X+o@O+++X@.++++o+++++o++++++O@o+o@.",
"O@o++oX@X+X+@oX+@o+X@+++++++++X+++++++o+++X@o+ o+++++.@o+++++.@++++O@++.@o+++++X+++",
"+X+@.+++o@o+X+++o @o+.++++o@.+@o++oX.++++@o+X@o@X+o@++++++++++++o++++X@o++++o@.++++",
"++o++++++X@o@+.+++o+++++o+++++X@O@+++@o@o+++o+++o@+X+++++o++o+++++.@+o++++O@X+++++o",
"+@X+++o@.+++++++++++++++@.+++o++++o+++X+X+++@O+++.++o++.++++++o@X+++++++++@O++++o@X",
"oXo@o+++++++o+++o++.@o+o++++++++o+X@o++o@+.+O@++++++++++++.@o@ o+++o+Xo++.++++o@X++",
"+++X+@O+++o+@Xo@++++++X@X+o++o@X@X@oX+++++++++.++++o@O+++++++o+++o@++@++++++o@X+o@o",
"o@o@o++++X@Xo+++O@o+++++o+@O@+X+o+o+@+.++o+++++++o++X@++o++++++o@++X+oXo++o@X+o+++X",
"+X+X+@O@o+++@X+@X+++o@O@+++++o@o ++++++++@o++++++@.++o+@X+o++.++Xo@o@X@++++++@X@.++",
"++o@+o+X@O@o+o+o++O@X++Xo++.++X+@o++o+++o+X@O@o+o+++++Xo+o@++++++++X++o++.@Xo+o+++@",
"@.++X+++o+X+@X@X+@o+o@o@X+++++o++++X@o+@X+o++X+@X+++o@+@X+Xo+++o@.++o@X++++++@X++o+",
"++++o@oX@+++.+o@o+X@++X++o+++.@++.@o++X+o+@Xo@+o++o+++.++o@X@o++++o@X++o++o+Xo+o+++",
"+++++X++o++++++X++oX+o@o@X@o++++++++X@o@X+o@X+o @o@X+++++++o+X@O@+++o@X+++@o@+@X+@.",
"++O@o@+++.@o++@o+X@o@X+X+o+++++o++O@o+X+o@X+o++@oX+++o++++.@+++@O+++X++o@oX++.++o++",
"+@+X+o@O@++++oX+@o+X+o@+++++o+++++++++o@X++@X+o+++o@.+++o@++oX++++o@o+@X+++++++++++",
"o+o++X+++++++X@o+X@o@+++.@oX@++.@O@o+X@O@o+o+.@+++++++++X++++@+Xo++X@Xo++.@o++++.@o",
"+@X+.+++o+oX+++++o+X+.++++++oX@o+++X@o+++X@++++O@.++++o@o+oXo+o@+X+o++@++++++o++++X",
"+O@++@++X++@+.@oX@+++++++++++++++X@o+X@Xo@Xo++++++++o++++X+@+X@O@o@X@+O+o+++X@+++++",
"++o++o++@oXo+++++oX@o++o++oX@o++++o+++o++++++o++++++@Xo@.++o++++X+o+oX@+++o@oXo++o@",
".@++++++O@++++++X@o++++++.@++X+++o@ o+@X@o++.@+++o+Xo+++++@+.@O@oX@+X@o+O@+X+@+.@+X",
"++o@.++o@X++o+o@oX+@O@o++++o@o++X++o@Xo++X++++oX@++@+@O+++o+++++++o@o+X@+.++o++++++",
"++++++X@O@o+X@+X@+++++X+++++X+++.+++o@X@o@o++++@oXo+.+++++++++++o@X+X++o++++++++o++",
"++o+++o++++@oX+o+oX@O@o@.+++o@o@++++X+o+X+++o+X++@+++++o@O+++o+X@O+@o@X++++o@O+++++",
"++X@o+++X@oX++o@+X@o+X++o@O@++X++o@o++++++.@X+@o+Xo++o+++X@o+X@oX@o+X+o@o+++O@++++o",
"+++o @o++o @o@X+o@O@++++++++.++++X++@.+++++++oX+@o@X+@Xo@oX+@o+++++++++X+@.+@Xo@.++",
"@o+@o+O@+++oX+++X+++O@o+++++o@o@o++o+++@o++o++@o+X+++O@+X+++X+++.@o++.@+o++++++++++",
"++X+++++.+@++o@o@++++X++oX+++X+X+@.++++O@+++@O+X++o@o++o@o@o+++++++++++++++o++oX++o",
"++o@o++++++o++X+O++.@o@X+@o+++++++++++++Xo++.++@o@++X@+X+X++.@o+++o++o+Xo++X@O@++++",
"@.++X@o++o+@X+@o@++++++o@O@X+o@o++++o++++@X+++oX+.++o+++++++++X+++X@o@++@.+++++o@.+",
"+++++X++X@+O@o++Xo+++o++X++o+@O@X+o+++.@o+o++++++++X@o++.@o++o@+.@o+X+Xo+++++o+X+++",
"o++o@o@O@O+++X++@X+o@X@.+++@X+++o@X+++++++@o++@o+++o+X@o+++++++++++@o@++++o+@X+++++",
"+++++X+++++X@o@o+o@Xo+++++++O@o++++.@o+++oX@Xo+X@o+@++++++++X++o++oX+Xo++O@+Xo@o+o+",
"@.++o@o++o@oX+X+@X++++++o+o@+X+@O++++++oX@+o@X+o+X+.++o@O@.+@o++++@+++@.+@Xo@+X+@X+",
"++++X++.@+X++@+.+o++.@o++X@O++.++++++++X@o+X+o@X@+++++X++++++X+++.+O@o+++++++o++Xo@",
"++o@+++++o@o+o++++++++++@o+++++++o@O+o@++X++++o+o+++o@o+++o+o@o@+++++X++o++oX@+o@X+",
"o++X+o++++X@X++++@o+++Xo+X+++++o++X+@++Xo@o@oX@+X@o+++X@o++++X+O+++o++o+@O@+@oX@o++",
"+++o@X+o++o+++o++.+++o@++.++o@++@.++oX++@O+X@+oX@O@X+++o @o@X@+++o@X@o@X++XoX+++X@o",
"@O@+++++.@+++.@+++@O@++++++@++Xo++++++.+O@+++O@+++o@+.+++oX++o+o@X++X+Xo@o++@+.++O@",
"+++.+++++++o+++++++++.++++oXo@o@X++o@+++++o@.++o++X++++++++o@X+@O++o@+++X+@O+++++++",
"o++++@o++++++++Xo+o+++++o++@++X+o+++o++++++++++X@+++o+@o+o@X++oX@o@++O@o@o++++++o@+",
"+++o+X++o@O@O+++++X+++o@X+oX++++@.++++o@O@O@++o+oX@o@Xo@X++o@X+++X+.+++X+X+o@o+@X+.",
"++++o@O@+X++++++.@o@o+X+o+@++.@o++++.@X++++Xo+@X@o++O@X+o++X++o@o++++++o@o@+X@Xo+++",
"oX@X++++o@.++o@++++X+@o@X+o++++++++++++o@O++++o++X@+++++@.+@o@X+++o++++X++.++o+@O++",
"@o++.@o+X+++@+Xo+++@o++Xo@X+++o+++o+++++X@+++++X@o+Xo++o++++X+O@oX@+++.++++++++++++",
"+++++++++++oX++++oX+X++@+Xo@O@X+o@X+o++o+o+.++o@O@++@.++++o++++++@O+o@++o+++o@.++o@",
".@o++++.@o+++o@O@++@o@oXo@++++++X++++.@X@++++@X+++Xo++++++++++.@+O+@++o@X@o++++++++",
"++++o++++++@.++++.++X++++Xo@O+o@o++++++o+X@o+o++o@+++++o@O@o++++o@XoX+++o+X@O+++o@X",
"+++X@++++Xo+++++++++o+++.++X+@+++.@o+++++o++++.@++.++o++X++X@o++X++@+++X@+++++o@Xo+",
"O+o@O+o+++++++o+++o@X+o@+++o@O+++++++o@X+@X++++++++++@Xo@o@O+++o++oXo@o+oXo@.++++++",
"+@+++X@+++.@o+X@o+X+o@+++o@++++++++O@+O@o+o+o++++o+++O@++X++++++.@++@O@X+@+++++++.@",
"+.++o@O++++++++o @o++X+o++Xo@.++o++++X++X@X@X+o+X@o+++oX@o@.++++++oX+++o@O+++++o+++",
"+++++++++o+X@o+@o+X@++++.@++++++++.@+o@o@o+o++X@o+X@+X@o+++++@o+++++@o+X+++++O@++++",
"++o@.++o@X@o+X++++o+o@O@++oX+++o@++++X+X++@X+.++++o+o@X++.+++O+++o@O+X@o@.+++++.++o",
"o+++++@X+o+++o@Xo++@X+++++++@o++X+++o@o++Xo@++@+O@X@X+o++++o+@+.@X+X@o++++@O@o++++X",
"+++++o+++@O@X++o@Xo+o@O++o@O++@.++o+X++@o++o++o+++o+++@X+++++++++++++X+o+++++X@o++o",
"++Xo++O@oX+++o@ o@X@X++++X++Xo++++++@+.++.@++++++++.@o+o+o++Xo+++o+o@o@X++o++oX@O@+",
"++@++@X+++o@.++o@Xo++o@.+@o@++++o++oX++++++Xo@.++++++X+@++@o+++++@X+X++o@X+@.+++++.",
"o+o+Xo++.@++++++++++++++++X+O@o+X@X+@+++++++++++@o+++++O@oX++.@o+O@o@o@X++o++++++++",
"X@X+++++++o++++o++o@.++++o++++X@o+o+o+o++o++o+++O@Xo@o@X+++++++X@+X+X+o+@.++++o++++",
"++o@o@+o++X+++O@++X++++o++++.@o+X@+X@++++X@+X@o++++++X+++.@o++++o+o@o+ o++++o+@O@o+",
"++X+Xo@X+++o@.++o@o++++@X+++++++o+o@O++.+@o+++X+o@.++o+++++++o@X+@X+++o@++++++X++++",
"Xo@o@+Xo@o+++++++X+++o+Xo@o+++++X@X+++++++O@O@o@++++@X@o+++O@X+o+Xo@o+++++O@o++o@Xo",
"@X+X+o@+X+@O++++o@.++@X@+X++o@O@o+o@.+++o++++X+.+++o+o+X+++++o@X+++X@Xo+++++X@o o+@",
"O@o+++.+++O@X@o+++++++o+o+o@+X@O@+X+o@o+++X@o++++o+++++@o++.++X@o@o++o@+++.@+o+@+++",
"+++@o++++o@+o+X@O+++oX@X+@X+o++++o@+++++@o++X@o@++X++.+++@++++o+X+@.++Xo@+++o +o+o@",
"O@oX+++o@++X+++++++.@++o++o+X@o+X++X+++.++.@o+++X@o+++++Xo+o@X@++o++++++Xo++@o+X@+X",
"+X+@oX++Xo@o@O@O@++++o@X@.+++o @o++o++++++++++.++o@X@o+++@X+o+oX@X+++o@.+++oX++o+++"
};
