/* XPM */
static char * xfmouse_xpm[] = {
"40 50 5 1",
" 	c None",
".	c #494949",
"+	c #A4A4A4",
"@	c #E3E3E3",
"#	c #6F6F6F",
"#+++++++++++++++++++++++++++++++++++++#@",
"+@@@@@@@@@@@@@@@@@@@@@@@@@@@@@@@@@@@@@#+",
"+@@@@@@@@@@@@@@@@@@@@@@@@@@@@@@@@@@@@@.+",
"+@@@@@@@@@@@@@@@@@@@@@@@@@@@@@@@@@@@@@.+",
"+@@@@@@@@@@@@@@@@@@@@@@@@@@@@+@+@+++++.+",
"+@@@@@@@@@@@@@@@@@@@@+++##.............+",
"+@@@@@@@@@@@@@@@+##.......##+++++++@@@.+",
"+@@@@@@@@@@@+#.....##++@@@@@@@@@@@@@@@.+",
"+@@@@@@@@+#....++@@@@@@@@@@@@@@@@@@@@@.+",
"+@@@@@@+...#+@@@@@@@@@@@@@@@@@@@@@@@@@.+",
"+@@@@@...+@@@@@@@@@@@@@@@@@@@@@@@@@@@@.+",
"+@@@+#.#@@@@@@@@@@@@@@@@@@@@@@@@@@@@@@.+",
"+@@@##+@@@@@@@@@@@@@@@@@@@@@@@@@@@@@@@#+",
"+@@@..@@@@@@@@@@@@@@@@@@@@@@@@@@@@@@@@.+",
"+@@@#.@@@@@@+######+@@@@@@@@@@@@@@@@@@.+",
"+@@@+#.+++#..+@@@@+..#+@@@@@@@@@@@@@@@.+",
"+@@@@+...#+@+##@+##+@@##+@@@@@@@@@@@@@.+",
"+@@@+#.#.+@@@@#.#+@@@@@@##@@@@@@@@@@@@.+",
"+@@.#@@@@##+@##+@@@@@@@@@+#@@@@@@@@@@@#+",
"+@+..+@@@@+.#+@@@@@@@@@@@@@.@@@@@@@@@@.+",
"+@@.#.+@+##+@@@@@@@@@@@@@@@@#+@@@@@@@@.+",
"+@@#@#..#+@@@@@@@@@@@@@@@@@@@#@@@@@@@@.+",
"+@+#@@+##+@@@@@@@@@@@@@@@@@@@+#@@@@@@@.+",
"+@++@@@@@+#@@@@@@@@@@@@@@@@@@@++@@@@@@.+",
"+@@#@@@@@@+#+@@@@@@@@@@@@@@@@@@.@@@@@@#+",
"+@@#@@@@@@@@#+@@@@@@@@@@@@@@@@@++@@@@@.+",
"+@@+#@@@@@@@@#@@@@@@@@@@@@@@@@@@.@@@@@.+",
"+@@@#+@@@@@@@+#@@@@@@@@@@@@@@@@@++@@@@.+",
"+@@@@.@@@@@@@@#@@@@@@@@@@@@@@@@@+#@@@@.+",
"+@@@@+#@@@@@@@++@@@@@@@@@@@@@@@@@#@@@@.+",
"+@@@@@++@@@@@@@.@@@@@@@@@@@@@@@@@#+@@@#+",
"+@@@@@@.@@@@@@@#@@@@@@@@@@@@@@@@@++@@@.+",
"+@@@@@@+#@@@@@@++@@@@@@@@@@@@@@@@@#@@@.+",
"+@@@@@@@#+@@@@@+#@@@@@@@@@@@@@@@@@#@@@.+",
"+@@@@@@@@#+@@@@@#@@@@@@@@@@@@@@@@@#@@@.+",
"+@@@@@@@@@#@@@@@#@@@@@@@@@@@@@@@@@#@@@.+",
"+@@@@@@@@@+#@@@@#@@@@@@@@@@@@@@@@@.@@@#+",
"+@@@@@@@@@@#+@@@#@@@@@@@@@@@@@@@@++@@@.+",
"+@@@@@@@@@@@.@@@#@@@@@@@@@@@@@@@@#@@@@.+",
"+@@@@@@@@@@@+#@@#+@@@@@@@@@@@@@@+#@@@@.+",
"+@@@@@@@@@@@@#+@@#@@@@@@@@@@@@@+#@@@@@.+",
"+@@@@@@@@@@@@@##+++@@@@@@@@@@@+#@@@@@@.+",
"+@@@@@@@@@@@@@@@####@@@@@@@@+.+@@@@@@@#+",
"+@@@@@@@@@@@@@@@@+#..#+++##.+@@@@@@@@@.+",
"+@@@@@@@@@@@@@@@@@@@++++++@@@@@@@@@@@@.+",
"+@@@@@@@@@@@@@@@@@@@@@@@@@@@@@@@@@@@@@.+",
"+@@@@@@@@@@@@@@@@@@@@@@@@@@@@@@@@@@@@@.+",
"+@@@@@@@@@@@@@@@@@@@@@@@@@@@@@@@@@@@@@.+",
"##.#..#..#...........#..........#..#.##+",
"@+++++++++++++++++++++++++++++++++++++++"};
