/* XPM */
static char * image_name[] = {
"56 46 23 1",
" 	c #FFFFFFFFFFFF",
".	c #BEFBBAEABEFB",
"X	c #000000001040",
"o	c #BEFBB6DABEFB",
"O	c #AEBAAAAAAEBA",
"+	c #AEBAA699AEBA",
"@	c #C71BBAEAC71B",
"#	c #8E38861779E7",
"$	c #000000000000",
"%	c #000008200820",
"&	c #AEBA61856185",
"*	c #AEBAAEBAB6DA",
"=	c #AEBAAEBAAEBA",
"-	c #FFFFE79DBEFB",
";	c #9E799A699E79",
":	c #E79DE79DEFBE",
">	c #79E786179E79",
",	c #082004100820",
"<	c #5144A2894924",
"1	c #8E388A288E38",
"2	c #FFFFFFFFC71B",
"3	c #A69979E78E38",
"4	c #861779E78617",
"                                                       .",
" ......................................................X",
" ......................................................X",
" ...o..o..o..o..o..o..o..o..o..o..o..o..o..o..o..o..o..X",
" O...O...+...O...O...+...O...O...+...O...O...+...O...O.X",
" ..o..@o...@o..@o.@o...@o..@o.@o...@o..@o.@o..@o.@o.@o.X",
" O.O.+.O.O.O.O.O.O.O.O.O.O.O.O.O.O.O.O.O.O.O.O.O.O.O.O.X",
" .....O...o...+.......+...o...O...o...+.......O.......OX",
" O.+.+.O.+.O.+.OoO.+.+.O.+.O.+.+.O.O.+.OoO.+.+.OoO.+.O.X",
" ...O...O...O...O...O...O...+...O.o.O...O...O...O...+..X",
" O.+.+.+.+.+.O.+.+.+.OoO.+.O.O.+.O.O.+.O.+.+.OoO.O.+.O.X",
" .O...O.O.O.o.O.O.O...O.O.O.o.O.O.+...+.O.O...O.+.O...OX",
" O.+.O.+.O.O.O.+.O.+.O.+.O.O.O.+.O.O.+.O.+.O.+.O.O.+.+.X",
" .O.+.O.O.+.O.O.O.O.+.O.O.O.+.O.O.+.O.O.O.+.O.O.+.O.O.OX",
" O.O.O.+.O.O.+.O.+.O.O.+.+.O.O.+.O.O.+.O.O.O.+.O.O.+.O.X",
" OO.OOO.OOO.OO+.OOO.OO+#$#%&OOO.OO+.OOO.OO+.OOO.OOO.OOOX",
" O.O.+.O.O.+.O.O.O.+.O$O.+.*%#.+.O.O.O.+.O.O.O.+.O.O.O.X",
" OOOOOOOOOOOOOOOOOOO+#O++O**++$OOOOOOOOOOOOOOOOOOO+OOOOX",
" O.O.O.O.+.O.O.O.+.O.$.+.=.O.=#+.O.O.+.O.O.+.O.O.O.O.O.X",
" OOOOOOOOOOOOOOOOOO$$$$$OOOO*++$OOOOOOOOOOOOOOOOOOOOOOOX",
" OOO.+OO.OOO.+OO.OO$$$$$.OOO.O=#.+OO.OOO.OOO.OOO.OOO.+OX",
" OOOOOOOOOOOOOOOOO$$$$$$$OOOOO++$OOOOOOOOOOOOOOOOOOOOOOX",
" OOOOOOOOOOOOOOO$$$$$$$$$$$OOOO*#+O-OOOOOOO-OOOOOOOOOOOX",
" OOOOOOOOOOOOOO$$$$$$$$$$$$$OOOO$OOOOOO-OO-OOOOOOOOOOOOX",
" ;OOO;OOO;OOO;$$$$$$$$$$$$$$$;OOO#+O-;OOO;OOO;OOO;OOO;OX",
" OOOOOOOOOOOOO$$$$$$$%:&#$$$$OOOO$OOO-OO-OOOOOOOOOOOOOOX",
" OO;O;O;OOO;O$$$$$$$$$%:>#$$$$O;OO#;O;O;OOO;O;O;OOO;O;OX",
" OOOOOOOOOOOO$$$$$$$$$$$$$$$$$OO+++$#$O-O-O-OOOOOOOOOOOX",
" ;O;O;O;O;O;O$$$$$$$$$$$:#&%$$O;O;*;+;O;O;O;O;O;O;O;O;OX",
" OOOOOOOOOOOO$$$$$$$$$$,:<1%$$OOOO++2OOO-OOOOOOOOOOOOOOX",
" ;O;O;O;O;O;O$$$$$$$$$$$:34$$$O;O;O;+;-;O-O;O;O;O;O;O;OX",
" O;OOO;OOO;OO$$$$$$$$$$:1&$$$$;OOO;-++;OOO;OOO;OOO;OOO;X",
" ;O;O;O;O;O;O$$$$$$$$$$:#>%$$$O;O;-;O;-;O;O-O;O;O;O;O;OX",
" O;O;O;O;O;O;O$$$$$$$$:&#$$$$O;O;O;O;O;O;O;O;O;O;O;O;O;X",
" ;O;O;O;O;O;O;$$$$$$$$%X%$$$$;O;O;O;O;-;O;O;O;O;O;O;O;OX",
" ;;O;;;O;;;O;;;$$$$$$$$$$$$$;;;O;;;O;;;O;;;O;;;O;;;O;;;X",
" ;O;O;O;O;O;O;O;$$$$$$$$$$$;O;O;O;O;O;O;O;O;O;O;O;O;O;OX",
" ;;;;;;;;;;;;;;;;;$$$$$$$;;;;;;;;;;;;;;;;;;;;;;;;;;;;;;X",
" ;O;O;O;O;O;O;O;O;O;O;O;O;O;O;O;O;O;O;O;O;O;O;O;O;O;O;OX",
" ;;;;;;;;;;;;;;;;;;;;;;;;;;;;;;;;;;;;;;;;;;;;;;;;;;;;;;X",
" ;;;O;;;O;;;O;;;O;;;O;;;O;;;O;;;O;;;O;;;O;;;O;;;O;;;O;;X",
" ;;;;;;;;;;;;;;;;;;;;;;;;;;;;;;;;;;;;;;;;;;;;;;;;;;;;;;X",
" ;O;;;;;;;O;;;;;;;O;;;;;;;O;;;;;;;O;;;;;;;O;;;;;;;O;;;;X",
" ;;;;;;;;;;;;;;;;;;;;;;;;;;;;;;;;;;;;;;;;;;;;;;;;;;;;;;X",
" ;;;;;;;;;;;;;;;;;;;;;;;;;;;;;;;;;;;;;;;;;;;;;;;;;;;;;;X",
".XXXXXXXXXXXXXXXXXXXXXXXXXXXXXXXXXXXXXXXXXXXXXXXXXXXXXXX"};
