/* XPM */
static char * image_name[] = {
"56 46 25 1",
" 	c #FFFFFFFFFFFF",
".	c #BEFBBAEABEFB",
"X	c #000000001040",
"o	c #BEFBB6DABEFB",
"O	c #AEBAAAAAAEBA",
"+	c #AEBAA699AEBA",
"@	c #C71BBAEAC71B",
"#	c #000000000000",
"$	c #AEBA555528A2",
"%	c #082004100820",
"&	c #AEBA9E795965",
"*	c #FFFF8E380820",
"=	c #CF3C555528A2",
"-	c #000008200820",
";	c #DF7DAEBA69A6",
":	c #AEBAB2CA28A2",
">	c #FFFFAEBA0000",
",	c #AEBA61856185",
"<	c #AEBA59650820",
"1	c #FFFFB6DA1040",
"2	c #9E799A699E79",
"3	c #AEBAAEBAB6DA",
"4	c #000000001861",
"5	c #AEBAAEBAAEBA",
"6	c #A699A289A699",
"                                                       .",
" ......................................................X",
" ......................................................X",
" ...o..o..o..o..o..o..o..o..o..o..o..o..o..o..o..o..o..X",
" O...O...+...O...O...+...O...O...+...O...O...+...O...O.X",
" ..o..@o...@o..@o.@o...@o..@o.@o...@o..@o.@o..@o.@o.@o.X",
" O.O.+.O.O.O.O.O.O.O.O.O.O.O.O.O.O.O.O.O.O.O.O.O.O.O.O.X",
" .....O...o...+.......+...o...O...o...+.......O.......OX",
" O.+.+.O.+.O.+.OoO.+.+.O.###.+.+.O.O.+.OoO.+.+.OoO.+.O.X",
" ...O...O...O...O...O..##$%&##..O.o.O...O...O...O...+..X",
" O.+.+.+.+.+.O.+.+.+.##$$$%*&=-%.O.O.+.O.+.+.OoO.O.+.O.X",
" .O...O.O.O.o.O.O.O##$$$$$#;=;*&##+...+.O.O...O.+.O...OX",
" O.+.O.+.O.O.O.+.##$$$$$$$#*&*&=*&%%.+.O.+.O.+.O.O.+.+.X",
" .O.+.O.O.O.O.O##$$$$$$$$$%&=;=&;*=&##O.O.+.O.O.+.O.O.OX",
" O.O.O.+.+.+.##$$$$$$$$$$#%$*&**=;:=*&%%.O.O.+.O.O.+.O.X",
" OO.OOO.OOO.###$$$$$$$#$#$#;$=$;&*=;&*%##O+.OOO.OOO.OOOX",
" O.O.+.O.O.O#>>##$$#$-$#$##$*$&$=$;=%X>>>#.O.O.+.O.O.O.X",
" OOOOOOOOOOO#>>>>##$#$#$#$%:,=<;$*%->>>>>>#OOOOOOO+OOOOX",
" O.O.O.O.O.O#>>>>>>###$#$#%$*$&=#X1>>>>>>>##.O.O.O.O.O.X",
" OOOOOOO+OOO#>>>>>>>>#####%$$$%#>>>>>>>>##OOOOOOOOOOOOOX",
" OOO.OOO.OOO#>>>>>>>>>>####$X#>>>>>>>>###OOO.OOO.OOO.+OX",
" OOOOOOOOOOO#>>>>>>>>>>>>###>>>>>>>>##$$#OOOOOOOOOOOOOOX",
" OOOOOOOOOOO#>>>>>>>>>>>>>#&%>>>>>##$$$$#OOOOOOOOOOOOOOX",
" OOOOOOOOOOO#>>>>>>>>>>>>>X*$#>>##$$$$=&#OOOOOOOOOOOOOOX",
" 2OOO2OOO2OO#>>>>>>>>>>>>>#&=$-#$$$$$&=*X2OOO2OOO2OOO2OX",
" OOOOOOOOOOO#>>>>>>>>>>>>>%&*;$$$$=:=;*&#OOOOOOOOOOOOOOX",
" OO2O2O2OOO2#>>>>>>>>>>>>>%*&=*$$&=;*&=;%OO2O2O2OOO2O2OX",
" OOOOOOOOOOO#>>>>>>>>>>>>>-=&*&&=;*&=*&*#OOOOOOOOOOOOOOX",
" 2O2O2O2O2O2#>>>>>>>>>>>>>-;=;=1&=*&*&=;#2O2O2O2O2O2O2OX",
" OOOOOOOOOOO#>>>>>>>>>>>>>#*&*;=&*;=;*&*#OOOOOOOOOOOOOOX",
" 2O2O2O2O2O2##>>>>>>>>>>>>#&=*&*;=&*&=;=-2O2O2O2O2O2O2OX",
" O2OOO2OOO2OO##>>>>>>>>>>>%*;=;=&*;=&*#-3O2OOO2OOO2OOO2X",
" 2O2O2O2O2O2O2O##>>>>>>>>>#&*&*&=*&*4X3252O2O2O2O2O2O2OX",
" O2O2O2O2O2O2O2O2##>>>>>>>-=&*=;*&%X2O2O2O2O2O2O2O2O2O2X",
" 2O2O2O2O2O2O2O2O2O##>>>>>-*&=;*X%+2O2O2O2O2O2O2O2O2O2OX",
" 22O222O222O222O222O2##>>>%&*;#%222O222O222O222O222O222X",
" 2O2O2O2O2O2O2O2O2O2O2O##>#*4#62O2O2O2O2O2O2O2O2O2O2O2OX",
" 222222222222222222222222#X4222222222222222222222222222X",
" 2O2O2O2O2O2O2O2O2O2O2O2O2O2O2O2O2O2O2O2O2O2O2O2O2O2O2OX",
" 222222222222222222222222222222222222222222222222222222X",
" 222O222O222O222O222O222O222O222O222O222O222O222O222O22X",
" 222222222222222222222222222222222222222222222222222222X",
" 2O2222222O2222222O2222222O2222222O2222222O2222222O2222X",
" 222222222222222222222222222222222222222222222222222222X",
" 222222222222222222222222222222222222222222222222222222X",
".XXXXXXXXXXXXXXXXXXXXXXXXXXXXXXXXXXXXXXXXXXXXXXXXXXXXXXX"};
