/* XPM */
static char * image_name[] = {
"56 46 22 1",
" 	c #FFFFFFFFFFFF",
".	c #B6DAAEBAB6DA",
"X	c #A699A289A699",
"o	c #BEFBB6DABEFB",
"O	c #000000001040",
"+	c #AEBAAEBAB6DA",
"@	c #AEBAAEBAAEBA",
"#	c #965896589658",
"$	c #A699A699A699",
"%	c #000008200820",
"&	c #000000000000",
"*	c #79E786179E79",
"=	c #BEFBC30BBEFB",
"-	c #BEFB20812081",
";	c #EFBEF3CEF7DE",
":	c #51445555FFFF",
">	c #8E388A288E38",
",	c #9E799A699E79",
"<	c #A6999E79A699",
"1	c #FFFFFBEEFFFF",
"2	c #A69979E78E38",
"3	c #000000001861",
"                                                       .",
" XoXoXoXoXoXoXoXoXoXoXoXoXoXoXoXoXoXoXoXoXoXoXoXoXoXoXoO",
" ......................................................O",
" o+o@o@o@o@o@o@o@o@o@o@o@o@o@o@o@o@o@o@o@o@o@o@o@o@o@o.O",
" #.oo$ooo$ooo$ooo$ooo$ooo$ooo$ooo$ooo$ooo$ooo$ooo$o+o$+O",
" +o@o@o+@o+@o@o+@o+@o@o+@o+@o@o+@o+@o@o+@o+@o@o+@o@oo.oO",
" X.$o$+$o$o$+Xo$o$o$+Xo$o$o$+Xo$o$o$+Xo$o$o$+Xo$o$+$@Xo%",
" +oo@oX.o@o@ooX@o@o@ooX@o@o@ooX@o@o@ooX@o@o@ooX@o@ooo.XO",
" #.$+Xo$+Xo$+$.Xo$+Xo$@@+%%%%&%%%%%%@Xo$+Xo$+$.Xo$+$@X.O",
" +o.$o@o$o+.$oo+$oo.$+o&%&         &%o+.$o+.$o+oX@ooXooO",
" X.$+Xo$+$o$+$@Xo$@Xo%& .&&&      &*.%o$+Xo$+Xo$+Xo$+$+O",
" .$oooX+$oX@ooXoX+X%%  o&&  %.X.X&&&%@%.$oX@=+$oX.$o+oXO",
" #+$@$.Xo$+@+$+$.%%   .&&    &%&&X.X &&%.$.Xo$.$+Xo$+$oO",
" oX.XoX+$.X.$oX%%    .&o&     X.Xo     &%oX.$+$oX+$.X.XO",
" X.Xo$+Xo$+X.%&     .%.%   -  --         &%X.X.$o$o$.X.O",
" XX+$X$oXX$o%      .& X&    --;-           %XXX+X$X+XXXO",
" #o$+X.$+X.$&     .% X&  ----;-            &.Xo$+Xo$o$.O",
" $XXXXXXXXXXX&   X&  X&    ;;--  ::       &XX$XXXX$XXXXO",
" X.X.Xo$.X.X.%  .%  .%      -;     ::     &X.X+Xo$+X+X.O",
" XXXXXXXXXXXXX&X&   X&      -   ::   ::  &XXXXXXXXXXXXXO",
" #XXo$XX+XXX.X&&   X&   ::        ::     &XX.XXX.XXXo$XO",
" XXX$XXXXXXXXX&    X&     ::   ::   ::  &XXXXXXXXXXXXXXO",
" XXXXXXXXXXXX%    X&   ::   ::   ::     &XXXXXXXXXXXXXXO",
" XXXXXXXXXXXX&    X&     ::   ::   ::  &XXXXXXXXXXXXXXXO",
" #XXX#XXX#XXX#&  #&   ::   ::   ::     &X#XXX#XX$#XXX#XO",
" XXXXXXXXXXXXXX& X&     ::   ::   ::  &XXXXXXXXXXXXXXXXO",
" #X#X#X#$XX#X#X#&&   ::   ::   ::     &#XXX#X#X#XXX#X#XO",
" XXXXXXXXXXXXXXXX&     ::   ::   ::  &XXXXXXX$XXXX$XXXXO",
" #X#X>X#X#X#X#X#&        ::   ::     &X#X#X#X#X#X#X#X#XO",
" XXXXXXXXXXXXXXX&          ::   ::  &XXXXXXXXXXXXX,XXXXO",
" #X#X#X#X>X#X>X#X&&          ::     &#X>X#X>X#X#X#X#X>XO",
" X>XXX#XXX#<XX#<XX#&&          ::  &X<#XX<#XXX>XXX#XXX#O",
" #X#X>X>X#X#X#<#X#<#X&&            &X#X#X#<#X#X#X>X#<#XO",
" <#<#X#X#<#<#<#X>X#X#X#&&         &X#<#<#X#<#<#<#X#<#<#O",
" ###<#<#X#<>X#X#X#<#X>X#X&&       &#<#X#<#<#<#<#<#<#X#<O",
" #><###<###X###<###<###X>##&&    &#<##><##>X##><###X>##O",
" #X#<#<#<#<#<#<#<#<#<#<#X#<#X&&  &X#<#X#<#X#<#X#<#<#X#<O",
"1####>########>###>#########>##&&##>###################O",
" #<#<#<#,#<><#<#<#<#<><#<#<#X#<#X#<#<#<#,#<><#<#,#<><#<O",
"1##>##>##########>#####>##>####>######>#######>##>#####O",
" #>#<###<#>#<##><###<###<###<###<>#><###<#>#<###<###<>#O",
"1#####>##>###>#####>##>####>##>########>#>####>###>####O",
" ##>######<#####>#<#####>#<##>,>##<#>#####<#######<#>##O",
" >#####>#>###>#>#####>#>##########>##,>#>##>#>#>#>#####O",
" ###>######2#####>#>#####>#>#>#>####>##############>##>O",
".OOOO3OOOOOO3OOO3OO3O3O3O3O3O3O3OOO3OOO3OOOOOOOOOOO3OOOO"};
