/* XPM */
static char * image_name[] = {
"56 46 11 1",
" 	c #FFFFFFFFFFFF",
".	c #BEFBBAEABEFB",
"X	c #000000001040",
"o	c #BEFBB6DABEFB",
"O	c #AEBAAAAAAEBA",
"+	c #AEBAA699AEBA",
"@	c #C71BBAEAC71B",
"#	c #000000000000",
"$	c #FFFFFFFF0000",
"%	c #FFFF14514103",
"&	c #9E799A699E79",
"                                                       .",
" ......................................................X",
" ......................................................X",
" ...o..o..o..o..o..o..o..o..o..o..o..o..o..o..o..o..o..X",
" O...O...+...O...O...+...O...O...+...O...O...+...O...O.X",
" ..o..@o...@o..@o.@o...@o..@o.@o...@o..@o.@o..@o.@o.@o.X",
" O.O.+.O.O.O.O.O.O.O.O.O.O.O.O.O.O.O.O.O.O.O.O.O.O.O.O.X",
" .....O...o...+.......+...o...O...o...+.......O.......OX",
" O.+.+.O.+.O.+.OoO.+.+.O.+.O.+.+.O.O.+.OoO.+.+.OoO.+.O.X",
" ...O...O...O...O...O...O...+...O.o.O...O...O...O...+..X",
" O.+.+.+.+.+.O.+.+.+.OoO.+.O.O.+.O.O.+.O.+.+.OoO.O.+.O.X",
" .O...O.O.O.o.O.O.O...O.O.O.o.O.O.+...+.O.O...O.+.O...OX",
" O.+.O.+.O.O.O.+.O.+.O.+.O.O.O.+.O.O.+.O.+.O.+.O.O.+.+.X",
" .O.+.O.O.+.O.O.O.O.+.O.O.O.+.O.O.+.O.O.O.+.O.O.+.O.O.OX",
" O.O.O.+.O.O.+.O.+.O##.O$+.O.O%O.O.O.+.O.O.O.+.O.O.+.O.X",
" OO.OOO.OOO.OO+.OOO#OO#.O%O.OO+.OO+.OOO.OO+.OOO.OOO.OOOX",
" O.O.+.O.O.+.O.O.O#O.O.#.O$%.O.O.O.O.O.+.O.O.O.+.O.O.O.X",
" OOOOOOOOOOOOOOOOO#OOO%#$O%+OOOOOOOOOOOOOOOOOOOOOO+OOOOX",
" O.O.O.O.+.O.O.O.O#O.%$O#O%O.O.+.O.+.O.O.O.+.O.O.O.O.O.X",
" OOOOOOOOOOOOOOOO#OOOO%$$#OOO%OOOOOOOO+OOOOOOOOOOOOOOOOX",
" OOO.+OO.OOO.+OO#OOO.O%O%O#O.OOO.OOO.OOO.OOO.OOO.OOO.+OX",
" OOOOOOOOOOOOOO#OOOO%OOOOOO#OOOOOOOOOOOOOOOOOOOOOOOOOOOX",
" OOOOOOOOOOOOOO#OOOO%OOOOOOOOOOOOOOOOOOOOOOOOOOOOOOOOOOX",
" OOOOOOOOOOOOOO#OOOOOOOOOOOOOOOOOOOOOOOOOOOOOOOOOOOOOOOX",
" &OOO&OOO&OOO&O##########################&OOO&OOO&OOO&OX",
" OOOOOOOOOOOOOO#.#%%%%#$O#%%%%%%%#$O#%%%%#OOOOOOOOOOOOOX",
" OO&O&O&OOO&O&O#.#%%%%#&$#%%%%%%%#O$#%%%%#O&O&O&OOO&O&OX",
" OOOOOOOOOOOOO##########O$#########O$#####OOOOOOOOOOOOOX",
" &O&O&O&O&O&O&#.X.#%%%%#$&#%%%%%%%#$O#%%%%#&O&O&O&O&O&OX",
" OOOOOOOOOOOOOX.#.#%%%%#O$#%%%%%%%#O$#%%%%#OOOOOOOOOOOOX",
" &O&O&O&O&O&O&#########$O#########O$######O&O&O&O&O&O&OX",
" O&OOO&OOO&OOOO#.#%%%%#O$#%%%%%%%#$O#%%%%#&OOO&OOO&OOO&X",
" &O&O&O&O&O&O&O#.X%%%%#$O#%%%%%%%#O$#%%%%#O&O&O&O&O&O&OX",
" O&O&O&O&O&O&O&.#########################O&O&O&O&O&O&O&X",
" &O&O&O&O&O&O&O&O&O&O&O&O&O&O&O&O&O&O&O&O&O&O&O&O&O&O&OX",
" &&O&&&O&&&O&&&O&&&O&&&O&&&O&&&O&&&O&&&O&&&O&&&O&&&O&&&X",
" &O&O&O&O&O&O&O&O&O&O&O&O&O&O&O&O&O&O&O&O&O&O&O&O&O&O&OX",
" &&&&&&&&&&&&&&&&&&&&&&&&&&&&&&&&&&&&&&&&&&&&&&&&&&&&&&X",
" &O&O&O&O&O&O&O&O&O&O&O&O&O&O&O&O&O&O&O&O&O&O&O&O&O&O&OX",
" &&&&&&&&&&&&&&&&&&&&&&&&&&&&&&&&&&&&&&&&&&&&&&&&&&&&&&X",
" &&&O&&&O&&&O&&&O&&&O&&&O&&&O&&&O&&&O&&&O&&&O&&&O&&&O&&X",
" &&&&&&&&&&&&&&&&&&&&&&&&&&&&&&&&&&&&&&&&&&&&&&&&&&&&&&X",
" &O&&&&&&&O&&&&&&&O&&&&&&&O&&&&&&&O&&&&&&&O&&&&&&&O&&&&X",
" &&&&&&&&&&&&&&&&&&&&&&&&&&&&&&&&&&&&&&&&&&&&&&&&&&&&&&X",
" &&&&&&&&&&&&&&&&&&&&&&&&&&&&&&&&&&&&&&&&&&&&&&&&&&&&&&X",
".XXXXXXXXXXXXXXXXXXXXXXXXXXXXXXXXXXXXXXXXXXXXXXXXXXXXXXX"};
