/* XPM */
static char * image_name[] = {
"56 46 10 1",
" 	c #FFFFFFFFFFFF",
".	c #BEFBBAEABEFB",
"X	c #000000001040",
"o	c #BEFBB6DABEFB",
"O	c #AEBAAAAAAEBA",
"+	c #AEBAA699AEBA",
"@	c #C71BBAEAC71B",
"#	c #000000000000",
"$	c #FFFFFFFF0000",
"%	c #9E799A699E79",
"                                                       .",
" ......................................................X",
" ......................................................X",
" ...o..o..o..o..o..o..o..o..o..o..o..o..o..o..o..o..o..X",
" O...O...+...O...O...+...O...O...+...O...O...+...O...O.X",
" ..o..@o...@o..@o.@o...@o..@o.@o...@o..@o.@o..@o.@o.@o.X",
" O.O.+.O.O.O.O.O.O.O.O.O.O.O.O.O.O.O.O.O.O.O.O.O.O.O.O.X",
" .....O...o...+.......+...o...O...o...+.......O.......OX",
" O.+.+.O.+.O.+.OoO.+.+.O.+.O.+.+.O.O.+.OoO.+.+.OoO.+.O.X",
" ...O...O...O...O...O...O...+...O.o.O...O...O...O...+..X",
" O.+.+.+.+.+.O.+.+.+.OoO.+.O.O.+.O#####O.+.+.OoO.O.+.O.X",
" .O...O.O.O.o.O.O.O...O.O.Oo..O.##$$$$$##.O...O.+.O...OX",
" O.+.O.+.O.O.O.+.O.+.O.O.O.O.+.#$$$$$$$$$#.+.O.O.O.+.+.X",
" .O.+.O.O.+.O.O.O.O.O.+.+.##O.#$$$$$$$$$$$#.+.O.+.O.O.OX",
" O.O.O.+.O.O.+.O.+.O.+.O.O#$#O#$$$$$$$$$$$#O.O.O.O.+.O.X",
" OO.OOO.OOO.O##############$##$$$$$$$$###$$#OO+.OOO.OOOX",
" O.O.+.O.O.+#$$$$$$$$$$$$$$$$$$$$$$$$#####$#.O.O.+.O.O.X",
" OOOOOOOOOOO#$$$$$$$$$$$$$$$$$$$$$$$$#OOO#$#OOOOOOOOOOOX",
" O.O.O.O.+.O.#$$$$$$$$$$$$$$$$$$$$$$$#.O.#$#.O.O.O.O.O.X",
" OOOOOOOOOOOOO################$$$$$$$$###$$#OOOO+OOO+OOX",
" OOO.+OO.OOO.OO#$$###$$$$##$#O#$$$$$$$$$$$#O.OOO.OOO.OOX",
" OOOOOOOOOOOOOOO##OOO####O##OO#$$$$$$$$$$$#OOOOOOOOOOOOX",
" OOOOOOOOOOOOOOOOOOOOOOOOOOOOOO#$$$$$$$$$#OOOOOOOOOOOOOX",
" OOOOOOOOOOOOOOOOOOOOOOOOOOOOOO###$$$$$###OOOOOOOOOOOOOX",
" %OOO%OOO%OOO%OOO%OOO%OOO%#OO%#############OO%OOO%OOO%OX",
" OOOOOOOOOOOOOOOOOOOOOOOOOO#OO#############OOOOOOOOOOOOX",
" OO%O%O%OOO%O%#########################%###%O%O%OOO%O%OX",
" OOOOOOOOOOOO#########################OOO###OOOOOOOOOOOX",
" %O%O%O%O%O%##########################O%O###O%O%O%O%O%OX",
" OOOOOOOOOOOO#########################OOO###OOOOOOOOOOOX",
" %O%O%O%O%O%O%#########################%###%O%O%O%O%O%OX",
" O%OOO%OOO%OOO%###%#O#######OO#############OOO%OOO%OOO%X",
" %O%O%O%O%O%O%O%#%O%O%#%#%#%O%#############%O%O%O%O%O%OX",
" O%O%O%O%O%O%O%O%O%O%O%O%O%O%O%###########%O%O%O%O%O%O%X",
" %O%O%O%O%O%O%O%O%O%O%O%O%O%O%O%#########%O%O%O%O%O%O%OX",
" %%O%%%O%%%O%%%O%%%O%%%O%%%O%%%O%%%###%O%%%O%%%O%%%O%%%X",
" %O%O%O%O%O%O%O%O%O%O%O%O%O%O%O%O%O%O%O%O%O%O%O%O%O%O%OX",
" %%%%%%%%%%%%%%%%%%%%%%%%%%%%%%%%%%%%%%%%%%%%%%%%%%%%%%X",
" %O%O%O%O%O%O%O%O%O%O%O%O%O%O%O%O%O%O%O%O%O%O%O%O%O%O%OX",
" %%%%%%%%%%%%%%%%%%%%%%%%%%%%%%%%%%%%%%%%%%%%%%%%%%%%%%X",
" %%%O%%%O%%%O%%%O%%%O%%%O%%%O%%%O%%%O%%%O%%%O%%%O%%%O%%X",
" %%%%%%%%%%%%%%%%%%%%%%%%%%%%%%%%%%%%%%%%%%%%%%%%%%%%%%X",
" %O%%%%%%%O%%%%%%%O%%%%%%%O%%%%%%%O%%%%%%%O%%%%%%%O%%%%X",
" %%%%%%%%%%%%%%%%%%%%%%%%%%%%%%%%%%%%%%%%%%%%%%%%%%%%%%X",
" %%%%%%%%%%%%%%%%%%%%%%%%%%%%%%%%%%%%%%%%%%%%%%%%%%%%%%X",
".XXXXXXXXXXXXXXXXXXXXXXXXXXXXXXXXXXXXXXXXXXXXXXXXXXXXXXX"};
