/* XPM */
static char * image_name[] = {
"56 46 26 1",
" 	c #FFFFFFFFFFFF",
".	c #BEFBBAEABEFB",
"X	c #000000001040",
"o	c #BEFBB6DABEFB",
"O	c #AEBAAAAAAEBA",
"+	c #AEBAA699AEBA",
"@	c #C71BBAEAC71B",
"#	c #51445555FFFF",
"$	c #B6DAAEBAB6DA",
"%	c #AEBAAEBAAEBA",
"&	c #FFFF6185FFFF",
"*	c #208124929658",
"=	c #28A25D754924",
"-	c #79E786179E79",
";	c #8E388A288E38",
":	c #F7DEB2CAAEBA",
">	c #861779E78617",
",	c #BEFBC30BCF3C",
"<	c #AEBAAEBAB6DA",
"1	c #000000000000",
"2	c #082004100820",
"3	c #9E799A699E79",
"4	c #000008200820",
"5	c #96589658AEBA",
"6	c #A699A289A699",
"7	c #A699A699A699",
"                                                       .",
" ......................................................X",
" ......................................................X",
" ...o..o..o..o..o..o..o..o..o..o..o..o..o..o..o..o..o..X",
" O...O...+...O...O...+...O...O...+...O...O...+...O...O.X",
" ..o..@o...@o..@o.@o...@o..@o.@o...@o..@o.@o..@o.@o.@o.X",
" O.O.+.O.O.O.O.O.O.O.O.O.O.O.O.O.O.O.O.O.O.O.O.O.O.O.O.X",
" .....O...o...+.......+...o...O...o...+.......O.......OX",
" O.+.+.O.+.O.+.OoO.+.+@#######@$@+.O.+.OoO.+.+.OoO.+.O.X",
" ...O...O...O...Oo..#############.o.O...O...O...O...+..X",
" O.+.+.+.+.+.O.O.O@###############.+.+.O.+.+.OoO.O.+.O.X",
" .O...O.O.O.o.O.%&####*****########...+.O.O...O.+.O...OX",
" O.+.O.+.O.O.O.O@###****=****######-.O.O.+.O.+.O.O.+.+.X",
" .O.+.O.O.O.+.+@###***=======#######O.+.O.+.O.O.+.O.O.OX",
" O.O.O.+.O.O.+.###***===;-@-;=######=O.O.O.O.+.O.O.+.O.X",
" OO.OOO.OO+.O++###**==;@++O.+O######=OO.OO+.OOO.OOO.OOOX",
" O.O.+.O.O.O.O:##*===>,+.O.O.O-#####*-.+.O.O.O.+.O.O.O.X",
" OOOOOOOOOO+++###*===<++OOO-=12#####*-OOOOOOOOOOOO+OOOOX",
" O.O.O.O.O.O@+###**=;+.O.-21111#####*=@O.O.O.+.O.O.O.O.X",
" OOOOOO+OOOO++###**2+<OO-111111#####*=OOOOOOOOOOOOOOOOOX",
" OOO.OOO.OOO.O###**=.+OO2111111#####*=1%.OOO.OOO.OOO.OOX",
" OOOOOOOOOOOO+####*=-OO-111111=####**=1=-OOOOOOOOOOOOOOX",
" OOOOOOOOOOOOO####*=-OO=111111#####*=1111OOOOOOOOOOOOOOX",
" OOOOOOOOOOOO+######=-O111111#####**=1111-OOOOOOOOOOOOOX",
" 3OOO3OOO3OOO3:#######-21111######*==41111OOO3OOO3OOO3OX",
" OOOOOOOOOOO+$$#########=########**=%11111=OOOOOOOOOOOOX",
" OO3O3O3OOO3+5+#################**=-%-1111=3O3O3OOO3O3OX",
" OOOOOOOOOOOO+++###############**=-%O-11111OOOOOOOOOOOOX",
" 3O3O3O3O3O3O3O3O############***==%6%-111113O3O3O3O3O3OX",
" OOOOOOOOOOOOOOOO<;#########**==-%%OO=11111OOOOOOOOOOOOX",
" 3O3O3O3O3O3O3O3O3<-=#*=****===-<3%3=1111113O3O3O3O3O3OX",
" O3OOO3OOO3OOO3OOO3<%%--=====44==--11111111OOO3OOO3OOO3X",
" 3O3O3O3O3O3O3O3O3O3O3<7%3444114111111111113O3O3O3O3O3OX",
" O3O3O3O3O3O3O3O3O3O3O3%3%3111111111111111-O3O3O3O3O3O3X",
" 3O3O3O3O3O3O3O3O3O3O3%3%3%3=111111111111=O3O3O3O3O3O3OX",
" 33O333O333O333O333O333O333%3-1111111111=33O333O333O333X",
" 3O3O3O3O3O3O3O3O3O3O3%3O3%3%3%=11111113O3O3O3O3O3O3O3OX",
" 3333333333333333333333333333333333--333333333333333333X",
" 3O3O3O3O3O3O3O3O3O3O3O3O3O3O3%3%3O3O3O3O3O3O3O3O3O3O3OX",
" 333333333333333333333333333333333333333333333333333333X",
" 333O333O333O333O333O333O333O333O333O333O333O333O333O33X",
" 333333333333333333333333333333333333333333333333333333X",
" 3%3333333O3333333O3333333O3333333O3333333O3333333O3333X",
" 333333333333333333333333333333333333333333333333333333X",
" 333333333333333333333333333333333333333333333333333333X",
".XXXXXXXXXXXXXXXXXXXXXXXXXXXXXXXXXXXXXXXXXXXXXXXXXXXXXXX"};
