#define close_width 16
#define close_height 16
static unsigned char close_bits[] = {
  0xff, 0xff, 0xff, 0xff, 0xe7, 0xe7, 0xc3, 0xc3, 0x83, 0xc1, 0x07, 0xe0,
  0x0f, 0xf0, 0x1f, 0xf8, 0x1f, 0xf8, 0x0f, 0xf0, 0x07, 0xe0, 0x83, 0xc1,
  0xc3, 0xc3, 0xe7, 0xe7, 0xff, 0xff, 0xff, 0xff, };
