#define maximize_pressed_width 16
#define maximize_pressed_height 16
static unsigned char maximize_pressed_bits[] = {
  0xff, 0xff, 0xff, 0xff, 0x03, 0xf8, 0x03, 0xf8, 0x03, 0xc0, 0xfb, 0xc3,
  0xfb, 0xc3, 0xfb, 0xdb, 0xfb, 0xdb, 0xfb, 0xdb, 0xfb, 0xdb, 0x03, 0xd8,
  0xdf, 0xdf, 0x1f, 0xc0, 0xff, 0xff, 0xff, 0xff, };
