#define maximize_width 16
#define maximize_height 16
static unsigned char maximize_bits[] = {
  0xff, 0xff, 0xff, 0xff, 0x03, 0xc0, 0x03, 0xc0, 0x03, 0xc0, 0xfb, 0xdf,
  0xfb, 0xdf, 0xfb, 0xdf, 0xfb, 0xdf, 0xfb, 0xdf, 0xfb, 0xdf, 0xfb, 0xdf,
  0xfb, 0xdf, 0x03, 0xc0, 0xff, 0xff, 0xff, 0xff, };
