#define shade_pressed_width 16
#define shade_pressed_height 16
static unsigned char shade_pressed_bits[] = {
  0xff, 0xff, 0xff, 0xff, 0x03, 0xc0, 0x03, 0xc0, 0x03, 0xc0, 0x7b, 0xde,
  0x7b, 0xde, 0x7b, 0xde, 0x7b, 0xde, 0x0b, 0xd0, 0x1b, 0xd8, 0x3b, 0xdc,
  0x7b, 0xde, 0x03, 0xc0, 0xff, 0xff, 0xff, 0xff, };
