#define stick_width 16
#define stick_height 16
static unsigned char stick_bits[] = {
  0xff, 0xff, 0xff, 0xff, 0x1f, 0xf0, 0x3f, 0xf8, 0x3f, 0xf8, 0x3f, 0xf8,
  0x3f, 0xf8, 0x1f, 0xf0, 0x1f, 0xf0, 0xff, 0xfe, 0xff, 0xfe, 0xff, 0xfe,
  0xff, 0xfe, 0xff, 0xfe, 0xff, 0xff, 0xff, 0xff, };
