#define stick_pressed_width 16
#define stick_pressed_height 16
static unsigned char stick_pressed_bits[] = {
  0xff, 0xff, 0xff, 0xff, 0x7f, 0xfc, 0x3f, 0xf8, 0x1f, 0xf1, 0x1f, 0xf0,
  0x3f, 0xf8, 0x5f, 0xf4, 0x9f, 0xf3, 0x1f, 0xf0, 0x3f, 0xf8, 0x7f, 0xfc,
  0xff, 0xfe, 0xff, 0xfe, 0xff, 0xff, 0xff, 0xff, };
